<?xml version="1.0" encoding="UTF-8" standalone="no"?>
<svg
   xmlns:dc="http://purl.org/dc/elements/1.1/"
   xmlns:cc="http://creativecommons.org/ns#"
   xmlns:rdf="http://www.w3.org/1999/02/22-rdf-syntax-ns#"
   xmlns:svg="http://www.w3.org/2000/svg"
   xmlns="http://www.w3.org/2000/svg"
   xmlns:sodipodi="http://sodipodi.sourceforge.net/DTD/sodipodi-0.dtd"
   xmlns:inkscape="http://www.inkscape.org/namespaces/inkscape"
   width="256"
   height="256"
   viewBox="0 0 67.733332 67.733335"
   version="1.1"
   id="svg8"
   inkscape:version="1.0.1 (3bc2e813f5, 2020-09-07)"
   sodipodi:docname="analysis-mode.svg"
   inkscape:export-filename="C:\Users\keath\Workspace\KMX\elite-streamdeck-icons\analysis-mode.png"
   inkscape:export-xdpi="96"
   inkscape:export-ydpi="96">
  <defs
     id="defs2" />
  <sodipodi:namedview
     id="base"
     pagecolor="#000000"
     bordercolor="#666666"
     borderopacity="1.0"
     inkscape:pageopacity="0"
     inkscape:pageshadow="2"
     inkscape:zoom="5.6"
     inkscape:cx="124.1086"
     inkscape:cy="141.53961"
     inkscape:document-units="px"
     inkscape:current-layer="layer2"
     showgrid="true"
     units="px"
     inkscape:snap-grids="true"
     objecttolerance="10000"
     guidetolerance="10000"
     inkscape:window-width="3840"
     inkscape:window-height="2066"
     inkscape:window-x="3829"
     inkscape:window-y="-11"
     inkscape:window-maximized="1"
     inkscape:document-rotation="0"
     showguides="true">
    <inkscape:grid
       type="xygrid"
       id="grid4623" />
    <sodipodi:guide
       position="-3.96875,62.441667"
       orientation="0,256"
       id="guide3351" />
    <sodipodi:guide
       position="62.177083,70.379167"
       orientation="256,0"
       id="guide3353" />
    <sodipodi:guide
       position="-2.6458333,22.754167"
       orientation="0,-256"
       id="guide3355" />
    <sodipodi:guide
       position="5.2916667,70.379167"
       orientation="-256,0"
       id="guide3357" />
    <sodipodi:guide
       position="0,67.733334"
       orientation="0,256"
       id="guide3359" />
    <sodipodi:guide
       position="67.733334,67.733334"
       orientation="256,0"
       id="guide3361" />
    <sodipodi:guide
       position="67.733334,0"
       orientation="0,-256"
       id="guide3363" />
    <sodipodi:guide
       position="0,0"
       orientation="-256,0"
       id="guide3365" />
    <sodipodi:guide
       position="0,67.733334"
       orientation="0,256"
       id="guide3367" />
    <sodipodi:guide
       position="67.733334,67.733334"
       orientation="256,0"
       id="guide3369" />
    <sodipodi:guide
       position="67.733334,0"
       orientation="0,-256"
       id="guide3371" />
    <sodipodi:guide
       position="0,0"
       orientation="-256,0"
       id="guide3373" />
    <sodipodi:guide
       position="0,67.733334"
       orientation="0,256"
       id="guide3375" />
    <sodipodi:guide
       position="67.733334,67.733334"
       orientation="256,0"
       id="guide3377" />
    <sodipodi:guide
       position="67.733334,0"
       orientation="0,-256"
       id="guide3379" />
    <sodipodi:guide
       position="0,0"
       orientation="-256,0"
       id="guide3381" />
  </sodipodi:namedview>
  <metadata
     id="metadata5">
    <rdf:RDF>
      <cc:Work
         rdf:about="">
        <dc:format>image/svg+xml</dc:format>
        <dc:type
           rdf:resource="http://purl.org/dc/dcmitype/StillImage" />
        <dc:title />
      </cc:Work>
    </rdf:RDF>
  </metadata>
  <g
     inkscape:groupmode="layer"
     id="layer2"
     inkscape:label="Icon">
    <g
       id="g863"
       transform="matrix(1.051282,0,0,1.0769231,-1.7299674,-1.9334938)">
      <rect
         style="fill:none;stroke:#808080;stroke-width:2.38125;stroke-linecap:round;stroke-linejoin:round;stroke-miterlimit:4;stroke-dasharray:none;stroke-opacity:1"
         id="rect1416"
         width="51.59375"
         height="34.395832"
         x="7.9375"
         y="7.9375" />
      <path
         style="fill:none;stroke:#808080;stroke-width:0.264583px;stroke-linecap:butt;stroke-linejoin:miter;stroke-opacity:1"
         d="M 10.583333,15.875 H 56.885416"
         id="path1418" />
      <path
         style="fill:none;stroke:#808080;stroke-width:0.264583px;stroke-linecap:butt;stroke-linejoin:miter;stroke-opacity:1"
         d="M 10.583334,34.395833 H 56.885417"
         id="path1418-2" />
      <path
         style="fill:none;stroke:#808080;stroke-width:0.264583px;stroke-linecap:butt;stroke-linejoin:miter;stroke-opacity:1"
         d="M 10.583334,25.135417 H 56.885417"
         id="path1418-7" />
      <path
         style="fill:none;stroke:#808080;stroke-width:0.264583px;stroke-linecap:butt;stroke-linejoin:miter;stroke-opacity:1"
         d="M 34.395833,39.687499 V 10.583333"
         id="path1418-5" />
      <path
         style="fill:none;stroke:#808080;stroke-width:0.264583px;stroke-linecap:butt;stroke-linejoin:miter;stroke-opacity:1"
         d="M 22.489583,39.6875 V 10.583333"
         id="path1418-5-5" />
      <path
         style="fill:none;stroke:#808080;stroke-width:0.264583px;stroke-linecap:butt;stroke-linejoin:miter;stroke-opacity:1"
         d="M 46.302083,39.6875 V 10.583333"
         id="path1418-5-9" />
      <path
         style="fill:none;stroke:#808080;stroke-width:1.5875;stroke-linecap:round;stroke-linejoin:round;stroke-miterlimit:4;stroke-dasharray:none;stroke-opacity:1"
         d="m 10.583317,25.135417 c 0.0155,0 0.0309,-0.0747 0.0464,-0.0749 0.0154,-10e-5 0.0309,-0.0745 0.0463,-0.0749 0.0155,-3e-4 0.0309,-0.0744 0.0464,-0.0748 0.0154,-5e-4 0.0309,-0.0743 0.0463,-0.0749 0.0155,-6e-4 0.0309,-0.0741 0.0464,-0.0748 0.0154,-8e-4 0.0309,-0.0739 0.0463,-0.0749 0.0155,-9e-4 0.0309,-0.0737 0.0464,-0.0748 0.0154,-0.0011 0.0309,-0.0735 0.0463,-0.0748 0.0155,-0.0013 0.0309,-0.0734 0.0464,-0.0748 0.0154,-0.0014 0.0309,-0.0732 0.0463,-0.0747 0.0155,-0.0016 0.0309,-0.073 0.0464,-0.0748 0.0154,-0.0017 0.0309,-0.0728 0.0463,-0.0746 0.0155,-0.0019 0.0309,-0.0727 0.0464,-0.0747 0.0154,-0.002 0.0309,-0.0724 0.0463,-0.0746 0.0155,-0.0022 0.0309,-0.0722 0.0464,-0.0746 0.0154,-0.0023 0.0309,-0.072 0.0463,-0.0745 0.0155,-0.0025 0.0309,-0.0718 0.0464,-0.0745 0.0154,-0.0027 0.0309,-0.0716 0.0463,-0.0744 0.0155,-0.0028 0.0309,-0.0714 0.0464,-0.0744 0.0154,-0.003 0.0309,-0.0712 0.0463,-0.0743 0.0155,-0.0032 0.0309,-0.071 0.0464,-0.0743 0.0154,-0.0033 0.0308,-0.0707 0.0463,-0.0742 0.0154,-0.0034 0.0309,-0.0705 0.0463,-0.0741 0.0155,-0.0036 0.0309,-0.0703 0.0464,-0.0741 0.0154,-0.0038 0.0309,-0.0701 0.0463,-0.074 0.0155,-0.0039 0.0309,-0.0698 0.0464,-0.0739 0.0154,-0.0041 0.0309,-0.0696 0.0463,-0.0739 0.0155,-0.0042 0.0309,-0.0693 0.0464,-0.0737 0.0154,-0.0044 0.0309,-0.0691 0.0463,-0.0737 0.0155,-0.0046 0.0309,-0.0689 0.0464,-0.0736 0.0154,-0.0047 0.0309,-0.0686 0.0463,-0.0735 0.0155,-0.0049 0.0309,-0.0684 0.0464,-0.0734 0.0154,-0.0051 0.0309,-0.0682 0.0463,-0.0734 0.0155,-0.0051 0.0309,-0.0678 0.0464,-0.0732 0.0154,-0.0053 0.0309,-0.0676 0.0463,-0.0731 0.0155,-0.0055 0.0309,-0.0674 0.0464,-0.073 0.0154,-0.0057 0.0309,-0.0671 0.0463,-0.073 0.0155,-0.0058 0.0309,-0.0668 0.0464,-0.0728 0.0154,-0.0059 0.0309,-0.0665 0.0463,-0.0727 0.0155,-0.0061 0.0309,-0.0663 0.0464,-0.0726 0.0154,-0.0062 0.0309,-0.066 0.0463,-0.0724 0.0155,-0.0065 0.0309,-0.0658 0.0464,-0.0724 0.0154,-0.0066 0.0309,-0.0654 0.0463,-0.0722 0.0155,-0.0067 0.0309,-0.0652 0.0464,-0.0721 0.0154,-0.0069 0.0309,-0.0649 0.0463,-0.072 0.0155,-0.007 0.0309,-0.0646 0.0464,-0.0718 0.0154,-0.0072 0.0309,-0.0643 0.0463,-0.0717 0.0155,-0.0074 0.0309,-0.064 0.0464,-0.0716 0.0154,-0.0075 0.0309,-0.0637 0.0463,-0.0714 0.0155,-0.0077 0.0309,-0.0634 0.0464,-0.0713 0.0154,-0.0078 0.0309,-0.0631 0.0463,-0.0711 0.0155,-0.008 0.0309,-0.0628 0.0464,-0.071 0.0154,-0.0082 0.0309,-0.0625 0.0463,-0.0708 0.0154,-0.0084 0.0309,-0.0623 0.0463,-0.0707 0.0155,-0.0085 0.0309,-0.0619 0.0464,-0.0706 0.0154,-0.0086 0.0309,-0.0615 0.0463,-0.0703 0.0155,-0.0088 0.0309,-0.0613 0.0464,-0.0702 0.0154,-0.009 0.0309,-0.061 0.0463,-0.0701 0.0155,-0.0091 0.0309,-0.0606 0.0464,-0.0698 0.0154,-0.0093 0.0309,-0.0603 0.0463,-0.0697 0.0155,-0.0095 0.0309,-0.06 0.0464,-0.0696 0.0154,-0.0096 0.0309,-0.0596 0.0463,-0.0693 0.0155,-0.0098 0.0309,-0.0593 0.0464,-0.0692 0.0154,-0.0099 0.0309,-0.0589 0.0463,-0.069 0.0155,-0.01 0.0309,-0.0586 0.0464,-0.0688 0.0154,-0.0102 0.0309,-0.0583 0.0463,-0.0686 0.0155,-0.0104 0.0309,-0.0579 0.0464,-0.0684 0.0154,-0.0106 0.0309,-0.0576 0.0463,-0.0683 0.0155,-0.0107 0.0309,-0.0572 0.0464,-0.068 0.0154,-0.0109 0.0309,-0.0569 0.0463,-0.0679 0.0155,-0.011 0.0309,-0.0565 0.0464,-0.0676 0.0154,-0.0112 0.0309,-0.0561 0.0463,-0.0674 0.0155,-0.0113 0.0309,-0.0558 0.0464,-0.0673 0.0154,-0.0114 0.0309,-0.0554 0.0463,-0.067 0.0155,-0.0116 0.0309,-0.055 0.0464,-0.0668 0.0154,-0.0118 0.0309,-0.0547 0.0463,-0.0666 0.0155,-0.0119 0.0309,-0.0543 0.0464,-0.0664 0.0154,-0.0121 0.0309,-0.0539 0.0463,-0.0662 0.0155,-0.0122 0.0309,-0.0535 0.0464,-0.0659 0.0154,-0.0124 0.0309,-0.0532 0.0463,-0.0657 0.0155,-0.0126 0.0309,-0.0528 0.0464,-0.0655 0.0154,-0.0127 0.0309,-0.0524 0.0463,-0.0653 0.0155,-0.0128 0.0309,-0.052 0.0464,-0.065 0.0154,-0.013 0.0309,-0.0516 0.0463,-0.0648 0.0155,-0.0132 0.0309,-0.0512 0.0463,-0.0645 0.0155,-0.0134 0.0309,-0.0509 0.0464,-0.0644 0.0154,-0.0135 0.0309,-0.0504 0.0463,-0.064 0.0155,-0.0137 0.0309,-0.05 0.0464,-0.0639 0.0154,-0.0138 0.0309,-0.0496 0.0463,-0.0635 0.0155,-0.014 0.0309,-0.0492 0.0464,-0.0634 0.0154,-0.0141 0.0309,-0.0488 0.0463,-0.063 0.0155,-0.0143 0.0309,-0.0484 0.0464,-0.0629 0.0154,-0.0144 0.0309,-0.0479 0.0463,-0.0625 0.0155,-0.0146 0.0309,-0.0476 0.0464,-0.0623 0.0154,-0.0148 0.0309,-0.0472 0.0463,-0.0621 0.0155,-0.0149 0.0309,-0.0467 0.0464,-0.0618 0.0154,-0.015 0.0309,-0.0462 0.0463,-0.0615 0.0155,-0.0152 0.0309,-0.0458 0.0464,-0.0612 0.0154,-0.0154 0.0309,-0.0454 0.0463,-0.061 0.0155,-0.0155 0.0309,-0.045 0.0464,-0.0607 0.0154,-0.0157 0.0309,-0.0445 0.0463,-0.0604 0.0155,-0.0158 0.0309,-0.0441 0.0464,-0.0601 0.0154,-0.016 0.0309,-0.0437 0.0463,-0.0599 0.0155,-0.0161 0.0309,-0.0432 0.0464,-0.0595 0.0154,-0.0164 0.0309,-0.0428 0.0463,-0.0593 0.0155,-0.0165 0.0309,-0.0424 0.0464,-0.059 0.0154,-0.0167 0.0309,-0.0419 0.0463,-0.0587 0.0155,-0.0168 0.0309,-0.0415 0.0464,-0.0584 0.0154,-0.017 0.0309,-0.041 0.0463,-0.0581 0.0155,-0.0172 0.0309,-0.0406 0.0464,-0.0579 0.0154,-0.0172 0.0309,-0.04 0.0463,-0.0575 0.0155,-0.0174 0.0309,-0.0396 0.0464,-0.0572 0.0154,-0.0176 0.0309,-0.0392 0.0463,-0.0569 0.0155,-0.0177 0.0309,-0.0387 0.0464,-0.0566 0.0154,-0.0179 0.0309,-0.0382 0.0463,-0.0563 0.0155,-0.018 0.0309,-0.0378 0.0464,-0.056 0.0154,-0.0182 0.0308,-0.0373 0.0463,-0.0556 0.0154,-0.0184 0.0309,-0.0369 0.0463,-0.0554 0.0155,-0.0185 0.0309,-0.0363 0.0464,-0.055 0.0154,-0.0187 0.0309,-0.0359 0.0463,-0.0547 0.0155,-0.0189 0.0309,-0.0354 0.0464,-0.0544 0.0154,-0.019 0.0309,-0.0349 0.0463,-0.0541 0.0155,-0.0191 0.0309,-0.0344 0.0464,-0.0537 0.0154,-0.0193 0.0309,-0.0339 0.0463,-0.0534 0.0155,-0.0195 0.0309,-0.0335 0.0464,-0.0531 0.0154,-0.0196 0.0309,-0.033 0.0463,-0.0527 0.0155,-0.0198 0.0309,-0.0325 0.0464,-0.0524 0.0154,-0.02 0.0309,-0.032 0.0463,-0.0521 0.0155,-0.0201 0.0309,-0.0315 0.0464,-0.0517 0.0154,-0.0203 0.0309,-0.031 0.0463,-0.0514 0.0155,-0.0204 0.0309,-0.0305 0.0464,-0.0511 0.0154,-0.0205 0.0309,-0.03 0.0463,-0.0507 0.0155,-0.0207 0.0309,-0.0294 0.0464,-0.0503 0.0154,-0.0209 0.0309,-0.029 0.0463,-0.05 0.0155,-0.0211 0.0309,-0.0285 0.0464,-0.0497 0.0154,-0.0212 0.0309,-0.0279 0.0463,-0.0493 0.0155,-0.0213 0.0309,-0.0274 0.0464,-0.0489 0.0154,-0.0215 0.0309,-0.0269 0.0463,-0.0486 0.0155,-0.0217 0.0309,-0.0264 0.0464,-0.0482 0.0154,-0.0218 0.0309,-0.0259 0.0463,-0.0479 0.0155,-0.022 0.0309,-0.0254 0.0464,-0.0475 0.0154,-0.0221 0.0309,-0.0248 0.0463,-0.0471 0.0155,-0.0223 0.0309,-0.0243 0.0464,-0.0468 0.0154,-0.0224 0.0309,-0.0238 0.0463,-0.0464 0.0155,-0.0226 0.0309,-0.0233 0.0464,-0.046 0.0154,-0.0228 0.0309,-0.0228 0.0463,-0.0457 0.0155,-0.0229 0.0309,-0.0222 0.0464,-0.0453 0.0154,-0.023 0.0309,-0.0216 0.0463,-0.0449 0.0155,-0.0232 0.0309,-0.0211 0.0463,-0.0445 0.0155,-0.0234 0.0309,-0.0206 0.0464,-0.0441 0.0154,-0.0236 0.0309,-0.0201 0.0463,-0.0438 0.0155,-0.0237 0.0309,-0.0195 0.0464,-0.0434 0.0154,-0.0239 0.0309,-0.019 0.0463,-0.043 0.0155,-0.024 0.0309,-0.0184 0.0464,-0.0426 0.0154,-0.0242 0.0309,-0.0179 0.0463,-0.0422 0.0155,-0.0244 0.0309,-0.0174 0.0464,-0.0419 0.0154,-0.0245 0.0309,-0.0168 0.0463,-0.0414 0.0155,-0.0247 0.0309,-0.0163 0.0464,-0.0411 0.0154,-0.0248 0.0309,-0.0157 0.0463,-0.0406 0.0155,-0.025 0.0309,-0.0152 0.0464,-0.0403 0.0154,-0.0251 0.0309,-0.0146 0.0463,-0.0398 0.0155,-0.0253 0.0309,-0.0141 0.0464,-0.0395 0.0154,-0.0254 0.0309,-0.0135 0.0463,-0.0391 0.0155,-0.0256 0.0309,-0.0129 0.0464,-0.0386 0.0154,-0.0258 0.0309,-0.0124 0.0463,-0.0383 0.0155,-0.0259 0.0309,-0.0118 0.0464,-0.0378 0.0154,-0.0261 0.0309,-0.0113 0.0463,-0.0375 0.0155,-0.0262 0.0309,-0.0106 0.0464,-0.037 0.0154,-0.0264 0.0309,-0.0101 0.0463,-0.0366 0.0155,-0.0266 0.0309,-0.0096 0.0464,-0.0362 0.0154,-0.0267 0.0309,-0.009 0.0463,-0.0358 0.0155,-0.0269 0.0309,-0.0084 0.0464,-0.0354 0.0154,-0.027 0.0309,-0.0078 0.0463,-0.035 0.0155,-0.0272 0.0309,-0.0072 0.0464,-0.0345 0.0154,-0.0274 0.0309,-0.0067 0.0463,-0.0342 0.0155,-0.0274 0.0309,-0.0061 0.0464,-0.0337 0.0154,-0.0276 0.0309,-0.0055 0.0463,-0.0333 0.0155,-0.0278 0.0309,-0.0049 0.0464,-0.0328 0.0154,-0.028 0.0309,-0.0044 0.0463,-0.0325 0.0155,-0.0281 0.0309,-0.0038 0.0464,-0.032 0.0154,-0.0283 0.0308,-0.0032 0.0463,-0.0316 0.0154,-0.0284 0.0309,-0.0026 0.0463,-0.0312 0.0155,-0.0285 0.0309,-0.002 0.0464,-0.0307 0.0154,-0.0287 0.0309,-0.0014 0.0463,-0.0303 0.0155,-0.0289 0.0309,-9e-4 0.0464,-0.0299 0.0154,-0.029 0.0309,-2e-4 0.0463,-0.0294 0.0155,-0.0292 0.0309,3e-4 0.0464,-0.0291 0.0154,-0.0293 0.0309,10e-4 0.0463,-0.0285 0.0155,-0.0295 0.0309,0.0015 0.0464,-0.0282 0.0154,-0.0296 0.0309,0.0022 0.0463,-0.0277 0.0155,-0.0298 0.0309,0.0028 0.0464,-0.0272 0.0154,-0.03 0.0309,0.0033 0.0463,-0.0269 0.0155,-0.0301 0.0309,0.004 0.0464,-0.0263 0.0154,-0.0303 0.0309,0.0045 0.0463,-0.026 0.0155,-0.0304 0.0309,0.0051 0.0464,-0.0255 0.0154,-0.0306 0.0309,0.0057 0.0463,-0.025 0.0155,-0.0308 0.0309,0.0063 0.0464,-0.0247 0.0154,-0.0309 0.0309,0.007 0.0463,-0.0241 0.0155,-0.0311 0.0309,0.0075 0.0464,-0.0237 0.0154,-0.0313 0.0309,0.0081 0.0463,-0.0233 0.0155,-0.0314 0.0309,0.0087 0.0464,-0.0228 0.0154,-0.0316 0.0309,0.0093 0.0463,-0.0224 0.0155,-0.0317 0.0309,0.0099 0.0464,-0.022 0.0154,-0.0318 0.0309,0.0106 0.0463,-0.0214 0.0155,-0.0321 0.0309,0.0111 0.0464,-0.0211 0.0154,-0.0321 0.0309,0.0118 0.0463,-0.0205 0.0155,-0.0324 0.0309,0.0123 0.0464,-0.0201 0.0154,-0.0325 0.0309,0.0129 0.0463,-0.0197 0.0155,-0.0327 0.0309,0.0136 0.0464,-0.0192 0.0154,-0.0328 0.0309,0.0142 0.0463,-0.0188 0.0155,-0.0329 0.0309,0.0148 0.0464,-0.0183 0.0154,-0.0331 0.0309,0.0155 0.0463,-0.0178 0.0154,-0.0333 0.0309,0.016 0.0463,-0.0174 0.0155,-0.0334 0.0309,0.0167 0.0464,-0.0169 0.0154,-0.0336 0.0309,0.0173 0.0463,-0.0165 0.0155,-0.0338 0.0309,0.0179 0.0464,-0.016 0.0154,-0.0339 0.0309,0.0185 0.0463,-0.0155 0.0155,-0.0341 0.0309,0.0191 0.0464,-0.0151 0.0154,-0.0343 0.0309,0.0197 0.0463,-0.0147 0.0155,-0.0343 0.0309,0.0204 0.0464,-0.0141 0.0154,-0.0346 0.0309,0.021 0.0463,-0.0137 0.0155,-0.0347 0.0309,0.0216 0.0464,-0.0133 0.0154,-0.0348 0.0309,0.0223 0.0463,-0.0127 0.0155,-0.035 0.0309,0.0228 0.0464,-0.0123 0.0154,-0.0352 0.0309,0.0234 0.0463,-0.0119 0.0155,-0.0353 0.0309,0.0241 0.0464,-0.0114 0.0154,-0.0354 0.0309,0.0248 0.0463,-0.0109 0.0155,-0.0356 0.0309,0.0254 0.0464,-0.0104 0.0154,-0.0358 0.0309,0.026 0.0463,-0.01 0.0155,-0.0359 0.0309,0.0266 0.0464,-0.0095 0.0154,-0.0361 0.0309,0.0272 0.0463,-0.009 0.0155,-0.0363 0.0309,0.0278 0.0464,-0.0086 0.0154,-0.0364 0.0309,0.0285 0.0463,-0.0081 0.0155,-0.0366 0.0309,0.0291 0.0464,-0.0077 0.0154,-0.0367 0.0309,0.0298 0.0463,-0.0071 0.0155,-0.0369 0.0309,0.0303 0.0464,-0.0067 0.0154,-0.0371 0.0309,0.0309 0.0463,-0.0063 0.0155,-0.0372 0.0309,0.0316 0.0464,-0.0057 0.0154,-0.0374 0.0309,0.0322 0.0463,-0.0053 0.0155,-0.0376 0.0309,0.0328 0.0464,-0.0049 0.0154,-0.0376 0.0309,0.0335 0.0463,-0.0043 0.0155,-0.0378 0.0309,0.0341 0.0464,-0.0039 0.0154,-0.038 0.0309,0.0347 0.0463,-0.0034 0.0155,-0.0382 0.0309,0.0354 0.0464,-0.003 0.0154,-0.0383 0.0308,0.036 0.0463,-0.0024 0.0154,-0.0385 0.0309,0.0366 0.0463,-0.002 0.0155,-0.0386 0.0309,0.0372 0.0464,-0.0016 0.0154,-0.0387 0.0309,0.0379 0.0463,-10e-4 0.0155,-0.0389 0.0309,0.0385 0.0464,-6e-4 0.0154,-0.0391 0.0309,0.0391 0.0463,-10e-5 0.0155,-0.0393 0.0309,0.0397 0.0464,3e-4 0.0154,-0.0394 0.0309,0.0404 0.0463,9e-4 0.0155,-0.0396 0.0309,0.041 0.0464,0.0013 0.0154,-0.0398 0.0309,0.0416 0.0463,0.0017 0.0155,-0.0399 0.0309,0.0423 0.0464,0.0023 0.0154,-0.0401 0.0309,0.0429 0.0463,0.0027 0.0155,-0.0402 0.0309,0.0435 0.0464,0.0031 0.0154,-0.0403 0.0309,0.0442 0.0463,0.0037 0.0155,-0.0405 0.0309,0.0448 0.0464,0.0041 0.0154,-0.0407 0.0309,0.0454 0.0463,0.0046 0.0155,-0.0408 0.0309,0.046 0.0464,0.0051 0.0154,-0.041 0.0309,0.0466 0.0463,0.0055 0.0155,-0.0411 0.0309,0.0473 0.0464,0.006 0.0154,-0.0413 0.0309,0.0479 0.0463,0.0065 0.0155,-0.0415 0.0309,0.0485 0.0464,0.0069 0.0154,-0.0416 0.0309,0.0492 0.0463,0.0074 0.0155,-0.0418 0.0309,0.0498 0.0464,0.0079 0.0154,-0.0419 0.0309,0.0504 0.0463,0.0083 0.0155,-0.0421 0.0309,0.0511 0.0464,0.0088 0.0154,-0.0422 0.0309,0.0517 0.0463,0.0093 0.0155,-0.0424 0.0309,0.0523 0.0464,0.0097 0.0154,-0.0425 0.0309,0.053 0.0463,0.0103 0.0155,-0.0427 0.0309,0.0535 0.0464,0.0106 0.0154,-0.0428 0.0309,0.0542 0.0463,0.0112 0.0155,-0.043 0.0309,0.0548 0.0464,0.0116 0.0154,-0.0432 0.0309,0.0554 0.0463,0.0121 0.0154,-0.0434 0.0309,0.056 0.0463,0.0125 0.0155,-0.0435 0.0309,0.0567 0.0464,0.013 0.0154,-0.0436 0.0309,0.0573 0.0463,0.0135 0.0155,-0.0438 0.0309,0.0579 0.0464,0.0139 0.0154,-0.044 0.0309,0.0585 0.0463,0.0144 0.0155,-0.0441 0.0309,0.0591 0.0464,0.0149 0.0154,-0.0443 0.0309,0.0597 0.0463,0.0153 0.0155,-0.0445 0.0309,0.0603 0.0464,0.0157 0.0154,-0.0445 0.0309,0.061 0.0463,0.0163 0.0155,-0.0448 0.0309,0.0616 0.0464,0.0167 0.0154,-0.0449 0.0309,0.0622 0.0463,0.0171 0.0155,-0.045 0.0309,0.0629 0.0464,0.0176 0.0154,-0.0452 0.0309,0.0635 0.0463,0.0181 0.0155,-0.0454 0.0309,0.0641 0.0464,0.0185 0.0154,-0.0455 0.0309,0.0647 0.0463,0.019 0.0155,-0.0457 0.0309,0.0653 0.0464,0.0195 0.0154,-0.0459 0.0309,0.0659 0.0463,0.0199 0.0155,-0.046 0.0309,0.0665 0.0464,0.0203 0.0154,-0.0462 0.0309,0.0671 0.0463,0.0208 0.0155,-0.0463 0.0309,0.0677 0.0464,0.0213 0.0154,-0.0465 0.0309,0.0683 0.0463,0.0217 0.0155,-0.0467 0.0309,0.0689 0.0464,0.0221 0.0154,-0.0468 0.0309,0.0695 0.0463,0.0226 0.0155,-0.0469 0.0309,0.0702 0.0464,0.0231 0.0154,-0.0471 0.0309,0.0707 0.0463,0.0235 0.0155,-0.0473 0.0309,0.0713 0.0464,0.0239 0.0154,-0.0474 0.0309,0.072 0.0463,0.0244 0.0155,-0.0476 0.0309,0.0726 0.0464,0.0248 0.0154,-0.0477 0.0309,0.0732 0.0463,0.0253 0.0155,-0.0479 0.0309,0.0738 0.0464,0.0257 0.0154,-0.048 0.0309,0.0744 0.0463,0.0262 0.0155,-0.0482 0.0309,0.075 0.0463,0.0266 0.0155,-0.0484 0.0309,0.0756 0.0464,0.027 0.0154,-0.0485 0.0309,0.0762 0.0463,0.0275 0.0155,-0.0486 0.0309,0.0768 0.0464,0.028 0.0154,-0.0489 0.0309,0.0773 0.0463,0.0283 0.0155,-0.049 0.0309,0.0779 0.0464,0.0288 0.0154,-0.0491 0.0309,0.0785 0.0463,0.0292 0.0155,-0.0493 0.0309,0.0791 0.0464,0.0297 0.0154,-0.0495 0.0309,0.0797 0.0463,0.0301 0.0155,-0.0496 0.0309,0.0803 0.0464,0.0305 0.0154,-0.0498 0.0309,0.0809 0.0463,0.031 0.0155,-0.05 0.0309,0.0814 0.0464,0.0313 0.0154,-0.05 0.0309,0.0821 0.0463,0.0318 0.0155,-0.0502 0.0309,0.0827 0.0464,0.0323 0.0154,-0.0504 0.0309,0.0832 0.0463,0.0326 0.0155,-0.0505 0.0309,0.0838 0.0464,0.0331 0.0154,-0.0507 0.0309,0.0844 0.0463,0.0335 0.0155,-0.0509 0.0309,0.085 0.0464,0.0339 0.0154,-0.051 0.0309,0.0856 0.0463,0.0344 0.0155,-0.0512 0.0309,0.0861 0.0464,0.0347 0.0154,-0.0513 0.0309,0.0867 0.0463,0.0352 0.0155,-0.0515 0.0309,0.0873 0.0464,0.0356 0.0154,-0.0516 0.0309,0.0878 0.0463,0.036 0.0155,-0.0518 0.0309,0.0884 0.0464,0.0364 0.0154,-0.0519 0.0309,0.089 0.0463,0.0369 0.0155,-0.0522 0.0309,0.0895 0.0464,0.0372 0.0154,-0.0523 0.0309,0.0901 0.0463,0.0376 0.0155,-0.0524 0.0309,0.0907 0.0464,0.0381 0.0154,-0.0526 0.0309,0.0912 0.0463,0.0385 0.0155,-0.0528 0.0309,0.0917 0.0464,0.0388 0.0154,-0.0529 0.0309,0.0923 0.0463,0.0393 0.0155,-0.0531 0.0309,0.0929 0.0464,0.0396 0.0154,-0.0532 0.0308,0.0935 0.0463,0.0401 0.0154,-0.0534 0.0309,0.094 0.0463,0.0405 0.0155,-0.0536 0.0309,0.0945 0.0464,0.0408 0.0154,-0.0537 0.0309,0.0951 0.0463,0.0413 0.0155,-0.0539 0.0309,0.0956 0.0464,0.0416 0.0154,-0.054 0.0309,0.0962 0.0463,0.042 0.0155,-0.0541 0.0309,0.0968 0.0464,0.0425 0.0154,-0.0544 0.0309,0.0972 0.0463,0.0428 0.0155,-0.0545 0.0309,0.0978 0.0464,0.0431 0.0154,-0.0546 0.0309,0.0984 0.0463,0.0436 0.0155,-0.0548 0.0309,0.0989 0.0464,0.044 0.0154,-0.055 0.0309,0.0994 0.0463,0.0443 0.0155,-0.0551 0.0309,0.1 0.0464,0.0447 0.0154,-0.0552 0.0309,0.1006 0.0463,0.0451 0.0155,-0.0554 0.0309,0.1011 0.0464,0.0455 0.0154,-0.0556 0.0309,0.1016 0.0463,0.0458 0.0155,-0.0557 0.0309,0.1022 0.0464,0.0463 0.0154,-0.0559 0.0309,0.1026 0.0463,0.0465 0.0155,-0.056 0.0309,0.1032 0.0464,0.047 0.0154,-0.0562 0.0309,0.1037 0.0463,0.0473 0.0155,-0.0563 0.0309,0.1042 0.0464,0.0477 0.0154,-0.0565 0.0309,0.1047 0.0463,0.048 0.0155,-0.0566 0.0309,0.1053 0.0464,0.0484 0.0154,-0.0568 0.0309,0.1058 0.0463,0.0488 0.0155,-0.057 0.0309,0.1063 0.0464,0.0491 0.0154,-0.0571 0.0309,0.1068 0.0463,0.0495 0.0155,-0.0573 0.0309,0.1073 0.0464,0.0498 0.0154,-0.0574 0.0309,0.1078 0.0463,0.0502 0.0155,-0.0576 0.0309,0.1083 0.0464,0.0505 0.0154,-0.0577 0.0309,0.1088 0.0463,0.0509 0.0155,-0.0579 0.0309,0.1093 0.0464,0.0512 0.0154,-0.0581 0.0309,0.1098 0.0463,0.0516 0.0155,-0.0583 0.0309,0.1103 0.0463,0.0519 0.0155,-0.0584 0.0309,0.1108 0.0464,0.0522 0.0154,-0.0585 0.0309,0.1113 0.0463,0.0526 0.0155,-0.0587 0.0309,0.1118 0.0464,0.0529 0.0154,-0.0589 0.0309,0.1123 0.0463,0.0532 0.0155,-0.059 0.0309,0.1128 0.0464,0.0536 0.0154,-0.0592 0.0309,0.1133 0.0463,0.0539 0.0155,-0.0593 0.0309,0.1137 0.0464,0.0542 0.0154,-0.0595 0.0309,0.1142 0.0463,0.0546 0.0155,-0.0597 0.0309,0.1147 0.0464,0.0549 0.0154,-0.0599 0.0309,0.1151 0.0463,0.0552 0.0155,-0.06 0.0309,0.1156 0.0464,0.0555 0.0154,-0.0602 0.0309,0.1161 0.0463,0.0558 0.0155,-0.0603 0.0309,0.1166 0.0464,0.0561 0.0154,-0.0604 0.0309,0.1171 0.0463,0.0565 0.0155,-0.0606 0.0309,0.1175 0.0464,0.0567 0.0154,-0.0607 0.0309,0.118 0.0463,0.0571 0.0155,-0.0609 0.0309,0.1184 0.0464,0.0573 0.0154,-0.061 0.0309,0.1189 0.0463,0.0577 0.0155,-0.0612 0.0309,0.1194 0.0464,0.058 0.0154,-0.0614 0.0309,0.1198 0.0463,0.0582 0.0155,-0.0615 0.0309,0.1203 0.0464,0.0586 0.0154,-0.0617 0.0309,0.1207 0.0463,0.0588 0.0155,-0.0618 0.0309,0.1212 0.0464,0.0592 0.0154,-0.062 0.0309,0.1216 0.0463,0.0594 0.0155,-0.0622 0.0309,0.1221 0.0464,0.0597 0.0154,-0.0623 0.0309,0.1225 0.0463,0.06 0.0155,-0.0625 0.0309,0.1229 0.0464,0.0603 0.0154,-0.0626 0.0309,0.1233 0.0463,0.0606 0.0155,-0.0628 0.0309,0.1237 0.0464,0.0608 0.0154,-0.063 0.0309,0.1242 0.0463,0.0611 0.0155,-0.0631 0.0309,0.1246 0.0464,0.0614 0.0154,-0.0633 0.0308,0.125 0.0463,0.0616 0.0154,-0.0634 0.0309,0.1255 0.0463,0.0619 0.0155,-0.0636 0.0309,0.1259 0.0464,0.0622 0.0154,-0.0638 0.0309,0.1263 0.0463,0.0624 0.0155,-0.0639 0.0309,0.1268 0.0464,0.0627 0.0154,-0.064 0.0309,0.1272 0.0463,0.063 0.0155,-0.0642 0.0309,0.1275 0.0464,0.0632 0.0154,-0.0644 0.0309,0.128 0.0463,0.0634 0.0155,-0.0645 0.0309,0.1284 0.0464,0.0637 0.0154,-0.0647 0.0309,0.1288 0.0463,0.064 0.0155,-0.0649 0.0309,0.1292 0.0464,0.0642 0.0154,-0.065 0.0309,0.1296 0.0463,0.0644 0.0155,-0.0651 0.0309,0.13 0.0464,0.0647 0.0154,-0.0653 0.0309,0.1304 0.0463,0.0649 0.0155,-0.0655 0.0309,0.1308 0.0464,0.0651 0.0154,-0.0656 0.0309,0.1312 0.0463,0.0654 0.0155,-0.0658 0.0309,0.1316 0.0464,0.0656 0.0154,-0.0659 0.0309,0.1319 0.0463,0.0658 0.0155,-0.0661 0.0309,0.1323 0.0464,0.0661 0.0154,-0.0663 0.0309,0.1327 0.0463,0.0663 0.0155,-0.0664 0.0309,0.133 0.0464,0.0665 0.0154,-0.0666 0.0309,0.1334 0.0463,0.0667 0.0155,-0.0668 0.0309,0.1338 0.0464,0.0669 0.0154,-0.0669 0.0309,0.1341 0.0463,0.0671 0.0155,-0.067 0.0309,0.1345 0.0464,0.0673 0.0154,-0.0671 0.0309,0.1349 0.0463,0.0676 0.0155,-0.0674 0.0309,0.1352 0.0464,0.0677 0.0154,-0.0675 0.0309,0.1356 0.0463,0.068 0.0155,-0.0677 0.0309,0.1359 0.0464,0.0681 0.0154,-0.0678 0.0309,0.1363 0.0463,0.0683 0.0155,-0.0679 0.0309,0.1367 0.0464,0.0686 0.0154,-0.0682 0.0309,0.137 0.0463,0.0687 0.0154,-0.0683 0.0309,0.1373 0.0463,0.0689 0.0155,-0.0685 0.0309,0.1377 0.0464,0.0691 0.0154,-0.0686 0.0309,0.138 0.0463,0.0692 0.0155,-0.0687 0.0309,0.1384 0.0464,0.0695 0.0154,-0.069 0.0309,0.1387 0.0463,0.0696 0.0155,-0.0691 0.0309,0.139 0.0464,0.0698 0.0154,-0.0693 0.0309,0.1393 0.0463,0.0699 0.0155,-0.0694 0.0309,0.1397 0.0464,0.0701 0.0154,-0.0695 0.0309,0.14 0.0463,0.0703 0.0155,-0.0697 0.0309,0.1403 0.0464,0.0705 0.0154,-0.0699 0.0309,0.1406 0.0463,0.0706 0.0155,-0.07 0.0309,0.1409 0.0464,0.0708 0.0154,-0.0702 0.0309,0.1412 0.0463,0.0709 0.0155,-0.0704 0.0309,0.1415 0.0464,0.071 0.0154,-0.0705 0.0309,0.1419 0.0463,0.0712 0.0155,-0.0706 0.0309,0.1422 0.0464,0.0714 0.0154,-0.0708 0.0309,0.1425 0.0463,0.0715 0.0155,-0.071 0.0309,0.1428 0.0464,0.0716 0.0154,-0.0711 0.0309,0.1431 0.0463,0.0718 0.0155,-0.0713 0.0309,0.1433 0.0464,0.0719 0.0154,-0.0714 0.0309,0.1436 0.0463,0.072 0.0155,-0.0715 0.0309,0.144 0.0464,0.0722 0.0154,-0.0717 0.0309,0.1442 0.0463,0.0723 0.0155,-0.0719 0.0309,0.1445 0.0464,0.0724 0.0154,-0.0721 0.0309,0.1447 0.0463,0.0725 0.0155,-0.0722 0.0309,0.145 0.0464,0.0727 0.0154,-0.0724 0.0309,0.1453 0.0463,0.0727 0.0155,-0.0725 0.0309,0.1456 0.0464,0.0729 0.0154,-0.0727 0.0309,0.1458 0.0463,0.073 0.0155,-0.0729 0.0309,0.146 0.0464,0.073 0.0154,-0.073 0.0309,0.1464 0.0463,0.0732 0.0155,-0.0731 0.0309,0.1466 0.0464,0.0733 0.0154,-0.0733 0.0308,0.1468 0.0463,0.0734 0.0154,-0.0735 0.0309,0.1471 0.0463,0.0734 0.0155,-0.0736 0.0309,0.1474 0.0464,0.0736 0.0154,-0.0738 0.0309,0.1476 0.0463,0.0736 0.0155,-0.0739 0.0309,0.1479 0.0464,0.0738 0.0154,-0.0741 0.0309,0.148 0.0463,0.0738 0.0155,-0.0743 0.0309,0.1483 0.0464,0.0738 0.0154,-0.0744 0.0309,0.1486 0.0463,0.074 0.0155,-0.0746 0.0309,0.1488 0.0464,0.074 0.0154,-0.0747 0.0309,0.149 0.0463,0.0741 0.0155,-0.0748 0.0309,0.1493 0.0464,0.0742 0.0154,-0.075 0.0309,0.1494 0.0463,0.0742 0.0155,-0.0752 0.0309,0.1497 0.0464,0.0743 0.0154,-0.0753 0.0309,0.1499 0.0463,0.0744 0.0155,-0.0755 0.0309,0.1501 0.0464,0.0744 0.0154,-0.0757 0.0309,0.1503 0.0463,0.0744 0.0155,-0.0758 0.0309,0.1505 0.0464,0.0745 0.0154,-0.0759 0.0309,0.1507 0.0463,0.0746 0.0155,-0.0761 0.0309,0.1509 0.0464,0.0746 0.0154,-0.0763 0.0309,0.1511 0.0463,0.0746 0.0155,-0.0764 0.0309,0.1513 0.0464,0.0747 0.0154,-0.0766 0.0309,0.1515 0.0463,0.0747 0.0155,-0.0768 0.0309,0.1517 0.0464,0.0747 0.0154,-0.0769 0.0309,0.1519 0.0463,0.0748 0.0155,-0.0771 0.0309,0.152 0.0464,0.0748 0.0154,-0.0772 0.0309,0.1522 0.0463,0.0748 0.0155,-0.0774 0.0309,0.1524 0.0464,0.0748 0.0154,-0.0775 0.0309,0.1526 0.0463,0.0749 0.0155,-0.0777 0.0309,0.1527 0.0464,0.0748 0.0154,-0.0778 0.0309,0.1529 0.0463,0.0749 0.0155,-0.078 0.0309,0.1531 0.0464,0.0749 0.0154,-0.0782 0.0309,0.1532 0.0463,0.0749 0.0154,-0.0784 0.0309,0.1534 0.0463,0.0749 0.0155,-0.0785 0.0309,0.1535 0.0464,0.0748 0.0154,-0.0786 0.0309,0.1537 0.0463,0.0749 0.0155,-0.0788 0.0309,0.1539 0.0464,0.0749 0.0154,-0.079 0.0309,0.154 0.0463,0.0748 0.0155,-0.0791 0.0309,0.1542 0.0464,0.0749 0.0154,-0.0793 0.0309,0.1543 0.0463,0.0748 0.0155,-0.0794 0.0309,0.1544 0.0464,0.0748 0.0154,-0.0796 0.0309,0.1546 0.0463,0.0748 0.0155,-0.0797 0.0309,0.1547 0.0464,0.0748 0.0154,-0.0799 0.0309,0.1548 0.0463,0.0747 0.0155,-0.08 0.0309,0.155 0.0464,0.0747 0.0154,-0.0802 0.0309,0.1551 0.0463,0.0747 0.0155,-0.0804 0.0309,0.1552 0.0464,0.0746 0.0154,-0.0805 0.0309,0.1553 0.0463,0.0746 0.0155,-0.0807 0.0309,0.1554 0.0464,0.0746 0.0154,-0.0809 0.0309,0.1555 0.0463,0.0745 0.0155,-0.081 0.0309,0.1556 0.0464,0.0744 0.0154,-0.0811 0.0309,0.1558 0.0463,0.0744 0.0155,-0.0813 0.0309,0.1559 0.0464,0.0744 0.0154,-0.0815 0.0309,0.1559 0.0463,0.0743 0.0155,-0.0816 0.0309,0.156 0.0464,0.0742 0.0154,-0.0818 0.0309,0.1561 0.0463,0.0742 0.0155,-0.082 0.0309,0.1562 0.0464,0.0741 0.0154,-0.0821 0.0309,0.1563 0.0463,0.074 0.0155,-0.0822 0.0309,0.1564 0.0464,0.074 0.0154,-0.0824 0.0309,0.1564 0.0463,0.0739 0.0155,-0.0826 0.0309,0.1565 0.0464,0.0738 0.0154,-0.0828 0.0309,0.1566 0.0463,0.0737 0.0155,-0.0829 0.0309,0.1567 0.0464,0.0736 0.0154,-0.083 0.0309,0.1568 0.0463,0.0736 0.0155,-0.0832 0.0309,0.1568 0.0463,0.0735 0.0155,-0.0834 0.0309,0.1569 0.0464,0.0733 0.0154,-0.0835 0.0309,0.157 0.0463,0.0733 0.0155,-0.0837 0.0309,0.157 0.0464,0.0732 0.0154,-0.0838 0.0309,0.1571 0.0463,0.0731 0.0155,-0.084 0.0309,0.1571 0.0464,0.0729 0.0154,-0.0841 0.0309,0.1572 0.0463,0.0729 0.0155,-0.0843 0.0309,0.1572 0.0464,0.0728 0.0154,-0.0845 0.0309,0.1572 0.0463,0.0726 0.0155,-0.0846 0.0309,0.1573 0.0464,0.0725 0.0154,-0.0847 0.0309,0.1574 0.0463,0.0724 0.0155,-0.0849 0.0309,0.1574 0.0464,0.0723 0.0154,-0.0851 0.0309,0.1574 0.0463,0.0722 0.0155,-0.0853 0.0309,0.1574 0.0464,0.072 0.0154,-0.0854 0.0309,0.1575 0.0463,0.0719 0.0155,-0.0855 0.0309,0.1575 0.0464,0.0718 0.0154,-0.0857 0.0309,0.1575 0.0463,0.0716 0.0155,-0.0858 0.0309,0.1576 0.0464,0.0715 0.0154,-0.086 0.0309,0.1576 0.0463,0.0714 0.0155,-0.0862 0.0309,0.1575 0.0464,0.0712 0.0154,-0.0864 0.0309,0.1576 0.0463,0.0711 0.0155,-0.0865 0.0309,0.1575 0.0464,0.0709 0.0154,-0.0867 0.0309,0.1576 0.0463,0.0707 0.0155,-0.0868 0.0309,0.1576 0.0464,0.0706 0.0154,-0.0869 0.0309,0.1576 0.0463,0.0705 0.0155,-0.0871 0.0309,0.1576 0.0464,0.0703 0.0154,-0.0873 0.0309,0.1575 0.0463,0.0701 0.0155,-0.0874 0.0309,0.1576 0.0464,0.07 0.0154,-0.0876 0.0309,0.1575 0.0463,0.0697 0.0155,-0.0877 0.0309,0.1576 0.0464,0.0697 0.0154,-0.088 0.0309,0.1575 0.0463,0.0694 0.0155,-0.0881 0.0309,0.1575 0.0464,0.0693 0.0154,-0.0883 0.0308,0.1574 0.0463,0.069 0.0154,-0.0883 0.0309,0.1575 0.0463,0.0689 0.0155,-0.0885 0.0309,0.1575 0.0464,0.0688 0.0154,-0.0887 0.0309,0.1573 0.0463,0.0685 0.0155,-0.0889 0.0309,0.1573 0.0464,0.0683 0.0154,-0.089 0.0309,0.1573 0.0463,0.0682 0.0155,-0.0892 0.0309,0.1572 0.0464,0.0679 0.0154,-0.0893 0.0309,0.1572 0.0463,0.0677 0.0155,-0.0894 0.0309,0.1572 0.0464,0.0676 0.0154,-0.0897 0.0309,0.1571 0.0463,0.0673 0.0155,-0.0898 0.0309,0.1571 0.0464,0.0671 0.0154,-0.0899 0.0309,0.1571 0.0463,0.067 0.0155,-0.0902 0.0309,0.1569 0.0464,0.0667 0.0154,-0.0903 0.0309,0.1569 0.0463,0.0665 0.0155,-0.0905 0.0309,0.1568 0.0464,0.0662 0.0154,-0.0906 0.0309,0.1568 0.0463,0.0661 0.0155,-0.0908 0.0309,0.1567 0.0464,0.0658 0.0154,-0.0909 0.0309,0.1567 0.0463,0.0656 0.0155,-0.091 0.0309,0.1566 0.0464,0.0654 0.0154,-0.0912 0.0309,0.1565 0.0463,0.0651 0.0155,-0.0913 0.0309,0.1565 0.0464,0.0649 0.0154,-0.0915 0.0309,0.1564 0.0463,0.0647 0.0155,-0.0917 0.0309,0.1563 0.0464,0.0645 0.0154,-0.0919 0.0309,0.1561 0.0463,0.0641 0.0155,-0.092 0.0309,0.1562 0.0464,0.064 0.0154,-0.0922 0.0309,0.156 0.0463,0.0637 0.0155,-0.0923 0.0309,0.1559 0.0464,0.0635 0.0154,-0.0925 0.0309,0.1558 0.0463,0.0632 0.0155,-0.0927 0.0309,0.1557 0.0464,0.0629 0.0154,-0.0928 0.0309,0.1556 0.0463,0.0627 0.0155,-0.0929 0.0309,0.1555 0.0464,0.0624 0.0154,-0.0931 0.0309,0.1555 0.0463,0.0622 0.0155,-0.0932 0.0309,0.1553 0.0463,0.0619 0.0155,-0.0934 0.0309,0.1552 0.0464,0.0617 0.0154,-0.0936 0.0309,0.1551 0.0463,0.0613 0.0155,-0.0937 0.0309,0.155 0.0464,0.0611 0.0154,-0.0938 0.0309,0.1549 0.0463,0.0609 0.0155,-0.0941 0.0309,0.1547 0.0464,0.0605 0.0154,-0.0942 0.0309,0.1547 0.0463,0.0603 0.0155,-0.0943 0.0309,0.1545 0.0464,0.06 0.0154,-0.0945 0.0309,0.1544 0.0463,0.0597 0.0155,-0.0947 0.0309,0.1543 0.0464,0.0594 0.0154,-0.0948 0.0309,0.1542 0.0463,0.0592 0.0155,-0.095 0.0309,0.154 0.0464,0.0588 0.0154,-0.0951 0.0309,0.1539 0.0463,0.0586 0.0155,-0.0953 0.0309,0.1537 0.0464,0.0583 0.0154,-0.0955 0.0309,0.1535 0.0463,0.0579 0.0155,-0.0956 0.0309,0.1535 0.0464,0.0577 0.0154,-0.0958 0.0309,0.1533 0.0463,0.0573 0.0155,-0.0959 0.0309,0.1532 0.0464,0.0571 0.0154,-0.0961 0.0309,0.153 0.0463,0.0568 0.0155,-0.0963 0.0309,0.1528 0.0464,0.0564 0.0154,-0.0964 0.0309,0.1527 0.0463,0.0561 0.0155,-0.0965 0.0309,0.1526 0.0464,0.0559 0.0154,-0.0967 0.0309,0.1523 0.0463,0.0555 0.0155,-0.0969 0.0309,0.1522 0.0464,0.0552 0.0154,-0.0971 0.0309,0.152 0.0463,0.0548 0.0155,-0.0971 0.0309,0.1519 0.0464,0.0546 0.0154,-0.0974 0.0309,0.1517 0.0463,0.0542 0.0155,-0.0975 0.0309,0.1516 0.0464,0.0539 0.0154,-0.0976 0.0309,0.1514 0.0463,0.0536 0.0155,-0.0978 0.0309,0.1512 0.0464,0.0532 0.0154,-0.0979 0.0309,0.1511 0.0463,0.0529 0.0155,-0.0981 0.0309,0.1509 0.0464,0.0526 0.0154,-0.0983 0.0308,0.1507 0.0463,0.0522 0.0154,-0.0984 0.0309,0.1505 0.0463,0.0519 0.0155,-0.0985 0.0309,0.1504 0.0464,0.0516 0.0154,-0.0987 0.0309,0.1501 0.0463,0.0512 0.0155,-0.0989 0.0309,0.15 0.0464,0.0509 0.0154,-0.0991 0.0309,0.1497 0.0463,0.0505 0.0155,-0.0992 0.0309,0.1496 0.0464,0.0502 0.0154,-0.0994 0.0309,0.1494 0.0463,0.0498 0.0155,-0.0995 0.0309,0.1492 0.0464,0.0495 0.0154,-0.0997 0.0309,0.149 0.0463,0.0491 0.0155,-0.0998 0.0309,0.1488 0.0464,0.0488 0.0154,-0.1 0.0309,0.1485 0.0463,0.0484 0.0155,-0.1002 0.0309,0.1483 0.0464,0.048 0.0154,-0.1003 0.0309,0.1482 0.0463,0.0477 0.0155,-0.1005 0.0309,0.148 0.0464,0.0473 0.0154,-0.1006 0.0309,0.1478 0.0463,0.047 0.0155,-0.1008 0.0309,0.1475 0.0464,0.0466 0.0154,-0.101 0.0309,0.1473 0.0463,0.0462 0.0155,-0.1011 0.0309,0.1471 0.0464,0.0458 0.0154,-0.1012 0.0309,0.1469 0.0463,0.0455 0.0155,-0.1014 0.0309,0.1467 0.0464,0.0451 0.0154,-0.1016 0.0309,0.1464 0.0463,0.0447 0.0155,-0.1017 0.0309,0.1462 0.0464,0.0443 0.0154,-0.1018 0.0309,0.146 0.0463,0.044 0.0155,-0.102 0.0309,0.1458 0.0464,0.0436 0.0154,-0.1022 0.0309,0.1455 0.0463,0.0432 0.0155,-0.1024 0.0309,0.1453 0.0464,0.0428 0.0154,-0.1025 0.0309,0.1451 0.0463,0.0424 0.0155,-0.1027 0.0309,0.1449 0.0464,0.042 0.0154,-0.1028 0.0309,0.1447 0.0463,0.0417 0.0155,-0.103 0.0309,0.1444 0.0464,0.0412 0.0154,-0.1031 0.0309,0.1442 0.0463,0.0409 0.0154,-0.1033 0.0309,0.1439 0.0463,0.0404 0.0155,-0.1034 0.0309,0.1437 0.0464,0.0401 0.0154,-0.1036 0.0309,0.1434 0.0463,0.0397 0.0155,-0.1038 0.0309,0.1431 0.0464,0.0392 0.0154,-0.1039 0.0309,0.143 0.0463,0.0389 0.0155,-0.1041 0.0309,0.1427 0.0464,0.0384 0.0154,-0.1042 0.0309,0.1425 0.0463,0.0381 0.0155,-0.1044 0.0309,0.1422 0.0464,0.0376 0.0154,-0.1045 0.0309,0.142 0.0463,0.0373 0.0155,-0.1047 0.0309,0.1417 0.0464,0.0368 0.0154,-0.1049 0.0309,0.1414 0.0463,0.0364 0.0155,-0.105 0.0309,0.1412 0.0464,0.036 0.0154,-0.1052 0.0309,0.141 0.0463,0.0356 0.0155,-0.1053 0.0309,0.1407 0.0464,0.0352 0.0154,-0.1055 0.0309,0.1404 0.0463,0.0347 0.0155,-0.1056 0.0309,0.1402 0.0464,0.0344 0.0154,-0.1058 0.0309,0.1399 0.0463,0.0339 0.0155,-0.106 0.0309,0.1396 0.0464,0.0335 0.0154,-0.1061 0.0309,0.1394 0.0463,0.0331 0.0155,-0.1063 0.0309,0.1391 0.0464,0.0327 0.0154,-0.1065 0.0309,0.1388 0.0463,0.0322 0.0155,-0.1066 0.0309,0.1385 0.0464,0.0318 0.0154,-0.1068 0.0309,0.1383 0.0463,0.0314 0.0155,-0.1069 0.0309,0.138 0.0464,0.0309 0.0154,-0.107 0.0309,0.1378 0.0463,0.0305 0.0155,-0.1072 0.0309,0.1375 0.0464,0.0301 0.0154,-0.1073 0.0309,0.1372 0.0463,0.0297 0.0155,-0.1075 0.0309,0.1369 0.0464,0.0292 0.0154,-0.1077 0.0309,0.1367 0.0463,0.0288 0.0155,-0.1078 0.0309,0.1364 0.0464,0.0284 0.0154,-0.108 0.0309,0.1361 0.0463,0.0279 0.0155,-0.1082 0.0309,0.1358 0.0463,0.0275 0.0155,-0.1083 0.0309,0.1355 0.0464,0.027 0.0154,-0.1085 0.0309,0.1353 0.0463,0.0266 0.0155,-0.1086 0.0309,0.135 0.0464,0.0262 0.0154,-0.1088 0.0309,0.1347 0.0463,0.0257 0.0155,-0.1089 0.0309,0.1344 0.0464,0.0253 0.0154,-0.1091 0.0309,0.1341 0.0463,0.0248 0.0155,-0.1092 0.0309,0.1338 0.0464,0.0244 0.0154,-0.1094 0.0309,0.1336 0.0463,0.024 0.0155,-0.1096 0.0309,0.1332 0.0464,0.0235 0.0154,-0.1098 0.0309,0.1329 0.0463,0.023 0.0155,-0.1099 0.0309,0.1327 0.0464,0.0226 0.0154,-0.11 0.0309,0.1324 0.0463,0.0222 0.0155,-0.1102 0.0309,0.132 0.0464,0.0217 0.0154,-0.1104 0.0309,0.1318 0.0463,0.0212 0.0155,-0.1105 0.0309,0.1315 0.0464,0.0208 0.0154,-0.1107 0.0309,0.1312 0.0463,0.0204 0.0155,-0.1109 0.0309,0.1309 0.0464,0.0199 0.0154,-0.111 0.0309,0.1306 0.0463,0.0194 0.0155,-0.1111 0.0309,0.1303 0.0464,0.019 0.0154,-0.1113 0.0309,0.13 0.0463,0.0185 0.0155,-0.1115 0.0309,0.1297 0.0464,0.0181 0.0154,-0.1116 0.0309,0.1294 0.0463,0.0176 0.0155,-0.1118 0.0309,0.1291 0.0464,0.0172 0.0154,-0.112 0.0309,0.1287 0.0463,0.0166 0.0155,-0.112 0.0309,0.1285 0.0464,0.0163 0.0154,-0.1123 0.0309,0.1282 0.0463,0.0158 0.0155,-0.1124 0.0309,0.1278 0.0464,0.0153 0.0154,-0.1126 0.0309,0.1276 0.0463,0.0148 0.0155,-0.1127 0.0309,0.1273 0.0464,0.0144 0.0154,-0.1129 0.0309,0.127 0.0463,0.014 0.0155,-0.1131 0.0309,0.1266 0.0464,0.0134 0.0154,-0.1132 0.0309,0.1264 0.0463,0.013 0.0154,-0.1133 0.0309,0.1261 0.0463,0.0126 0.0155,-0.1135 0.0309,0.1257 0.0464,0.012 0.0154,-0.1136 0.0309,0.1255 0.0463,0.0116 0.0155,-0.1138 0.0309,0.1252 0.0464,0.0112 0.0154,-0.114 0.0309,0.1248 0.0463,0.0107 0.0155,-0.1142 0.0309,0.1245 0.0464,0.0102 0.0154,-0.1143 0.0309,0.1242 0.0463,0.0097 0.0155,-0.1144 0.0309,0.1239 0.0464,0.0093 0.0154,-0.1146 0.0309,0.1236 0.0463,0.0088 0.0155,-0.1147 0.0309,0.1233 0.0464,0.0084 0.0154,-0.115 0.0309,0.1229 0.0463,0.0078 0.0155,-0.115 0.0309,0.1227 0.0464,0.0074 0.0154,-0.1152 0.0309,0.1224 0.0463,0.007 0.0155,-0.1154 0.0309,0.122 0.0464,0.0064 0.0154,-0.1155 0.0309,0.1217 0.0463,0.006 0.0155,-0.1157 0.0309,0.1214 0.0464,0.0056 0.0154,-0.1159 0.0309,0.121 0.0463,0.005 0.0155,-0.116 0.0309,0.1208 0.0464,0.0046 0.0154,-0.1162 0.0309,0.1205 0.0463,0.0041 0.0155,-0.1163 0.0309,0.1202 0.0464,0.0037 0.0154,-0.1165 0.0309,0.1198 0.0463,0.0032 0.0155,-0.1167 0.0309,0.1195 0.0464,0.0027 0.0154,-0.1168 0.0309,0.1192 0.0463,0.0022 0.0155,-0.1169 0.0309,0.1189 0.0464,0.0018 0.0154,-0.1171 0.0309,0.1185 0.0463,0.0013 0.0155,-0.1173 0.0309,0.1182 0.0464,8e-4 0.0154,-0.1174 0.0309,0.1179 0.0463,3e-4 0.0155,-0.1175 0.0309,0.1177 0.0464,-1e-4 0.0154,-0.1177 0.0309,0.1173 0.0463,-6e-4 0.0155,-0.1179 0.0309,0.117 0.0464,-10e-4 0.0154,-0.1181 0.0309,0.1167 0.0463,-0.0015 0.0155,-0.1183 0.0309,0.1163 0.0463,-0.002 0.0155,-0.1184 0.0309,0.116 0.0464,-0.0025 0.0154,-0.1186 0.0309,0.1157 0.0463,-0.003 0.0155,-0.1187 0.0309,0.1155 0.0464,-0.0034 0.0154,-0.1188 0.0309,0.1151 0.0463,-0.0039 0.0155,-0.119 0.0309,0.1148 0.0464,-0.0043 0.0154,-0.1192 0.0309,0.1145 0.0463,-0.0048 0.0155,-0.1194 0.0309,0.1141 0.0464,-0.0053 0.0154,-0.1195 0.0309,0.1138 0.0463,-0.0058 0.0155,-0.1196 0.0309,0.1136 0.0464,-0.0062 0.0154,-0.1198 0.0309,0.1132 0.0463,-0.0067 0.0155,-0.12 0.0309,0.1129 0.0464,-0.0072 0.0154,-0.1201 0.0309,0.1126 0.0463,-0.0076 0.0155,-0.1203 0.0309,0.1123 0.0464,-0.0082 0.0154,-0.1204 0.0309,0.112 0.0463,-0.0085 0.0155,-0.1206 0.0309,0.1117 0.0464,-0.0091 0.0154,-0.1207 0.0309,0.1114 0.0463,-0.0095 0.0155,-0.1209 0.0309,0.1111 0.0464,-0.01 0.0154,-0.121 0.0309,0.1108 0.0463,-0.0104 0.0155,-0.1212 0.0309,0.1104 0.0464,-0.0109 0.0154,-0.1214 0.0309,0.1101 0.0463,-0.0114 0.0155,-0.1215 0.0309,0.1098 0.0464,-0.0118 0.0154,-0.1217 0.0309,0.1095 0.0463,-0.0123 0.0155,-0.1219 0.0309,0.1092 0.0464,-0.0128 0.0154,-0.122 0.0309,0.1089 0.0463,-0.0133 0.0155,-0.1221 0.0309,0.1086 0.0464,-0.0137 0.0154,-0.1223 0.0309,0.1083 0.0463,-0.0141 0.0155,-0.1225 0.0309,0.108 0.0464,-0.0146 0.0154,-0.1226 0.0309,0.1076 0.0463,-0.0151 0.0155,-0.1228 0.0309,0.1074 0.0464,-0.0156 0.0154,-0.1229 0.0309,0.1071 0.0463,-0.016 0.0155,-0.1231 0.0309,0.1068 0.0464,-0.0164 0.0154,-0.1233 0.0308,0.1064 0.0463,-0.017 0.0154,-0.1234 0.0309,0.1062 0.0463,-0.0174 0.0155,-0.1235 0.0309,0.1059 0.0464,-0.0178 0.0154,-0.1237 0.0309,0.1056 0.0463,-0.0183 0.0155,-0.1239 0.0309,0.1053 0.0464,-0.0187 0.0154,-0.1241 0.0309,0.1049 0.0463,-0.0193 0.0155,-0.1241 0.0309,0.1047 0.0464,-0.0196 0.0154,-0.1244 0.0309,0.1044 0.0463,-0.0201 0.0155,-0.1245 0.0309,0.104 0.0464,-0.0206 0.0154,-0.1247 0.0309,0.1038 0.0463,-0.021 0.0155,-0.1249 0.0309,0.1034 0.0464,-0.0215 0.0154,-0.125 0.0309,0.1032 0.0463,-0.0219 0.0155,-0.1252 0.0309,0.1029 0.0464,-0.0224 0.0154,-0.1253 0.0309,0.1026 0.0463,-0.0229 0.0155,-0.1254 0.0309,0.1024 0.0464,-0.0232 0.0154,-0.1256 0.0309,0.102 0.0463,-0.0237 0.0155,-0.1258 0.0309,0.1017 0.0464,-0.0242 0.0154,-0.1259 0.0309,0.1014 0.0463,-0.0246 0.0155,-0.1261 0.0309,0.1011 0.0464,-0.0251 0.0154,-0.1262 0.0309,0.1009 0.0463,-0.0255 0.0155,-0.1264 0.0309,0.1006 0.0464,-0.0259 0.0154,-0.1266 0.0309,0.1003 0.0463,-0.0264 0.0155,-0.1267 0.0309,0.1 0.0464,-0.0268 0.0154,-0.1269 0.0309,0.0997 0.0463,-0.0273 0.0155,-0.127 0.0309,0.0995 0.0464,-0.0277 0.0154,-0.1272 0.0309,0.0992 0.0463,-0.0281 0.0155,-0.1274 0.0309,0.0989 0.0464,-0.0286 0.0154,-0.1275 0.0309,0.0986 0.0463,-0.029 0.0155,-0.1277 0.0309,0.0983 0.0464,-0.0295 0.0154,-0.1278 0.0309,0.0981 0.0463,-0.0299 0.0155,-0.1279 0.0309,0.0978 0.0464,-0.0303 0.0154,-0.1281 0.0309,0.0976 0.0463,-0.0307 0.0155,-0.1283 0.0309,0.0973 0.0463,-0.0312 0.0155,-0.1284 0.0309,0.097 0.0464,-0.0316 0.0154,-0.1285 0.0309,0.0968 0.0463,-0.032 0.0155,-0.1287 0.0309,0.0965 0.0464,-0.0324 0.0154,-0.1289 0.0309,0.0962 0.0463,-0.0329 0.0155,-0.129 0.0309,0.0959 0.0464,-0.0333 0.0154,-0.1292 0.0309,0.0957 0.0463,-0.0337 0.0155,-0.1294 0.0309,0.0954 0.0464,-0.0341 0.0154,-0.1295 0.0309,0.0951 0.0463,-0.0346 0.0155,-0.1297 0.0309,0.0949 0.0464,-0.0349 0.0154,-0.1299 0.0309,0.0946 0.0463,-0.0354 0.0155,-0.13 0.0309,0.0943 0.0464,-0.0358 0.0154,-0.1302 0.0309,0.0941 0.0463,-0.0362 0.0155,-0.1303 0.0309,0.0938 0.0464,-0.0367 0.0154,-0.1304 0.0309,0.0936 0.0463,-0.037 0.0155,-0.1306 0.0309,0.0933 0.0464,-0.0374 0.0154,-0.1308 0.0309,0.093 0.0463,-0.0379 0.0155,-0.1309 0.0309,0.0928 0.0464,-0.0382 0.0154,-0.1311 0.0309,0.0925 0.0463,-0.0387 0.0155,-0.1313 0.0309,0.0923 0.0464,-0.0391 0.0154,-0.1314 0.0309,0.0921 0.0463,-0.0394 0.0155,-0.1316 0.0309,0.0918 0.0464,-0.0399 0.0154,-0.1317 0.0309,0.0916 0.0463,-0.0403 0.0155,-0.1318 0.0309,0.0914 0.0464,-0.0406 0.0154,-0.132 0.0309,0.0911 0.0463,-0.0411 0.0155,-0.1321 0.0309,0.0909 0.0464,-0.0414 0.0154,-0.1323 0.0309,0.0907 0.0463,-0.0418 0.0155,-0.1325 0.0309,0.0904 0.0464,-0.0423 0.0154,-0.1326 0.0309,0.0902 0.0463,-0.0426 0.0155,-0.1328 0.0309,0.09 0.0464,-0.043 0.0154,-0.133 0.0309,0.0898 0.0463,-0.0434 0.0155,-0.1331 0.0309,0.0896 0.0464,-0.0437 0.0154,-0.1333 0.0308,0.0893 0.0463,-0.0442 0.0154,-0.1334 0.0309,0.0891 0.0463,-0.0445 0.0155,-0.1336 0.0309,0.0888 0.0464,-0.0449 0.0154,-0.1338 0.0309,0.0886 0.0463,-0.0453 0.0155,-0.1339 0.0309,0.0884 0.0464,-0.0457 0.0154,-0.134 0.0309,0.0882 0.0463,-0.046 0.0155,-0.1342 0.0309,0.088 0.0464,-0.0464 0.0154,-0.1344 0.0309,0.0878 0.0463,-0.0467 0.0155,-0.1346 0.0309,0.0875 0.0464,-0.0472 0.0154,-0.1347 0.0309,0.0874 0.0463,-0.0475 0.0155,-0.1348 0.0309,0.0872 0.0464,-0.0478 0.0154,-0.1351 0.0309,0.0869 0.0463,-0.0483 0.0155,-0.1351 0.0309,0.0868 0.0464,-0.0486 0.0154,-0.1353 0.0309,0.0866 0.0463,-0.0489 0.0155,-0.1355 0.0309,0.0863 0.0464,-0.0493 0.0154,-0.1356 0.0309,0.0862 0.0463,-0.0496 0.0155,-0.1358 0.0309,0.0859 0.0464,-0.05 0.0154,-0.136 0.0309,0.0857 0.0463,-0.0504 0.0155,-0.1361 0.0309,0.0856 0.0464,-0.0507 0.0154,-0.1363 0.0309,0.0854 0.0463,-0.051 0.0155,-0.1365 0.0309,0.0852 0.0464,-0.0514 0.0154,-0.1366 0.0309,0.085 0.0463,-0.0518 0.0155,-0.1367 0.0309,0.0849 0.0464,-0.052 0.0154,-0.1369 0.0309,0.0846 0.0463,-0.0524 0.0155,-0.1371 0.0309,0.0844 0.0464,-0.0528 0.0154,-0.1372 0.0309,0.0843 0.0463,-0.0531 0.0155,-0.1373 0.0309,0.0842 0.0464,-0.0534 0.0154,-0.1375 0.0309,0.084 0.0463,-0.0537 0.0155,-0.1377 0.0309,0.0838 0.0464,-0.0541 0.0154,-0.1378 0.0309,0.0836 0.0463,-0.0543 0.0155,-0.138 0.0309,0.0834 0.0464,-0.0548 0.0154,-0.1381 0.0309,0.0833 0.0463,-0.055 0.0154,-0.1383 0.0309,0.0831 0.0463,-0.0553 0.0155,-0.1385 0.0309,0.0829 0.0464,-0.0557 0.0154,-0.1386 0.0309,0.0828 0.0463,-0.056 0.0155,-0.1388 0.0309,0.0827 0.0464,-0.0563 0.0154,-0.1389 0.0309,0.0825 0.0463,-0.0566 0.0155,-0.1391 0.0309,0.0824 0.0464,-0.0569 0.0154,-0.1392 0.0309,0.0822 0.0463,-0.0572 0.0155,-0.1394 0.0309,0.0821 0.0464,-0.0575 0.0154,-0.1396 0.0309,0.0819 0.0463,-0.0578 0.0155,-0.1398 0.0309,0.0817 0.0464,-0.0581 0.0154,-0.1399 0.0309,0.0816 0.0463,-0.0585 0.0155,-0.14 0.0309,0.0815 0.0464,-0.0587 0.0154,-0.1402 0.0309,0.0814 0.0463,-0.059 0.0155,-0.1403 0.0309,0.0813 0.0464,-0.0592 0.0154,-0.1405 0.0309,0.0811 0.0463,-0.0596 0.0155,-0.1407 0.0309,0.081 0.0464,-0.0599 0.0154,-0.1408 0.0309,0.0809 0.0463,-0.0601 0.0155,-0.141 0.0309,0.0807 0.0464,-0.0604 0.0154,-0.1411 0.0309,0.0806 0.0463,-0.0607 0.0155,-0.1413 0.0309,0.0805 0.0464,-0.061 0.0154,-0.1414 0.0309,0.0804 0.0463,-0.0612 0.0155,-0.1416 0.0309,0.0802 0.0464,-0.0615 0.0154,-0.1418 0.0309,0.0801 0.0463,-0.0618 0.0155,-0.1419 0.0309,0.08 0.0464,-0.062 0.0154,-0.1421 0.0309,0.0799 0.0463,-0.0623 0.0155,-0.1423 0.0309,0.0798 0.0464,-0.0626 0.0154,-0.1424 0.0309,0.0797 0.0463,-0.0628 0.0155,-0.1426 0.0309,0.0796 0.0464,-0.0631 0.0154,-0.1427 0.0309,0.0795 0.0463,-0.0633 0.0155,-0.1429 0.0309,0.0794 0.0464,-0.0636 0.0154,-0.143 0.0309,0.0793 0.0463,-0.0638 0.0155,-0.1432 0.0309,0.0792 0.0463,-0.0641 0.0155,-0.1434 0.0309,0.0792 0.0464,-0.0643 0.0154,-0.1435 0.0309,0.0791 0.0463,-0.0646 0.0155,-0.1436 0.0309,0.079 0.0464,-0.0648 0.0154,-0.1438 0.0309,0.079 0.0463,-0.065 0.0155,-0.144 0.0309,0.0789 0.0464,-0.0653 0.0154,-0.1441 0.0309,0.0788 0.0463,-0.0655 0.0155,-0.1442 0.0309,0.0788 0.0464,-0.0657 0.0154,-0.1444 0.0309,0.0787 0.0463,-0.0659 0.0155,-0.1446 0.0309,0.0786 0.0464,-0.0662 0.0154,-0.1447 0.0309,0.0785 0.0463,-0.0664 0.0155,-0.1449 0.0309,0.0785 0.0464,-0.0666 0.0154,-0.145 0.0309,0.0784 0.0463,-0.0668 0.0155,-0.1452 0.0309,0.0784 0.0464,-0.067 0.0154,-0.1454 0.0309,0.0783 0.0463,-0.0672 0.0155,-0.1456 0.0309,0.0782 0.0464,-0.0675 0.0154,-0.1457 0.0309,0.0782 0.0463,-0.0676 0.0155,-0.1459 0.0309,0.0782 0.0464,-0.0679 0.0154,-0.146 0.0309,0.0782 0.0463,-0.068 0.0155,-0.1462 0.0309,0.0781 0.0464,-0.0682 0.0154,-0.1463 0.0309,0.078 0.0463,-0.0685 0.0155,-0.1464 0.0309,0.0781 0.0464,-0.0686 0.0154,-0.1466 0.0309,0.078 0.0463,-0.0688 0.0155,-0.1468 0.0309,0.078 0.0464,-0.069 0.0154,-0.1469 0.0309,0.078 0.0463,-0.0691 0.0155,-0.1471 0.0309,0.0779 0.0464,-0.0694 0.0154,-0.1473 0.0309,0.0779 0.0463,-0.0695 0.0155,-0.1474 0.0309,0.0778 0.0464,-0.0697 0.0154,-0.1476 0.0309,0.0778 0.0463,-0.0699 0.0155,-0.1477 0.0309,0.0778 0.0464,-0.07 0.0154,-0.1479 0.0309,0.0778 0.0463,-0.0702 0.0155,-0.1481 0.0309,0.0778 0.0464,-0.0704 0.0154,-0.1482 0.0309,0.0778 0.0463,-0.0705 0.0154,-0.1484 0.0309,0.0778 0.0463,-0.0707 0.0155,-0.1485 0.0309,0.0778 0.0464,-0.0709 0.0154,-0.1486 0.0309,0.0779 0.0463,-0.071 0.0155,-0.1488 0.0309,0.0779 0.0464,-0.0711 0.0154,-0.149 0.0309,0.0779 0.0463,-0.0713 0.0155,-0.1491 0.0309,0.0779 0.0464,-0.0714 0.0154,-0.1493 0.0309,0.0779 0.0463,-0.0716 0.0155,-0.1494 0.0309,0.0779 0.0464,-0.0717 0.0154,-0.1496 0.0309,0.078 0.0463,-0.0718 0.0155,-0.1498 0.0309,0.0779 0.0464,-0.072 0.0154,-0.1499 0.0309,0.078 0.0463,-0.0721 0.0155,-0.1501 0.0309,0.078 0.0464,-0.0722 0.0154,-0.1502 0.0309,0.078 0.0463,-0.0724 0.0155,-0.1504 0.0309,0.0781 0.0464,-0.0724 0.0154,-0.1506 0.0309,0.0781 0.0463,-0.0726 0.0155,-0.1507 0.0309,0.0782 0.0464,-0.0727 0.0154,-0.1509 0.0309,0.0782 0.0463,-0.0728 0.0155,-0.151 0.0309,0.0782 0.0464,-0.0729 0.0154,-0.1512 0.0309,0.0783 0.0463,-0.0731 0.0155,-0.1513 0.0309,0.0784 0.0464,-0.0731 0.0154,-0.1515 0.0309,0.0784 0.0463,-0.0732 0.0155,-0.1517 0.0309,0.0785 0.0464,-0.0733 0.0154,-0.1519 0.0309,0.0785 0.0463,-0.0735 0.0155,-0.1519 0.0309,0.0787 0.0464,-0.0735 0.0154,-0.1521 0.0309,0.0787 0.0463,-0.0736 0.0155,-0.1523 0.0309,0.0788 0.0464,-0.0737 0.0154,-0.1524 0.0309,0.0789 0.0463,-0.0737 0.0155,-0.1526 0.0309,0.0789 0.0464,-0.0739 0.0154,-0.1527 0.0309,0.079 0.0463,-0.0739 0.0155,-0.1529 0.0309,0.0791 0.0464,-0.074 0.0154,-0.1531 0.0309,0.0792 0.0463,-0.0741 0.0155,-0.1532 0.0309,0.0793 0.0463,-0.0741 0.0155,-0.1534 0.0309,0.0794 0.0464,-0.0742 0.0154,-0.1535 0.0309,0.0794 0.0463,-0.0743 0.0155,-0.1536 0.0309,0.0796 0.0464,-0.0743 0.0154,-0.1538 0.0309,0.0797 0.0463,-0.0744 0.0155,-0.154 0.0309,0.0798 0.0464,-0.0744 0.0154,-0.1541 0.0309,0.0799 0.0463,-0.0745 0.0155,-0.1543 0.0309,0.08 0.0464,-0.0745 0.0154,-0.1545 0.0309,0.0801 0.0463,-0.0746 0.0155,-0.1546 0.0309,0.0802 0.0464,-0.0746 0.0154,-0.1548 0.0309,0.0803 0.0463,-0.0746 0.0155,-0.155 0.0309,0.0804 0.0464,-0.0747 0.0154,-0.1551 0.0309,0.0805 0.0463,-0.0747 0.0155,-0.1553 0.0309,0.0806 0.0464,-0.0748 0.0154,-0.1554 0.0309,0.0808 0.0463,-0.0748 0.0155,-0.1555 0.0309,0.081 0.0464,-0.0748 0.0154,-0.1557 0.0309,0.0811 0.0463,-0.0748 0.0155,-0.1559 0.0309,0.0812 0.0464,-0.0748 0.0154,-0.1561 0.0309,0.0813 0.0463,-0.0749 0.0155,-0.1562 0.0309,0.0815 0.0464,-0.0748 0.0154,-0.1564 0.0309,0.0816 0.0463,-0.0749 0.0155,-0.1565 0.0309,0.0818 0.0464,-0.0749 0.0154,-0.1567 0.0309,0.082 0.0463,-0.0749"
         id="path1663" />
    </g>
  </g>
</svg>
