<?xml version="1.0" encoding="UTF-8" standalone="no"?>
<svg
   xmlns:dc="http://purl.org/dc/elements/1.1/"
   xmlns:cc="http://creativecommons.org/ns#"
   xmlns:rdf="http://www.w3.org/1999/02/22-rdf-syntax-ns#"
   xmlns:svg="http://www.w3.org/2000/svg"
   xmlns="http://www.w3.org/2000/svg"
   xmlns:sodipodi="http://sodipodi.sourceforge.net/DTD/sodipodi-0.dtd"
   xmlns:inkscape="http://www.inkscape.org/namespaces/inkscape"
   width="256"
   height="256"
   viewBox="0 0 67.733332 67.733335"
   version="1.1"
   id="svg8"
   inkscape:version="1.0.1 (3bc2e813f5, 2020-09-07)"
   sodipodi:docname="camera-lock-to-vehicle.svg"
   inkscape:export-filename="C:\Users\keath\Workspace\KMX\elite-streamdeck-icons\ship-lights.png"
   inkscape:export-xdpi="96"
   inkscape:export-ydpi="96">
  <defs
     id="defs2" />
  <sodipodi:namedview
     id="base"
     pagecolor="#000000"
     bordercolor="#666666"
     borderopacity="1.0"
     inkscape:pageopacity="0"
     inkscape:pageshadow="2"
     inkscape:zoom="7.9195959"
     inkscape:cx="134.59384"
     inkscape:cy="73.302062"
     inkscape:document-units="px"
     inkscape:current-layer="layer2"
     showgrid="true"
     units="px"
     inkscape:snap-grids="true"
     objecttolerance="10000"
     guidetolerance="10000"
     inkscape:window-width="3840"
     inkscape:window-height="2066"
     inkscape:window-x="3829"
     inkscape:window-y="-11"
     inkscape:window-maximized="1"
     inkscape:document-rotation="0"
     showguides="true"
     inkscape:guide-bbox="true">
    <inkscape:grid
       type="xygrid"
       id="grid4623" />
    <sodipodi:guide
       position="-3.96875,62.441667"
       orientation="0,256"
       id="guide3351" />
    <sodipodi:guide
       position="62.441667,42.597917"
       orientation="-1,0"
       id="guide3353"
       inkscape:label=""
       inkscape:locked="false"
       inkscape:color="rgb(0,0,255)" />
    <sodipodi:guide
       position="-2.6458333,22.754167"
       orientation="0,-256"
       id="guide3355" />
    <sodipodi:guide
       position="5.2916667,70.379167"
       orientation="-256,0"
       id="guide3357" />
    <sodipodi:guide
       position="0,67.733334"
       orientation="0,256"
       id="guide3359" />
    <sodipodi:guide
       position="67.733334,67.733334"
       orientation="256,0"
       id="guide3361" />
    <sodipodi:guide
       position="67.733334,0"
       orientation="0,-256"
       id="guide3363" />
    <sodipodi:guide
       position="0,0"
       orientation="-256,0"
       id="guide3365" />
    <sodipodi:guide
       position="0,67.733334"
       orientation="0,256"
       id="guide3367" />
    <sodipodi:guide
       position="67.733334,67.733334"
       orientation="256,0"
       id="guide3369" />
    <sodipodi:guide
       position="67.733334,0"
       orientation="0,-256"
       id="guide3371" />
    <sodipodi:guide
       position="0,0"
       orientation="-256,0"
       id="guide3373" />
    <sodipodi:guide
       position="0,67.733334"
       orientation="0,256"
       id="guide3375" />
    <sodipodi:guide
       position="67.733334,67.733334"
       orientation="256,0"
       id="guide3377" />
    <sodipodi:guide
       position="67.733334,0"
       orientation="0,-256"
       id="guide3379" />
    <sodipodi:guide
       position="0,0"
       orientation="-256,0"
       id="guide3381" />
    <sodipodi:guide
       position="33.866667,46.83125"
       orientation="1,0"
       id="guide895" />
    <sodipodi:guide
       position="41.010417,42.597917"
       orientation="0,-1"
       id="guide897" />
  </sodipodi:namedview>
  <metadata
     id="metadata5">
    <rdf:RDF>
      <cc:Work
         rdf:about="">
        <dc:format>image/svg+xml</dc:format>
        <dc:type
           rdf:resource="http://purl.org/dc/dcmitype/StillImage" />
        <dc:title></dc:title>
      </cc:Work>
    </rdf:RDF>
  </metadata>
  <g
     inkscape:groupmode="layer"
     id="layer2"
     inkscape:label="Icon">
    <path
       id="path1025"
       style="color:#000000;font-style:normal;font-variant:normal;font-weight:normal;font-stretch:normal;font-size:medium;line-height:normal;font-family:sans-serif;font-variant-ligatures:normal;font-variant-position:normal;font-variant-caps:normal;font-variant-numeric:normal;font-variant-alternates:normal;font-variant-east-asian:normal;font-feature-settings:normal;font-variation-settings:normal;text-indent:0;text-align:start;text-decoration:none;text-decoration-line:none;text-decoration-style:solid;text-decoration-color:#000000;letter-spacing:normal;word-spacing:normal;text-transform:none;writing-mode:lr-tb;direction:ltr;text-orientation:mixed;dominant-baseline:auto;baseline-shift:baseline;text-anchor:start;white-space:normal;shape-padding:0;shape-margin:0;inline-size:0;clip-rule:nonzero;display:inline;overflow:visible;visibility:visible;opacity:1;isolation:auto;mix-blend-mode:normal;color-interpolation:sRGB;color-interpolation-filters:linearRGB;solid-color:#000000;solid-opacity:1;vector-effect:none;fill:#808080;fill-opacity:1;fill-rule:nonzero;stroke:none;stroke-width:2.11667;stroke-linecap:square;stroke-linejoin:miter;stroke-miterlimit:4;stroke-dasharray:none;stroke-dashoffset:0;stroke-opacity:1;paint-order:markers fill stroke;color-rendering:auto;image-rendering:auto;shape-rendering:auto;text-rendering:auto;enable-background:accumulate;stop-color:#000000;stop-opacity:1"
       d="m 33.863384,14.711135 c -3.021585,2e-6 -5.713627,1.435959 -7.435386,3.659041 l -15.556241,3.333838 v 4.965272 0.06638 l 15.637647,3.35137 0.02045,-0.09519 c 1.725131,2.148686 4.371021,3.528374 7.333526,3.528374 2.932646,0 5.556483,-1.351236 7.283012,-3.462833 l 0.0063,0.02964 15.637645,-3.35137 v -4.965275 -0.06638 L 41.31338,18.387291 c -1.721613,-2.232906 -4.420606,-3.676156 -7.449996,-3.676156 z m 0,1.710336 c 4.259752,0 7.695047,3.435294 7.695047,7.695046 0,4.25975 -3.435295,7.695044 -7.695047,7.695044 -4.259752,0 -7.695046,-3.435294 -7.695046,-7.695044 0,-4.259752 3.435294,-7.695046 7.695046,-7.695046 z m 4.26e-4,0.607822 A 7.0869081,7.0869081 0 0 0 26.776586,24.1161 7.0869081,7.0869081 0 0 0 33.86381,31.203322 7.0869081,7.0869081 0 0 0 40.950617,24.1161 7.0869081,7.0869081 0 0 0 33.86381,17.029293 Z m 0.07389,1.760847 c 1.160061,0.01613 2.295428,0.41124 3.223211,1.142172 1.237045,0.974575 1.979424,2.447725 2.027606,4.021813 l 0.01586,0.533096 -1.06828,0.03339 -0.01586,-0.535184 C 38.081707,22.726494 37.487772,21.550849 36.498404,20.7714 35.509035,19.99195 34.227223,19.69055 32.994242,19.947751 l -0.523914,0.108961 -0.217914,-1.046156 0.523914,-0.108545 c 0.385407,-0.0804 0.774687,-0.117262 1.161374,-0.111881 z m -8.698204,1.582593 c -0.458418,1.051694 -0.729076,2.202623 -0.771466,3.410651 H 12.582092 v -0.69716 z m 17.25614,0.01586 12.58434,2.697629 V 23.78338 H 43.259995 c -0.04219,-1.201969 -0.309977,-2.347376 -0.764369,-3.394787 z m -29.913542,4.037259 h 11.885513 c 0.0425,1.304504 0.351198,2.54252 0.874996,3.661546 L 12.582092,25.353451 Z m 30.678741,0 h 11.819136 v 0.927597 l -12.687454,2.718502 c 0.519616,-1.114999 0.825991,-2.347552 0.868318,-3.646099 z" />
    <path
       id="path862"
       style="color:#000000;font-style:normal;font-variant:normal;font-weight:normal;font-stretch:normal;font-size:medium;line-height:normal;font-family:sans-serif;font-variant-ligatures:normal;font-variant-position:normal;font-variant-caps:normal;font-variant-numeric:normal;font-variant-alternates:normal;font-variant-east-asian:normal;font-feature-settings:normal;font-variation-settings:normal;text-indent:0;text-align:start;text-decoration:none;text-decoration-line:none;text-decoration-style:solid;text-decoration-color:#000000;letter-spacing:normal;word-spacing:normal;text-transform:none;writing-mode:lr-tb;direction:ltr;text-orientation:mixed;dominant-baseline:auto;baseline-shift:baseline;text-anchor:start;white-space:normal;shape-padding:0;shape-margin:0;inline-size:0;clip-rule:nonzero;display:inline;overflow:visible;visibility:visible;opacity:1;isolation:auto;mix-blend-mode:normal;color-interpolation:sRGB;color-interpolation-filters:linearRGB;solid-color:#000000;solid-opacity:1;vector-effect:none;fill:#808080;fill-opacity:1;fill-rule:nonzero;stroke:none;stroke-width:8.63414;stroke-linecap:round;stroke-linejoin:round;stroke-miterlimit:4;stroke-dasharray:none;stroke-dashoffset:0;stroke-opacity:1;color-rendering:auto;image-rendering:auto;shape-rendering:auto;text-rendering:auto;enable-background:accumulate;stop-color:#000000;stop-opacity:1"
       d="m 107.45312,31.363281 a 4.3174995,4.3174995 0 0 0 -3.01953,1.236328 L 62.574219,73.654297 c 5.261034,-1.12787 10.522156,-2.255005 15.783203,-3.382813 L 104.60547,44.527344 91.414062,67.472656 c 1.419361,-0.304298 2.838456,-0.609746 4.257813,-0.914062 l 14.726565,-25.617188 11.375,11.455078 c 1.34648,-0.23553 2.70498,-0.400824 4.07031,-0.490234 L 114.01953,40 H 145 l -11.98828,12.074219 c 1.30684,0.15488 2.60378,0.386325 3.88867,0.671875 l 11.15234,-11.230469 14.59375,25.382813 c 1.41999,0.304371 2.83978,0.609709 4.25977,0.914062 L 153.51953,44.525391 180.1582,70.652344 c 5.26108,1.127521 10.52215,2.255197 15.78321,3.382812 L 153.69336,32.599609 a 4.3174995,4.3174995 0 0 0 -3.02734,-1.236328 z m 111.69532,65.433594 v 7.695315 c -1.22719,0.26316 -2.45445,0.52593 -3.68164,0.78906 l 11.81054,11.58398 v 11.63282 h -25.37109 l -0.26367,-0.26563 -10.23047,-17.79492 c -1.10811,0.23749 -2.21611,0.4754 -3.32422,0.71289 l 4.68945,8.1543 -7.5,-7.55274 c -1.25456,0.26887 -2.50911,0.53777 -3.76367,0.80664 l 15.82617,15.93946 h -55.12695 c -8.64872,3.22545 -18.43036,3.08822 -27.13281,0 H 61.685547 l 15.427734,-15.53711 c -1.255974,-0.26912 -2.511603,-0.53948 -3.767578,-0.8086 L 64.125,121.4375 69.888672,111.41211 c -1.109381,-0.23771 -2.218745,-0.47518 -3.328125,-0.71289 l -10.234375,17.79883 h -25.47461 v -11.63282 l 11.5625,-11.34179 c -1.604792,-0.34403 -3.20967,-0.68718 -4.814453,-1.03125 V 98.150391 L 23.513672,111.9668 a 4.3174995,4.3174995 0 0 0 -1.298828,3.08203 v 17.76758 a 4.3174995,4.3174995 0 0 0 4.316406,4.31836 h 205.0625 a 4.3174995,4.3174995 0 0 0 4.32031,-4.31836 v -17.76758 a 4.3174995,4.3174995 0 0 0 -1.29883,-3.08203 z"
       transform="scale(0.26458333)" />
  </g>
</svg>
