<?xml version="1.0" encoding="UTF-8" standalone="no"?>
<svg
   xmlns:dc="http://purl.org/dc/elements/1.1/"
   xmlns:cc="http://creativecommons.org/ns#"
   xmlns:rdf="http://www.w3.org/1999/02/22-rdf-syntax-ns#"
   xmlns:svg="http://www.w3.org/2000/svg"
   xmlns="http://www.w3.org/2000/svg"
   xmlns:sodipodi="http://sodipodi.sourceforge.net/DTD/sodipodi-0.dtd"
   xmlns:inkscape="http://www.inkscape.org/namespaces/inkscape"
   width="256"
   height="256"
   viewBox="0 0 67.733332 67.733335"
   version="1.1"
   id="svg8"
   inkscape:version="1.0.1 (3bc2e813f5, 2020-09-07)"
   sodipodi:docname="camera-zoom-out.svg"
   inkscape:export-filename="C:\Users\keath\Workspace\KMX\elite-streamdeck-icons\ship-lights.png"
   inkscape:export-xdpi="96"
   inkscape:export-ydpi="96">
  <defs
     id="defs2" />
  <sodipodi:namedview
     id="base"
     pagecolor="#000000"
     bordercolor="#666666"
     borderopacity="1.0"
     inkscape:pageopacity="0"
     inkscape:pageshadow="2"
     inkscape:zoom="7.9195959"
     inkscape:cx="140.31595"
     inkscape:cy="81.701915"
     inkscape:document-units="px"
     inkscape:current-layer="layer2"
     showgrid="true"
     units="px"
     inkscape:snap-grids="true"
     objecttolerance="10000"
     guidetolerance="10000"
     inkscape:window-width="3840"
     inkscape:window-height="2066"
     inkscape:window-x="3829"
     inkscape:window-y="-11"
     inkscape:window-maximized="1"
     inkscape:document-rotation="0"
     showguides="true"
     inkscape:guide-bbox="true"
     inkscape:object-paths="true"
     inkscape:snap-intersection-paths="false"
     inkscape:snap-smooth-nodes="false"
     inkscape:snap-midpoints="false"
     inkscape:snap-text-baseline="true">
    <inkscape:grid
       type="xygrid"
       id="grid4623" />
    <sodipodi:guide
       position="-3.96875,62.441667"
       orientation="0,256"
       id="guide3351" />
    <sodipodi:guide
       position="62.441667,42.597917"
       orientation="-1,0"
       id="guide3353"
       inkscape:label=""
       inkscape:locked="false"
       inkscape:color="rgb(0,0,255)" />
    <sodipodi:guide
       position="-2.6458333,22.754167"
       orientation="0,-256"
       id="guide3355" />
    <sodipodi:guide
       position="5.2916667,70.379167"
       orientation="-256,0"
       id="guide3357" />
    <sodipodi:guide
       position="0,67.733334"
       orientation="0,256"
       id="guide3359" />
    <sodipodi:guide
       position="67.733334,67.733334"
       orientation="256,0"
       id="guide3361" />
    <sodipodi:guide
       position="67.733334,0"
       orientation="0,-256"
       id="guide3363" />
    <sodipodi:guide
       position="0,0"
       orientation="-256,0"
       id="guide3365" />
    <sodipodi:guide
       position="0,67.733334"
       orientation="0,256"
       id="guide3367" />
    <sodipodi:guide
       position="67.733334,67.733334"
       orientation="256,0"
       id="guide3369" />
    <sodipodi:guide
       position="67.733334,0"
       orientation="0,-256"
       id="guide3371" />
    <sodipodi:guide
       position="0,0"
       orientation="-256,0"
       id="guide3373" />
    <sodipodi:guide
       position="0,67.733334"
       orientation="0,256"
       id="guide3375" />
    <sodipodi:guide
       position="67.733334,67.733334"
       orientation="256,0"
       id="guide3377" />
    <sodipodi:guide
       position="67.733334,0"
       orientation="0,-256"
       id="guide3379" />
    <sodipodi:guide
       position="0,0"
       orientation="-256,0"
       id="guide3381" />
    <sodipodi:guide
       position="33.866667,46.83125"
       orientation="1,0"
       id="guide895" />
    <sodipodi:guide
       position="41.010417,42.597917"
       orientation="0,-1"
       id="guide897" />
  </sodipodi:namedview>
  <metadata
     id="metadata5">
    <rdf:RDF>
      <cc:Work
         rdf:about="">
        <dc:format>image/svg+xml</dc:format>
        <dc:type
           rdf:resource="http://purl.org/dc/dcmitype/StillImage" />
        <dc:title></dc:title>
      </cc:Work>
    </rdf:RDF>
  </metadata>
  <g
     inkscape:groupmode="layer"
     id="layer2"
     inkscape:label="Icon">
    <path
       id="path1025"
       style="color:#000000;font-style:normal;font-variant:normal;font-weight:normal;font-stretch:normal;font-size:medium;line-height:normal;font-family:sans-serif;font-variant-ligatures:normal;font-variant-position:normal;font-variant-caps:normal;font-variant-numeric:normal;font-variant-alternates:normal;font-variant-east-asian:normal;font-feature-settings:normal;font-variation-settings:normal;text-indent:0;text-align:start;text-decoration:none;text-decoration-line:none;text-decoration-style:solid;text-decoration-color:#000000;letter-spacing:normal;word-spacing:normal;text-transform:none;writing-mode:lr-tb;direction:ltr;text-orientation:mixed;dominant-baseline:auto;baseline-shift:baseline;text-anchor:start;white-space:normal;shape-padding:0;shape-margin:0;inline-size:0;clip-rule:nonzero;display:inline;overflow:visible;visibility:visible;opacity:1;isolation:auto;mix-blend-mode:normal;color-interpolation:sRGB;color-interpolation-filters:linearRGB;solid-color:#000000;solid-opacity:1;vector-effect:none;fill:#808080;fill-opacity:1;fill-rule:nonzero;stroke:none;stroke-width:8.00001;stroke-linecap:square;stroke-linejoin:miter;stroke-miterlimit:4;stroke-dasharray:none;stroke-dashoffset:0;stroke-opacity:1;paint-order:markers fill stroke;color-rendering:auto;image-rendering:auto;shape-rendering:auto;text-rendering:auto;enable-background:accumulate;stop-color:#000000;stop-opacity:1"
       d="m 127.74023,20.179688 c -36.391712,0 -66.724242,26.080073 -73.355464,60.548828 1.826199,-0.391438 3.652304,-0.782444 5.478515,-1.173828 6.980697,-31.067452 34.685752,-54.248047 67.876949,-54.248047 33.14337,0 60.8251,23.113324 67.85743,54.113281 1.82745,0.391714 3.65499,0.782061 5.48242,1.173828 C 194.39486,46.191108 164.085,20.179687 127.74023,20.179688 Z m 0,17.763671 c -25.01073,0 -46.271274,16.176246 -53.916011,38.619141 1.97503,-0.423186 3.950751,-0.846349 5.925781,-1.269531 7.721616,-18.913739 26.27713,-32.22461 47.99023,-32.22461 21.65835,0 40.17836,13.242263 47.93555,32.080079 1.98049,0.424432 3.96091,0.850953 5.94141,1.27539 C 173.92973,54.052763 152.6996,37.943363 127.74023,37.943359 Z m 0.27539,26.390625 c -10.14501,8e-6 -19.18203,4.821123 -24.96289,12.285157 L 50.822266,87.810547 v 16.673833 0.22265 l 52.503904,11.25 0.0684,-0.31836 c 5.79217,7.21427 14.67444,11.84766 24.62109,11.84766 9.84642,0 18.65822,-4.53724 24.45508,-11.62695 l 0.0195,0.0977 52.50391,-11.25 V 88.035156 87.810547 L 153.0293,76.675781 C 147.24891,69.178726 138.18687,64.333984 128.01562,64.333984 Z m 0,5.742188 c 14.30221,0 25.8379,11.533745 25.8379,25.835937 0,14.302201 -11.53569,25.835941 -25.8379,25.835941 -14.30217,0 -25.83398,-11.53374 -25.83398,-25.835941 0,-14.302192 11.53181,-25.835937 25.83398,-25.835937 z m 0.002,2.041016 A 23.794432,23.794432 0 0 0 104.22266,95.910156 23.794432,23.794432 0 0 0 128.01758,119.70508 23.794432,23.794432 0 0 0 151.8125,95.910156 23.794432,23.794432 0 0 0 128.01758,72.117188 Z M 99.0625,83.341797 c -1.539148,3.531092 -2.447522,7.397148 -2.589844,11.453125 h -39.90625 v -2.341797 z m 57.9375,0.05273 42.25195,9.058594 v 2.341797 H 159.56641 C 159.42471,90.759279 158.52563,86.911234 157,83.394531 Z m -41.36914,10.72461 h 25.00195 v 3.99414 h -25.00195 z m -59.064454,2.830078 h 39.904297 c 0.142715,4.379901 1.178841,8.539721 2.9375,12.296871 l -42.841797,-9.18164 z m 103.003904,0 h 39.68164 v 3.115231 l -42.59765,9.12891 c 1.7446,-3.74363 2.7739,-7.88424 2.91601,-12.244141 z M 54.970703,111.80859 c 7.674051,33.10226 37.3489,57.81641 72.769527,57.81641 35.37275,0 65.01937,-24.64682 72.74415,-57.68164 -1.85627,0.39795 -3.71209,0.79546 -5.56836,1.19336 -8.00766,29.60452 -35.0232,51.36328 -67.17579,51.36328 -32.201403,0 -59.2454,-21.82281 -67.205074,-51.49609 -1.855003,-0.3977 -3.709461,-0.79758 -5.564453,-1.19532 z m 19.90625,4.26758 c 8.415266,20.9574 28.920337,35.78906 52.863277,35.78906 23.88982,0 44.36352,-14.7647 52.81641,-35.64843 -2.05719,0.44089 -4.11467,0.88137 -6.17187,1.32226 -8.39547,17.28916 -26.11099,29.19141 -46.64454,29.19141 -20.59138,0 -38.352935,-11.96771 -46.718746,-29.33594 -2.048636,-0.43912 -4.095887,-0.87923 -6.144531,-1.31836 z"
       transform="scale(0.26458333)" />
    <text
       xml:space="preserve"
       style="font-style:normal;font-weight:normal;font-size:10.5833px;line-height:1.25;font-family:sans-serif;fill:#808080;fill-opacity:1;stroke:none;stroke-width:0.264583"
       x="17.727058"
       y="41.804165"
       id="text895"><tspan
         sodipodi:role="line"
         id="tspan893"
         x="17.727058"
         y="41.804165"
         style="fill:#808080;fill-opacity:1;stroke-width:0.264583" /></text>
    <g
       aria-label="+"
       id="text967"
       style="font-style:normal;font-variant:normal;font-weight:normal;font-stretch:normal;font-size:16.9333px;line-height:1.25;font-family:Consolas;-inkscape-font-specification:'Consolas, Normal';font-variant-ligatures:normal;font-variant-caps:normal;font-variant-numeric:normal;font-variant-east-asian:normal;fill:#b74949;fill-opacity:1;stroke:none;stroke-width:0.264583"
       transform="translate(38.290182,-2.7367926)">
      <path
         d="m 58.88631,41.101376 h -3.249408 v 3.373431 H 54.21477 v -3.373431 h -3.249408 v -1.256768 h 3.249408 v -3.348626 h 1.422132 v 3.348626 h 3.249408 z"
         style="font-style:normal;font-variant:normal;font-weight:normal;font-stretch:normal;font-size:16.9333px;font-family:Consolas;-inkscape-font-specification:'Consolas, Normal';font-variant-ligatures:normal;font-variant-caps:normal;font-variant-numeric:normal;font-variant-east-asian:normal;fill:#b74949;fill-opacity:1;stroke-width:0.264583"
         id="path970" />
    </g>
  </g>
</svg>
