<?xml version="1.0" encoding="UTF-8" standalone="no"?>
<svg
   xmlns:dc="http://purl.org/dc/elements/1.1/"
   xmlns:cc="http://creativecommons.org/ns#"
   xmlns:rdf="http://www.w3.org/1999/02/22-rdf-syntax-ns#"
   xmlns:svg="http://www.w3.org/2000/svg"
   xmlns="http://www.w3.org/2000/svg"
   xmlns:sodipodi="http://sodipodi.sourceforge.net/DTD/sodipodi-0.dtd"
   xmlns:inkscape="http://www.inkscape.org/namespaces/inkscape"
   width="256"
   height="256"
   viewBox="0 0 67.733332 67.733335"
   version="1.1"
   id="svg8"
   inkscape:version="1.0.1 (3bc2e813f5, 2020-09-07)"
   sodipodi:docname="camera-lock-to-world.svg"
   inkscape:export-filename="C:\Users\keath\Workspace\KMX\elite-streamdeck-icons\ship-lights.png"
   inkscape:export-xdpi="96"
   inkscape:export-ydpi="96">
  <defs
     id="defs2" />
  <sodipodi:namedview
     id="base"
     pagecolor="#000000"
     bordercolor="#666666"
     borderopacity="1.0"
     inkscape:pageopacity="0"
     inkscape:pageshadow="2"
     inkscape:zoom="7.9195959"
     inkscape:cx="134.59384"
     inkscape:cy="68.251299"
     inkscape:document-units="px"
     inkscape:current-layer="layer2"
     showgrid="true"
     units="px"
     inkscape:snap-grids="true"
     objecttolerance="10000"
     guidetolerance="10000"
     inkscape:window-width="3840"
     inkscape:window-height="2066"
     inkscape:window-x="3829"
     inkscape:window-y="-11"
     inkscape:window-maximized="1"
     inkscape:document-rotation="0"
     showguides="true"
     inkscape:guide-bbox="true">
    <inkscape:grid
       type="xygrid"
       id="grid4623" />
    <sodipodi:guide
       position="-3.96875,62.441667"
       orientation="0,256"
       id="guide3351" />
    <sodipodi:guide
       position="62.441667,42.597917"
       orientation="-1,0"
       id="guide3353"
       inkscape:label=""
       inkscape:locked="false"
       inkscape:color="rgb(0,0,255)" />
    <sodipodi:guide
       position="-2.6458333,22.754167"
       orientation="0,-256"
       id="guide3355" />
    <sodipodi:guide
       position="5.2916667,70.379167"
       orientation="-256,0"
       id="guide3357" />
    <sodipodi:guide
       position="0,67.733334"
       orientation="0,256"
       id="guide3359" />
    <sodipodi:guide
       position="67.733334,67.733334"
       orientation="256,0"
       id="guide3361" />
    <sodipodi:guide
       position="67.733334,0"
       orientation="0,-256"
       id="guide3363" />
    <sodipodi:guide
       position="0,0"
       orientation="-256,0"
       id="guide3365" />
    <sodipodi:guide
       position="0,67.733334"
       orientation="0,256"
       id="guide3367" />
    <sodipodi:guide
       position="67.733334,67.733334"
       orientation="256,0"
       id="guide3369" />
    <sodipodi:guide
       position="67.733334,0"
       orientation="0,-256"
       id="guide3371" />
    <sodipodi:guide
       position="0,0"
       orientation="-256,0"
       id="guide3373" />
    <sodipodi:guide
       position="0,67.733334"
       orientation="0,256"
       id="guide3375" />
    <sodipodi:guide
       position="67.733334,67.733334"
       orientation="256,0"
       id="guide3377" />
    <sodipodi:guide
       position="67.733334,0"
       orientation="0,-256"
       id="guide3379" />
    <sodipodi:guide
       position="0,0"
       orientation="-256,0"
       id="guide3381" />
    <sodipodi:guide
       position="33.866667,46.83125"
       orientation="1,0"
       id="guide895" />
    <sodipodi:guide
       position="41.010417,42.597917"
       orientation="0,-1"
       id="guide897" />
  </sodipodi:namedview>
  <metadata
     id="metadata5">
    <rdf:RDF>
      <cc:Work
         rdf:about="">
        <dc:format>image/svg+xml</dc:format>
        <dc:type
           rdf:resource="http://purl.org/dc/dcmitype/StillImage" />
        <dc:title></dc:title>
      </cc:Work>
    </rdf:RDF>
  </metadata>
  <g
     inkscape:groupmode="layer"
     id="layer2"
     inkscape:label="Icon">
    <path
       id="path879"
       style="color:#000000;font-style:normal;font-variant:normal;font-weight:normal;font-stretch:normal;font-size:medium;line-height:normal;font-family:sans-serif;font-variant-ligatures:normal;font-variant-position:normal;font-variant-caps:normal;font-variant-numeric:normal;font-variant-alternates:normal;font-variant-east-asian:normal;font-feature-settings:normal;font-variation-settings:normal;text-indent:0;text-align:start;text-decoration:none;text-decoration-line:none;text-decoration-style:solid;text-decoration-color:#000000;letter-spacing:normal;word-spacing:normal;text-transform:none;writing-mode:lr-tb;direction:ltr;text-orientation:mixed;dominant-baseline:auto;baseline-shift:baseline;text-anchor:start;white-space:normal;shape-padding:0;shape-margin:0;inline-size:0;clip-rule:nonzero;display:inline;overflow:visible;visibility:visible;opacity:1;isolation:auto;mix-blend-mode:normal;color-interpolation:sRGB;color-interpolation-filters:linearRGB;solid-color:#000000;solid-opacity:1;vector-effect:none;fill:#808080;fill-opacity:1;fill-rule:nonzero;stroke:none;stroke-width:4.18012;stroke-linecap:butt;stroke-linejoin:round;stroke-miterlimit:4;stroke-dasharray:none;stroke-dashoffset:6.00002;stroke-opacity:1;paint-order:markers fill stroke;color-rendering:auto;image-rendering:auto;shape-rendering:auto;text-rendering:auto;enable-background:accumulate;stop-color:#000000;stop-opacity:1"
       d="m 127.82617,20.089844 c -0.51013,0 -1.01741,0.01589 -1.52344,0.03906 -35.000899,0.70534 -64.096325,25.555734 -71.316402,58.566406 2.890647,-0.619758 5.781216,-1.239678 8.671875,-1.859374 3.423797,-4.68365 8.162706,-8.962989 14.015625,-12.646485 1.986592,-1.250249 4.110482,-2.417823 6.332031,-3.515625 -1.342503,3.979023 -2.453607,8.162932 -3.314453,12.509766 1.49615,-0.320732 2.992133,-0.64215 4.488282,-0.962891 1.060679,-4.908434 2.447001,-9.578578 4.136718,-13.929687 6.26072,-2.545331 13.212794,-4.505741 20.662114,-5.71875 -0.47021,2.49995 -0.88016,5.148795 -1.26172,7.861328 1.46676,-0.827562 2.98981,-1.554317 4.54882,-2.191406 0.33777,-2.166413 0.6963,-4.276697 1.0918,-6.28125 4.3607,-0.527222 8.85947,-0.814454 13.46875,-0.814454 4.61131,0 9.11407,0.28679 13.47656,0.814454 0.38159,1.935547 0.73103,3.965967 1.0586,6.052734 1.55285,0.604293 3.06516,1.308257 4.53125,2.099609 -0.3697,-2.598649 -0.76504,-5.139151 -1.2168,-7.541015 7.44888,1.213077 14.40173,3.173491 20.66211,5.71875 1.68142,4.329735 3.0643,8.975485 4.12305,13.857422 1.49615,0.320663 2.99212,0.642237 4.48828,0.96289 -0.8589,-4.320927 -1.96572,-8.480513 -3.30078,-12.4375 2.22126,1.097692 4.34373,2.265524 6.33008,3.515625 5.81771,3.661335 10.53407,7.91191 13.95312,12.5625 2.9069,0.623019 5.81382,1.246054 8.7207,1.869141 -7.24773,-32.973794 -36.32799,-57.787375 -71.30273,-58.492188 -0.50591,-0.02305 -1.01342,-0.03906 -1.52344,-0.03906 z m 0,4.185547 c 1.60679,0 3.62421,1.340631 5.75195,4.71875 2.12775,3.378116 4.17705,8.530773 5.89063,14.96289 0.31533,1.183556 0.61515,2.423534 0.9082,3.691407 -4.08322,-0.438781 -8.27212,-0.679688 -12.55078,-0.679688 -4.27588,0 -8.46081,0.239509 -12.54101,0.677734 0.29302,-1.267143 0.59306,-2.506536 0.9082,-3.689453 1.71357,-6.432117 3.75506,-11.584773 5.88281,-14.96289 2.12775,-3.378119 4.14321,-4.71875 5.75,-4.71875 z m -8.45703,1.261718 c -0.28195,0.395668 -0.55955,0.800175 -0.82812,1.226563 -2.49376,3.959202 -4.61093,9.427575 -6.39258,16.115234 -0.45292,1.700085 -0.8829,3.480214 -1.28906,5.332032 -6.81589,1.006643 -13.273768,2.606654 -19.238286,4.720703 1.410599,-2.980936 2.958168,-5.788302 4.640625,-8.376953 6.299891,-9.693101 14.287071,-16.381354 23.107421,-19.017579 z m 16.91406,0 c 8.82107,2.635847 16.80905,9.323815 23.10938,19.017579 1.68175,2.58757 3.22854,5.393509 4.63867,8.373046 -5.96393,-2.11282 -12.42187,-3.710596 -19.23633,-4.716796 -0.40616,-1.851822 -0.83614,-3.631944 -1.28906,-5.332032 -1.78166,-6.687659 -3.89883,-12.156032 -6.39258,-16.115234 -0.26857,-0.426429 -0.54809,-0.830857 -0.83008,-1.226563 z m -30.17773,2.164063 c -5.01592,3.731021 -9.524366,8.694505 -13.349611,14.580078 -2.522396,3.880997 -4.750073,8.181024 -6.660156,12.806641 -3.806668,1.64146 -7.371624,3.50004 -10.642578,5.558593 C 69.353848,64.485025 64.251107,69.044026 60.472656,74.125 67.162836,52.152664 84.297035,34.760051 106.10547,27.701172 Z m 43.43945,0 c 21.80681,7.057222 38.94224,24.445128 45.63477,46.414062 -3.77616,-5.077368 -8.875,-9.632461 -14.97071,-13.46875 -3.27304,-2.059872 -6.84226,-3.918315 -10.65234,-5.560546 -1.90987,-4.62471 -4.13624,-8.924353 -6.6582,-12.804688 -3.82557,-5.88607 -8.33708,-10.848951 -13.35352,-14.580078 z M 55.273438,111.85547 c 7.650841,32.41559 36.449334,56.68024 71.029292,57.37695 0.50603,0.0231 1.01331,0.0391 1.52344,0.0391 0.51002,0 1.01753,-0.0158 1.52344,-0.0391 34.55278,-0.69616 63.33519,-24.92351 71.01367,-57.30078 -3.15423,0.6761 -6.30864,1.35132 -9.46289,2.02734 -3.31498,4.12726 -7.66838,7.91446 -12.92187,11.22071 -1.98635,1.2501 -4.10882,2.41823 -6.33008,3.51562 1.21416,-3.59873 2.24185,-7.36369 3.06445,-11.26562 -1.50328,0.32218 -3.00649,0.64461 -4.50977,0.96679 -1.0228,4.45356 -2.32023,8.69984 -3.86718,12.68164 -6.26041,2.54388 -13.21329,4.50322 -20.66211,5.71485 0.42826,-2.27636 0.80734,-4.67713 1.16211,-7.13086 -1.46615,0.82739 -2.98293,1.54344 -4.53906,2.14844 -0.3079,1.92714 -0.63994,3.79538 -0.99415,5.59179 -4.36249,0.52706 -8.86525,0.8125 -13.47656,0.8125 -4.60928,0 -9.10805,-0.28588 -13.46875,-0.8125 -0.37462,-1.89844 -0.72011,-3.88567 -1.04297,-5.92968 -1.55857,-0.61817 -3.07693,-1.33127 -4.54297,-2.14063 0.36705,2.57029 0.75978,5.08359 1.20704,7.46094 -7.44853,-1.21158 -14.399948,-3.17111 -20.660161,-5.71485 -1.555949,-4.00496 -2.859268,-8.27786 -3.884765,-12.75976 -1.50256,-0.32197 -3.00525,-0.64289 -4.507813,-0.96484 0.825246,3.92923 1.857987,7.71957 3.080078,11.34179 -2.221549,-1.0975 -4.345439,-2.26537 -6.332031,-3.51562 -5.291148,-3.32995 -9.670573,-7.14681 -12.99414,-11.3086 -3.135485,-0.67186 -6.270783,-1.34367 -9.40625,-2.01562 z m 5.197265,3.38281 c 3.778609,5.08021 8.882265,9.63747 14.982422,13.47656 3.27027,2.05813 6.834856,3.91673 10.640625,5.5586 1.910751,4.62841 4.138371,8.93139 6.662109,12.81445 3.827214,5.8886 8.338401,10.85194 13.357421,14.58203 C 84.299262,154.612 67.160395,137.21596 60.470703,115.23828 Z m 134.710937,0.01 c -6.6921,21.97449 -23.83186,39.3677 -45.64453,46.42383 5.01992,-3.73029 9.53355,-8.69452 13.36133,-14.58399 2.52313,-3.88213 4.75166,-8.18339 6.66211,-12.81055 3.80884,-1.64254 7.37632,-3.50322 10.64843,-5.5625 6.09659,-3.83684 11.19634,-8.39018 14.97266,-13.46679 z m -103.558593,21.1875 c 5.964416,2.11505 12.422593,3.71312 19.238283,4.7207 0.40578,1.84951 0.83466,3.62983 1.28711,5.32813 1.78165,6.68765 3.89882,12.15408 6.39258,16.11328 0.27035,0.4292 0.55008,0.83631 0.83398,1.23437 -8.82266,-2.63706 -16.81201,-9.32821 -23.113281,-19.02344 -1.68172,-2.58751 -3.228568,-5.39406 -4.638672,-8.37304 z m 72.406253,0.002 c -1.40985,2.97818 -2.95541,5.78419 -4.63672,8.37109 -6.30171,9.6959 -14.29186,16.38676 -23.11524,19.02344 0.28392,-0.3981 0.56558,-0.80514 0.83594,-1.23437 2.49375,-3.95921 4.61092,-9.42562 6.39258,-16.11328 0.45244,-1.69831 0.88132,-3.47862 1.28711,-5.32813 6.81449,-1.00717 13.27233,-2.60483 19.23633,-4.71875 z m -48.74219,5.2832 c 4.07964,0.43861 8.26381,0.67969 12.53906,0.67969 4.27796,0 8.46623,-0.24053 12.54883,-0.67969 -0.2925,1.26498 -0.59159,2.50443 -0.90625,3.68555 -1.71358,6.43212 -3.76288,11.58477 -5.89063,14.96289 -2.12774,3.37811 -4.14516,4.72461 -5.75195,4.72461 -1.60679,-1e-5 -3.62225,-1.3465 -5.75,-4.72461 -2.12775,-3.37812 -4.16924,-8.53077 -5.88281,-14.96289 -0.31465,-1.18106 -0.61365,-2.42064 -0.90625,-3.68555 z"
       transform="scale(0.26458333)" />
    <path
       id="path1025"
       style="color:#000000;font-style:normal;font-variant:normal;font-weight:normal;font-stretch:normal;font-size:medium;line-height:normal;font-family:sans-serif;font-variant-ligatures:normal;font-variant-position:normal;font-variant-caps:normal;font-variant-numeric:normal;font-variant-alternates:normal;font-variant-east-asian:normal;font-feature-settings:normal;font-variation-settings:normal;text-indent:0;text-align:start;text-decoration:none;text-decoration-line:none;text-decoration-style:solid;text-decoration-color:#000000;letter-spacing:normal;word-spacing:normal;text-transform:none;writing-mode:lr-tb;direction:ltr;text-orientation:mixed;dominant-baseline:auto;baseline-shift:baseline;text-anchor:start;white-space:normal;shape-padding:0;shape-margin:0;inline-size:0;clip-rule:nonzero;display:inline;overflow:visible;visibility:visible;opacity:1;isolation:auto;mix-blend-mode:normal;color-interpolation:sRGB;color-interpolation-filters:linearRGB;solid-color:#000000;solid-opacity:1;vector-effect:none;fill:#808080;fill-opacity:1;fill-rule:nonzero;stroke:none;stroke-width:2.11667;stroke-linecap:square;stroke-linejoin:miter;stroke-miterlimit:4;stroke-dasharray:none;stroke-dashoffset:0;stroke-opacity:1;paint-order:markers fill stroke;color-rendering:auto;image-rendering:auto;shape-rendering:auto;text-rendering:auto;enable-background:accumulate;stop-color:#000000;stop-opacity:1"
       d="m 33.863384,15.769469 c -3.021585,2e-6 -5.713627,1.435959 -7.435386,3.659041 L 10.871757,22.762348 V 27.72762 27.794 l 15.637647,3.35137 0.02045,-0.09519 c 1.725131,2.148686 4.371021,3.528374 7.333526,3.528374 2.932646,0 5.556483,-1.351236 7.283012,-3.462833 l 0.0063,0.02964 15.637645,-3.35137 v -4.965275 -0.06638 L 41.31338,19.445625 c -1.721613,-2.232906 -4.420606,-3.676156 -7.449996,-3.676156 z m 0,1.710336 c 4.259752,0 7.695047,3.435294 7.695047,7.695046 0,4.25975 -3.435295,7.695044 -7.695047,7.695044 -4.259752,0 -7.695046,-3.435294 -7.695046,-7.695044 0,-4.259752 3.435294,-7.695046 7.695046,-7.695046 z m 4.26e-4,0.607822 a 7.0869081,7.0869081 0 0 0 -7.087224,7.086807 7.0869081,7.0869081 0 0 0 7.087224,7.087222 7.0869081,7.0869081 0 0 0 7.086807,-7.087222 7.0869081,7.0869081 0 0 0 -7.086807,-7.086807 z m 0.07389,1.760847 c 1.160061,0.01613 2.295428,0.41124 3.223211,1.142172 1.237045,0.974575 1.979424,2.447725 2.027606,4.021813 l 0.01586,0.533096 -1.06828,0.03339 -0.01586,-0.535184 c -0.03853,-1.258933 -0.632465,-2.434578 -1.621833,-3.214027 -0.989369,-0.77945 -2.271181,-1.08085 -3.504162,-0.823649 l -0.523914,0.108961 -0.217914,-1.046156 0.523914,-0.108545 c 0.385407,-0.0804 0.774687,-0.117262 1.161374,-0.111881 z m -8.698204,1.582593 C 24.781078,22.482761 24.51042,23.63369 24.46803,24.841718 H 12.582092 v -0.69716 z m 17.25614,0.01586 12.58434,2.697629 v 0.697158 H 43.259995 c -0.04219,-1.201969 -0.309977,-2.347376 -0.764369,-3.394787 z m -29.913542,4.037259 h 11.885513 c 0.0425,1.304504 0.351198,2.54252 0.874996,3.661546 L 12.582092,26.411785 Z m 30.678741,0 h 11.819136 v 0.927597 l -12.687454,2.718502 c 0.519616,-1.114999 0.825991,-2.347552 0.868318,-3.646099 z" />
  </g>
</svg>
