<?xml version="1.0" encoding="UTF-8" standalone="no"?>
<svg
   xmlns:dc="http://purl.org/dc/elements/1.1/"
   xmlns:cc="http://creativecommons.org/ns#"
   xmlns:rdf="http://www.w3.org/1999/02/22-rdf-syntax-ns#"
   xmlns:svg="http://www.w3.org/2000/svg"
   xmlns="http://www.w3.org/2000/svg"
   xmlns:sodipodi="http://sodipodi.sourceforge.net/DTD/sodipodi-0.dtd"
   xmlns:inkscape="http://www.inkscape.org/namespaces/inkscape"
   width="256"
   height="256"
   viewBox="0 0 67.733332 67.733335"
   version="1.1"
   id="svg8"
   inkscape:version="1.0.1 (3bc2e813f5, 2020-09-07)"
   sodipodi:docname="collector.svg"
   inkscape:export-filename="C:\Users\keath\Workspace\KMX\elite-streamdeck-icons\chaff.png"
   inkscape:export-xdpi="96"
   inkscape:export-ydpi="96">
  <defs
     id="defs2" />
  <sodipodi:namedview
     id="base"
     pagecolor="#000000"
     bordercolor="#666666"
     borderopacity="1.0"
     inkscape:pageopacity="0"
     inkscape:pageshadow="2"
     inkscape:zoom="5.6"
     inkscape:cx="124.1086"
     inkscape:cy="120.11104"
     inkscape:document-units="px"
     inkscape:current-layer="layer2"
     showgrid="true"
     units="px"
     inkscape:snap-grids="true"
     objecttolerance="10000"
     guidetolerance="10000"
     inkscape:window-width="2321"
     inkscape:window-height="1879"
     inkscape:window-x="4802"
     inkscape:window-y="103"
     inkscape:window-maximized="0"
     inkscape:document-rotation="0"
     showguides="true">
    <inkscape:grid
       type="xygrid"
       id="grid4623" />
    <sodipodi:guide
       position="-3.96875,62.441667"
       orientation="0,256"
       id="guide3351" />
    <sodipodi:guide
       position="62.177083,70.379167"
       orientation="256,0"
       id="guide3353" />
    <sodipodi:guide
       position="-2.6458333,22.754167"
       orientation="0,-256"
       id="guide3355" />
    <sodipodi:guide
       position="5.2916667,70.379167"
       orientation="-256,0"
       id="guide3357" />
    <sodipodi:guide
       position="0,67.733334"
       orientation="0,256"
       id="guide3359" />
    <sodipodi:guide
       position="67.733334,67.733334"
       orientation="256,0"
       id="guide3361" />
    <sodipodi:guide
       position="67.733334,0"
       orientation="0,-256"
       id="guide3363" />
    <sodipodi:guide
       position="0,0"
       orientation="-256,0"
       id="guide3365" />
    <sodipodi:guide
       position="0,67.733334"
       orientation="0,256"
       id="guide3367" />
    <sodipodi:guide
       position="67.733334,67.733334"
       orientation="256,0"
       id="guide3369" />
    <sodipodi:guide
       position="67.733334,0"
       orientation="0,-256"
       id="guide3371" />
    <sodipodi:guide
       position="0,0"
       orientation="-256,0"
       id="guide3373" />
    <sodipodi:guide
       position="0,67.733334"
       orientation="0,256"
       id="guide3375" />
    <sodipodi:guide
       position="67.733334,67.733334"
       orientation="256,0"
       id="guide3377" />
    <sodipodi:guide
       position="67.733334,0"
       orientation="0,-256"
       id="guide3379" />
    <sodipodi:guide
       position="0,0"
       orientation="-256,0"
       id="guide3381" />
  </sodipodi:namedview>
  <metadata
     id="metadata5">
    <rdf:RDF>
      <cc:Work
         rdf:about="">
        <dc:format>image/svg+xml</dc:format>
        <dc:type
           rdf:resource="http://purl.org/dc/dcmitype/StillImage" />
        <dc:title></dc:title>
      </cc:Work>
    </rdf:RDF>
  </metadata>
  <g
     inkscape:groupmode="layer"
     id="layer2"
     inkscape:label="Icon">
    <path
       id="path1888"
       style="color:#000000;font-style:normal;font-variant:normal;font-weight:normal;font-stretch:normal;font-size:medium;line-height:normal;font-family:sans-serif;font-variant-ligatures:normal;font-variant-position:normal;font-variant-caps:normal;font-variant-numeric:normal;font-variant-alternates:normal;font-variant-east-asian:normal;font-feature-settings:normal;font-variation-settings:normal;text-indent:0;text-align:start;text-decoration:none;text-decoration-line:none;text-decoration-style:solid;text-decoration-color:#000000;letter-spacing:normal;word-spacing:normal;text-transform:none;writing-mode:lr-tb;direction:ltr;text-orientation:mixed;dominant-baseline:auto;baseline-shift:baseline;text-anchor:start;white-space:normal;shape-padding:0;shape-margin:0;inline-size:0;clip-rule:nonzero;display:inline;overflow:visible;visibility:visible;isolation:auto;mix-blend-mode:normal;color-interpolation:sRGB;color-interpolation-filters:linearRGB;solid-color:#000000;solid-opacity:1;vector-effect:none;fill:#808080;fill-opacity:1;fill-rule:nonzero;stroke:none;stroke-width:3.99999;stroke-linecap:round;stroke-linejoin:round;stroke-miterlimit:4;stroke-dasharray:none;stroke-dashoffset:0;stroke-opacity:1;color-rendering:auto;image-rendering:auto;shape-rendering:auto;text-rendering:auto;enable-background:accumulate;stop-color:#000000"
       d="M 129.99805 25.884766 C 122.30862 25.884766 114.62041 27.376222 107.6875 30.361328 C 93.821683 36.331541 84.958984 47.577713 84.958984 60 A 2.0001938 2.0001938 0 0 0 86.958984 62 L 90 62 L 90 67.056641 L 86.345703 67.056641 A 3.4438301 2.5683056 0 0 0 82.900391 69.626953 L 82.900391 96.125 L 89.472656 91.228516 A 7.7478665 5.7781272 0 0 1 95.064453 89.533203 A 7.7478665 5.7781272 0 0 1 100.42773 91.228516 A 7.7478665 5.7781272 0 0 1 100.42773 99.398438 L 82.900391 112.47266 L 82.900391 127.4082 A 3.4438301 2.5683056 0 0 0 86.345703 129.97656 L 121.64062 129.97656 L 121.64062 95.3125 A 7.7478672 5.7781275 0 0 1 129.38086 89.533203 A 7.7478672 5.7781275 0 0 1 137.13281 95.3125 L 137.13281 129.97656 L 172.42969 129.97656 A 3.4438301 2.5683056 0 0 0 175.87305 127.4082 L 175.87305 112.46875 L 158.3457 99.398438 A 7.7478672 5.7781275 0 0 1 158.3457 91.228516 A 7.7478672 5.7781275 0 0 1 163.9375 89.533203 A 7.7478672 5.7781275 0 0 1 169.30078 91.228516 L 175.87305 96.128906 L 175.87305 69.626953 A 3.4438301 2.5683056 0 0 0 172.42969 67.056641 L 170 67.056641 L 170 62 L 173.04688 62 A 2.0001938 2.0001938 0 0 0 175.04688 60 C 175.04688 47.57771 166.17636 36.331541 152.31055 30.361328 C 145.37764 27.376222 137.68747 25.884766 129.99805 25.884766 z M 119.375 50.177734 L 141.69531 50.177734 L 130.53516 65.177734 L 119.375 50.177734 z M 109.99805 57.003906 A 3 3 0 0 1 113.00195 60 L 113.00195 77 L 147.00391 77 L 147.00391 60 A 3 3 0 0 1 150 57.003906 A 3 3 0 0 1 152.99609 60 L 152.99609 83.001953 L 107 83.001953 L 107 60 A 3 3 0 0 1 109.99805 57.003906 z "
       transform="scale(0.26458333)" />
    <path
       style="fill:none;stroke:#808080;stroke-width:1.5875;stroke-linecap:round;stroke-linejoin:miter;stroke-miterlimit:4;stroke-dasharray:none;stroke-opacity:1"
       d="m 43.344061,25.217645 9.110918,6.79465 -4.55546,10.191974"
       id="path1635-6" />
    <path
       style="fill:none;stroke:#808080;stroke-width:1.5875;stroke-linecap:round;stroke-linejoin:miter;stroke-miterlimit:4;stroke-dasharray:none;stroke-opacity:1"
       d="m 25.122225,25.217646 -9.110917,6.794649 4.55546,10.191974"
       id="path1635-5-3" />
    <path
       style="fill:none;stroke:#808080;stroke-width:1.5875;stroke-linecap:round;stroke-linejoin:miter;stroke-miterlimit:4;stroke-dasharray:none;stroke-opacity:1"
       d="M 34.233142,25.217645 V 42.204269"
       id="path1704-7" />
  </g>
</svg>
