<?xml version="1.0" encoding="UTF-8" standalone="no"?>
<svg
   xmlns:dc="http://purl.org/dc/elements/1.1/"
   xmlns:cc="http://creativecommons.org/ns#"
   xmlns:rdf="http://www.w3.org/1999/02/22-rdf-syntax-ns#"
   xmlns:svg="http://www.w3.org/2000/svg"
   xmlns="http://www.w3.org/2000/svg"
   xmlns:sodipodi="http://sodipodi.sourceforge.net/DTD/sodipodi-0.dtd"
   xmlns:inkscape="http://www.inkscape.org/namespaces/inkscape"
   width="256"
   height="256"
   viewBox="0 0 67.733332 67.733335"
   version="1.1"
   id="svg8"
   inkscape:version="1.0.1 (3bc2e813f5, 2020-09-07)"
   sodipodi:docname="combat.svg"
   inkscape:export-filename="C:\Users\keath\Workspace\KMX\elite-streamdeck-icons\ship-lights.png"
   inkscape:export-xdpi="96"
   inkscape:export-ydpi="96">
  <defs
     id="defs2" />
  <sodipodi:namedview
     id="base"
     pagecolor="#000000"
     bordercolor="#666666"
     borderopacity="1.0"
     inkscape:pageopacity="0"
     inkscape:pageshadow="2"
     inkscape:zoom="5.6"
     inkscape:cx="111.90634"
     inkscape:cy="121.54987"
     inkscape:document-units="px"
     inkscape:current-layer="layer2"
     showgrid="true"
     units="px"
     inkscape:snap-grids="true"
     objecttolerance="10000"
     guidetolerance="10000"
     inkscape:window-width="3840"
     inkscape:window-height="2066"
     inkscape:window-x="3829"
     inkscape:window-y="-11"
     inkscape:window-maximized="1"
     inkscape:document-rotation="0"
     showguides="true"
     inkscape:guide-bbox="true">
    <inkscape:grid
       type="xygrid"
       id="grid4623" />
    <sodipodi:guide
       position="-3.96875,62.441667"
       orientation="0,256"
       id="guide3351" />
    <sodipodi:guide
       position="62.441667,42.597917"
       orientation="-1,0"
       id="guide3353"
       inkscape:label=""
       inkscape:locked="false"
       inkscape:color="rgb(0,0,255)" />
    <sodipodi:guide
       position="-2.6458333,22.754167"
       orientation="0,-256"
       id="guide3355" />
    <sodipodi:guide
       position="5.2916667,70.379167"
       orientation="-256,0"
       id="guide3357" />
    <sodipodi:guide
       position="0,67.733334"
       orientation="0,256"
       id="guide3359" />
    <sodipodi:guide
       position="67.733334,67.733334"
       orientation="256,0"
       id="guide3361" />
    <sodipodi:guide
       position="67.733334,0"
       orientation="0,-256"
       id="guide3363" />
    <sodipodi:guide
       position="0,0"
       orientation="-256,0"
       id="guide3365" />
    <sodipodi:guide
       position="0,67.733334"
       orientation="0,256"
       id="guide3367" />
    <sodipodi:guide
       position="67.733334,67.733334"
       orientation="256,0"
       id="guide3369" />
    <sodipodi:guide
       position="67.733334,0"
       orientation="0,-256"
       id="guide3371" />
    <sodipodi:guide
       position="0,0"
       orientation="-256,0"
       id="guide3373" />
    <sodipodi:guide
       position="0,67.733334"
       orientation="0,256"
       id="guide3375" />
    <sodipodi:guide
       position="67.733334,67.733334"
       orientation="256,0"
       id="guide3377" />
    <sodipodi:guide
       position="67.733334,0"
       orientation="0,-256"
       id="guide3379" />
    <sodipodi:guide
       position="0,0"
       orientation="-256,0"
       id="guide3381" />
    <sodipodi:guide
       position="33.866667,46.83125"
       orientation="1,0"
       id="guide895" />
    <sodipodi:guide
       position="41.010417,42.597917"
       orientation="0,-1"
       id="guide897" />
  </sodipodi:namedview>
  <metadata
     id="metadata5">
    <rdf:RDF>
      <cc:Work
         rdf:about="">
        <dc:format>image/svg+xml</dc:format>
        <dc:type
           rdf:resource="http://purl.org/dc/dcmitype/StillImage" />
        <dc:title />
      </cc:Work>
    </rdf:RDF>
  </metadata>
  <g
     inkscape:groupmode="layer"
     id="layer2"
     inkscape:label="Icon">
    <path
       id="rect1203-5"
       style="fill:#808080;fill-opacity:1;stroke:none;stroke-width:0.79375;stroke-linecap:square;stroke-linejoin:miter;stroke-miterlimit:4;stroke-dasharray:none;stroke-dashoffset:0;stroke-opacity:1;paint-order:markers stroke fill"
       d="m 20.814898,9.5670987 0.09398,3.5163583 17.998708,17.998708 3.199728,-3.199097 0.222652,-0.223282 -17.99871,-17.9987062 z m 26.295422,0 -3.516358,0.093983 -9.174067,9.1740663 c 0.494355,0.494417 0.989137,0.988441 1.483491,1.482864 l 9.126132,-9.126133 0.445931,0.445932 -9.126134,9.126132 c 0.497719,0.497782 0.995228,0.995809 1.492955,1.493586 l 9.174071,-9.17407 z M 22.896329,11.191878 40.184828,28.481006 39.738898,28.926937 22.44977,11.637809 Z m 7.186618,11.980216 -4.487695,4.487692 0.223283,0.223282 3.199096,3.199097 4.487062,-4.48706 c -0.49774,-0.497761 -0.995205,-0.995837 -1.492955,-1.493586 l -3.825417,3.825418 -0.445932,-0.445931 3.825418,-3.825418 c -0.494381,-0.494384 -0.988478,-0.989105 -1.48286,-1.483494 z m -5.826747,1.919332 -0.609293,1.666406 2.09657,2.09657 -5.442629,5.442629 -0.463589,-0.463592 -0.314109,0.313477 3.140439,3.140438 0.313475,-0.314107 -0.582801,-0.5828 5.442,-5.442629 1.842383,1.842382 1.665775,-0.610553 -0.152007,-0.416287 -1.399608,0.511528 -5.631217,-5.631218 0.512159,-1.398974 z m 19.41282,0 -0.41755,0.15327 0.51216,1.398974 -5.630589,5.631218 -1.400237,-0.511528 -0.152006,0.416287 1.665773,0.610553 1.842385,-1.842382 5.442629,5.442629 -0.583432,0.5828 0.314105,0.314107 3.13981,-3.140438 -0.313475,-0.313477 -0.463594,0.463592 -5.442628,-5.442629 2.096569,-2.09657 z" />
    <path
       style="font-variation-settings:normal;opacity:1;vector-effect:none;fill:none;fill-opacity:1;stroke:#808080;stroke-width:2.38125001;stroke-linecap:butt;stroke-linejoin:miter;stroke-miterlimit:4;stroke-dasharray:none;stroke-dashoffset:0;stroke-opacity:1;stop-color:#000000;stop-opacity:1"
       d="M 54.343528,6.6145833 V 31.309026 C 54.311504,36.375883 47.760194,40.512802 33.838319,43.656249 19.916444,40.512802 13.365112,36.375883 13.333111,31.309026 V 6.6145833 h 20.505208 z"
       id="path2024-7"
       sodipodi:nodetypes="ccccccc" />
  </g>
</svg>
