<?xml version="1.0" encoding="UTF-8" standalone="no"?>
<svg
   xmlns:dc="http://purl.org/dc/elements/1.1/"
   xmlns:cc="http://creativecommons.org/ns#"
   xmlns:rdf="http://www.w3.org/1999/02/22-rdf-syntax-ns#"
   xmlns:svg="http://www.w3.org/2000/svg"
   xmlns="http://www.w3.org/2000/svg"
   xmlns:sodipodi="http://sodipodi.sourceforge.net/DTD/sodipodi-0.dtd"
   xmlns:inkscape="http://www.inkscape.org/namespaces/inkscape"
   width="256"
   height="256"
   viewBox="0 0 67.733332 67.733335"
   version="1.1"
   id="svg8"
   inkscape:version="1.0.1 (3bc2e813f5, 2020-09-07)"
   sodipodi:docname="eddb.svg"
   inkscape:export-filename="C:\Users\keath\Workspace\KMX\elite-streamdeck-icons\ship-lights.png"
   inkscape:export-xdpi="96"
   inkscape:export-ydpi="96">
  <defs
     id="defs2" />
  <sodipodi:namedview
     id="base"
     pagecolor="#000000"
     bordercolor="#666666"
     borderopacity="1.0"
     inkscape:pageopacity="0"
     inkscape:pageshadow="2"
     inkscape:zoom="5.6"
     inkscape:cx="111.90634"
     inkscape:cy="121.54987"
     inkscape:document-units="px"
     inkscape:current-layer="layer2"
     showgrid="true"
     units="px"
     inkscape:snap-grids="true"
     objecttolerance="10000"
     guidetolerance="10000"
     inkscape:window-width="3840"
     inkscape:window-height="2066"
     inkscape:window-x="3829"
     inkscape:window-y="-11"
     inkscape:window-maximized="1"
     inkscape:document-rotation="0"
     showguides="true"
     inkscape:guide-bbox="true">
    <inkscape:grid
       type="xygrid"
       id="grid4623" />
    <sodipodi:guide
       position="-3.96875,62.441667"
       orientation="0,256"
       id="guide3351" />
    <sodipodi:guide
       position="62.441667,42.597917"
       orientation="-1,0"
       id="guide3353"
       inkscape:label=""
       inkscape:locked="false"
       inkscape:color="rgb(0,0,255)" />
    <sodipodi:guide
       position="-2.6458333,22.754167"
       orientation="0,-256"
       id="guide3355" />
    <sodipodi:guide
       position="5.2916667,70.379167"
       orientation="-256,0"
       id="guide3357" />
    <sodipodi:guide
       position="0,67.733334"
       orientation="0,256"
       id="guide3359" />
    <sodipodi:guide
       position="67.733334,67.733334"
       orientation="256,0"
       id="guide3361" />
    <sodipodi:guide
       position="67.733334,0"
       orientation="0,-256"
       id="guide3363" />
    <sodipodi:guide
       position="0,0"
       orientation="-256,0"
       id="guide3365" />
    <sodipodi:guide
       position="0,67.733334"
       orientation="0,256"
       id="guide3367" />
    <sodipodi:guide
       position="67.733334,67.733334"
       orientation="256,0"
       id="guide3369" />
    <sodipodi:guide
       position="67.733334,0"
       orientation="0,-256"
       id="guide3371" />
    <sodipodi:guide
       position="0,0"
       orientation="-256,0"
       id="guide3373" />
    <sodipodi:guide
       position="0,67.733334"
       orientation="0,256"
       id="guide3375" />
    <sodipodi:guide
       position="67.733334,67.733334"
       orientation="256,0"
       id="guide3377" />
    <sodipodi:guide
       position="67.733334,0"
       orientation="0,-256"
       id="guide3379" />
    <sodipodi:guide
       position="0,0"
       orientation="-256,0"
       id="guide3381" />
    <sodipodi:guide
       position="33.866667,46.83125"
       orientation="1,0"
       id="guide895" />
    <sodipodi:guide
       position="41.010417,42.597917"
       orientation="0,-1"
       id="guide897" />
  </sodipodi:namedview>
  <metadata
     id="metadata5">
    <rdf:RDF>
      <cc:Work
         rdf:about="">
        <dc:format>image/svg+xml</dc:format>
        <dc:type
           rdf:resource="http://purl.org/dc/dcmitype/StillImage" />
        <dc:title></dc:title>
      </cc:Work>
    </rdf:RDF>
  </metadata>
  <g
     inkscape:groupmode="layer"
     id="layer2"
     inkscape:label="Icon">
    <path
       id="path1155"
       style="color:#000000;font-style:normal;font-variant:normal;font-weight:normal;font-stretch:normal;font-size:medium;line-height:normal;font-family:sans-serif;font-variant-ligatures:normal;font-variant-position:normal;font-variant-caps:normal;font-variant-numeric:normal;font-variant-alternates:normal;font-variant-east-asian:normal;font-feature-settings:normal;font-variation-settings:normal;text-indent:0;text-align:start;text-decoration:none;text-decoration-line:none;text-decoration-style:solid;text-decoration-color:#000000;letter-spacing:normal;word-spacing:normal;text-transform:none;writing-mode:lr-tb;direction:ltr;text-orientation:mixed;dominant-baseline:auto;baseline-shift:baseline;text-anchor:start;white-space:normal;shape-padding:0;shape-margin:0;inline-size:0;clip-rule:nonzero;display:inline;overflow:visible;visibility:visible;isolation:auto;mix-blend-mode:normal;color-interpolation:sRGB;color-interpolation-filters:linearRGB;solid-color:#000000;solid-opacity:1;vector-effect:none;fill:#808080;fill-opacity:1;fill-rule:nonzero;stroke:none;stroke-width:0.264583;stroke-linecap:butt;stroke-linejoin:miter;stroke-miterlimit:4;stroke-dasharray:none;stroke-dashoffset:0;stroke-opacity:1;color-rendering:auto;image-rendering:auto;shape-rendering:auto;text-rendering:auto;enable-background:accumulate;stop-color:#000000"
       d="m 27.682722,14.753121 -0.0069,0.0035 c -0.111792,0.04711 -0.223413,0.105824 -0.314739,0.210036 -0.09134,0.104212 -0.160832,0.252521 -0.193973,0.471504 l -0.0011,0.0029 v 13.867725 a 1.3373586,1.3373586 0 0 1 0.757619,1.205094 1.3373586,1.3373586 0 0 1 -1.337359,1.337358 1.3373586,1.3373586 0 0 1 -1.337357,-1.337358 1.3373586,1.3373586 0 0 1 0.762522,-1.207389 v -8.757559 l -0.0021,-0.0064 c -0.04818,-0.122754 -0.09952,-0.252736 -0.215855,-0.362664 -0.116336,-0.109929 -0.295318,-0.196835 -0.590758,-0.243713 l -0.0033,-4.7e-4 h -3.775857 l -0.0048,4.7e-4 c -0.151331,0.03294 -0.303481,0.07475 -0.435072,0.171916 -0.131585,0.09717 -0.239206,0.249565 -0.300969,0.494161 l -0.0011,0.0052 v 0.0045 13.123598 0.0018 c 0.02721,0.260028 0.09985,0.422201 0.204824,0.520647 0.10499,0.09845 0.238162,0.128395 0.372151,0.137776 l 0.0011,6.99e-4 h 10.757852 l 0.0043,-0.0013 c 0.215632,-0.04833 0.332763,-0.139862 0.39863,-0.248151 0.06588,-0.108288 0.08233,-0.227677 0.115115,-0.332809 l 0.0021,-0.0057 V 15.314946 l -0.0011,-0.0039 c -0.04006,-0.182484 -0.127894,-0.315061 -0.249989,-0.403921 -0.122003,-0.08886 -0.275754,-0.134532 -0.448692,-0.153392 l -0.0021,-6.45e-4 z m 22.91221,0 -0.0021,6.44e-4 c -0.172936,0.01886 -0.326844,0.06454 -0.448848,0.153392 -0.122094,0.08886 -0.209926,0.221436 -0.249987,0.403842 l -0.0011,0.0039 v 18.493698 l 0.0021,0.0057 c 0.0328,0.105134 0.04925,0.224523 0.115126,0.332811 0.06587,0.108289 0.183002,0.199826 0.398636,0.248151 l 0.0043,0.0013 h 10.757779 l 0.0011,-7.24e-4 c 0.133994,-0.0094 0.267162,-0.03933 0.372152,-0.137779 0.104975,-0.09844 0.17761,-0.260621 0.20483,-0.520644 v -0.0018 -13.123597 -0.0045 l -0.0011,-0.0052 C 61.68605,20.357719 61.578437,20.205323 61.446852,20.108153 61.31526,20.010983 61.163111,19.96918 61.011781,19.936238 l -0.0049,-6.45e-4 h -3.77585 l -0.0033,6.45e-4 c -0.295446,0.04688 -0.474416,0.133784 -0.590757,0.243714 -0.116331,0.109927 -0.167663,0.239909 -0.215853,0.362659 l -0.0021,0.0064 v 8.757584 a 1.3373586,1.3373586 0 0 1 0.762518,1.207387 1.3373586,1.3373586 0 0 1 -1.337359,1.33736 1.3373586,1.3373586 0 0 1 -1.337358,-1.33736 1.3373586,1.3373586 0 0 1 0.757617,-1.205092 V 15.441088 l -0.0011,-0.0029 c -0.03308,-0.218976 -0.102578,-0.367285 -0.19391,-0.471497 -0.09133,-0.104211 -0.202958,-0.162926 -0.314745,-0.210034 l -0.0069,-0.0035 z m -8.280567,1.55e-4 -0.0069,0.0035 c -0.111792,0.04711 -0.223419,0.105823 -0.314757,0.210034 -0.09133,0.104212 -0.160815,0.252521 -0.193956,0.471506 l -0.0011,0.0029 v 13.867746 a 1.3373586,1.3373586 0 0 1 0.757619,1.205093 1.3373586,1.3373586 0 0 1 -1.337353,1.33736 1.3373586,1.3373586 0 0 1 -1.337359,-1.33736 1.3373586,1.3373586 0 0 1 0.762517,-1.207387 v -8.757584 l -0.0021,-0.0064 c -0.04824,-0.122758 -0.09958,-0.25274 -0.215916,-0.362669 -0.116337,-0.109929 -0.295313,-0.196836 -0.590759,-0.243713 l -0.0033,-6.45e-4 h -3.77586 l -0.0049,6.45e-4 c -0.151332,0.03294 -0.30347,0.07475 -0.435066,0.171915 -0.131592,0.09717 -0.239207,0.249566 -0.300969,0.494161 l -0.0011,0.0052 v 0.0045 13.123598 0.0016 c 0.02721,0.260028 0.09985,0.4222 0.204819,0.520647 0.104989,0.09845 0.238168,0.128395 0.372157,0.137776 l 0.0011,6.99e-4 h 10.7578 l 0.0043,-0.0013 c 0.215633,-0.04833 0.332615,-0.139861 0.398486,-0.248151 0.06587,-0.108288 0.08233,-0.227676 0.115121,-0.332809 l 0.0021,-0.0057 V 15.315065 l -0.0011,-0.0039 c -0.04,-0.182445 -0.127838,-0.315021 -0.249934,-0.403881 -0.122004,-0.08886 -0.275911,-0.134533 -0.448854,-0.153393 l -0.0021,-6.45e-4 z m -35.4551673,5.154557 -0.00642,0.0018 c -0.173792,0.05889 -0.3406628,0.130971 -0.476707,0.248765 -0.1360434,0.117793 -0.2394046,0.281918 -0.2835194,0.51544 l -0.00111,0.0035 v 0.0041 13.056391 l 0.00111,0.0047 c 0.035217,0.150066 0.055613,0.316045 0.1607307,0.451296 0.1051088,0.135251 0.2925049,0.229486 0.6376047,0.243561 h 0.00111 10.4655743 l 0.0038,-7e-4 c 0.138523,-0.02592 0.26321,-0.07643 0.357612,-0.17069 0.09441,-0.09426 0.155822,-0.230636 0.17298,-0.418385 v -0.0016 -2.592663 c -0.0011,-0.253129 -0.07724,-0.410321 -0.192736,-0.508705 -0.115492,-0.09838 -0.263075,-0.138725 -0.403227,-0.180488 l -0.0058,-0.0016 H 11.408026 V 24.91911 h 0.0043 a 1.3373586,1.3373586 0 0 1 -0.727178,-1.189913 1.3373586,1.3373586 0 0 1 1.337359,-1.337358 1.3373586,1.3373586 0 0 1 1.337358,1.337358 1.3373586,1.3373586 0 0 1 -0.742314,1.197592 v 4.298805 l 0.211868,0.12201 h 4.371834 c 0.236964,0.0049 0.402184,-0.06105 0.513757,-0.173599 0.111571,-0.112548 0.168253,-0.267273 0.20421,-0.434458 l 0.0011,-0.0041 v -8.154575 l -0.0011,-0.0035 C 17.89201,20.429983 17.84569,20.280258 17.716687,20.1596 17.587682,20.038942 17.380712,19.94984 17.04035,19.907926 h -0.0021 z" />
  </g>
</svg>
