<?xml version="1.0" encoding="UTF-8" standalone="no"?>
<svg
   xmlns:dc="http://purl.org/dc/elements/1.1/"
   xmlns:cc="http://creativecommons.org/ns#"
   xmlns:rdf="http://www.w3.org/1999/02/22-rdf-syntax-ns#"
   xmlns:svg="http://www.w3.org/2000/svg"
   xmlns="http://www.w3.org/2000/svg"
   xmlns:sodipodi="http://sodipodi.sourceforge.net/DTD/sodipodi-0.dtd"
   xmlns:inkscape="http://www.inkscape.org/namespaces/inkscape"
   width="256"
   height="256"
   viewBox="0 0 67.733332 67.733335"
   version="1.1"
   id="svg8"
   inkscape:version="1.0.1 (3bc2e813f5, 2020-09-07)"
   sodipodi:docname="edsm.svg"
   inkscape:export-filename="C:\Users\keath\Workspace\KMX\elite-streamdeck-icons\ship-lights.png"
   inkscape:export-xdpi="96"
   inkscape:export-ydpi="96">
  <defs
     id="defs2">
    <filter
       id="filterShadow"
       x="0"
       y="0">
      <feOffset
         result="offOut"
         in="SourceAlpha"
         dx="-5"
         dy="-5"
         id="feOffset2" />
      <feGaussianBlur
         result="blurOut"
         in="offOut"
         stdDeviation="3"
         id="feGaussianBlur4" />
      <feBlend
         in="SourceGraphic"
         in2="blurOut"
         mode="normal"
         id="feBlend6" />
    </filter>
    <filter
       id="filter890"
       x="0"
       y="0">
      <feOffset
         result="offOut"
         in="SourceAlpha"
         dx="-5"
         dy="-5"
         id="feOffset884" />
      <feGaussianBlur
         result="blurOut"
         in="offOut"
         stdDeviation="3"
         id="feGaussianBlur886" />
      <feBlend
         in="SourceGraphic"
         in2="blurOut"
         mode="normal"
         id="feBlend888" />
    </filter>
    <filter
       id="filter898"
       x="0"
       y="0">
      <feOffset
         result="offOut"
         in="SourceAlpha"
         dx="-5"
         dy="-5"
         id="feOffset892" />
      <feGaussianBlur
         result="blurOut"
         in="offOut"
         stdDeviation="3"
         id="feGaussianBlur894" />
      <feBlend
         in="SourceGraphic"
         in2="blurOut"
         mode="normal"
         id="feBlend896" />
    </filter>
  </defs>
  <sodipodi:namedview
     id="base"
     pagecolor="#000000"
     bordercolor="#666666"
     borderopacity="1.0"
     inkscape:pageopacity="0"
     inkscape:pageshadow="2"
     inkscape:zoom="2.8"
     inkscape:cx="163.73987"
     inkscape:cy="147.44677"
     inkscape:document-units="px"
     inkscape:current-layer="layer2"
     showgrid="true"
     units="px"
     inkscape:snap-grids="true"
     objecttolerance="10000"
     guidetolerance="10000"
     inkscape:window-width="3840"
     inkscape:window-height="2066"
     inkscape:window-x="-11"
     inkscape:window-y="-11"
     inkscape:window-maximized="1"
     inkscape:document-rotation="0"
     showguides="true"
     inkscape:guide-bbox="true">
    <inkscape:grid
       type="xygrid"
       id="grid4623" />
    <sodipodi:guide
       position="-3.96875,62.441667"
       orientation="0,256"
       id="guide3351" />
    <sodipodi:guide
       position="62.441667,42.597917"
       orientation="-1,0"
       id="guide3353"
       inkscape:label=""
       inkscape:locked="false"
       inkscape:color="rgb(0,0,255)" />
    <sodipodi:guide
       position="-2.6458333,22.754167"
       orientation="0,-256"
       id="guide3355" />
    <sodipodi:guide
       position="5.2916667,70.379167"
       orientation="-256,0"
       id="guide3357" />
    <sodipodi:guide
       position="0,67.733334"
       orientation="0,256"
       id="guide3359" />
    <sodipodi:guide
       position="67.733334,67.733334"
       orientation="256,0"
       id="guide3361" />
    <sodipodi:guide
       position="67.733334,0"
       orientation="0,-256"
       id="guide3363" />
    <sodipodi:guide
       position="0,0"
       orientation="-256,0"
       id="guide3365" />
    <sodipodi:guide
       position="0,67.733334"
       orientation="0,256"
       id="guide3367" />
    <sodipodi:guide
       position="67.733334,67.733334"
       orientation="256,0"
       id="guide3369" />
    <sodipodi:guide
       position="67.733334,0"
       orientation="0,-256"
       id="guide3371" />
    <sodipodi:guide
       position="0,0"
       orientation="-256,0"
       id="guide3373" />
    <sodipodi:guide
       position="0,67.733334"
       orientation="0,256"
       id="guide3375" />
    <sodipodi:guide
       position="67.733334,67.733334"
       orientation="256,0"
       id="guide3377" />
    <sodipodi:guide
       position="67.733334,0"
       orientation="0,-256"
       id="guide3379" />
    <sodipodi:guide
       position="0,0"
       orientation="-256,0"
       id="guide3381" />
    <sodipodi:guide
       position="33.866667,46.83125"
       orientation="1,0"
       id="guide895" />
    <sodipodi:guide
       position="41.010417,42.597917"
       orientation="0,-1"
       id="guide897" />
  </sodipodi:namedview>
  <metadata
     id="metadata5">
    <rdf:RDF>
      <cc:Work
         rdf:about="">
        <dc:format>image/svg+xml</dc:format>
        <dc:type
           rdf:resource="http://purl.org/dc/dcmitype/StillImage" />
        <dc:title />
      </cc:Work>
    </rdf:RDF>
  </metadata>
  <g
     inkscape:groupmode="layer"
     id="layer2"
     inkscape:label="Icon">
    <path
       id="path918"
       style="color:#000000;font-style:normal;font-variant:normal;font-weight:normal;font-stretch:normal;font-size:medium;line-height:normal;font-family:sans-serif;font-variant-ligatures:normal;font-variant-position:normal;font-variant-caps:normal;font-variant-numeric:normal;font-variant-alternates:normal;font-variant-east-asian:normal;font-feature-settings:normal;font-variation-settings:normal;text-indent:0;text-align:start;text-decoration:none;text-decoration-line:none;text-decoration-style:solid;text-decoration-color:#000000;letter-spacing:normal;word-spacing:normal;text-transform:none;writing-mode:lr-tb;direction:ltr;text-orientation:mixed;dominant-baseline:auto;baseline-shift:baseline;text-anchor:start;white-space:normal;shape-padding:0;shape-margin:0;inline-size:0;clip-rule:nonzero;display:inline;overflow:visible;visibility:visible;opacity:1;isolation:auto;mix-blend-mode:normal;color-interpolation:sRGB;color-interpolation-filters:linearRGB;solid-color:#000000;solid-opacity:1;vector-effect:none;fill:#808080;fill-opacity:1;fill-rule:nonzero;stroke:none;stroke-width:6;stroke-linecap:butt;stroke-linejoin:miter;stroke-miterlimit:4;stroke-dasharray:24, 24;stroke-dashoffset:0;stroke-opacity:1;color-rendering:auto;image-rendering:auto;shape-rendering:auto;text-rendering:auto;enable-background:accumulate;stop-color:#000000;stop-opacity:1"
       d="m 161.0957,19.230469 -0.004,0.103515 c -0.007,0.02157 -0.008,0.04452 -0.0137,0.06641 l -0.0723,-0.103516 c -0.14411,0.428947 -0.0282,0.876913 -0.11719,1.283203 -0.18077,0.825353 -0.0887,1.744907 -0.25976,2.503906 l -0.006,0.0059 v 0.0078 c -0.01,0.222939 -0.0214,0.44902 -0.0312,0.671875 l 0.008,-0.02148 c -0.27802,1.134284 -0.19976,2.418604 -0.46484,3.490234 l -0.008,0.0078 v 0.0078 c -0.0193,0.203524 -0.0393,0.401885 -0.0586,0.605469 l 0.008,-0.0078 c -0.28437,1.138646 -0.38145,2.311905 -0.72265,3.367188 -0.72725,2.249733 -1.72461,3.958173 -3.53711,5.091797 -0.12923,0.08092 -0.24787,0.07856 -0.42774,0.169922 -0.0603,0.0305 -0.12844,0.08133 -0.1914,0.126953 -0.063,0.04562 -0.12356,0.08884 -0.16211,0.109375 -0.15769,0.08368 -0.3147,0.08421 -0.51758,0.169922 -0.64623,0.27295 -1.41542,0.46804 -2.16211,0.664062 -0.47063,0.12347 -0.98385,0.150078 -1.45508,0.265625 -0.4042,0.09921 -0.85019,0.07513 -1.24805,0.169922 h -0.42773 -0.008 c -0.71763,0.159232 -1.67213,0.07427 -2.44336,0.265625 l 0.0234,-0.0059 h -0.55469 c -0.28003,0.0155 -0.66931,0.02651 -0.94531,0.08789 -0.0308,0.0068 -0.0676,0.0017 -0.0996,0.0059 l -0.002,-0.0059 c -0.004,0.002 -0.008,0.0038 -0.0117,0.0059 -0.30236,0.03624 -0.6435,-0.01784 -0.96289,0.05273 -0.4211,0.09332 -0.93349,-0.03714 -1.36718,0.05859 -0.0355,0.0079 -0.1084,0.01273 -0.17579,0.0078 -0.0674,-0.0049 -0.14146,-0.02678 -0.13281,-0.02148 l -0.0234,-0.01563 h -0.0293 c -0.0798,0.006 -0.12238,0.02048 -0.16992,0.03711 l -0.0664,0.02344 v 0.06641 c 0.002,0.09506 0.014,0.162828 0.0371,0.228516 l 0.0234,0.05859 h 0.0664 c 0.61653,0.0069 1.23151,0.01455 1.84766,0.02148 -6.84158,3.632346 -13.49124,7.613818 -19.91992,11.916016 l 3.33789,4.990234 c 6.56426,-4.392934 13.3507,-8.451455 20.33594,-12.115234 l -2.47657,-4.71875 c 0.89221,0.08773 1.96658,-0.01784 2.7793,0.164062 l 0.008,0.0078 h 0.008 c 0.31004,0.0098 0.61981,0.01947 0.92969,0.0293 l -0.0137,-0.0059 c 0.58767,0.137499 1.32148,0.139729 1.85937,0.265625 h 0.008 0.31054 c 1.56548,0.394628 3.08455,0.597053 4.27344,1.298828 1.17925,0.69614 2.01442,1.640491 2.73047,2.8125 0.14188,0.232063 0.175,0.495185 0.31836,0.78125 0.68338,1.36334 0.8688,3.038831 1.29883,4.724609 v 0.273438 0.01563 c 0.0625,0.230967 0.1082,0.561284 0.16992,0.826172 0.01,0.164674 0.0195,0.329206 0.0293,0.494141 v 0.0078 0.0078 c 0.29601,1.213917 0.20009,2.72263 0.49414,4.007813 0.0904,0.39484 0.0267,0.85913 0.11914,1.255859 0.0817,0.350665 0.0295,0.804909 0.0879,1.181641 0.011,0.07219 0.0248,0.162742 0.0293,0.242187 0.005,0.07948 -0.005,0.149259 -0.0137,0.16211 l -0.0234,0.0293 0.008,0.03711 c 0.0136,0.08171 0.0532,0.152011 0.125,0.19336 0.0719,0.04138 0.17451,0.0325 0.25195,-0.02344 0.0189,-0.006 0.0393,-0.0072 0.0586,-0.01367 l 0.0664,-0.02344 v -0.06641 c -0.0359,-0.607226 0.0392,-1.764699 0.16992,-2.361328 0.10409,-0.473631 0.0335,-0.98241 0.11914,-1.365234 v -0.0078 -0.0078 c 0.009,-0.2448 0.0198,-0.49378 0.0293,-0.738281 v -0.02148 c 0.14472,-0.638007 0.12466,-1.425947 0.25781,-2.015625 0.0735,-0.324434 -0.005,-0.541791 0.0586,-0.8125 0.24805,-1.051869 0.26338,-2.159142 0.52539,-3.166015 0.25319,-0.972847 0.48689,-1.920199 0.81054,-2.8125 0.0787,-0.216983 0.2462,-0.504199 0.36915,-0.716797 0.18489,-0.319937 0.28139,-0.612973 0.46484,-0.892578 0.89367,-1.362554 2.32032,-2.299643 4.04687,-2.841797 0.81701,-0.256555 1.70948,-0.34404 2.60547,-0.554688 0.44843,-0.105486 0.94812,-0.07191 1.39453,-0.177734 l -0.0215,0.0078 h 0.50781 l 0.008,-0.0078 c 0.76754,-0.167962 1.76552,-0.0124 2.61329,-0.199219 0.13655,-0.02986 0.27454,-0.02255 0.41406,-0.0078 0.1395,0.01512 0.28048,0.03873 0.42773,0.0078 0.2764,-0.05809 0.70635,-0.05859 1.08594,-0.05859 0.10662,0 0.28456,0.01581 0.45703,0.02148 0.15326,0.0049 0.29575,0.001 0.41406,-0.05078 h 1.47657 l 0.0137,-0.07422 c 0.006,-0.03288 0.0103,-0.04296 0.0156,-0.08008 0.005,-0.0325 -0.006,-0.07584 -0.0234,-0.111329 l -0.008,-0.01562 c -0.008,-0.02343 -0.0132,-0.04774 -0.0215,-0.07227 l -0.0215,-0.06641 -0.0664,0.0059 c -0.27935,0.01852 -0.66731,0.02966 -0.9375,-0.0293 -0.17654,-0.03847 -0.36734,-0.02274 -0.54688,-0.01367 -0.17956,0.0091 -0.35091,0.01083 -0.47265,-0.01563 -0.41889,-0.0912 -0.83976,0.01106 -1.15821,-0.05859 -0.56321,-0.123062 -1.19381,-0.0031 -1.65429,-0.111329 l -0.0156,-0.0078 h -0.4414 l 0.0215,0.0078 c -0.72742,-0.161801 -1.56325,-0.105902 -2.20703,-0.265625 h -0.0156 -0.30859 c -0.86305,-0.205413 -1.78062,-0.283396 -2.54687,-0.515625 l -0.0156,-0.0078 h -0.008 c -0.0821,-0.0091 -0.1598,-0.02019 -0.24219,-0.0293 h -0.0156 c -1.57031,-0.569542 -2.6059,-0.974911 -3.66797,-2.037109 -0.18352,-0.183629 -0.41131,-0.353746 -0.53907,-0.539063 -0.47012,-0.681604 -0.85972,-1.432779 -1.23242,-2.222656 -0.001,-0.0031 -0.006,-0.0047 -0.008,-0.0078 -0.008,-0.06723 -0.0147,-0.131553 -0.0234,-0.199218 v -0.01367 l -0.008,-0.0078 c -5.9e-4,-0.0016 -0.002,-0.01604 -0.006,-0.02148 -0.003,-0.0054 -0.004,-0.01154 -0.008,-0.01563 -0.006,-0.0081 -0.0174,-0.0157 -0.0234,-0.02148 -0.0117,-0.0116 -0.0191,-0.02072 -0.0293,-0.0293 -0.007,-0.006 -0.0162,-0.0034 -0.0215,-0.0078 3.5e-4,7.14e-4 -0.006,-0.0048 -0.008,-0.0078 v -0.0078 c -0.16071,-0.3362 -0.16938,-0.696385 -0.31055,-1.107422 -0.15632,-0.45545 -0.28758,-1.038232 -0.42773,-1.535156 -0.2075,-0.735526 -0.21978,-1.537574 -0.41407,-2.294922 l 0.008,0.01367 c -0.0183,-0.203594 -0.0374,-0.407853 -0.0566,-0.611328 v -0.0078 -0.0078 c -0.25285,-1.038841 -0.2104,-2.290958 -0.46679,-3.380859 v -0.02148 -0.451172 -0.01367 c -0.0917,-0.409911 -0.0728,-0.944811 -0.17578,-1.410156 v -0.01563 c -0.0382,-0.457861 -0.0732,-0.915161 -0.11133,-1.373047 v -0.0078 c -0.004,-0.09199 -0.0246,-0.194855 -0.0371,-0.28711 -0.0129,-0.09458 -0.009,-0.182648 -0.008,-0.185547 l 0.0156,-0.02148 v -0.02148 c -0.004,-0.08764 -0.0174,-0.142825 -0.0371,-0.199219 l -0.0234,-0.06641 h -0.25782 z m -98.275388,0.572265 -0.03125,0.09375 c -0.220585,0.656513 -0.04711,1.351344 -0.183593,1.97461 -0.276943,1.264061 -0.138398,2.66877 -0.400391,3.832031 l -0.002,0.01172 v 0.01172 c -0.01475,0.339439 -0.03017,0.680216 -0.04492,1.019532 -0.419974,1.732761 -0.304503,3.688026 -0.708984,5.324218 l -0.002,0.0098 v 0.01172 c -0.02943,0.30906 -0.06041,0.616725 -0.08984,0.925781 -0.433272,1.740761 -0.585965,3.534829 -1.107422,5.148438 -1.113906,3.447267 -2.637652,6.07332 -5.414062,7.810546 -0.198518,0.124208 -0.383044,0.121954 -0.658204,0.261719 -0.0919,0.04665 -0.186748,0.117639 -0.283203,0.1875 -0.09645,0.06986 -0.192776,0.138436 -0.251953,0.169922 -0.241816,0.128506 -0.48059,0.13051 -0.791016,0.261719 -0.990185,0.418339 -2.174562,0.717173 -3.318359,1.017578 -0.720874,0.189285 -1.503012,0.223232 -2.224609,0.400391 -0.610324,0.149744 -1.282522,0.125595 -1.884766,0.263671 h -0.677734 l -0.01563,0.0039 c -1.092065,0.242284 -2.540147,0.11098 -3.716797,0.396484 h -0.839844 -0.0039 c -0.429018,0.02338 -1.025003,0.04295 -1.447266,0.136719 -0.498664,0.110764 -1.098695,-0.03156 -1.646484,0.08984 -0.64544,0.143097 -1.428157,-0.05665 -2.091797,0.08984 -0.05483,0.01215 -0.172001,0.01746 -0.275391,0.0098 -0.10339,-0.0077 -0.211845,-0.04516 -0.199218,-0.03711 l -0.03906,-0.02344 -0.04492,0.002 c -0.122034,0.0094 -0.184868,0.02745 -0.257812,0.05273 l -0.0957,0.0332 0.002,0.09961 c 0.0022,0.14564 0.01772,0.254908 0.05273,0.355469 l 0.03125,0.0918 0.09766,0.002 c 1.349228,0.01484 2.699601,0.03008 4.048829,0.04492 1.459376,0.331443 3.524181,0.02077 5.001953,0.351562 l 0.01172,0.0039 h 0.01367 c 0.47386,0.01482 0.948141,0.0301 1.421875,0.04492 0.895846,0.205335 2.006983,0.205185 2.824219,0.396485 l 0.01563,0.0039 h 0.488281 c 2.391464,0.601584 4.716434,0.913443 6.533203,1.986328 1.806393,1.066658 3.082782,2.522539 4.179688,4.31836 0.217516,0.356246 0.264889,0.755436 0.484375,1.193359 1.044106,2.083958 1.333226,4.638678 1.988281,7.214844 v 0.449218 l 0.0039,0.01758 c 0.09653,0.356564 0.168221,0.866199 0.263672,1.273437 0.01467,0.249427 0.03025,0.498499 0.04492,0.748047 v 0.01172 l 0.0039,0.01367 c 0.453461,1.86031 0.305559,4.175601 0.75586,6.144532 0.138459,0.605411 0.03641,1.308737 0.177734,1.916015 0.125028,0.537972 0.0417,1.241481 0.13086,1.81836 0.01707,0.110413 0.04005,0.247297 0.04687,0.36914 0.0068,0.121845 -0.01249,0.227714 -0.02539,0.248047 l -0.0293,0.04492 0.0098,0.05078 c 0.021,0.124853 0.08192,0.239625 0.191406,0.302735 0.109489,0.06311 0.262731,0.05191 0.380859,-0.0332 l -0.03711,0.01758 c 0.04454,-0.01485 0.09027,-0.0281 0.134765,-0.04297 l 0.09961,-0.03516 -0.0059,-0.105469 c -0.05491,-0.930532 0.06331,-2.700555 0.263672,-3.615234 0.15885,-0.725033 0.04833,-1.506638 0.179688,-2.09375 l 0.002,-0.01172 V 72.875 c 0.01477,-0.384048 0.03015,-0.768232 0.04492,-1.152344 0.224802,-0.979297 0.191428,-2.191998 0.396484,-3.099609 0.112139,-0.496538 -0.0081,-0.830812 0.08984,-1.246094 0.379978,-1.611271 0.399495,-3.310553 0.800781,-4.853515 0.387668,-1.490622 0.746473,-2.941386 1.242188,-4.308594 0.120544,-0.33257 0.378191,-0.765816 0.566406,-1.091797 0.283003,-0.489892 0.428026,-0.946392 0.708984,-1.375 1.36915,-2.088145 3.556381,-3.522787 6.201172,-4.353516 1.251689,-0.393102 2.624027,-0.52102 3.996094,-0.84375 0.676905,-0.159215 1.427719,-0.110398 2.103516,-0.263672 h 0.002 0.769531 l 0.01563,-0.0039 c 1.176016,-0.257575 2.707721,-0.02457 4.005859,-0.310547 0.209412,-0.04611 0.417143,-0.02888 0.63086,-0.0059 0.213715,0.02303 0.433012,0.0534 0.658203,0.0059 0.423628,-0.08928 1.08061,-0.08594 1.662109,-0.08594 0.16351,0 0.437107,0.02679 0.701172,0.03516 0.236797,0.0075 0.457178,0.0013 0.638672,-0.08008 h 2.248047 l 0.02148,-0.115235 c 0.0088,-0.05043 0.01933,-0.07039 0.02734,-0.126953 0.008,-0.05656 -0.0115,-0.131064 -0.04492,-0.189453 l 0.01172,0.02539 c -0.01477,-0.04469 -0.03005,-0.0882 -0.04492,-0.132813 l -0.0332,-0.101562 -0.107422,0.0059 c -0.427674,0.02824 -1.015317,0.04936 -1.429687,-0.04102 -0.270061,-0.0589 -0.560933,-0.0433 -0.835938,-0.0293 -0.275004,0.014 -0.535858,0.02514 -0.722656,-0.01563 -0.641105,-0.139844 -1.290911,0.01886 -1.779297,-0.08789 -0.862282,-0.188587 -1.829328,-0.01196 -2.535156,-0.177734 l -0.01563,-0.0039 h -0.675782 c -1.108824,-0.24194 -2.377415,-0.155189 -3.357422,-0.398437 l -0.01562,-0.0039 h -0.494141 c -1.316271,-0.311456 -2.720498,-0.440633 -3.888672,-0.794922 l -0.01172,-0.0039 -0.01367,-0.002 c -0.127714,-0.0142 -0.255105,-0.02877 -0.382812,-0.04297 -2.418654,-0.876993 -3.998599,-1.491886 -5.63086,-3.125 -0.2809,-0.281158 -0.634077,-0.541813 -0.830078,-0.826172 -0.719093,-1.043068 -1.322406,-2.183984 -1.892578,-3.392578 -0.01386,-0.110976 -0.02712,-0.222837 -0.04102,-0.333985 l -0.0039,-0.01563 -0.0059,-0.01563 c -0.01844,-0.04901 -0.03886,-0.06428 -0.05664,-0.08203 -0.01778,-0.01775 -0.03508,-0.03177 -0.05078,-0.04492 -0.015,-0.01256 -0.02686,-0.02386 -0.03516,-0.03125 -0.25067,-0.51802 -0.261121,-1.075552 -0.478516,-1.708984 -0.239703,-0.698027 -0.451428,-1.592379 -0.666015,-2.353516 -0.316579,-1.122798 -0.325178,-2.346176 -0.619141,-3.501953 -0.02948,-0.30966 -0.05854,-0.620183 -0.08789,-0.929687 v -0.0098 l -0.002,-0.0098 c -0.388388,-1.595806 -0.313023,-3.519056 -0.708984,-5.191406 v -0.716797 l -0.0039,-0.01367 c -0.140744,-0.63 -0.104831,-1.452195 -0.263672,-2.166015 -0.05917,-0.710193 -0.118562,-1.420632 -0.177735,-2.13086 v -0.0078 c -0.0055,-0.141555 -0.03755,-0.300853 -0.05664,-0.443359 -0.01942,-0.144978 -0.0068,-0.275816 -0.0039,-0.28125 l 0.01758,-0.0332 -0.002,-0.03711 c -0.0051,-0.134522 -0.021,-0.220628 -0.05078,-0.306641 l -0.0332,-0.09375 z m 119.972658,8.357422 c -4.89632,-0.09026 -9.74935,0.515944 -14.42774,1.507813 l 1.24805,5.86914 c 5.77838,-1.22508 11.66452,-1.766138 17.35547,-1.085937 1.69799,0.210314 3.35479,0.529441 4.9375,0.996094 l 1.69922,-5.75 c -1.95643,-0.576842 -3.93659,-0.960129 -5.89844,-1.203125 h -0.008 c -1.63709,-0.196277 -3.27414,-0.303899 -4.90625,-0.333985 z m -70.10156,19.777344 -0.008,0.05859 v 0.02344 c -0.12929,0.410914 -0.0247,0.845512 -0.10937,1.232422 -0.17564,0.801838 -0.094,1.693439 -0.25977,2.429688 v 0.0059 0.0078 c -0.009,0.216416 -0.0198,0.433862 -0.0293,0.650391 l 0.008,-0.02344 c -0.26986,1.101853 -0.19217,2.348833 -0.44922,3.388672 l -0.008,0.0078 v 0.0078 c -0.0189,0.197821 -0.0339,0.392364 -0.0527,0.589844 -0.27469,1.103607 -0.37104,2.233838 -0.70117,3.25586 -0.70535,2.184037 -1.67395,3.852919 -3.43164,4.953125 -0.12495,0.07824 -0.23909,0.07325 -0.41406,0.162109 -0.0587,0.02986 -0.12248,0.07484 -0.1836,0.119141 -0.0611,0.0443 -0.11917,0.0916 -0.15625,0.111328 -0.15231,0.08107 -0.30465,0.07877 -0.50195,0.162109 -0.40339,0.170522 -0.86144,0.307698 -1.32812,0.4375 l -0.28125,-0.349609 c -0.24866,0.199728 -0.49222,0.405019 -0.74024,0.605469 -0.38391,0.07453 -0.77899,0.11438 -1.15625,0.207031 -0.39158,0.09611 -0.82446,0.07774 -1.21094,0.169922 h -0.41406 -0.0137 c -0.69547,0.154393 -1.620159,0.06393 -2.369141,0.25 h -0.509765 -0.0078 c -0.271672,0.01474 -0.647956,0.03035 -0.916015,0.08984 -0.31457,0.07 -0.692827,-0.02621 -1.041016,0.05078 -0.407603,0.09041 -0.906307,-0.0345 -1.328125,0.05859 -0.03402,0.0076 -0.104725,0.01235 -0.169922,0.0078 -0.0652,-0.0049 -0.134524,-0.02753 -0.125,-0.02148 l -0.0293,-0.01563 h -0.0293 c -0.07733,0.006 -0.115621,0.01305 -0.162109,0.0293 l -0.06055,0.02344 v 0.06641 c 0.0016,0.09226 0.007,0.164075 0.0293,0.228516 l 0.02344,0.05859 2.613281,0.0293 c 0.926438,0.216454 2.241313,0.01781 3.181641,0.228516 h 0.008 l 0.91406,0.03125 c 0.25198,0.0572 0.53487,0.08466 0.8125,0.113281 -5.340295,4.385833 -10.541522,8.924112 -15.619136,13.585938 l 4.058594,4.421875 C 96.376236,80.013183 102.36642,74.80098 108.54297,69.839844 l -0.64063,-0.796875 c 0.93444,0.645934 1.6486,1.468821 2.25782,2.466797 0.13731,0.224806 0.16346,0.473806 0.30273,0.751953 0.6626,1.323129 0.84444,2.946954 1.26172,4.583984 v 0.273438 0.01563 c 0.0618,0.228245 0.10831,0.550632 0.16992,0.810546 l 0.0293,0.472657 v 0.0078 c 0.28698,1.17806 0.1951,2.650018 0.48047,3.898438 0.0874,0.38279 0.0217,0.825131 0.11132,1.210937 0.0791,0.33978 0.0235,0.783852 0.0801,1.150391 0.011,0.06992 0.0251,0.159452 0.0293,0.236328 0.004,0.07688 -0.006,0.14476 -0.0137,0.15625 l -0.0156,0.0293 v 0.03711 c 0.0136,0.08001 0.0544,0.150701 0.125,0.191407 0.0706,0.04071 0.17625,0.03332 0.25196,-0.02148 0.0181,-0.006 0.0403,-0.0096 0.0586,-0.01563 l 0.0664,-0.02148 -0.008,-0.07422 c -0.0348,-0.589145 0.0431,-1.710103 0.16993,-2.289063 0.10083,-0.46044 0.0285,-0.957251 0.11132,-1.328124 v -0.0078 l 0.0293,-0.722656 v -0.01563 c 0.14211,-0.621018 0.12239,-1.388898 0.25195,-1.962891 0.0714,-0.315628 -0.003,-0.528811 0.0586,-0.791015 0.24075,-1.021546 0.25568,-2.093127 0.50976,-3.070313 0.24552,-0.944621 0.46738,-1.864258 0.78125,-2.730469 0.0761,-0.210104 0.24209,-0.488708 0.36133,-0.695312 0.17938,-0.310866 0.2735,-0.599883 0.45117,-0.871094 0.86659,-1.32223 2.24535,-2.22772 3.91993,-2.753906 0.79212,-0.249033 1.66185,-0.332531 2.53124,-0.53711 0.43445,-0.102274 0.91777,-0.06704 1.35157,-0.169922 l -0.0156,0.0078 h 0.48828 l 0.008,-0.0078 c 0.74374,-0.163048 1.71577,-0.01202 2.53906,-0.193359 0.13198,-0.0291 0.26317,-0.02022 0.39844,-0.0059 0.13527,0.01474 0.27057,0.03572 0.41406,0.0059 0.26751,-0.05643 0.68635,-0.05859 1.05469,-0.05859 0.10318,0 0.27593,0.01815 0.44336,0.02344 0.15087,0.0049 0.28979,3.07e-4 0.40625,-0.05273 h 1.42382 l 0.0156,-0.07422 c 0.006,-0.03175 0.0162,-0.04353 0.0215,-0.08008 0.005,-0.03175 -0.005,-0.06905 -0.0215,-0.103516 l -0.008,-0.01563 c -0.008,-0.02343 -0.0155,-0.04902 -0.0234,-0.07227 l -0.0215,-0.06836 -0.0742,0.0078 c -0.27085,0.01776 -0.63892,0.02777 -0.9004,-0.0293 -0.17174,-0.03742 -0.35703,-0.02236 -0.53124,-0.01367 -0.1742,0.0087 -0.33956,0.01789 -0.45704,-0.0078 -0.40727,-0.08874 -0.82281,0.0088 -1.13086,-0.05859 -0.54727,-0.119736 -1.15583,-0.0066 -1.60156,-0.111329 l -0.0137,-0.0078 h -0.42773 l 0.0137,0.0078 c -0.70628,-0.157228 -1.51691,-0.102927 -2.14063,-0.257812 h -0.008 -0.30273 c -0.83746,-0.199484 -1.72981,-0.276535 -2.47266,-0.501953 l -0.008,-0.0078 h -0.008 c -0.0798,-0.0091 -0.16236,-0.0206 -0.24218,-0.0293 h -0.0156 c -1.52296,-0.552703 -2.52112,-0.947642 -3.55078,-1.978515 -0.17828,-0.178394 -0.39985,-0.345973 -0.52344,-0.525391 -0.4535,-0.658087 -0.83739,-1.370436 -1.19726,-2.132812 v -0.01367 c -0.009,-0.07041 -0.0206,-0.136619 -0.0293,-0.207032 v -0.01562 l -0.008,-0.0078 c -5.7e-4,-0.0015 -0.002,-0.01582 -0.006,-0.02148 -0.003,-0.0053 -0.004,-0.01147 -0.008,-0.01563 -0.006,-0.0079 -0.0174,-0.008 -0.0234,-0.01367 -0.0113,-0.01134 -0.0195,-0.02098 -0.0293,-0.0293 -0.008,-0.0068 -0.0162,-0.01109 -0.0215,-0.01563 v -0.0078 c -0.15916,-0.327798 -0.16463,-0.675492 -0.30274,-1.078125 -0.15174,-0.442057 -0.28578,-1.007755 -0.42187,-1.490234 -0.20111,-0.713768 -0.20988,-1.492831 -0.39844,-2.228516 l 0.008,0.01367 c -0.0185,-0.197669 -0.0397,-0.400059 -0.0586,-0.597656 v -0.0078 c -0.24507,-1.007936 -0.20244,-2.226579 -0.45117,-3.285157 v -0.02148 -0.435547 -0.01563 c -0.0893,-0.399534 -0.0682,-0.91916 -0.16992,-1.373047 v -0.0078 c -0.0374,-0.449284 -0.0722,-0.892555 -0.10938,-1.341797 -0.003,-0.09131 -0.0246,-0.189559 -0.0371,-0.28125 -0.0125,-0.09169 -7.9e-4,-0.176261 0,-0.177735 l 0.008,-0.02148 v -0.02344 c -0.004,-0.08515 -0.01,-0.144075 -0.0293,-0.199218 l -0.0234,-0.05859 z m 97.56054,1.46875 -5.98828,0.421875 c 0.38418,5.496136 -1.1491,11.179229 -3.32031,16.675781 -0.65682,1.636305 -1.37283,3.248371 -2.14258,4.833985 l 5.4043,2.621093 c 0.83139,-1.712598 1.6016,-3.460404 2.31054,-5.226562 v -0.0078 -0.0078 c 2.33229,-5.901215 4.21661,-12.439551 3.73633,-19.310547 z M 54.470703,54.013672 c -5.11553,3.820834 -9.803445,8.610053 -12.859375,14.572266 -0.95879,1.878035 -1.754661,3.87315 -2.310547,5.957031 l 5.794922,1.542969 c 0.433554,-1.625288 1.068304,-3.22234 1.853516,-4.761719 l 0.0078,-0.0078 c 2.509796,-4.892171 6.518799,-9.069305 11.109375,-12.498047 z m 79.265627,4.685547 -0.20508,0.002 0.0879,0.08008 -0.17578,-0.02148 c -0.004,0.01247 0.004,0.02426 0,0.03711 -7e-5,2.38e-4 -0.007,-2.42e-4 -0.008,0 v 0.02148 c -0.0786,0.298772 -0.0239,0.604641 -0.082,0.871094 -0.13097,0.599384 -0.0621,1.262954 -0.1836,1.802735 v 0.0059 0.0078 c -0.007,0.160215 -0.0166,0.319941 -0.0234,0.480469 -0.19672,0.817746 -0.14434,1.733363 -0.33203,2.494141 v 0.0078 0.0078 c -0.014,0.146305 -0.0309,0.289184 -0.0449,0.435547 -0.20198,0.817088 -0.2734,1.655382 -0.51562,2.40625 -0.52089,1.61515 -1.23108,2.8429 -2.52539,3.654297 -0.0873,0.05469 -0.17469,0.05103 -0.3086,0.11914 -0.0467,0.02381 -0.0896,0.06286 -0.13476,0.0957 -0.0452,0.03288 -0.0927,0.06126 -0.11719,0.07422 -0.10753,0.0573 -0.21872,0.06143 -0.36914,0.125 -0.46113,0.19525 -1.01482,0.331718 -1.55078,0.472656 -0.33411,0.08791 -0.6993,0.107388 -1.04102,0.191406 -0.28516,0.07 -0.60169,0.05542 -0.89258,0.125 l 0.0234,-0.0078 h -0.32617 l -0.008,0.0078 c -0.50836,0.113008 -1.19552,0.04608 -1.75586,0.185547 h -0.37696 c -0.20042,0.01096 -0.48308,0.02113 -0.68554,0.06641 -0.22511,0.05008 -0.50376,-0.02185 -0.76953,0.03711 -0.29333,0.0652 -0.65931,-0.02816 -0.98047,0.04297 -0.0204,0.0045 -0.0727,0.0035 -0.11914,0 -0.0465,-0.0035 -0.097,-0.01839 -0.0801,-0.0078 l -0.0293,-0.02148 -0.0293,0.0078 c -0.0582,0.0045 -0.0921,0.009 -0.12695,0.02148 l -0.0664,0.02344 v 0.06641 c 0.001,0.06962 0.0119,0.125059 0.0293,0.175781 l 0.0234,0.06055 h 0.0664 c 0.62511,0.0068 1.24991,0.0143 1.875,0.02148 0.69375,0.162331 1.6676,0.0076 2.35546,0.162109 l 0.006,0.0078 h 0.0156 c 0.22235,0.0068 0.44161,0.01663 0.66406,0.02344 l -0.0137,-0.0078 c 0.42664,0.100195 0.94714,0.102134 1.32812,0.191406 h 0.0137 0.21484 c 1.1254,0.28441 2.21769,0.428639 3.06445,0.929688 0.84195,0.498024 1.43486,1.174963 1.94727,2.015625 0.0984,0.161461 0.12325,0.350223 0.22851,0.560546 0.48419,0.968259 0.61903,2.160702 0.92383,3.367188 v 0.220703 l 0.008,0.01563 c 0.0438,0.162066 0.073,0.390307 0.11718,0.582031 0.007,0.118715 0.0166,0.237246 0.0234,0.355469 v 0.01367 0.0078 c 0.21101,0.867274 0.1413,1.948988 0.35352,2.878907 0.0633,0.277493 0.0201,0.607696 0.0879,0.90039 0.0569,0.245481 0.0178,0.58064 0.0605,0.857422 0.008,0.05204 0.0181,0.114779 0.0215,0.169922 0.003,0.05514 -0.008,0.09635 -0.008,0.0957 l -0.0215,0.0293 0.008,0.03711 c 0.011,0.06478 0.0435,0.127376 0.10352,0.16211 0.0601,0.03477 0.14336,0.02116 0.20508,-0.02344 l -0.0215,0.01563 c 0.0219,-0.0072 0.0386,-0.01468 0.0586,-0.02148 l 0.0664,-0.02344 v -0.06641 c -0.0253,-0.432775 0.034,-1.264736 0.12696,-1.689453 0.076,-0.347225 0.02,-0.714389 0.0801,-0.982422 v -0.0078 -0.0078 c 0.007,-0.176239 0.0147,-0.354765 0.0215,-0.53125 v -0.01367 c 0.10545,-0.464197 0.0911,-1.027983 0.18554,-1.447265 0.0539,-0.24 8e-4,-0.396165 0.0449,-0.583985 0.179,-0.760225 0.1822,-1.561276 0.36914,-2.28125 0.18168,-0.699889 0.35043,-1.381447 0.58203,-2.021484 0.0548,-0.15171 0.17718,-0.348569 0.26562,-0.501953 0.13425,-0.232895 0.20274,-0.452774 0.33204,-0.650391 0.63733,-0.974048 1.65189,-1.640704 2.88671,-2.029297 0.58264,-0.183458 1.22978,-0.246315 1.875,-0.398437 0.31654,-0.07453 0.6698,-0.04944 0.9961,-0.126953 l -0.0137,0.0078 h 0.36132 l 0.008,-0.0078 c 0.54311,-0.119358 1.25927,-0.01057 1.875,-0.146485 0.0932,-0.02041 0.18729,-0.01058 0.28711,0 0.0998,0.01058 0.20693,0.02343 0.31835,0 0.19321,-0.04078 0.50284,-0.03711 0.7754,-0.03711 0.0738,0 0.19919,0.0095 0.32421,0.01367 0.10901,0.0035 0.21071,0.002 0.30274,-0.03711 h 1.07812 l 0.0137,-0.07227 c 0.004,-0.02154 0.003,-0.02869 0.008,-0.06055 0.004,-0.02721 -7.7e-4,-0.05958 -0.0137,-0.08789 l -0.008,-0.01563 c -0.005,-0.01663 -0.0107,-0.0354 -0.0156,-0.05078 l -0.0215,-0.06641 -0.0664,0.0078 c -0.19964,0.01361 -0.47569,0.01776 -0.66406,-0.02344 -0.13157,-0.02872 -0.26949,-0.02048 -0.39844,-0.01367 -0.12896,0.0064 -0.25224,0.01033 -0.33399,-0.0078 -0.30878,-0.06735 -0.61431,0.01127 -0.83398,-0.03711 -0.41181,-0.09018 -0.86563,-0.01215 -1.1875,-0.08789 h -0.008 -0.30274 -0.0215 c -0.52228,-0.111686 -1.11711,-0.0739 -1.56641,-0.185547 h -0.008 -0.2207 c -0.62182,-0.148422 -1.28409,-0.211032 -1.83008,-0.376953 h -0.008 -0.008 c -0.0573,-0.006 -0.11209,-0.01506 -0.16992,-0.02148 h -0.0137 c -1.12249,-0.40803 -1.85642,-0.702261 -2.61328,-1.460937 -0.13387,-0.134249 -0.30461,-0.256935 -0.39258,-0.384766 -0.33566,-0.48785 -0.6102,-1.01942 -0.87695,-1.585938 -0.001,-0.0031 -0.006,-0.0044 -0.008,-0.0078 -0.006,-0.04607 -0.01,-0.09501 -0.0156,-0.140625 v -0.01563 l -0.008,-0.0078 c -4.3e-4,-0.0011 -0.007,-0.01254 -0.008,-0.01367 -7.3e-4,-0.0012 -0.005,-0.01222 -0.008,-0.01563 -0.005,-0.0072 -0.009,-0.0091 -0.0137,-0.01367 -0.009,-0.0094 -0.0139,-0.02287 -0.0215,-0.0293 -0.005,-0.0038 -0.0122,-0.0048 -0.0156,-0.0078 v -0.0078 c -0.11134,-0.235238 -0.11816,-0.49 -0.2207,-0.789063 -0.11154,-0.325682 -0.20975,-0.743331 -0.31055,-1.101562 -0.14755,-0.524606 -0.15432,-1.103371 -0.29492,-1.652344 l 0.008,0.01367 c -0.0136,-0.146494 -0.0309,-0.289185 -0.0449,-0.435547 v -0.0059 -0.0078 c -0.18028,-0.742318 -0.14642,-1.640533 -0.33203,-2.429687 v -0.01367 -0.326172 -0.01367 c -0.0647,-0.290494 -0.0492,-0.671198 -0.125,-1.011719 v -0.0078 c -0.0272,-0.329688 -0.0545,-0.658555 -0.082,-0.988281 v -0.0078 c -0.003,-0.06894 -0.0206,-0.142288 -0.0293,-0.207031 -0.009,-0.06697 -0.002,-0.129988 -0.008,-0.119141 l 0.0156,-0.02148 v -0.02148 c -0.002,-0.06452 -0.0165,-0.114032 -0.0312,-0.15625 z m 44.04492,14.552734 -0.0332,0.0957 c -0.24171,0.717618 -0.0476,1.481674 -0.19922,2.171875 -0.30507,1.38861 -0.15332,2.934686 -0.44336,4.21875 l -0.002,0.01172 v 0.01172 c -0.0164,0.373867 -0.0325,0.749241 -0.0488,1.123047 -0.46343,1.905214 -0.3356,4.060377 -0.78321,5.865234 l -0.002,0.0098 -0.002,0.0098 c -0.0324,0.340419 -0.0651,0.681037 -0.0977,1.021485 -0.47835,1.915585 -0.64616,3.890993 -1.22265,5.669922 -1.23032,3.797016 -2.91742,6.692582 -5.98633,8.607422 -0.22233,0.13876 -0.42354,0.13482 -0.72461,0.28711 -0.0996,0.0504 -0.20606,0.12816 -0.3125,0.20508 -0.10646,0.0769 -0.21226,0.15394 -0.2793,0.18945 -0.27006,0.14316 -0.53494,0.14593 -0.875,0.28906 -1.09476,0.4613 -2.40331,0.79038 -3.66601,1.1211 -0.79788,0.20898 -1.66043,0.24695 -2.45508,0.4414 -0.67783,0.16596 -1.42092,0.13848 -2.08399,0.29102 h -0.74609 l -0.0156,0.002 c -1.21014,0.26769 -2.8098,0.12528 -4.10546,0.43945 h -0.92969 -0.004 c -0.47389,0.0259 -1.13008,0.0478 -1.59375,0.1504 -0.55517,0.12305 -1.21871,-0.0348 -1.81836,0.0977 -0.71769,0.15862 -1.58331,-0.0625 -2.31054,0.0977 -0.0633,0.0139 -0.19341,0.0203 -0.3086,0.0117 -0.11519,-0.009 -0.23261,-0.0481 -0.22461,-0.043 l -0.0391,-0.0234 -0.0469,0.002 c -0.13407,0.0103 -0.19877,0.0287 -0.2793,0.0566 l -0.0957,0.0332 0.002,0.10156 c 0.002,0.15949 0.0186,0.27772 0.0566,0.38672 l 0.0312,0.0918 h 0.0977 c 1.48708,0.0163 2.97569,0.0324 4.46289,0.0488 1.60654,0.36693 3.89384,0.0247 5.5332,0.39063 l 0.0117,0.002 h 0.0137 c 0.52075,0.0162 1.04159,0.0326 1.5625,0.0488 0.98785,0.22744 2.21915,0.22762 3.12695,0.43945 l 0.0156,0.004 h 0.54101 c 2.63943,0.66229 5.20909,1.00408 7.21875,2.1875 1.99684,1.17583 3.40732,2.78133 4.61914,4.75976 0.24197,0.39522 0.29424,0.83483 0.53516,1.31446 1.15475,2.29829 1.47183,5.11317 2.19531,7.94922 v 0.49218 l 0.006,0.0176 c 0.10727,0.39497 0.18545,0.95833 0.29102,1.40625 0.0161,0.27427 0.0326,0.54784 0.0488,0.82227 v 0.0137 l 0.004,0.0117 c 0.50143,2.0514 0.33763,4.60284 0.83399,6.76758 0.15364,0.67004 0.0422,1.44461 0.19726,2.10937 0.13873,0.59581 0.0465,1.368 0.14453,2 0.0188,0.12154 0.0451,0.27497 0.0527,0.41016 0.008,0.13519 -0.0136,0.25156 -0.0312,0.27929 l -0.0293,0.0449 0.01,0.0527 c 0.0227,0.13424 0.089,0.25553 0.20507,0.32227 0.11612,0.0667 0.27734,0.0562 0.4043,-0.0352 l -0.0371,0.0176 c 0.0491,-0.0163 0.0993,-0.0325 0.14844,-0.0488 l 0.10156,-0.0332 -0.008,-0.10547 c -0.0608,-1.0266 0.0712,-2.97499 0.29297,-3.98438 0.17474,-0.79491 0.0494,-1.65628 0.19531,-2.30664 l 0.004,-0.0117 v -0.0117 c 0.0162,-0.42289 0.0326,-0.8466 0.0488,-1.26954 0.24809,-1.0758 0.21242,-2.41139 0.43946,-3.41406 0.12308,-0.54302 -0.0115,-0.91193 0.0976,-1.37305 0.41898,-1.77192 0.43912,-3.64272 0.88282,-5.34375 0.428,-1.64107 0.8255,-3.23982 1.37304,-4.74609 0.134,-0.36844 0.42127,-0.84462 0.62891,-1.20312 0.31147,-0.5379 0.46977,-1.03991 0.78125,-1.51368 1.51371,-2.3023 3.93103,-3.88538 6.85352,-4.80078 1.38386,-0.43346 2.89852,-0.57468 4.41211,-0.92969 0.75409,-0.17683 1.59026,-0.11797 2.33593,-0.28906 h 0.8418 l 0.0156,-0.004 c 1.30261,-0.28458 2.99285,-0.0298 4.42188,-0.34375 0.23399,-0.0513 0.46505,-0.0312 0.70117,-0.006 0.23612,0.0254 0.47727,0.0575 0.72266,0.006 0.47061,-0.0988 1.19605,-0.0939 1.83789,-0.0937 0.18205,0 0.48261,0.0299 0.77344,0.0391 0.26287,0.008 0.50883,-5.3e-4 0.70507,-0.0898 h 2.47071 l 0.0215,-0.11524 c 0.01,-0.0566 0.0228,-0.0792 0.0312,-0.13867 0.008,-0.0595 -0.0127,-0.13607 -0.0488,-0.19922 l 0.0117,0.0254 c -0.0164,-0.049 -0.0325,-0.0975 -0.0488,-0.14648 l -0.0332,-0.10157 -0.10742,0.006 c -0.47265,0.031 -1.12341,0.0553 -1.58399,-0.0449 -0.29536,-0.0643 -0.61439,-0.0486 -0.91796,-0.0332 -0.30357,0.0154 -0.59145,0.0299 -0.80079,-0.0156 -0.70325,-0.15304 -1.4225,0.0191 -1.96679,-0.0996 -0.9477,-0.20673 -2.01278,-0.0116 -2.79688,-0.19531 l -0.0156,-0.004 h -0.74414 c -1.22185,-0.26668 -2.6243,-0.16862 -3.71094,-0.4375 l -0.0156,-0.004 h -0.54492 c -1.45229,-0.34284 -3.00439,-0.48615 -4.29687,-0.87695 l -0.0117,-0.004 h -0.0137 c -0.14166,-0.0157 -0.28399,-0.0331 -0.42578,-0.0488 -2.01311,-0.72783 -3.50112,-1.29223 -4.88477,-2.29687 1.72678,-2.207753 3.42906,-4.443923 5.07617,-6.724613 l -4.86523,-3.513672 c -1.31923,1.826687 -2.68126,3.62817 -4.0625,5.417969 -0.16522,-0.326141 -0.33709,-0.64236 -0.4961,-0.978516 -0.0154,-0.12282 -0.0315,-0.24624 -0.0469,-0.36914 l -0.002,-0.01563 -0.006,-0.01562 c -0.0189,-0.05008 -0.0396,-0.06699 -0.0586,-0.08594 -0.019,-0.01895 -0.0394,-0.03442 -0.0566,-0.04883 -0.0172,-0.01441 -0.0316,-0.0267 -0.041,-0.03516 -0.28019,-0.574761 -0.29155,-1.190166 -0.53125,-1.886719 -0.26493,-0.769666 -0.49764,-1.754201 -0.73438,-2.591797 -0.35031,-1.23891 -0.35929,-2.586636 -0.68359,-3.857422 l -0.0977,-1.033203 -0.004,-0.0098 c -0.42944,-1.760083 -0.34457,-3.878144 -0.78126,-5.716797 V 79.3125 l -0.004,-0.01563 c -0.15604,-0.696406 -0.1163,-1.601588 -0.29102,-2.384766 -0.0652,-0.78236 -0.13201,-1.565316 -0.19726,-2.347656 -0.005,-0.155965 -0.041,-0.335938 -0.0625,-0.496094 -0.0215,-0.160155 -0.009,-0.303558 -0.002,-0.316406 l 0.0176,-0.0332 -0.002,-0.03711 c -0.006,-0.147375 -0.0242,-0.24216 -0.0566,-0.335938 l -0.0332,-0.09375 z m -97.716797,3.386719 -0.02344,0.0293 -0.01367,0.01563 -0.0078,0.02148 c -0.138368,0.412335 -0.02629,0.844287 -0.111328,1.232422 -0.17314,0.791546 -0.08657,1.674154 -0.25,2.400391 v 0.0078 0.0059 c -0.0094,0.213657 -0.01985,0.429145 -0.0293,0.642579 -0.260031,1.082233 -0.191541,2.303078 -0.443359,3.322265 v 0.0078 0.0078 c -0.01852,0.194873 -0.04007,0.387049 -0.05859,0.582031 -0.269518,1.086751 -0.370485,2.204847 -0.695312,3.210938 -0.695706,2.154969 -1.64767,3.795511 -3.38086,4.880859 -0.122872,0.07707 -0.233442,0.07431 -0.40625,0.16211 -0.05813,0.02948 -0.115535,0.0735 -0.175781,0.117187 -0.06025,0.04369 -0.125675,0.0919 -0.162109,0.111328 -0.149859,0.07967 -0.293462,0.07972 -0.488282,0.16211 -0.618005,0.26143 -1.359699,0.446912 -2.074218,0.634765 -0.449571,0.118111 -0.93527,0.1411 -1.386719,0.251953 -0.385988,0.09487 -0.815817,0.0788 -1.197266,0.169922 l 0.02344,-0.0078 h -0.429688 l -0.0059,0.0078 c -0.685557,0.152278 -1.602824,0.06639 -2.341797,0.25 l 0.02344,-0.0078 h -0.53125 c -0.26778,0.01474 -0.643606,0.03111 -0.908204,0.08984 -0.309883,0.06886 -0.681533,-0.02545 -1.02539,0.05078 -0.401515,0.08905 -0.890107,-0.03336 -1.306641,0.05859 -0.03364,0.0076 -0.105708,0.01235 -0.169922,0.0078 -0.06421,-0.0049 -0.136893,-0.02753 -0.126953,-0.02148 l -0.02148,-0.01563 h -0.0293 c -0.07635,0.006 -0.116453,0.01342 -0.162109,0.0293 l -0.06641,0.02344 v 0.06641 c 0.0016,0.09131 0.01481,0.16502 0.03711,0.228516 l 0.02148,0.05859 h 0.05859 c 0.843235,0.0094 1.6899,0.01985 2.533203,0.0293 l -0.02344,-0.0078 c 0.914211,0.213732 2.21747,0.02278 3.144532,0.230469 h 0.0078 0.0078 c 0.296541,0.0094 0.596191,0.01985 0.892578,0.0293 l -0.02148,-0.0078 c 0.563097,0.132095 1.273086,0.12966 1.78711,0.25 l 0.0078,0.0078 h 0.316406 c 1.489531,0.374135 2.937896,0.572089 4.06836,1.240234 1.127531,0.666558 1.920459,1.572797 2.605469,2.695313 0.135193,0.221589 0.16531,0.469479 0.302734,0.744139 0.650207,1.29871 0.8331,2.89671 1.240234,4.50391 v 0.28711 l 0.0078,0.0156 c 0.06096,0.22503 0.101334,0.54814 0.162109,0.80469 0.0091,0.15284 0.02023,0.30402 0.0293,0.45703 v 0.008 0.008 c 0.283011,1.1621 0.191233,2.61363 0.472656,3.8457 0.08629,0.37731 0.02093,0.81432 0.109375,1.19531 0.07782,0.33513 0.02617,0.77492 0.08203,1.13672 0.01058,0.069 0.02514,0.15465 0.0293,0.23047 0.0042,0.0758 -0.0088,0.14345 -0.01563,0.1543 l -0.01367,0.0293 v 0.0293 c 0.01323,0.0791 0.055,0.151 0.125,0.19141 0.07,0.0404 0.169117,0.0404 0.24414,-0.0137 0.01965,-0.007 0.03796,-0.009 0.05859,-0.0156 l 0.06641,-0.0293 v -0.0664 c -0.03439,-0.58099 0.03712,-1.68676 0.16211,-2.25782 0.09933,-0.45458 0.02969,-0.94094 0.111328,-1.30664 v -0.008 -0.0156 c 0.0091,-0.2341 0.02023,-0.46723 0.0293,-0.70117 v -0.0215 c 0.138406,-0.61175 0.124696,-1.36974 0.251953,-1.93359 0.07053,-0.31178 -0.01,-0.517 0.05078,-0.7754 0.237506,-1.00817 0.251435,-2.07106 0.501953,-3.03515 0.242192,-0.932 0.465859,-1.83878 0.775391,-2.69336 0.07499,-0.20716 0.235896,-0.48363 0.353515,-0.687501 0.177033,-0.306898 0.268303,-0.588196 0.44336,-0.855469 0.854468,-1.304523 2.21771,-2.197664 3.86914,-2.716797 0.781119,-0.245556 1.636623,-0.329408 2.494141,-0.53125 0.428258,-0.1008 0.907823,-0.06829 1.335938,-0.169922 l -0.02148,0.0078 h 0.486328 l 0.0078,-0.0078 c 0.733202,-0.160819 1.689525,-0.01233 2.501953,-0.191406 0.129864,-0.02872 0.259138,-0.01436 0.392578,0 0.133417,0.01436 0.270358,0.02986 0.412109,0 0.263698,-0.05556 0.677735,-0.05273 1.041016,-0.05273 0.101631,0 0.270325,0.01815 0.435547,0.02344 0.147111,0.0047 0.28403,-0.0015 0.398437,-0.05273 h 1.410157 l 0.01563,-0.07422 c 0.0057,-0.03137 0.0088,-0.04368 0.01367,-0.08008 0.0045,-0.03175 -0.0052,-0.06939 -0.02148,-0.103516 l -0.0078,-0.01563 c -0.0076,-0.02305 -0.0143,-0.04437 -0.02148,-0.06641 l -0.02344,-0.07227 -0.06641,0.0059 c -0.267099,0.01739 -0.634939,0.02702 -0.892578,-0.0293 -0.169663,-0.03704 -0.353565,-0.02236 -0.52539,-0.01367 -0.171818,0.0087 -0.333679,0.01751 -0.449219,-0.0078 -0.402081,-0.08761 -0.803948,0.0077 -1.107422,-0.05859 -0.540109,-0.118262 -1.148596,-0.0081 -1.587891,-0.111328 h -0.0059 -0.414062 -0.01563 c -0.693578,-0.151257 -1.485004,-0.100319 -2.095704,-0.251953 h -0.0078 -0.294922 c -0.826072,-0.196914 -1.710902,-0.279634 -2.443359,-0.501954 h -0.0078 -0.0078 c -0.0788,-0.0091 -0.158017,-0.0206 -0.236328,-0.0293 h -0.01367 c -1.501928,-0.54528 -2.492378,-0.930373 -3.507813,-1.947266 -0.175937,-0.176164 -0.393879,-0.340851 -0.515625,-0.517578 -0.449476,-0.652664 -0.825159,-1.370375 -1.18164,-2.126953 -0.0083,-0.06694 -0.01279,-0.132057 -0.02148,-0.199219 l -0.0078,-0.01367 v -0.0078 c -5.67e-4,-0.0015 -0.0044,-0.01582 -0.0078,-0.02148 -0.0032,-0.0053 -0.0126,-0.01184 -0.01563,-0.01563 -0.006,-0.0079 -0.008,-0.01 -0.01367,-0.01563 -0.01134,-0.01134 -0.01947,-0.02098 -0.0293,-0.0293 -0.0072,-0.006 -0.01815,-0.0095 -0.02344,-0.01367 -0.0023,-0.0049 -0.0055,-0.01071 -0.0078,-0.01563 -0.153033,-0.320882 -0.15969,-0.660513 -0.294921,-1.054687 -0.149632,-0.436135 -0.277993,-1.000542 -0.41211,-1.476563 -0.198274,-0.704129 -0.206451,-1.473065 -0.392578,-2.199218 l 0.0078,0.01367 -0.05859,-0.589843 v -0.0078 c -0.241739,-0.994186 -0.198117,-2.187722 -0.44336,-3.232422 v -0.02344 -0.435547 -0.0078 c -0.08795,-0.394016 -0.06958,-0.909375 -0.169921,-1.357422 v -0.0078 c -0.03666,-0.440787 -0.07467,-0.881493 -0.111329,-1.322265 v -0.0059 c -0.0038,-0.08848 -0.01758,-0.185337 -0.0293,-0.273437 -0.0121,-0.09044 -0.0062,-0.176865 -0.0059,-0.177735 l 0.01367,-0.02148 v -0.02344 c -0.0036,-0.08413 -0.01821,-0.137094 -0.03711,-0.191406 l -0.02148,-0.06641 z m -29.824219,18.396484 -4,4.472656 c 3.837532,3.434008 8.883189,5.425268 14.083985,5.410158 4.205987,0.0129 8.242713,-1.24392 11.746093,-3.24805 l -2.982421,-5.210936 c -2.712307,1.551591 -5.760913,2.469072 -8.748047,2.458985 h -0.01563 -0.0078 c -3.63679,0.01323 -7.339994,-1.434352 -10.076172,-3.882813 z m 66.021486,2.962891 -0.0312,0.0957 c -0.14607,0.435264 -0.034,0.876211 -0.11719,1.255859 -0.17796,0.812451 -0.0905,1.702611 -0.2539,2.427731 l -0.002,0.0117 v 0.0117 c -0.009,0.21422 -0.02,0.42831 -0.0293,0.64258 -0.26662,1.10695 -0.1943,2.34388 -0.44726,3.36719 l -0.002,0.0117 v 0.01 c -0.0185,0.1954 -0.038,0.3906 -0.0566,0.58594 -0.27471,1.10645 -0.37204,2.23902 -0.69922,3.25195 -0.70363,2.1787 -1.66209,3.82892 -3.40821,4.92188 -0.1148,0.0719 -0.22833,0.0707 -0.41211,0.16406 -0.0649,0.0329 -0.12634,0.0787 -0.1875,0.12305 -0.0611,0.0443 -0.12074,0.0867 -0.15234,0.10351 -0.14226,0.0756 -0.29209,0.077 -0.49805,0.16406 -0.62171,0.26281 -1.36902,0.45217 -2.09375,0.64258 -0.44939,0.11813 -0.9442,0.13998 -1.4082,0.25391 -0.37396,0.0918 -0.79497,0.0787 -1.18359,0.16601 h -0.4336 l -0.0137,0.002 c -0.6765,0.15016 -1.59078,0.0704 -2.34765,0.25195 h -0.53126 -0.002 c -0.27092,0.0147 -0.64962,0.0265 -0.92578,0.0879 -0.29971,0.0666 -0.67867,-0.024 -1.042968,0.0566 -0.391793,0.0869 -0.884517,-0.0405 -1.324219,0.0566 -0.02547,0.006 -0.09833,0.009 -0.160156,0.004 -0.06183,-0.005 -0.130576,-0.0322 -0.101563,-0.0137 l -0.03906,-0.0254 -0.04687,0.004 c -0.07966,0.006 -0.128981,0.0189 -0.175781,0.0352 l -0.09375,0.0332 v 0.0996 c 0.0015,0.0951 0.01272,0.17213 0.03711,0.24219 l 0.03125,0.0918 h 0.09766 c 0.854236,0.009 1.708264,0.0199 2.562499,0.0293 0.94109,0.21083 2.24332,0.0173 3.16016,0.22266 l 0.0117,0.002 h 0.0137 c 0.29977,0.009 0.59866,0.0199 0.89844,0.0293 0.57516,0.1304 1.27371,0.13164 1.77929,0.25 l 0.0156,0.004 h 0.31054 c 1.51599,0.38114 2.98071,0.5804 4.11719,1.25195 1.13567,0.67097 1.93891,1.58525 2.63086,2.71875 0.13113,0.21467 0.16119,0.46536 0.30469,0.75195 0.65465,1.30725 0.83925,2.9203 1.2539,4.55469 v 0.28516 l 0.004,0.0195 c 0.0594,0.21932 0.10508,0.53941 0.16602,0.80078 l 0.0273,0.48047 0.004,0.0137 c 0.28433,1.1672 0.1908,2.63398 0.47851,3.89258 0.0848,0.37085 0.0205,0.81536 0.11328,1.21484 0.0761,0.32721 0.0237,0.7711 0.082,1.14844 0.0109,0.0704 0.0252,0.15523 0.0293,0.22851 0.004,0.0733 -0.0139,0.13353 -0.01,0.12696 l -0.0293,0.0449 0.01,0.0527 c 0.0153,0.091 0.0623,0.17691 0.14844,0.22657 0.0861,0.0497 0.20799,0.0393 0.29492,-0.0234 l -0.0371,0.0195 0.18554,-0.0625 -0.006,-0.10742 c -0.0344,-0.58188 0.041,-1.70482 0.16602,-2.27539 0.1034,-0.47249 0.0333,-0.97068 0.11328,-1.32813 l 0.002,-0.0117 v -0.0117 c 0.009,-0.24473 0.0199,-0.48976 0.0293,-0.73437 0.14164,-0.62852 0.12333,-1.38997 0.25,-1.95117 0.0742,-0.32813 -0.002,-0.53967 0.0566,-0.78907 0.24239,-1.0285 0.25379,-2.10473 0.50586,-3.07421 0.24563,-0.94499 0.47243,-1.86367 0.78516,-2.72657 0.0734,-0.20247 0.23776,-0.47629 0.35742,-0.68359 0.18239,-0.31603 0.27185,-0.60432 0.44531,-0.86914 0.8594,-1.31138 2.23354,-2.2144 3.90039,-2.73828 0.78559,-0.24685 1.65377,-0.32764 2.52734,-0.53321 0.4154,-0.0978 0.88613,-0.069 1.32227,-0.16601 h 0.49414 l 0.0137,-0.004 c 0.7301,-0.15995 1.7006,-0.013 2.53711,-0.19726 0.12324,-0.0272 0.24807,-0.0165 0.38281,-0.002 0.13475,0.0145 0.27968,0.0344 0.4336,0.002 0.25818,-0.0545 0.67428,-0.0527 1.04297,-0.0527 0.0983,0 0.27168,0.0161 0.4414,0.0215 0.14558,0.005 0.28292,0.001 0.41016,-0.0508 h 1.46289 l 0.0215,-0.11524 c 0.005,-0.0279 0.0111,-0.036 0.0176,-0.082 0.007,-0.0461 -0.0117,-0.10922 -0.0352,-0.15039 l 0.0117,0.0254 -0.0625,-0.1875 -0.10743,0.008 c -0.26974,0.0177 -0.63929,0.0296 -0.89062,-0.0254 -0.18059,-0.0393 -0.36856,-0.0303 -0.54297,-0.0215 -0.17441,0.009 -0.33585,0.0156 -0.44336,-0.008 -0.42201,-0.0921 -0.83534,0.007 -1.12695,-0.0566 -0.56115,-0.12277 -1.17535,-0.0102 -1.60547,-0.11132 l -0.0156,-0.004 h -0.43554 c -0.7099,-0.15242 -1.50852,-0.0999 -2.11329,-0.25 l -0.0156,-0.004 h -0.31445 c -0.83636,-0.19717 -1.72298,-0.28039 -2.45313,-0.50195 l -0.0117,-0.004 -0.0137,-0.002 c -0.0788,-0.009 -0.1575,-0.0166 -0.23633,-0.0254 -1.52798,-0.5544 -2.51562,-0.94031 -3.54101,-1.9668 -0.18218,-0.18244 -0.40284,-0.34817 -0.51953,-0.51757 -0.45199,-0.65589 -0.83186,-1.37456 -1.19141,-2.13672 -0.008,-0.0673 -0.017,-0.13389 -0.0254,-0.20117 l -0.002,-0.0156 -0.006,-0.0156 c -0.0171,-0.0459 -0.0355,-0.057 -0.0488,-0.0703 -0.0134,-0.0133 -0.0249,-0.0246 -0.0352,-0.0332 -0.005,-0.004 -0.008,-0.006 -0.0117,-0.01 -0.15002,-0.31471 -0.15911,-0.66294 -0.29882,-1.07031 -0.15049,-0.43842 -0.2834,-1.00425 -0.41993,-1.48828 -0.19687,-0.69876 -0.20534,-1.46808 -0.39062,-2.20508 -0.0188,-0.19759 -0.0378,-0.39615 -0.0566,-0.59375 v -0.01 l -0.002,-0.01 c -0.24292,-0.99857 -0.19607,-2.21313 -0.44727,-3.28125 v -0.45508 l -0.004,-0.0156 c -0.0875,-0.39182 -0.0641,-0.91963 -0.16992,-1.38477 l 0.004,0.0195 c -0.0374,-0.449394 -0.076,-0.898281 -0.11328,-1.347653 -0.003,-0.09788 -0.0231,-0.20123 -0.0352,-0.291016 -0.012,-0.08979 0.004,-0.16876 -0.008,-0.146484 l 0.0176,-0.0332 -0.002,-0.03906 c -0.003,-0.08816 -0.0152,-0.15125 -0.0352,-0.208984 l -0.0332,-0.09375 z m 19.31445,25.810543 c -2.41485,0 -4.66865,0.33525 -6.76172,1.00391 -2.09278,0.66939 -3.89929,1.58661 -5.41211,2.75391 -1.51409,1.16751 -2.69943,2.57104 -3.56445,4.21484 -0.86686,1.64642 -1.29883,3.44185 -1.29883,5.38867 0,1.94141 0.25515,3.61877 0.77539,5.02735 0.52005,1.40864 1.3142,2.63537 2.37696,3.67578 1.0614,1.04005 2.40216,1.91643 4.02148,2.6289 1.61731,0.71171 3.50142,1.32912 5.6543,1.84571 2.36311,0.60241 4.4481,1.08959 6.2539,1.47656 1.80166,0.38607 3.31196,0.79743 4.53125,1.22461 1.21623,0.42707 2.1153,0.94047 2.70313,1.52734 0.58427,0.58523 0.87695,1.32703 0.87695,2.25195 0,0.97153 -0.2748,1.77343 -0.81836,2.42188 -0.54967,0.6558 -1.26935,1.2059 -2.16211,1.65234 -0.89231,0.44616 -1.93608,0.76888 -3.13086,0.96094 -1.19818,0.19257 -2.43653,0.28711 -3.7207,0.28711 -1.628,0 -2.98155,-0.13689 -4.06641,-0.41406 -1.08942,-0.27742 -1.99663,-0.63053 -2.71679,-1.05469 -0.72271,-0.42411 -1.29233,-0.91312 -1.71289,-1.46094 -0.42722,-0.55434 -0.79635,-1.10813 -1.09375,-1.66211 h 0.008 c -0.26332,-0.5265 -0.60159,-0.92714 -1.00391,-1.19531 -0.40884,-0.27254 -0.97796,-0.39844 -1.71875,-0.39844 h -4.51758 c -0.49407,0 -0.93519,0.1667 -1.31445,0.50196 -0.38501,0.33955 -0.56282,0.79733 -0.51758,1.33593 0.12983,1.90581 0.71822,3.6378 1.75782,5.19727 1.03835,1.55759 2.41204,2.89049 4.11914,3.99219 1.7056,1.10125 3.6622,1.94332 5.86133,2.52539 2.19912,0.58216 4.50214,0.87109 6.91601,0.87109 2.88498,0 5.49444,-0.34356 7.82422,-1.0332 2.32817,-0.68914 4.29236,-1.63055 5.89258,-2.82031 1.59901,-1.18862 2.83081,-2.61443 3.69726,-4.28125 0.86567,-1.66636 1.29883,-3.47894 1.29883,-5.42579 0,-1.77108 -0.29146,-3.34988 -0.87695,-4.73828 -0.58533,-1.38721 -1.47571,-2.61623 -2.66602,-3.67773 -1.1919,-1.06091 -2.72328,-1.96748 -4.59961,-2.72266 -1.87501,-0.75365 -4.10603,-1.41111 -6.6875,-1.9707 -2.36272,-0.51547 -4.33987,-0.96517 -5.92773,-1.35156 -1.58609,-0.38573 -2.85807,-0.80084 -3.81641,-1.24805 -0.95641,-0.44638 -1.62634,-0.97609 -2.02148,-1.58008 -0.39652,-0.60354 -0.59766,-1.39289 -0.59766,-2.36914 0,-0.79954 0.20696,-1.50337 0.62696,-2.13281 0.42071,-0.6321 1.00776,-1.17202 1.75,-1.61719 0.74163,-0.44527 1.60912,-0.79062 2.61132,-1.02539 1.00164,-0.23388 2.05684,-0.34765 3.16797,-0.34765 2.56831,0 4.49884,0.39315 5.78711,1.17382 1.29998,0.78942 2.26487,1.71701 2.90039,2.77539 0.30475,0.48067 0.64384,0.86568 1.01953,1.15235 0.38808,0.29798 0.95466,0.44336 1.69727,0.44336 h 4.51172 c 0.49313,0 0.94012,-0.17462 1.32031,-0.50977 0.38216,-0.33781 0.55948,-0.79309 0.51758,-1.32812 v -0.008 c -0.0887,-1.25964 -0.51508,-2.59113 -1.26953,-3.99414 -0.75899,-1.40799 -1.87768,-2.70281 -3.34571,-3.86914 -1.4708,-1.16765 -3.30734,-2.13223 -5.50586,-2.9082 -2.20298,-0.77749 -4.74681,-1.16602 -7.63281,-1.16602 z m -91.166014,0.64258 c -0.495382,0 -0.934783,0.18089 -1.292968,0.53906 -0.35932,0.35932 -0.539063,0.7966 -0.539063,1.29102 v 41.62695 c 0,0.49537 0.179637,0.93471 0.539063,1.29297 0.358261,0.35943 0.797718,0.54492 1.292968,0.54492 h 28.28711 c 0.494426,0 0.931817,-0.18556 1.291015,-0.54492 0.358148,-0.35818 0.539063,-0.79745 0.539063,-1.29297 v -4.56836 c 0,-0.49445 -0.180998,-0.93373 -0.539063,-1.29296 -0.359093,-0.35808 -0.796457,-0.53907 -1.291015,-0.53907 H 51.458984 v -10.51953 h 19.304688 c 0.494426,0 0.931821,-0.17791 1.291016,-0.53711 0.358148,-0.35818 0.539062,-0.79746 0.539062,-1.29297 v -4.57617 c 0,-0.49457 -0.180998,-0.92604 -0.539062,-1.28515 -0.359093,-0.35808 -0.796442,-0.54493 -1.291016,-0.54493 H 51.458984 v -10.0625 h 20.720704 c 0.494328,0 0.933781,-0.17986 1.292968,-0.53906 0.358148,-0.35819 0.539063,-0.7955 0.539063,-1.29101 v -4.57813 c 0,-0.49457 -0.180998,-0.93179 -0.539063,-1.29102 -0.359093,-0.35807 -0.798531,-0.53906 -1.292968,-0.53906 z m 35.919922,0 c -0.495496,0 -0.934783,0.18089 -1.292969,0.53906 -0.359168,0.35932 -0.539062,0.79658 -0.539062,1.29102 v 41.62695 c 0,0.49539 0.179788,0.93472 0.539062,1.29297 0.358262,0.35943 0.797602,0.54492 1.292969,0.54492 h 16.240234 c 3.101477,0 5.807968,-0.41942 8.119138,-1.26171 2.30859,-0.84172 4.24592,-2.04475 5.80274,-3.60157 1.55606,-1.55606 2.75378,-3.43879 3.5957,-5.64062 0.84152,-2.2008 1.3468,-4.65282 1.51953,-7.36719 v -0.008 c 0.17129,-3.1821 0.17129,-6.36197 0,-9.54492 -0.17272,-2.71438 -0.67801,-5.17421 -1.51953,-7.375 -0.84201,-2.20222 -2.05546,-4.08261 -3.63281,-5.63868 -1.57909,-1.55679 -3.54676,-2.75409 -5.89844,-3.5957 -2.35444,-0.8422 -5.125749,-1.26172 -8.312499,-1.26172 z m 79.421872,0 c -0.4955,0 -0.93478,0.18089 -1.29297,0.53906 -0.35916,0.35932 -0.54492,0.79659 -0.54492,1.29102 v 41.62695 c 0,0.49537 0.1856,0.93471 0.54492,1.29297 0.35827,0.35943 0.7976,0.54492 1.29297,0.54492 h 5.21875 c 0.4943,0 0.92596,-0.18559 1.28516,-0.54492 0.35834,-0.35818 0.54492,-0.79747 0.54492,-1.29297 v -24.85547 l 8.20899,14.21094 c 0.21993,0.35309 0.52506,0.70957 0.91601,1.07813 0.4039,0.38178 0.9224,0.57617 1.54297,0.57617 h 3.35156 c 0.61961,0 1.13706,-0.19431 1.54102,-0.57617 0.39101,-0.36862 0.703,-0.72534 0.92383,-1.07813 l 8.20898,-14.21094 v 24.85547 c 0,0.49537 0.17979,0.93471 0.53906,1.29297 0.35838,0.35943 0.79576,0.54492 1.29102,0.54492 h 5.21875 c 0.49443,0 0.92585,-0.18559 1.28515,-0.54492 0.35819,-0.35818 0.54493,-0.79747 0.54493,-1.29297 v -41.62695 c 0,-0.49455 -0.17905,-0.93178 -0.53711,-1.29102 h -0.008 c -0.35924,-0.35807 -0.79059,-0.53906 -1.28515,-0.53906 h -4.38477 c -0.87673,0 -1.54209,0.24194 -1.9707,0.73828 -0.40911,0.47363 -0.69814,0.81664 -0.87109,1.03321 v 0.008 l -12.17383,21.13476 -12.16406,-21.13476 -0.008,-0.008 c -0.17378,-0.21634 -0.463,-0.55962 -0.87109,-1.03321 -0.42956,-0.49625 -1.09494,-0.73828 -1.9707,-0.73828 z m -72.373044,8.23828 h 8.548828 c 1.838438,0 3.413155,0.24977 4.732426,0.73828 1.3206,0.49053 2.41436,1.16729 3.28515,2.03711 0.87116,0.87214 1.52985,1.89486 1.97657,3.06446 0.44757,1.17282 0.71859,2.44238 0.80468,3.80859 0.17069,3.17395 0.17095,6.34841 0,9.52149 -0.0861,1.36723 -0.35696,2.64659 -0.80468,3.83984 -0.44691,1.19203 -1.09195,2.21303 -1.94141,3.0625 -0.84994,0.84994 -1.90903,1.51844 -3.1875,2.00781 -1.275807,0.4894 -2.79638,0.73828 -4.548829,0.73828 h -8.865235 z"
       transform="scale(0.26458333)" />
  </g>
</svg>
