<?xml version="1.0" encoding="UTF-8" standalone="no"?>
<svg
   xmlns:dc="http://purl.org/dc/elements/1.1/"
   xmlns:cc="http://creativecommons.org/ns#"
   xmlns:rdf="http://www.w3.org/1999/02/22-rdf-syntax-ns#"
   xmlns:svg="http://www.w3.org/2000/svg"
   xmlns="http://www.w3.org/2000/svg"
   xmlns:sodipodi="http://sodipodi.sourceforge.net/DTD/sodipodi-0.dtd"
   xmlns:inkscape="http://www.inkscape.org/namespaces/inkscape"
   width="256"
   height="256"
   viewBox="0 0 67.733332 67.733335"
   version="1.1"
   id="svg8"
   inkscape:version="1.0.1 (3bc2e813f5, 2020-09-07)"
   sodipodi:docname="eject-cargo.svg"
   inkscape:export-filename="C:\Users\keath\Workspace\KMX\elite-streamdeck-icons\cargo-scoop.png"
   inkscape:export-xdpi="96"
   inkscape:export-ydpi="96">
  <defs
     id="defs2" />
  <sodipodi:namedview
     id="base"
     pagecolor="#000000"
     bordercolor="#666666"
     borderopacity="1.0"
     inkscape:pageopacity="0"
     inkscape:pageshadow="2"
     inkscape:zoom="5.6"
     inkscape:cx="112.97462"
     inkscape:cy="122.80988"
     inkscape:document-units="px"
     inkscape:current-layer="layer2"
     showgrid="true"
     units="px"
     inkscape:snap-grids="true"
     objecttolerance="10000"
     guidetolerance="10000"
     inkscape:window-width="3840"
     inkscape:window-height="2066"
     inkscape:window-x="3829"
     inkscape:window-y="-11"
     inkscape:window-maximized="1"
     inkscape:document-rotation="0"
     showguides="true">
    <inkscape:grid
       type="xygrid"
       id="grid4623" />
    <sodipodi:guide
       position="-3.96875,62.441667"
       orientation="0,256"
       id="guide3351" />
    <sodipodi:guide
       position="62.177083,70.379167"
       orientation="256,0"
       id="guide3353" />
    <sodipodi:guide
       position="-2.6458333,22.754167"
       orientation="0,-256"
       id="guide3355" />
    <sodipodi:guide
       position="5.2916667,70.379167"
       orientation="-256,0"
       id="guide3357" />
    <sodipodi:guide
       position="0,67.733334"
       orientation="0,256"
       id="guide3359" />
    <sodipodi:guide
       position="67.733334,67.733334"
       orientation="256,0"
       id="guide3361" />
    <sodipodi:guide
       position="67.733334,0"
       orientation="0,-256"
       id="guide3363" />
    <sodipodi:guide
       position="0,0"
       orientation="-256,0"
       id="guide3365" />
    <sodipodi:guide
       position="0,67.733334"
       orientation="0,256"
       id="guide3367" />
    <sodipodi:guide
       position="67.733334,67.733334"
       orientation="256,0"
       id="guide3369" />
    <sodipodi:guide
       position="67.733334,0"
       orientation="0,-256"
       id="guide3371" />
    <sodipodi:guide
       position="0,0"
       orientation="-256,0"
       id="guide3373" />
    <sodipodi:guide
       position="0,67.733334"
       orientation="0,256"
       id="guide3375" />
    <sodipodi:guide
       position="67.733334,67.733334"
       orientation="256,0"
       id="guide3377" />
    <sodipodi:guide
       position="67.733334,0"
       orientation="0,-256"
       id="guide3379" />
    <sodipodi:guide
       position="0,0"
       orientation="-256,0"
       id="guide3381" />
  </sodipodi:namedview>
  <metadata
     id="metadata5">
    <rdf:RDF>
      <cc:Work
         rdf:about="">
        <dc:format>image/svg+xml</dc:format>
        <dc:type
           rdf:resource="http://purl.org/dc/dcmitype/StillImage" />
        <dc:title />
      </cc:Work>
    </rdf:RDF>
  </metadata>
  <g
     inkscape:groupmode="layer"
     id="layer2"
     inkscape:label="Icon">
    <path
       id="path864"
       style="color:#000000;font-style:normal;font-variant:normal;font-weight:normal;font-stretch:normal;font-size:medium;line-height:normal;font-family:sans-serif;font-variant-ligatures:normal;font-variant-position:normal;font-variant-caps:normal;font-variant-numeric:normal;font-variant-alternates:normal;font-variant-east-asian:normal;font-feature-settings:normal;font-variation-settings:normal;text-indent:0;text-align:start;text-decoration:none;text-decoration-line:none;text-decoration-style:solid;text-decoration-color:#000000;letter-spacing:normal;word-spacing:normal;text-transform:none;writing-mode:lr-tb;direction:ltr;text-orientation:mixed;dominant-baseline:auto;baseline-shift:baseline;text-anchor:start;white-space:normal;shape-padding:0;shape-margin:0;inline-size:0;clip-rule:nonzero;display:inline;overflow:visible;visibility:visible;isolation:auto;mix-blend-mode:normal;color-interpolation:sRGB;color-interpolation-filters:linearRGB;solid-color:#000000;solid-opacity:1;vector-effect:none;fill:#808080;fill-opacity:1;fill-rule:nonzero;stroke:none;stroke-width:1.18013;stroke-linecap:butt;stroke-linejoin:miter;stroke-miterlimit:4;stroke-dasharray:none;stroke-dashoffset:6.00002;stroke-opacity:1;paint-order:markers fill stroke;color-rendering:auto;image-rendering:auto;shape-rendering:auto;text-rendering:auto;enable-background:accumulate;stop-color:#000000"
       d="m 7.2844471,10.86497 a 0.69504436,0.70010181 0 0 0 -0.6941513,0.699781 v 2.125945 A 0.69504436,0.70010181 0 0 0 7.2844471,14.38932 H 42.563298 a 0.69504436,0.70010181 0 0 0 0.694725,-0.698624 V 11.564751 A 0.69504436,0.70010181 0 0 0 42.563298,10.86497 Z m 3.4753499,4.05815 c 1.199128,4.473804 1.184736,9.189747 -0.04134,13.656132 v 0.111041 l 27.567398,8.167191 c 3.708188,-5.090418 5.815212,-14.021491 2.780049,-21.934363 z m 1.806286,0.743734 h 26.946163 l 0.09933,0.257357 c 2.677803,6.981206 0.839551,14.794498 -2.449337,19.30932 l -0.166506,0.227862 -24.342377,-7.211789 v -0.451677 l 0.01436,-0.05262 c 1.038897,-3.784487 1.051073,-7.780477 0.03502,-11.571249 z m 1.026586,0.805036 c 0.896882,3.679656 0.870552,7.52455 -0.08383,11.191866 l 23.155603,6.860161 c 2.975559,-4.250775 4.666339,-11.552007 2.28915,-18.052027 z m 13.602266,2.961056 h 1.175867 c 0.488571,0 0.881899,0.330157 0.881899,0.740264 v 4.68853 c 0,0.410106 -0.393328,0.740264 -0.881899,0.740264 h -1.175867 c -0.488572,0 -0.8819,-0.330158 -0.8819,-0.740264 v -4.68853 c 0,-0.410107 0.393328,-0.740264 0.8819,-0.740264 z m 0,7.402638 h 1.175867 c 0.488571,0 0.881899,0.330157 0.881899,0.740264 v 0.98721 c 0,0.410106 -0.393328,0.740263 -0.881899,0.740263 h -1.175867 c -0.488572,0 -0.8819,-0.330157 -0.8819,-0.740263 v -0.98721 c 0,-0.410107 0.393328,-0.740264 0.8819,-0.740264 z M 8.9546594,28.923359 a 0.92663452,0.93337713 0 0 0 -0.030432,0.0011 0.92663452,0.93337713 0 0 0 -0.8497471,0.671443 0.92663452,0.93337713 0 0 0 0.6309949,1.157818 L 40.542277,40.087984 A 0.92663452,0.93337713 0 0 0 41.691157,39.4524 0.92663452,0.93337713 0 0 0 41.060164,38.29458 L 9.2239368,28.960372 a 0.92663452,0.93337713 0 0 0 -0.2692774,-0.03701 z" />
    <path
       style="opacity:1;fill:none;fill-opacity:1;stroke:#808080;stroke-width:1.7702;stroke-linecap:round;stroke-linejoin:round;stroke-miterlimit:4;stroke-dasharray:none;stroke-dashoffset:6.00002;stroke-opacity:1;paint-order:markers fill stroke"
       d="M 47.772591,19.432946 59.53125,16.47189"
       id="path890" />
    <path
       style="opacity:1;fill:none;fill-opacity:1;stroke:#808080;stroke-width:1.7702;stroke-linecap:round;stroke-linejoin:round;stroke-miterlimit:4;stroke-dasharray:none;stroke-dashoffset:6.00002;stroke-opacity:1;paint-order:markers fill stroke"
       d="M 47.772591,32.757694 59.53125,35.71875"
       id="path890-8" />
    <path
       style="opacity:1;fill:none;fill-opacity:1;stroke:#808080;stroke-width:1.7702;stroke-linecap:round;stroke-linejoin:round;stroke-miterlimit:4;stroke-dasharray:none;stroke-dashoffset:6.00002;stroke-opacity:1;paint-order:markers fill stroke"
       d="m 48.408088,25.936694 12.120548,-10e-7"
       id="path890-8-2" />
  </g>
</svg>
