<?xml version="1.0" encoding="UTF-8" standalone="no"?>
<svg
   xmlns:dc="http://purl.org/dc/elements/1.1/"
   xmlns:cc="http://creativecommons.org/ns#"
   xmlns:rdf="http://www.w3.org/1999/02/22-rdf-syntax-ns#"
   xmlns:svg="http://www.w3.org/2000/svg"
   xmlns="http://www.w3.org/2000/svg"
   xmlns:sodipodi="http://sodipodi.sourceforge.net/DTD/sodipodi-0.dtd"
   xmlns:inkscape="http://www.inkscape.org/namespaces/inkscape"
   width="256"
   height="256"
   viewBox="0 0 67.733332 67.733335"
   version="1.1"
   id="svg8"
   inkscape:version="1.0.1 (3bc2e813f5, 2020-09-07)"
   sodipodi:docname="eject-cargo.svg"
   inkscape:export-filename="C:\Users\keath\Workspace\KMX\elite-streamdeck-icons\cargo-scoop.png"
   inkscape:export-xdpi="96"
   inkscape:export-ydpi="96">
  <defs
     id="defs2" />
  <sodipodi:namedview
     id="base"
     pagecolor="#000000"
     bordercolor="#666666"
     borderopacity="1.0"
     inkscape:pageopacity="0"
     inkscape:pageshadow="2"
     inkscape:zoom="5.6"
     inkscape:cx="112.97462"
     inkscape:cy="122.80988"
     inkscape:document-units="px"
     inkscape:current-layer="layer2"
     showgrid="true"
     units="px"
     inkscape:snap-grids="true"
     objecttolerance="10000"
     guidetolerance="10000"
     inkscape:window-width="2321"
     inkscape:window-height="1879"
     inkscape:window-x="4802"
     inkscape:window-y="103"
     inkscape:window-maximized="0"
     inkscape:document-rotation="0"
     showguides="true">
    <inkscape:grid
       type="xygrid"
       id="grid4623" />
    <sodipodi:guide
       position="-3.96875,62.441667"
       orientation="0,256"
       id="guide3351" />
    <sodipodi:guide
       position="62.177083,70.379167"
       orientation="256,0"
       id="guide3353" />
    <sodipodi:guide
       position="-2.6458333,22.754167"
       orientation="0,-256"
       id="guide3355" />
    <sodipodi:guide
       position="5.2916667,70.379167"
       orientation="-256,0"
       id="guide3357" />
    <sodipodi:guide
       position="0,67.733334"
       orientation="0,256"
       id="guide3359" />
    <sodipodi:guide
       position="67.733334,67.733334"
       orientation="256,0"
       id="guide3361" />
    <sodipodi:guide
       position="67.733334,0"
       orientation="0,-256"
       id="guide3363" />
    <sodipodi:guide
       position="0,0"
       orientation="-256,0"
       id="guide3365" />
    <sodipodi:guide
       position="0,67.733334"
       orientation="0,256"
       id="guide3367" />
    <sodipodi:guide
       position="67.733334,67.733334"
       orientation="256,0"
       id="guide3369" />
    <sodipodi:guide
       position="67.733334,0"
       orientation="0,-256"
       id="guide3371" />
    <sodipodi:guide
       position="0,0"
       orientation="-256,0"
       id="guide3373" />
    <sodipodi:guide
       position="0,67.733334"
       orientation="0,256"
       id="guide3375" />
    <sodipodi:guide
       position="67.733334,67.733334"
       orientation="256,0"
       id="guide3377" />
    <sodipodi:guide
       position="67.733334,0"
       orientation="0,-256"
       id="guide3379" />
    <sodipodi:guide
       position="0,0"
       orientation="-256,0"
       id="guide3381" />
  </sodipodi:namedview>
  <metadata
     id="metadata5">
    <rdf:RDF>
      <cc:Work
         rdf:about="">
        <dc:format>image/svg+xml</dc:format>
        <dc:type
           rdf:resource="http://purl.org/dc/dcmitype/StillImage" />
        <dc:title></dc:title>
      </cc:Work>
    </rdf:RDF>
  </metadata>
  <g
     inkscape:groupmode="layer"
     id="layer2"
     inkscape:label="Icon">
    <path
       id="path864"
       style="color:#000000;font-style:normal;font-variant:normal;font-weight:normal;font-stretch:normal;font-size:medium;line-height:normal;font-family:sans-serif;font-variant-ligatures:normal;font-variant-position:normal;font-variant-caps:normal;font-variant-numeric:normal;font-variant-alternates:normal;font-variant-east-asian:normal;font-feature-settings:normal;font-variation-settings:normal;text-indent:0;text-align:start;text-decoration:none;text-decoration-line:none;text-decoration-style:solid;text-decoration-color:#000000;letter-spacing:normal;word-spacing:normal;text-transform:none;writing-mode:lr-tb;direction:ltr;text-orientation:mixed;dominant-baseline:auto;baseline-shift:baseline;text-anchor:start;white-space:normal;shape-padding:0;shape-margin:0;inline-size:0;clip-rule:nonzero;display:inline;overflow:visible;visibility:visible;isolation:auto;mix-blend-mode:normal;color-interpolation:sRGB;color-interpolation-filters:linearRGB;solid-color:#000000;solid-opacity:1;vector-effect:none;fill:#808080;fill-opacity:1;fill-rule:nonzero;stroke:none;stroke-width:1.05833;stroke-linecap:butt;stroke-linejoin:miter;stroke-miterlimit:4;stroke-dasharray:none;stroke-dashoffset:6.00002;stroke-opacity:1;paint-order:markers fill stroke;color-rendering:auto;image-rendering:auto;shape-rendering:auto;text-rendering:auto;enable-background:accumulate;stop-color:#000000"
       d="m 9.2466843,12.187886 a 0.6255718,0.6255718 0 0 0 -0.624768,0.625285 v 1.899626 a 0.6255718,0.6255718 0 0 0 0.624768,0.624251 H 40.999269 a 0.6255718,0.6255718 0 0 0 0.625284,-0.624251 v -1.899626 a 0.6255718,0.6255718 0 0 0 -0.625284,-0.625285 z m 3.1279747,3.626136 c 1.07927,3.997541 1.066317,8.211443 -0.03721,12.202355 v 0.09922 l 24.811923,7.297745 c 3.337539,-4.548513 5.233958,-12.52882 2.502172,-19.599319 z m 1.62574,0.664559 h 24.252783 l 0.0894,0.22996 c 2.410145,6.238015 0.755634,13.219535 -2.204516,17.253727 l -0.149863,0.203605 -21.909256,-6.444051 v -0.403593 l 0.01292,-0.04702 c 0.935055,-3.381606 0.946014,-6.952199 0.03152,-10.339421 z m 0.923975,0.719335 c 0.807235,3.287935 0.783537,6.723517 -0.07545,10.000425 l 20.841105,6.129856 c 2.678139,-3.798255 4.199919,-10.322227 2.06034,-16.130281 z m 12.242663,2.645834 h 1.058334 c 0.439737,0 0.79375,0.29501 0.79375,0.661458 v 4.189408 c 0,0.366448 -0.354013,0.661459 -0.79375,0.661459 h -1.058334 c -0.439737,0 -0.79375,-0.295011 -0.79375,-0.661459 v -4.189408 c 0,-0.366448 0.354013,-0.661458 0.79375,-0.661458 z m 0,6.614583 h 1.058334 c 0.439737,0 0.79375,0.29501 0.79375,0.661458 v 0.882116 c 0,0.366448 -0.354013,0.661458 -0.79375,0.661458 h -1.058334 c -0.439737,0 -0.79375,-0.29501 -0.79375,-0.661458 v -0.882116 c 0,-0.366448 0.354013,-0.661458 0.79375,-0.661458 z m -16.417085,1.865519 a 0.83401357,0.83401357 0 0 0 -0.02739,0.001 0.83401357,0.83401357 0 0 0 -0.7648114,0.599964 0.83401357,0.83401357 0 0 0 0.5679244,1.034561 l 28.654582,8.340576 a 0.83401357,0.83401357 0 0 0 1.034045,-0.567922 0.83401357,0.83401357 0 0 0 -0.567923,-1.034564 L 10.992314,28.356925 a 0.83401357,0.83401357 0 0 0 -0.242362,-0.03307 z" />
    <path
       style="opacity:1;fill:none;fill-opacity:1;stroke:#808080;stroke-width:1.5875;stroke-linecap:round;stroke-linejoin:round;stroke-miterlimit:4;stroke-dasharray:none;stroke-dashoffset:6.00002;stroke-opacity:1;paint-order:markers fill stroke"
       d="M 45.687871,19.84375 56.271204,17.197916"
       id="path890" />
    <path
       style="opacity:1;fill:none;fill-opacity:1;stroke:#808080;stroke-width:1.5875;stroke-linecap:round;stroke-linejoin:round;stroke-miterlimit:4;stroke-dasharray:none;stroke-dashoffset:6.00002;stroke-opacity:1;paint-order:markers fill stroke"
       d="m 45.687871,31.749999 10.583333,2.645834"
       id="path890-8" />
    <path
       style="opacity:1;fill:none;fill-opacity:1;stroke:#808080;stroke-width:1.5875;stroke-linecap:round;stroke-linejoin:round;stroke-miterlimit:4;stroke-dasharray:none;stroke-dashoffset:6.00002;stroke-opacity:1;paint-order:markers fill stroke"
       d="m 46.259848,25.655135 10.909049,-1e-6"
       id="path890-8-2" />
  </g>
</svg>
