<?xml version="1.0" encoding="UTF-8" standalone="no"?>
<svg
   xmlns:dc="http://purl.org/dc/elements/1.1/"
   xmlns:cc="http://creativecommons.org/ns#"
   xmlns:rdf="http://www.w3.org/1999/02/22-rdf-syntax-ns#"
   xmlns:svg="http://www.w3.org/2000/svg"
   xmlns="http://www.w3.org/2000/svg"
   xmlns:sodipodi="http://sodipodi.sourceforge.net/DTD/sodipodi-0.dtd"
   xmlns:inkscape="http://www.inkscape.org/namespaces/inkscape"
   width="256"
   height="256"
   viewBox="0 0 67.733332 67.733335"
   version="1.1"
   id="svg8"
   inkscape:version="1.0.1 (3bc2e813f5, 2020-09-07)"
   sodipodi:docname="exploration.svg"
   inkscape:export-filename="C:\Users\keath\Workspace\KMX\elite-streamdeck-icons\ship-lights.png"
   inkscape:export-xdpi="96"
   inkscape:export-ydpi="96">
  <defs
     id="defs2" />
  <sodipodi:namedview
     id="base"
     pagecolor="#000000"
     bordercolor="#666666"
     borderopacity="1.0"
     inkscape:pageopacity="0"
     inkscape:pageshadow="2"
     inkscape:zoom="3.959798"
     inkscape:cx="61.749956"
     inkscape:cy="133.71882"
     inkscape:document-units="px"
     inkscape:current-layer="layer2"
     showgrid="true"
     units="px"
     inkscape:snap-grids="true"
     objecttolerance="10000"
     guidetolerance="10000"
     inkscape:window-width="3840"
     inkscape:window-height="2066"
     inkscape:window-x="3829"
     inkscape:window-y="-11"
     inkscape:window-maximized="1"
     inkscape:document-rotation="0"
     showguides="true"
     inkscape:guide-bbox="true">
    <inkscape:grid
       type="xygrid"
       id="grid4623" />
    <sodipodi:guide
       position="-3.96875,62.441667"
       orientation="0,256"
       id="guide3351" />
    <sodipodi:guide
       position="62.441667,42.597917"
       orientation="-1,0"
       id="guide3353"
       inkscape:label=""
       inkscape:locked="false"
       inkscape:color="rgb(0,0,255)" />
    <sodipodi:guide
       position="-2.6458333,22.754167"
       orientation="0,-256"
       id="guide3355" />
    <sodipodi:guide
       position="5.2916667,70.379167"
       orientation="-256,0"
       id="guide3357" />
    <sodipodi:guide
       position="0,67.733334"
       orientation="0,256"
       id="guide3359" />
    <sodipodi:guide
       position="67.733334,67.733334"
       orientation="256,0"
       id="guide3361" />
    <sodipodi:guide
       position="67.733334,0"
       orientation="0,-256"
       id="guide3363" />
    <sodipodi:guide
       position="0,0"
       orientation="-256,0"
       id="guide3365" />
    <sodipodi:guide
       position="0,67.733334"
       orientation="0,256"
       id="guide3367" />
    <sodipodi:guide
       position="67.733334,67.733334"
       orientation="256,0"
       id="guide3369" />
    <sodipodi:guide
       position="67.733334,0"
       orientation="0,-256"
       id="guide3371" />
    <sodipodi:guide
       position="0,0"
       orientation="-256,0"
       id="guide3373" />
    <sodipodi:guide
       position="0,67.733334"
       orientation="0,256"
       id="guide3375" />
    <sodipodi:guide
       position="67.733334,67.733334"
       orientation="256,0"
       id="guide3377" />
    <sodipodi:guide
       position="67.733334,0"
       orientation="0,-256"
       id="guide3379" />
    <sodipodi:guide
       position="0,0"
       orientation="-256,0"
       id="guide3381" />
    <sodipodi:guide
       position="33.866667,46.83125"
       orientation="1,0"
       id="guide895" />
    <sodipodi:guide
       position="41.010417,42.597917"
       orientation="0,-1"
       id="guide897" />
  </sodipodi:namedview>
  <metadata
     id="metadata5">
    <rdf:RDF>
      <cc:Work
         rdf:about="">
        <dc:format>image/svg+xml</dc:format>
        <dc:type
           rdf:resource="http://purl.org/dc/dcmitype/StillImage" />
        <dc:title />
      </cc:Work>
    </rdf:RDF>
  </metadata>
  <g
     inkscape:groupmode="layer"
     id="layer2"
     inkscape:label="Icon">
    <path
       id="path879"
       style="color:#000000;font-style:normal;font-variant:normal;font-weight:normal;font-stretch:normal;font-size:medium;line-height:normal;font-family:sans-serif;font-variant-ligatures:normal;font-variant-position:normal;font-variant-caps:normal;font-variant-numeric:normal;font-variant-alternates:normal;font-variant-east-asian:normal;font-feature-settings:normal;font-variation-settings:normal;text-indent:0;text-align:start;text-decoration:none;text-decoration-line:none;text-decoration-style:solid;text-decoration-color:#000000;letter-spacing:normal;word-spacing:normal;text-transform:none;writing-mode:lr-tb;direction:ltr;text-orientation:mixed;dominant-baseline:auto;baseline-shift:baseline;text-anchor:start;white-space:normal;shape-padding:0;shape-margin:0;inline-size:0;clip-rule:nonzero;display:inline;overflow:visible;visibility:visible;opacity:1;isolation:auto;mix-blend-mode:normal;color-interpolation:sRGB;color-interpolation-filters:linearRGB;solid-color:#000000;solid-opacity:1;vector-effect:none;fill:#808080;fill-opacity:1;fill-rule:nonzero;stroke:none;stroke-width:1.10599;stroke-linecap:butt;stroke-linejoin:round;stroke-miterlimit:4;stroke-dasharray:none;stroke-dashoffset:6.00002;stroke-opacity:1;paint-order:markers fill stroke;color-rendering:auto;image-rendering:auto;shape-rendering:auto;text-rendering:auto;enable-background:accumulate;stop-color:#000000;stop-opacity:1"
       d="m 52.122917,18.062981 c -0.103127,0 -0.20569,0.0031 -0.307991,0.0078 -8.08287,0.162889 -14.608357,6.69518 -14.76344,14.779976 -0.0045,0.09739 -0.0078,0.19483 -0.0078,0.293005 0,0.09818 0.0033,0.195622 0.0078,0.293006 0.05943,3.10084 1.058661,5.971135 2.720766,8.343159 h 1.037145 c -1.01583,-1.328941 -1.804619,-2.84112 -2.303735,-4.480864 0.763924,1.027064 1.795495,1.948236 3.028755,2.724382 0.661151,0.416091 1.381881,0.792026 2.15129,1.123962 0.08861,0.214652 0.181694,0.425036 0.276987,0.63252 h 0.936892 c -0.03195,-0.06524 -0.06483,-0.129246 -0.09612,-0.195337 0.195794,0.06943 0.398494,0.131477 0.599448,0.195337 h 3.996655 c -0.280349,-1.420735 -0.490476,-3.054444 -0.618566,-4.818311 1.075759,0.05916 2.190805,0.09354 3.341912,0.09354 1.151252,0 2.266543,-0.03438 3.342434,-0.09354 -0.127781,1.763872 -0.33791,3.397573 -0.618051,4.818311 h 3.96875 v -0.877466 c -0.966642,0.321414 -1.999298,0.577862 -3.085084,0.754476 0.267592,-1.422301 0.465471,-3.026399 0.586012,-4.746997 0.870178,-0.06116 1.704261,-0.141742 2.499072,-0.238745 v -0.851111 c -0.77484,0.09631 -1.590434,0.177304 -2.442745,0.239262 0.0502,-0.943079 0.07751,-1.917251 0.07751,-2.915584 0,-0.998612 -0.02732,-1.97316 -0.07751,-2.916618 0.852311,0.06212 1.667905,0.14324 2.442745,0.239779 v -0.851111 c -0.794811,-0.09724 -1.628894,-0.177947 -2.499072,-0.239262 -0.120531,-1.720413 -0.317994,-3.324272 -0.585494,-4.74648 1.085596,0.176794 2.118069,0.432955 3.084566,0.754475 v -0.886767 c -1.028547,-0.324924 -2.119027,-0.580931 -3.26285,-0.749825 -0.0821,-0.374381 -0.168889,-0.734265 -0.26045,-1.077971 -0.360199,-1.352037 -0.788268,-2.457253 -1.292426,-3.257682 -0.0543,-0.08621 -0.11094,-0.168049 -0.16795,-0.248046 1.783361,0.532886 3.398338,1.884946 4.672068,3.844726 0.106855,0.164407 0.210153,0.334615 0.311608,0.507462 v -1.540991 c -0.682752,-0.939746 -1.456079,-1.744181 -2.302185,-2.373498 0.80136,0.25934 1.570239,0.589415 2.302185,0.979785 v -0.947229 c -1.930609,-0.959113 -4.095102,-1.51758 -6.385139,-1.563729 -0.10227,-0.0047 -0.204883,-0.0078 -0.307994,-0.0078 z m 0,0.845943 c 0.32485,0 0.732552,0.270996 1.162722,0.953947 0.43016,0.682952 0.844193,1.724762 1.190625,3.025138 0.0637,0.239278 0.124727,0.489883 0.183968,0.746208 -0.8255,-0.08871 -1.672294,-0.13746 -2.537315,-0.13746 -0.864447,0 -1.71087,0.04886 -2.535761,0.13746 0.0592,-0.256177 0.120248,-0.507059 0.183967,-0.746208 0.34643,-1.300376 0.758905,-2.342186 1.189075,-3.025138 0.430162,-0.682952 0.837882,-0.953947 1.162719,-0.953947 z m -1.709973,0.255282 c -0.057,0.07999 -0.113141,0.161845 -0.167431,0.248046 -0.504158,0.80043 -0.932238,1.905645 -1.292426,3.257682 -0.0916,0.343705 -0.17834,0.703591 -0.26045,1.077971 -1.377969,0.203512 -2.683846,0.527068 -3.889685,0.954464 0.285181,-0.602654 0.598305,-1.170092 0.938443,-1.693437 1.27364,-1.959647 2.88835,-3.311764 4.671549,-3.844726 z m -2.681488,0.437699 c -1.014061,0.754299 -1.925712,1.757742 -2.69906,2.947623 -0.50995,0.784618 -0.960011,1.653832 -1.346171,2.58899 -0.769591,0.331852 -1.490517,0.707269 -2.151808,1.123445 -1.233088,0.776035 -2.26435,1.698198 -3.028239,2.725415 1.35255,-4.442131 4.816287,-7.958384 9.225278,-9.385473 z m 4.391461,4.739762 c 0.932273,0 1.842423,0.05765 2.724383,0.164331 0.28009,1.420705 0.489744,3.054492 0.617532,4.818311 -1.075769,-0.05933 -2.190803,-0.09353 -3.341915,-0.09353 -1.151107,0 -2.266153,0.03421 -3.341912,0.09353 0.128098,-1.763826 0.338264,-3.397602 0.618566,-4.818311 0.8816,-0.106588 1.7915,-0.164331 2.723346,-0.164331 z m -3.608565,0.288355 c -0.267499,1.42222 -0.465478,3.02605 -0.586009,4.74648 -1.705841,0.120211 -3.277772,0.313605 -4.672584,0.56379 0.220591,-1.488252 0.589449,-2.886992 1.081587,-4.154269 1.265733,-0.514588 2.670988,-0.910768 4.177006,-1.156001 z m -5.250841,1.637626 c -0.403929,1.197205 -0.706858,2.484626 -0.888317,3.839042 -0.244052,0.05104 -0.48409,0.103351 -0.714169,0.15813 -1.349761,0.321372 -2.451417,0.702592 -3.250449,1.152384 -0.103322,0.05816 -0.202271,0.118012 -0.297137,0.179834 0.508989,-1.761239 1.871377,-3.360476 3.870047,-4.618323 0.40163,-0.252762 0.830895,-0.489126 1.280025,-0.711067 z m 8.859406,3.807519 c 1.173152,0 2.307593,0.0371 3.399793,0.09974 0.053,0.958407 0.08165,1.951027 0.08165,2.968811 0,1.017353 -0.02823,2.009889 -0.08113,2.967777 -1.092321,0.06247 -2.227019,0.09922 -3.400311,0.09922 -1.173247,0 -2.308029,-0.03675 -3.400308,-0.09922 -0.0531,-0.957888 -0.08113,-1.950424 -0.08113,-2.967777 0,-1.017784 0.02855,-2.010404 0.08165,-2.968811 1.092158,-0.06263 2.226694,-0.09974 3.39979,-0.09974 z m -4.250901,0.151929 c -0.0502,0.943458 -0.077,1.918006 -0.077,2.916618 0,0.998333 0.0268,1.972505 0.077,2.915584 -1.743822,-0.126766 -3.339651,-0.330241 -4.728912,-0.590662 -0.0802,-0.756596 -0.124023,-1.532818 -0.124023,-2.324922 0,-0.792078 0.04383,-1.568254 0.124023,-2.324923 1.389272,-0.260606 2.985082,-0.464599 4.728912,-0.591695 z m -5.596557,0.765328 c -0.0658,0.703062 -0.100769,1.42067 -0.100769,2.15129 0,0.730621 0.03498,1.448229 0.100769,2.151289 -0.14193,-0.03117 -0.282231,-0.06211 -0.418581,-0.09457 -1.30265,-0.310156 -2.346987,-0.682402 -3.03134,-1.067636 -0.684347,-0.385233 -0.93741,-0.747025 -0.93741,-0.989086 0,-0.242061 0.253063,-0.605921 0.93741,-0.991154 0.684353,-0.385233 1.72869,-0.755412 3.03134,-1.065568 0.13635,-0.03247 0.276651,-0.06338 0.418581,-0.09457 z m -4.16202,3.697965 c 0.09487,0.06182 0.193815,0.121671 0.297137,0.179834 0.799032,0.449791 1.900688,0.831013 3.250449,1.152385 0.230079,0.05478 0.470117,0.107106 0.714169,0.15813 0.181448,1.354501 0.484378,2.641765 0.888317,3.839042 -0.44913,-0.221881 -0.878395,-0.458305 -1.280025,-0.711068 -1.99853,-1.25776 -3.360976,-2.857228 -3.870047,-4.618323 z m 5.14232,1.656747 c 1.394812,0.24998 2.966743,0.44286 4.672584,0.562756 0.120531,1.720586 0.318431,3.324701 0.586009,4.746997 -1.50586,-0.244945 -2.910869,-0.641221 -4.176487,-1.155485 -0.492342,-1.26726 -0.861446,-2.665884 -1.082106,-4.154268 z" />
    <path
       id="path1135"
       style="color:#000000;font-style:normal;font-variant:normal;font-weight:normal;font-stretch:normal;font-size:medium;line-height:normal;font-family:sans-serif;font-variant-ligatures:normal;font-variant-position:normal;font-variant-caps:normal;font-variant-numeric:normal;font-variant-alternates:normal;font-variant-east-asian:normal;font-feature-settings:normal;font-variation-settings:normal;text-indent:0;text-align:start;text-decoration:none;text-decoration-line:none;text-decoration-style:solid;text-decoration-color:#000000;letter-spacing:normal;word-spacing:normal;text-transform:none;writing-mode:lr-tb;direction:ltr;text-orientation:mixed;dominant-baseline:auto;baseline-shift:baseline;text-anchor:start;white-space:normal;shape-padding:0;shape-margin:0;inline-size:0;clip-rule:nonzero;display:inline;overflow:visible;visibility:visible;isolation:auto;mix-blend-mode:normal;color-interpolation:sRGB;color-interpolation-filters:linearRGB;solid-color:#000000;solid-opacity:1;vector-effect:none;fill:#808080;fill-opacity:1;fill-rule:nonzero;stroke:none;stroke-width:0.793749;stroke-linecap:square;stroke-linejoin:miter;stroke-miterlimit:4;stroke-dasharray:none;stroke-dashoffset:0;stroke-opacity:1;paint-order:markers fill stroke;color-rendering:auto;image-rendering:auto;shape-rendering:auto;text-rendering:auto;enable-background:accumulate;stop-color:#000000"
       d="m 24.013358,11.689827 a 3.4126192,3.4126192 0 0 0 -2.931574,3.833614 3.4126192,3.4126192 0 0 0 0.688978,1.644708 C 23.818827,16.920234 25.832998,16.475392 27.78125,15.875 a 3.4126192,3.4126192 0 0 0 0.06576,-1.253286 3.4126192,3.4126192 0 0 0 -3.833655,-2.931887 z m 3.334246,0.139519 c -0.184477,0.0242 -0.371977,0.0513 -0.55891,0.07799 a 3.927313,3.9272635 82.407878 0 1 0.516906,0.453973 c 0.03664,-0.0049 0.074,-0.01063 0.110542,-0.01537 2.39591,-0.314115 4.570038,-0.413633 6.318463,-0.311675 1.271581,0.07415 2.318235,0.256405 3.047606,0.527897 0.729375,0.271492 1.102503,0.614781 1.173978,0.971637 0.07148,0.356856 -0.140475,0.818387 -0.709025,1.34984 -0.107519,0.100504 -0.230256,0.202683 -0.360631,0.305687 a 1.3007793,1.3007793 0 0 0 -1.057592,-0.337062 1.3007793,1.3007793 0 0 0 -1.117503,1.461217 1.3007793,1.3007793 0 0 0 0.0362,0.176144 c -0.03695,0.0183 -0.07191,0.03669 -0.109395,0.05497 -2.289872,1.116315 -5.575694,2.186189 -9.292046,2.930538 -3.716351,0.744349 -7.16099,1.02257 -9.704153,0.874266 -1.271586,-0.07415 -2.31828,-0.256711 -3.047654,-0.528203 -0.729375,-0.271492 -1.102627,-0.61572 -1.174103,-0.972576 -0.07147,-0.356855 0.140683,-0.816824 0.709234,-1.348277 0.568553,-0.531453 1.464217,-1.103469 2.609151,-1.661626 1.598461,-0.779251 3.68293,-1.535612 6.059653,-2.174652 a 3.927313,3.9272635 82.407878 0 1 0.302354,-0.618829 c -2.582858,0.668794 -4.8522,1.47928 -6.589961,2.326439 -1.174066,0.572357 -2.106165,1.158272 -2.736673,1.747639 -0.630508,0.589366 -0.988844,1.211138 -0.864607,1.831427 0.12424,0.620289 0.694204,1.056383 1.503058,1.357459 0.808856,0.301077 1.894966,0.484488 3.198897,0.560527 2.607866,0.152078 6.084331,-0.132415 9.836756,-0.88399 3.752426,-0.751573 7.070308,-1.827794 9.418437,-2.972509 0.04023,-0.01961 0.07776,-0.03957 0.117417,-0.05923 a 1.3007793,1.3007793 0 0 0 1.188648,0.477983 1.3007793,1.3007793 0 0 0 1.117501,-1.461217 1.3007793,1.3007793 0 0 0 -0.100982,-0.356748 c 0.148231,-0.11662 0.288513,-0.233409 0.413528,-0.350266 0.630506,-0.589367 0.988532,-1.211099 0.864294,-1.831388 -0.12424,-0.620289 -0.694164,-1.05607 -1.503017,-1.357146 -0.808852,-0.301077 -1.894834,-0.483549 -3.198766,-0.559588 -1.792907,-0.104554 -3.996163,-0.0029 -6.417605,0.31471 z m 0.02968,0.60924 a 3.927313,3.9272635 82.407878 0 1 0.378077,0.490924 c 0.843212,-0.07313 1.621404,-0.104288 2.291523,-0.08598 0.802836,0.02193 1.461891,0.110732 1.909642,0.251163 0.223873,0.07022 0.392784,0.154735 0.500001,0.236455 0.107217,0.08172 0.148481,0.151001 0.162301,0.217857 0.01384,0.06686 0.0034,0.147172 -0.06268,0.264701 -0.06603,0.117527 -0.187836,0.261262 -0.365529,0.414476 -0.355393,0.306428 -0.92522,0.649127 -1.653578,0.987535 -1.456718,0.676813 -3.549726,1.345428 -5.912974,1.833873 -2.318807,0.479263 -4.464525,0.694732 -6.061313,0.661284 a 0.86718615,0.86718615 0 0 0 -0.955641,-0.648344 0.86718615,0.86718615 0 0 0 -0.670968,0.4924 c -0.138513,-0.02859 -0.264813,-0.0606 -0.377594,-0.09597 -0.223874,-0.07022 -0.393869,-0.153321 -0.501084,-0.235039 -0.107217,-0.08172 -0.14798,-0.152023 -0.1618,-0.218879 -0.01384,-0.06685 -0.0039,-0.146466 0.06213,-0.263992 0.06603,-0.117527 0.188649,-0.262325 0.366345,-0.415539 0.35539,-0.306428 0.925528,-0.649169 1.653889,-0.987576 0.730689,-0.339489 1.621737,-0.676645 2.626434,-0.990304 a 3.927313,3.9272635 82.407878 0 1 0.15946,-0.590877 c -1.148236,0.345121 -2.171845,0.723049 -3.004848,1.110076 -0.755119,0.35084 -1.357588,0.705947 -1.773974,1.064965 -0.208191,0.179508 -0.371259,0.359872 -0.480224,0.553802 -0.108963,0.19393 -0.163345,0.411838 -0.119297,0.624963 0.04405,0.213126 0.18041,0.391288 0.357326,0.526131 0.176913,0.134844 0.398426,0.236132 0.660724,0.318399 0.142077,0.04456 0.297434,0.08331 0.463716,0.116934 a 0.86718615,0.86718615 0 0 0 0.96893,0.709864 0.86718615,0.86718615 0 0 0 0.695365,-0.550357 c 1.655932,0.03697 3.837707,-0.18374 6.197668,-0.671506 2.395647,-0.495143 4.516609,-1.170271 6.026846,-1.871951 0.755119,-0.350839 1.357463,-0.706884 1.773848,-1.065902 0.208192,-0.179509 0.370865,-0.360455 0.479827,-0.554385 0.108965,-0.193929 0.163702,-0.411566 0.119652,-0.624692 -0.04404,-0.213126 -0.180409,-0.391288 -0.357323,-0.526132 -0.176915,-0.134842 -0.398427,-0.236131 -0.660725,-0.318398 -0.524593,-0.164532 -1.218119,-0.251638 -2.050451,-0.274377 -0.784987,-0.02144 -1.692703,0.01653 -2.683707,0.114401 z m -0.388812,4.930998 c -1.272565,0.346553 -2.563552,0.633351 -3.866447,0.840397 a 3.4126192,3.4126192 0 0 0 1.793102,0.245387 3.4126192,3.4126192 0 0 0 2.073345,-1.085784 z" />
    <path
       id="path903-2"
       style="color:#000000;font-style:normal;font-variant:normal;font-weight:normal;font-stretch:normal;font-size:medium;line-height:normal;font-family:sans-serif;font-variant-ligatures:normal;font-variant-position:normal;font-variant-caps:normal;font-variant-numeric:normal;font-variant-alternates:normal;font-variant-east-asian:normal;font-feature-settings:normal;font-variation-settings:normal;text-indent:0;text-align:start;text-decoration:none;text-decoration-line:none;text-decoration-style:solid;text-decoration-color:#000000;letter-spacing:normal;word-spacing:normal;text-transform:none;writing-mode:lr-tb;direction:ltr;text-orientation:mixed;dominant-baseline:auto;baseline-shift:baseline;text-anchor:start;white-space:normal;shape-padding:0;shape-margin:0;inline-size:0;clip-rule:nonzero;display:inline;overflow:visible;visibility:visible;opacity:1;isolation:auto;mix-blend-mode:normal;color-interpolation:sRGB;color-interpolation-filters:linearRGB;solid-color:#000000;solid-opacity:1;vector-effect:none;fill:#808080;fill-opacity:1;fill-rule:nonzero;stroke:none;stroke-width:2.52702;stroke-linecap:round;stroke-linejoin:round;stroke-miterlimit:4;stroke-dasharray:none;stroke-dashoffset:0;stroke-opacity:1;color-rendering:auto;image-rendering:auto;shape-rendering:auto;text-rendering:auto;enable-background:accumulate;stop-color:#000000;stop-opacity:1"
       d="m 12.892336,25.528273 a 0.44530884,0.4541192 0 0 0 -0.444674,0.454421 v 13.117903 a 0.44530884,0.4541192 0 0 0 0.444674,0.453686 h 19.294798 a 0.44530884,0.4541192 0 0 0 0.445594,-0.453686 V 25.982694 a 0.44530884,0.4541192 0 0 0 -0.445594,-0.454421 z m 0.445595,0.909026 h 18.404528 v 5.852492 H 31.22496 v -1.082262 h -0.471341 v 1.082262 h -0.652667 v -1.646656 h -0.470606 v 1.646656 h -0.653219 v -1.082262 h -0.470605 v 1.082262 H 27.853854 V 29.701374 H 27.38325 v 2.588417 h -0.653403 v -4.000784 h -0.470421 v 4.000784 h -0.652668 v -4.330152 h 0.03604 v -0.283025 h -0.03604 v -0.988288 h -0.471341 v 5.601465 H 24.48275 v -3.906994 h -0.470605 v 3.906994 h -0.652668 v -2.494628 h -0.471156 v 2.494628 h -0.652668 v -1.082262 h -0.470604 v 1.082262 h -0.653404 v -0.422606 h -0.470421 v 0.422606 h -0.652667 v -1.929497 h -0.470606 v 1.929497 h -0.653403 v -2.965232 h -0.470604 v 2.965232 H 17.741276 V 28.100692 H 17.27012 v 4.189099 h -0.652668 v -2.965232 h -0.470604 v 2.965232 h -0.651933 l 0.0055,-1.928762 -0.471156,-0.0015 -0.0055,1.930234 h -0.711148 v -0.517132 h -0.35585 v 0.517132 h -0.618829 z m 0.158706,1.239315 v 0.283025 h 0.282842 v -0.283025 z m 0.847237,0 v 0.283025 h 0.282841 v -0.283025 z m 0.847971,0 v 0.283025 h 0.282289 v -0.283025 z m 0.847236,0 v 0.283025 h 0.282289 v -0.283025 z m 0.84742,0 v 0.283025 h 0.282105 v -0.283025 z m 0.847235,0 v 0.283025 h 0.282841 v -0.283025 z m 0.847236,0 v 0.283025 h 0.282841 v -0.283025 z m 0.847971,0 v 0.283025 h 0.28229 v -0.283025 z m 0.847237,0 v 0.283025 h 0.282288 v -0.283025 z m 0.847419,0 v 0.283025 h 0.282105 v -0.283025 z m 0.847235,0 v 0.283025 h 0.282842 v -0.283025 z m 0.847236,0 v 0.283025 h 0.282842 v -0.283025 z m 0.847972,0 v 0.283025 h 0.282289 v -0.283025 z m 0.847236,0 v 0.283025 h 0.282288 v -0.283025 z m 1.694655,0 v 0.283025 h 0.282841 v -0.283025 z m 0.847236,0 v 0.283025 h 0.282841 v -0.283025 z m 0.847971,0 v 0.283025 h 0.28229 v -0.283025 z m 0.847236,0 v 0.283025 h 0.282289 v -0.283025 z m 0.84742,0 v 0.283025 h 0.282105 v -0.283025 z m 0.847236,0 v 0.283025 h 0.282841 v -0.283025 z m 0.847235,0 v 0.283025 h 0.282841 V 27.676614 Z M 13.337931,32.76242 h 0.618829 v 0.517868 h 0.35585 V 32.76242 h 0.711148 l 0.0055,1.930969 0.471156,-0.0015 -0.0055,-1.929498 h 0.651932 v 2.965785 h 0.470604 v -2.965794 h 0.652669 v 4.189835 h 0.471156 v -4.189835 h 0.652668 v 2.965785 h 0.470605 v -2.965785 h 0.653403 v 1.930234 h 0.470605 v -1.930234 h 0.652667 v 0.423342 h 0.470421 v -0.423342 h 0.653404 v 1.082998 h 0.470604 v -1.082998 h 0.652667 v 2.495364 h 0.471158 v -2.495364 h 0.652667 v 3.90773 h 0.470605 v -3.90773 h 0.652668 v 5.602201 h 0.47134 V 37.37556 h 0.03604 v -0.283025 h -0.03604 v -4.330153 h 0.652668 v 4.00152 h 0.47042 v -4.00152 h 0.653403 v 2.589153 h 0.470606 v -2.589153 h 0.652667 v 1.082998 h 0.470605 v -1.082998 h 0.65322 v 1.647392 h 0.470604 v -1.647392 h 0.652668 v 1.082998 h 0.471341 v -1.083001 h 0.5175 v 5.883939 H 13.337931 Z m 0.158706,4.330153 v 0.283025 h 0.282842 v -0.283025 z m 0.847237,0 v 0.283025 h 0.282841 v -0.283025 z m 0.847971,0 v 0.283025 h 0.282289 v -0.283025 z m 0.847236,0 v 0.283025 h 0.282289 v -0.283025 z m 0.84742,0 v 0.283025 h 0.282105 v -0.283025 z m 0.847235,0 v 0.283025 h 0.282841 v -0.283025 z m 0.847236,0 v 0.283025 h 0.282841 v -0.283025 z m 0.847971,0 v 0.283025 h 0.28229 v -0.283025 z m 0.847237,0 v 0.283025 h 0.282288 v -0.283025 z m 0.847419,0 v 0.283025 h 0.282105 v -0.283025 z m 0.847235,0 v 0.283025 h 0.282842 v -0.283025 z m 0.847236,0 v 0.283025 h 0.282842 v -0.283025 z m 0.847972,0 v 0.283025 h 0.282289 v -0.283025 z m 0.847236,0 v 0.283025 h 0.282288 v -0.283025 z m 1.694655,0 v 0.283025 h 0.282841 v -0.283025 z m 0.847236,0 v 0.283025 h 0.282841 v -0.283025 z m 0.847971,0 v 0.283025 h 0.28229 v -0.283025 z m 0.847236,0 v 0.283025 h 0.282289 v -0.283025 z m 0.84742,0 v 0.283025 h 0.282105 v -0.283025 z m 0.847236,0 v 0.283025 h 0.282841 v -0.283025 z m 0.847235,0 v 0.283025 h 0.282841 v -0.283025 z" />
    <path
       id="path1002"
       style="color:#000000;font-style:normal;font-variant:normal;font-weight:normal;font-stretch:normal;font-size:medium;line-height:normal;font-family:sans-serif;font-variant-ligatures:normal;font-variant-position:normal;font-variant-caps:normal;font-variant-numeric:normal;font-variant-alternates:normal;font-variant-east-asian:normal;font-feature-settings:normal;font-variation-settings:normal;text-indent:0;text-align:start;text-decoration:none;text-decoration-line:none;text-decoration-style:solid;text-decoration-color:#000000;letter-spacing:normal;word-spacing:normal;text-transform:none;writing-mode:lr-tb;direction:ltr;text-orientation:mixed;dominant-baseline:auto;baseline-shift:baseline;text-anchor:start;white-space:normal;shape-padding:0;shape-margin:0;inline-size:0;clip-rule:nonzero;display:inline;overflow:visible;visibility:visible;opacity:1;isolation:auto;mix-blend-mode:normal;color-interpolation:sRGB;color-interpolation-filters:linearRGB;solid-color:#000000;solid-opacity:1;vector-effect:none;fill:#808080;fill-opacity:1;fill-rule:nonzero;stroke:none;stroke-width:2.53177;stroke-linecap:round;stroke-linejoin:round;stroke-miterlimit:4;stroke-dasharray:none;stroke-dashoffset:0;stroke-opacity:1;color-rendering:auto;image-rendering:auto;shape-rendering:auto;text-rendering:auto;enable-background:accumulate;stop-color:#000000;stop-opacity:1"
       d="M 6.6889973,5.3676317 A 1.2476693,1.2846268 0 0 0 5.4430786,6.6533413 V 43.76167 a 1.2476693,1.2846268 0 0 0 1.2459187,1.283126 H 60.749266 A 1.2476693,1.2846268 0 0 0 61.997768,43.76167 V 6.6533413 A 1.2476693,1.2846268 0 0 0 60.749266,5.3676317 Z M 7.9374999,7.9375008 H 59.503345 V 42.474928 H 7.9374999 Z" />
  </g>
</svg>
