<?xml version="1.0" encoding="UTF-8" standalone="no"?>
<svg
   xmlns:dc="http://purl.org/dc/elements/1.1/"
   xmlns:cc="http://creativecommons.org/ns#"
   xmlns:rdf="http://www.w3.org/1999/02/22-rdf-syntax-ns#"
   xmlns:svg="http://www.w3.org/2000/svg"
   xmlns="http://www.w3.org/2000/svg"
   xmlns:sodipodi="http://sodipodi.sourceforge.net/DTD/sodipodi-0.dtd"
   xmlns:inkscape="http://www.inkscape.org/namespaces/inkscape"
   width="256"
   height="256"
   viewBox="0 0 67.733332 67.733335"
   version="1.1"
   id="svg8"
   inkscape:version="1.0.1 (3bc2e813f5, 2020-09-07)"
   sodipodi:docname="flight-assist.svg"
   inkscape:export-filename="C:\Users\keath\Workspace\KMX\elite-streamdeck-icons\flight-assist.png"
   inkscape:export-xdpi="96"
   inkscape:export-ydpi="96">
  <defs
     id="defs2">
    <marker
       style="overflow:visible"
       id="marker1839"
       refX="0.0"
       refY="0.0"
       orient="auto"
       inkscape:stockid="Arrow2Lstart"
       inkscape:isstock="true">
      <path
         transform="scale(1.1) translate(1,0)"
         d="M 8.7185878,4.0337352 L -2.2072895,0.016013256 L 8.7185884,-4.0017078 C 6.9730900,-1.6296469 6.9831476,1.6157441 8.7185878,4.0337352 z "
         style="fill-rule:evenodd;stroke-width:0.625;stroke-linejoin:round;stroke:#808080;stroke-opacity:1;fill:#808080;fill-opacity:1"
         id="path1837" />
    </marker>
    <marker
       style="overflow:visible"
       id="Arrow2Lstart"
       refX="0.0"
       refY="0.0"
       orient="auto"
       inkscape:stockid="Arrow2Lstart"
       inkscape:isstock="true">
      <path
         transform="scale(1.1) translate(1,0)"
         d="M 8.7185878,4.0337352 L -2.2072895,0.016013256 L 8.7185884,-4.0017078 C 6.9730900,-1.6296469 6.9831476,1.6157441 8.7185878,4.0337352 z "
         style="fill-rule:evenodd;stroke-width:0.625;stroke-linejoin:round;stroke:#808080;stroke-opacity:1;fill:#808080;fill-opacity:1"
         id="path1579" />
    </marker>
  </defs>
  <sodipodi:namedview
     id="base"
     pagecolor="#000000"
     bordercolor="#666666"
     borderopacity="1.0"
     inkscape:pageopacity="0"
     inkscape:pageshadow="2"
     inkscape:zoom="3.959798"
     inkscape:cx="97.136164"
     inkscape:cy="124.05584"
     inkscape:document-units="px"
     inkscape:current-layer="layer2"
     showgrid="true"
     units="px"
     inkscape:snap-grids="true"
     objecttolerance="10000"
     guidetolerance="10000"
     inkscape:window-width="2321"
     inkscape:window-height="1879"
     inkscape:window-x="4802"
     inkscape:window-y="103"
     inkscape:window-maximized="0"
     inkscape:document-rotation="0"
     showguides="true"
     inkscape:snap-global="true">
    <inkscape:grid
       type="xygrid"
       id="grid4623" />
    <sodipodi:guide
       position="-3.96875,62.441667"
       orientation="0,256"
       id="guide3351" />
    <sodipodi:guide
       position="62.177083,70.379167"
       orientation="256,0"
       id="guide3353" />
    <sodipodi:guide
       position="-2.6458333,22.754167"
       orientation="0,-256"
       id="guide3355" />
    <sodipodi:guide
       position="5.2916667,70.379167"
       orientation="-256,0"
       id="guide3357" />
    <sodipodi:guide
       position="0,67.733334"
       orientation="0,256"
       id="guide3359" />
    <sodipodi:guide
       position="67.733334,67.733334"
       orientation="256,0"
       id="guide3361" />
    <sodipodi:guide
       position="67.733334,0"
       orientation="0,-256"
       id="guide3363" />
    <sodipodi:guide
       position="0,0"
       orientation="-256,0"
       id="guide3365" />
    <sodipodi:guide
       position="0,67.733334"
       orientation="0,256"
       id="guide3367" />
    <sodipodi:guide
       position="67.733334,67.733334"
       orientation="256,0"
       id="guide3369" />
    <sodipodi:guide
       position="67.733334,0"
       orientation="0,-256"
       id="guide3371" />
    <sodipodi:guide
       position="0,0"
       orientation="-256,0"
       id="guide3373" />
    <sodipodi:guide
       position="0,67.733334"
       orientation="0,256"
       id="guide3375" />
    <sodipodi:guide
       position="67.733334,67.733334"
       orientation="256,0"
       id="guide3377" />
    <sodipodi:guide
       position="67.733334,0"
       orientation="0,-256"
       id="guide3379" />
    <sodipodi:guide
       position="0,0"
       orientation="-256,0"
       id="guide3381" />
  </sodipodi:namedview>
  <metadata
     id="metadata5">
    <rdf:RDF>
      <cc:Work
         rdf:about="">
        <dc:format>image/svg+xml</dc:format>
        <dc:type
           rdf:resource="http://purl.org/dc/dcmitype/StillImage" />
        <dc:title />
      </cc:Work>
    </rdf:RDF>
  </metadata>
  <g
     inkscape:groupmode="layer"
     id="layer2"
     inkscape:label="Icon">
    <path
       id="path1530"
       style="color:#000000;font-style:normal;font-variant:normal;font-weight:normal;font-stretch:normal;font-size:medium;line-height:normal;font-family:sans-serif;font-variant-ligatures:normal;font-variant-position:normal;font-variant-caps:normal;font-variant-numeric:normal;font-variant-alternates:normal;font-variant-east-asian:normal;font-feature-settings:normal;font-variation-settings:normal;text-indent:0;text-align:start;text-decoration:none;text-decoration-line:none;text-decoration-style:solid;text-decoration-color:#000000;letter-spacing:normal;word-spacing:normal;text-transform:none;writing-mode:lr-tb;direction:ltr;text-orientation:mixed;dominant-baseline:auto;baseline-shift:baseline;text-anchor:start;white-space:normal;shape-padding:0;shape-margin:0;inline-size:0;clip-rule:nonzero;display:inline;overflow:visible;visibility:visible;isolation:auto;mix-blend-mode:normal;color-interpolation:sRGB;color-interpolation-filters:linearRGB;solid-color:#000000;solid-opacity:1;vector-effect:none;fill:#808080;fill-opacity:1;fill-rule:nonzero;stroke:none;stroke-width:2.27948;stroke-linecap:round;stroke-linejoin:round;stroke-miterlimit:4;stroke-dasharray:none;stroke-dashoffset:0;stroke-opacity:1;color-rendering:auto;image-rendering:auto;shape-rendering:auto;text-rendering:auto;enable-background:accumulate;stop-color:#000000"
       d="M 29.098229,5.4714949 A 0.93818716,0.90991588 0 0 0 28.444136,5.7295875 L 10.797787,22.397614 a 0.93818716,0.90991588 0 0 0 -0.283609,0.651651 v 3.731501 a 0.93818716,0.90991588 0 0 0 0.938165,0.909745 h 44.715725 a 0.93818716,0.90991588 0 0 0 0.938166,-0.909745 V 23.049265 A 0.93818716,0.90991588 0 0 0 56.822622,22.397614 L 39.176274,5.7295875 A 0.93818716,0.90991588 0 0 0 38.522181,5.4714949 Z m 1.435518,1.8194888 h 6.74965 L 33.908572,10.564293 Z M 29.739918,7.4862147 33.411222,11.04639 19.644863,24.397722 Z M 37.952659,7.6057532 47.705728,23.945297 34.405464,11.045958 Z M 28.478608,8.2361523 17.953312,25.87103 H 12.390509 V 23.433091 Z M 39.142261,8.2370364 55.229899,23.43309 v 2.437938 h -5.538901 l -0.05652,-0.05489 z M 33.908112,11.528498 48.697672,25.87103 H 19.119471 Z" />
    <rect
       style="fill:none;fill-opacity:1;stroke:#808080;stroke-width:0;stroke-linecap:round;stroke-linejoin:round;stroke-miterlimit:4;stroke-dasharray:none;stroke-opacity:1"
       id="rect1972"
       width="55.5625"
       height="37.041664"
       x="5.9572873"
       y="4.5008383" />
    <path
       id="path2119"
       style="color:#000000;font-style:normal;font-variant:normal;font-weight:normal;font-stretch:normal;font-size:medium;line-height:normal;font-family:sans-serif;font-variant-ligatures:normal;font-variant-position:normal;font-variant-caps:normal;font-variant-numeric:normal;font-variant-alternates:normal;font-variant-east-asian:normal;font-feature-settings:normal;font-variation-settings:normal;text-indent:0;text-align:start;text-decoration:none;text-decoration-line:none;text-decoration-style:solid;text-decoration-color:#000000;letter-spacing:normal;word-spacing:normal;text-transform:none;writing-mode:lr-tb;direction:ltr;text-orientation:mixed;dominant-baseline:auto;baseline-shift:baseline;text-anchor:start;white-space:normal;shape-padding:0;shape-margin:0;inline-size:0;clip-rule:nonzero;display:inline;overflow:visible;visibility:visible;isolation:auto;mix-blend-mode:normal;color-interpolation:sRGB;color-interpolation-filters:linearRGB;solid-color:#000000;solid-opacity:1;vector-effect:none;fill:#808080;fill-opacity:1;fill-rule:nonzero;stroke:none;stroke-width:0.854808;stroke-linecap:round;stroke-linejoin:round;stroke-miterlimit:4;stroke-dasharray:none;stroke-dashoffset:0;stroke-opacity:1;color-rendering:auto;image-rendering:auto;shape-rendering:auto;text-rendering:auto;enable-background:accumulate;stop-color:#000000"
       d="m 28.916702,29.291373 a 0.62616013,0.55693545 0 0 0 -0.628607,0.556211 V 33.0021 h -1.460222 a 0.62622273,0.55699113 0 0 0 -0.62616,0.559112 v 1.299515 h -3.546612 a 0.62616013,0.55693545 0 0 0 -0.628605,0.556211 0.62616013,0.55693545 0 0 0 0.628605,0.556212 h 3.546612 v 2.598305 h -3.546612 a 0.62616013,0.55693545 0 0 0 -0.628605,0.55911 0.62616013,0.55693545 0 0 0 0.628605,0.556935 h 3.546612 v 1.298793 a 0.62622273,0.55699113 0 0 0 0.62616,0.556212 h 1.460222 v 3.157415 a 0.62616013,0.55693545 0 0 0 0.628607,0.556935 0.62616013,0.55693545 0 0 0 0.62616,-0.556935 v -3.157415 h 3.756146 v 3.157415 a 0.62616013,0.55693545 0 0 0 0.625347,0.556935 0.62616013,0.55693545 0 0 0 0.625341,-0.556935 v -3.157415 h 4.175219 v 3.157415 a 0.62616013,0.55693545 0 0 0 0.626161,0.556935 0.62616013,0.55693545 0 0 0 0.628606,-0.556935 v -3.157415 h 1.460223 a 0.62622273,0.55699113 0 0 0 0.62616,-0.556212 V 39.6875 h 3.546612 a 0.62616013,0.55693545 0 0 0 0.628606,-0.556935 0.62616013,0.55693545 0 0 0 -0.628606,-0.55911 H 42.066065 V 35.97315 h 3.546612 a 0.62616013,0.55693545 0 0 0 0.628606,-0.556212 0.62616013,0.55693545 0 0 0 -0.628606,-0.556211 H 42.066065 V 33.561212 A 0.62622273,0.55699113 0 0 0 41.439905,33.0021 h -1.460223 v -3.154516 a 0.62616013,0.55693545 0 0 0 -0.628606,-0.556211 0.62616013,0.55693545 0 0 0 -0.626161,0.556211 V 33.0021 h -3.756146 v -3.154516 a 0.62616013,0.55693545 0 0 0 -0.625347,-0.556211 0.62616013,0.55693545 0 0 0 -0.625341,0.556211 V 33.0021 h -4.175219 v -3.154516 a 0.62616013,0.55693545 0 0 0 -0.62616,-0.556211 z m 0,5.013147 h 10.434374 a 1.2524455,1.1139822 0 0 1 1.253948,1.112418 v 3.713627 a 1.2524455,1.1139822 0 0 1 -1.253948,1.113149 H 28.916702 a 1.2524455,1.1139822 0 0 1 -1.253948,-1.113149 v -3.713627 a 1.2524455,1.1139822 0 0 1 1.253948,-1.112418 z" />
    <path
       style="fill:none;stroke:#808080;stroke-width:1.70962;stroke-linecap:round;stroke-linejoin:round;stroke-miterlimit:4;stroke-dasharray:none;stroke-opacity:1"
       d="m 60.095107,31.569748 v 5.698718 H 51.54703"
       id="path2099-7" />
    <path
       style="fill:none;stroke:#808080;stroke-width:1.70962;stroke-linecap:round;stroke-linejoin:round;stroke-miterlimit:4;stroke-dasharray:none;stroke-opacity:1"
       d="m 7.3819661,31.569748 v 5.698718 h 8.5480789"
       id="path2099-7-9" />
  </g>
</svg>
