<?xml version="1.0" encoding="UTF-8" standalone="no"?>
<svg
   xmlns:dc="http://purl.org/dc/elements/1.1/"
   xmlns:cc="http://creativecommons.org/ns#"
   xmlns:rdf="http://www.w3.org/1999/02/22-rdf-syntax-ns#"
   xmlns:svg="http://www.w3.org/2000/svg"
   xmlns="http://www.w3.org/2000/svg"
   xmlns:sodipodi="http://sodipodi.sourceforge.net/DTD/sodipodi-0.dtd"
   xmlns:inkscape="http://www.inkscape.org/namespaces/inkscape"
   width="256"
   height="256"
   viewBox="0 0 67.733332 67.733335"
   version="1.1"
   id="svg8"
   inkscape:version="1.0.1 (3bc2e813f5, 2020-09-07)"
   sodipodi:docname="galaxy-map.svg"
   inkscape:export-filename="C:\Users\keath\Workspace\KMX\elite-streamdeck-icons\ship-lights.png"
   inkscape:export-xdpi="96"
   inkscape:export-ydpi="96">
  <defs
     id="defs2" />
  <sodipodi:namedview
     id="base"
     pagecolor="#000000"
     bordercolor="#666666"
     borderopacity="1.0"
     inkscape:pageopacity="0"
     inkscape:pageshadow="2"
     inkscape:zoom="2.8"
     inkscape:cx="-73.879614"
     inkscape:cy="151.39245"
     inkscape:document-units="px"
     inkscape:current-layer="layer2"
     showgrid="true"
     units="px"
     inkscape:snap-grids="true"
     objecttolerance="10000"
     guidetolerance="10000"
     inkscape:window-width="3840"
     inkscape:window-height="2066"
     inkscape:window-x="3829"
     inkscape:window-y="-11"
     inkscape:window-maximized="1"
     inkscape:document-rotation="0"
     showguides="true"
     inkscape:guide-bbox="true"
     inkscape:snap-global="true">
    <inkscape:grid
       type="xygrid"
       id="grid4623" />
    <sodipodi:guide
       position="-3.96875,62.441667"
       orientation="0,256"
       id="guide3351" />
    <sodipodi:guide
       position="62.441667,42.597917"
       orientation="-1,0"
       id="guide3353"
       inkscape:label=""
       inkscape:locked="false"
       inkscape:color="rgb(0,0,255)" />
    <sodipodi:guide
       position="-2.6458333,22.754167"
       orientation="0,-256"
       id="guide3355" />
    <sodipodi:guide
       position="5.2916667,70.379167"
       orientation="-256,0"
       id="guide3357" />
    <sodipodi:guide
       position="0,67.733334"
       orientation="0,256"
       id="guide3359" />
    <sodipodi:guide
       position="67.733334,67.733334"
       orientation="256,0"
       id="guide3361" />
    <sodipodi:guide
       position="67.733334,0"
       orientation="0,-256"
       id="guide3363" />
    <sodipodi:guide
       position="0,0"
       orientation="-256,0"
       id="guide3365" />
    <sodipodi:guide
       position="0,67.733334"
       orientation="0,256"
       id="guide3367" />
    <sodipodi:guide
       position="67.733334,67.733334"
       orientation="256,0"
       id="guide3369" />
    <sodipodi:guide
       position="67.733334,0"
       orientation="0,-256"
       id="guide3371" />
    <sodipodi:guide
       position="0,0"
       orientation="-256,0"
       id="guide3373" />
    <sodipodi:guide
       position="0,67.733334"
       orientation="0,256"
       id="guide3375" />
    <sodipodi:guide
       position="67.733334,67.733334"
       orientation="256,0"
       id="guide3377" />
    <sodipodi:guide
       position="67.733334,0"
       orientation="0,-256"
       id="guide3379" />
    <sodipodi:guide
       position="0,0"
       orientation="-256,0"
       id="guide3381" />
    <sodipodi:guide
       position="33.866667,46.83125"
       orientation="1,0"
       id="guide895" />
    <sodipodi:guide
       position="41.010417,42.597917"
       orientation="0,-1"
       id="guide897" />
  </sodipodi:namedview>
  <metadata
     id="metadata5">
    <rdf:RDF>
      <cc:Work
         rdf:about="">
        <dc:format>image/svg+xml</dc:format>
        <dc:type
           rdf:resource="http://purl.org/dc/dcmitype/StillImage" />
        <dc:title />
      </cc:Work>
    </rdf:RDF>
  </metadata>
  <g
     inkscape:groupmode="layer"
     id="layer2"
     inkscape:label="Icon">
    <path
       id="path903"
       style="color:#000000;font-style:normal;font-variant:normal;font-weight:normal;font-stretch:normal;font-size:medium;line-height:normal;font-family:sans-serif;font-variant-ligatures:normal;font-variant-position:normal;font-variant-caps:normal;font-variant-numeric:normal;font-variant-alternates:normal;font-variant-east-asian:normal;font-feature-settings:normal;font-variation-settings:normal;text-indent:0;text-align:start;text-decoration:none;text-decoration-line:none;text-decoration-style:solid;text-decoration-color:#000000;letter-spacing:normal;word-spacing:normal;text-transform:none;writing-mode:lr-tb;direction:ltr;text-orientation:mixed;dominant-baseline:auto;baseline-shift:baseline;text-anchor:start;white-space:normal;shape-padding:0;shape-margin:0;inline-size:0;clip-rule:nonzero;display:inline;overflow:visible;visibility:visible;opacity:1;isolation:auto;mix-blend-mode:normal;color-interpolation:sRGB;color-interpolation-filters:linearRGB;solid-color:#000000;solid-opacity:1;vector-effect:none;fill:#808080;fill-opacity:1;fill-rule:nonzero;stroke:none;stroke-width:9.56889;stroke-linecap:round;stroke-linejoin:round;stroke-miterlimit:4;stroke-dasharray:none;stroke-dashoffset:0;stroke-opacity:1;color-rendering:auto;image-rendering:auto;shape-rendering:auto;text-rendering:auto;enable-background:accumulate;stop-color:#000000;stop-opacity:1"
       d="m 24.941406,19.349609 a 4.7156004,4.8552823 0 0 0 -4.708984,4.859375 V 164.46094 a 4.7156004,4.8552823 0 0 0 4.708984,4.85156 H 229.26367 a 4.7156004,4.8552823 0 0 0 4.71875,-4.85156 V 24.208984 a 4.7156004,4.8552823 0 0 0 -4.71875,-4.859375 z m 4.71875,9.71875 H 224.55469 V 159.60352 H 29.660156 Z M 56.228516,35 v 6.205078 H 35.236328 v 1.074219 h 20.992188 v 15.505859 c 0.347665,-0.146863 0.69467,-0.295046 1.044922,-0.435547 V 42.279297 h 22.53125 v 9.751953 c 0.348161,-0.04007 0.696606,-0.07393 1.044921,-0.111328 v -9.640625 h 22.531251 v 8.775391 c 0.34772,0.0076 0.69529,0.01611 1.04297,0.02539 v -8.800781 h 22.5332 v 10.580078 c 0.34803,0.04602 0.69517,0.0968 1.04297,0.144531 V 42.279297 h 22.53125 v 15.060547 c 0.34878,0.08704 0.69659,0.178741 1.04492,0.267578 V 42.279297 h 22.53125 v 16.453125 h -18.30469 c 1.25539,0.348311 2.5091,0.702336 3.75782,1.074219 h 14.54687 v 4.941406 c 0.34879,0.123338 0.69537,0.251021 1.04297,0.376953 v -5.318359 h 22.5332 v 16.455078 h -9.6875 c -0.0866,0.36054 -0.22331,0.722684 -0.42382,1.082031 h 10.11132 v 5.625 c 0.35253,0.22432 0.69436,0.463283 1.04297,0.693359 V 77.34375 h 19.87891 V 76.261719 H 198.72656 V 59.806641 h 19.87891 V 58.732422 H 198.72656 V 42.279297 h 19.87891 V 41.205078 H 198.72656 V 35 h -1.04297 v 6.205078 h -22.5332 V 35 h -1.04297 v 6.205078 H 151.57617 V 35 h -1.04492 v 6.205078 H 128 V 35 h -1.04297 v 6.205078 h -22.5332 V 35 h -1.04297 v 6.205078 H 80.849609 V 35 h -1.044921 v 6.205078 H 57.273438 V 35 Z m 118.921874,7.279297 h 22.5332 v 16.453125 h -22.5332 z M 35.236328,58.732422 v 1.074219 h 16.691406 c 0.71013,-0.370693 1.422942,-0.734464 2.146485,-1.074219 z m 45.613281,13.578125 c -0.347816,0.111825 -0.699943,0.210479 -1.044921,0.330078 v 3.621094 h -7.259766 c -0.482885,0.338171 -0.952258,0.699164 -1.41211,1.082031 h 8.671876 v 0.365234 c 0.496789,-0.518368 1.028477,-1.00201 1.591796,-1.447265 h -0.546875 z m -45.613281,3.951172 v 1.082031 h 2.244141 c 0.05407,-0.361692 0.104154,-0.723585 0.179687,-1.082031 z m 115.294922,8.501953 v 9.035156 h -1.84961 c 0.18815,0.349727 0.35729,0.707716 0.50977,1.074219 h 1.33984 v 12.818363 c 0.34931,-0.0504 0.69594,-0.10875 1.04492,-0.16407 V 94.873047 h 12.49219 c -0.30679,-0.366363 -0.62272,-0.723884 -0.94531,-1.074219 h -11.54688 v -8.482422 c -0.34916,-0.182589 -0.69269,-0.376581 -1.04492,-0.552734 z M 35.236328,93.798828 v 1.074219 h 8.273438 c -0.286369,-0.352469 -0.563895,-0.710914 -0.835938,-1.074219 z m 39.65625,0 c 0.437416,0.362767 0.871135,0.728426 1.324219,1.074219 h 2.337891 C 78.312734,94.524221 78.0898,94.16348 77.875,93.798828 Z m 135.500002,0 c 0.29403,0.353274 0.58422,0.710087 0.86719,1.074219 h 7.3457 V 93.798828 Z M 79.804688,96.466797 v 0.935547 c 0.349658,0.232029 0.695949,0.462505 1.044921,0.689453 v -0.486328 c -0.360917,-0.367704 -0.708991,-0.747057 -1.044921,-1.138672 z m -23.576172,9.234373 v 5.625 H 35.236328 v 1.07422 h 20.992188 v 16.45508 H 35.236328 v 1.08203 h 20.992188 v 16.45508 H 35.236328 v 1.07422 h 20.992188 v 6.20312 h 1.044922 v -6.20312 h 22.53125 v 6.20312 h 1.044921 v -6.20312 h 22.531251 v 6.20312 h 1.04297 v -6.20312 h 22.5332 v 6.20312 H 128 v -6.20312 h 22.53125 v 6.20312 h 1.04492 v -6.20312 h 22.53125 v 6.20312 h 1.04297 v -6.20312 h 22.5332 v 6.20312 h 1.04297 v -6.20312 h 19.87891 v -1.07422 h -19.87891 v -13.60547 c -0.34756,0.15044 -0.6931,0.30444 -1.04297,0.44727 v 13.1582 h -22.5332 v -7.83008 c -0.34774,0.0434 -0.69488,0.0903 -1.04297,0.13086 v 7.69922 h -22.53125 v -6.96094 c -0.34859,-0.0156 -0.69639,-0.0446 -1.04492,-0.0625 v 7.02344 H 128 v -9.66406 c -0.34839,-0.0624 -0.69505,-0.13113 -1.04297,-0.19532 v 9.85938 h -22.5332 v -15.63281 c -0.34829,-0.15421 -0.70026,-0.29737 -1.04297,-0.4668 v 16.09961 H 80.849609 V 129.9375 h 21.921871 c -0.55243,-0.32771 -1.11249,-0.68636 -1.6582,-1.08203 H 80.849609 v -11.08008 c -0.34782,-0.1269 -0.698057,-0.24758 -1.044921,-0.37695 v 11.45703 h -22.53125 v -16.45508 h 10.832031 c -0.730935,-0.35456 -1.463754,-0.70442 -2.1875,-1.07422 h -8.644531 v -4.96289 c -0.349015,-0.2195 -0.697817,-0.43785 -1.044922,-0.66211 z m 129.630864,5.625 c -0.30206,0.37031 -0.61973,0.72636 -0.94532,1.07422 h 2.48633 c 0.22683,-0.34502 0.4326,-0.70117 0.60156,-1.07422 z m 31.38476,0 c -0.0181,0.35864 -0.0484,0.71669 -0.0859,1.07422 h 1.44727 v -1.07422 z m -42.09375,7.56445 c -0.34657,0.14457 -0.6922,0.29117 -1.04297,0.42579 v 1.16406 c 0.34972,-0.10996 0.69734,-0.22264 1.04297,-0.33985 z m 30.84375,9.96485 c -0.55339,0.37546 -1.11907,0.73462 -1.69336,1.08203 h 14.30469 v -1.08203 z M 57.273438,129.9375 h 22.53125 v 16.45508 h -22.53125 z"
       transform="scale(0.26458333)" />
    <path
       id="path1078"
       style="fill:#808080;fill-opacity:1;stroke:none;stroke-width:0.0264583;stroke-linecap:square;stroke-miterlimit:4;stroke-dasharray:none;stroke-opacity:1;paint-order:markers fill stroke"
       d="M 34.176704,15.670904 A 22.081196,8.3479267 8.8509396 0 0 11.47098,20.743672 22.081196,8.3479267 8.8509396 0 0 32.443088,32.294983 22.081196,8.3479267 8.8509396 0 0 40.91885,32.901262 20.534448,7.7631697 8.8509396 0 1 35.838594,32.394917 20.534448,7.7631697 8.8509396 0 1 16.335679,21.6528 20.534448,7.7631697 8.8509396 0 1 37.450947,16.935283 20.534448,7.7631697 8.8509396 0 1 47.758634,19.576482 22.081196,8.3479267 8.8509396 0 0 34.176704,15.670904 Z m 2.995715,2.739302 a 19.791643,8.2518715 8.9337746 0 0 -12.538856,0.01557 18.405274,7.6738425 8.9337746 0 1 2.300666,-0.146594 13.994876,6.0187717 11.008761 0 0 -0.1446,0.02269 13.014559,5.5971675 11.008761 0 1 0.525871,-0.03176 18.405274,7.6738425 8.9337746 0 1 3.896265,0.125319 13.014559,5.5971675 11.008761 0 1 2.252325,0.325693 13.014559,5.5971675 11.008761 0 1 12.040612,7.903517 13.014559,5.5971675 11.008761 0 1 -13.554036,3.202925 13.014559,5.5971675 11.008761 0 1 -3.16126,-0.759927 13.994876,6.0187717 11.008761 0 0 5.235934,1.433586 13.994876,6.0187717 11.008761 0 0 14.574974,-3.444032 13.994876,6.0187717 11.008761 0 0 -4.028797,-5.322191 18.405274,7.6738425 8.9337746 0 1 6.927391,7.321468 18.405274,7.6738425 8.9337746 0 1 -18.995953,4.950783 18.405274,7.6738425 8.9337746 0 1 -4.506079,-0.91052 19.791643,8.2518715 8.9337746 0 0 7.471608,1.747911 19.791643,8.2518715 8.9337746 0 0 20.427011,-5.323482 19.791643,8.2518715 8.9337746 0 0 -18.723076,-11.110958 z m -6.314012,1.903284 a 8.9436419,3.8031773 8.9875806 0 0 -9.186264,2.482641 8.9436419,3.8031773 8.9875806 0 0 6.918246,4.81345 6.4227305,2.8185954 9.0176536 0 0 2.922564,0.760204 6.4227305,2.8185954 9.0176536 0 0 6.643893,-1.866096 6.4227305,2.8185954 9.0176536 0 0 -6.060244,-3.747424 6.4227305,2.8185954 9.0176536 0 0 -6.643888,1.866097 6.4227305,2.8185954 9.0176536 0 0 0.908337,1.717692 8.3171551,3.5367716 8.9875806 0 1 -2.719758,-3.166222 8.3171551,3.5367716 8.9875806 0 1 8.592545,-2.301682 8.3171551,3.5367716 8.9875806 0 1 4.168989,1.125241 8.9436419,3.8031773 8.9875806 0 0 -5.490993,-1.675988 8.9436419,3.8031773 8.9875806 0 0 -0.05343,-0.0079 z" />
  </g>
</svg>
