<?xml version="1.0" encoding="UTF-8" standalone="no"?>
<svg
   xmlns:dc="http://purl.org/dc/elements/1.1/"
   xmlns:cc="http://creativecommons.org/ns#"
   xmlns:rdf="http://www.w3.org/1999/02/22-rdf-syntax-ns#"
   xmlns:svg="http://www.w3.org/2000/svg"
   xmlns="http://www.w3.org/2000/svg"
   xmlns:sodipodi="http://sodipodi.sourceforge.net/DTD/sodipodi-0.dtd"
   xmlns:inkscape="http://www.inkscape.org/namespaces/inkscape"
   width="256"
   height="256"
   viewBox="0 0 67.733332 67.733335"
   version="1.1"
   id="svg8"
   inkscape:version="1.0.1 (3bc2e813f5, 2020-09-07)"
   sodipodi:docname="galaxy-map.svg"
   inkscape:export-filename="C:\Users\keath\Workspace\KMX\elite-streamdeck-icons\galaxy-map.png"
   inkscape:export-xdpi="96"
   inkscape:export-ydpi="96">
  <defs
     id="defs2" />
  <sodipodi:namedview
     id="base"
     pagecolor="#000000"
     bordercolor="#666666"
     borderopacity="1.0"
     inkscape:pageopacity="0"
     inkscape:pageshadow="2"
     inkscape:zoom="5.6"
     inkscape:cx="119.82289"
     inkscape:cy="127.2539"
     inkscape:document-units="px"
     inkscape:current-layer="layer1"
     showgrid="true"
     units="px"
     inkscape:snap-grids="true"
     objecttolerance="10000"
     guidetolerance="10000"
     inkscape:window-width="2591"
     inkscape:window-height="1936"
     inkscape:window-x="4581"
     inkscape:window-y="46"
     inkscape:window-maximized="0"
     inkscape:document-rotation="0">
    <inkscape:grid
       type="xygrid"
       id="grid4623" />
  </sodipodi:namedview>
  <metadata
     id="metadata5">
    <rdf:RDF>
      <cc:Work
         rdf:about="">
        <dc:format>image/svg+xml</dc:format>
        <dc:type
           rdf:resource="http://purl.org/dc/dcmitype/StillImage" />
        <dc:title />
      </cc:Work>
    </rdf:RDF>
  </metadata>
  <g
     inkscape:label="Layer 1"
     inkscape:groupmode="layer"
     id="layer1"
     transform="translate(0,-229.26665)">
    <path
       id="path2010"
       style="fill:#808080;fill-opacity:1;stroke:#808080;stroke-width:1;stroke-linecap:round;stroke-linejoin:round;stroke-miterlimit:4;stroke-dasharray:none;stroke-opacity:1"
       d="m 29.59179,234.97641 a 18.41488,13.241647 0 0 0 -15.799415,6.5208 18.41488,13.241647 0 0 1 13.077452,-3.91947 18.41488,13.241647 0 0 1 12.670658,3.63303 8.9261227,13.178885 63.830906 0 0 -0.866509,-0.008 12.434368,19.610435 45.667096 0 0 -18.108757,4.3921 12.434368,19.610435 45.667096 0 0 -0.05562,0.0437 12.434368,19.610435 45.667096 0 0 -9.926269,15.79601 12.434368,19.610435 45.667096 0 1 8.926556,-11.8531 12.434368,19.610435 45.667096 0 1 8.838201,-4.70796 8.9261227,13.178885 63.830906 0 0 -1.835275,1.56181 18.41488,13.241647 0 0 1 0.785329,-1.06802 18.41488,13.241647 0 0 0 -5.337186,9.32303 18.41488,13.241647 0 0 0 18.414637,13.24158 18.41488,13.241647 0 0 0 0.06683,0 18.41488,13.241647 0 0 0 15.799414,-6.52079 18.41488,13.241647 0 0 1 -13.077451,3.91947 18.41488,13.241647 0 0 1 -13.843045,-4.50934 8.9261227,13.178885 63.830906 0 0 0.529235,0.0768 12.434368,19.610435 45.667096 0 0 18.97616,-3.90751 12.434368,19.610435 45.667096 0 0 0.05517,-0.0437 12.434368,19.610435 45.667096 0 0 9.926716,-15.79601 12.434368,19.610435 45.667096 0 1 -8.927004,11.8531 12.434368,19.610435 45.667096 0 1 -6.113095,3.72269 18.41488,13.241647 0 0 0 4.304732,-8.50881 18.41488,13.241647 0 0 0 -18.414637,-13.24158 18.41488,13.241647 0 0 0 -0.06683,0 z m 14.382595,20.74857 a 18.41488,13.241647 0 0 1 -0.801474,1.25193 12.434368,19.610435 45.667096 0 1 -1.2132,0.44918 8.9261227,13.178885 63.830906 0 0 2.014674,-1.70111 z" />
  </g>
</svg>
