<?xml version="1.0" encoding="UTF-8" standalone="no"?>
<svg
   xmlns:dc="http://purl.org/dc/elements/1.1/"
   xmlns:cc="http://creativecommons.org/ns#"
   xmlns:rdf="http://www.w3.org/1999/02/22-rdf-syntax-ns#"
   xmlns:svg="http://www.w3.org/2000/svg"
   xmlns="http://www.w3.org/2000/svg"
   xmlns:sodipodi="http://sodipodi.sourceforge.net/DTD/sodipodi-0.dtd"
   xmlns:inkscape="http://www.inkscape.org/namespaces/inkscape"
   width="256"
   height="256"
   viewBox="0 0 67.733332 67.733335"
   version="1.1"
   id="svg8"
   inkscape:version="1.0.1 (3bc2e813f5, 2020-09-07)"
   sodipodi:docname="globe.svg"
   inkscape:export-filename="C:\Users\keath\Workspace\KMX\elite-streamdeck-icons\ship-lights.png"
   inkscape:export-xdpi="96"
   inkscape:export-ydpi="96">
  <defs
     id="defs2" />
  <sodipodi:namedview
     id="base"
     pagecolor="#000000"
     bordercolor="#666666"
     borderopacity="1.0"
     inkscape:pageopacity="0"
     inkscape:pageshadow="2"
     inkscape:zoom="5.6"
     inkscape:cx="125.36071"
     inkscape:cy="126.51445"
     inkscape:document-units="px"
     inkscape:current-layer="layer2"
     showgrid="true"
     units="px"
     inkscape:snap-grids="true"
     objecttolerance="10000"
     guidetolerance="10000"
     inkscape:window-width="2321"
     inkscape:window-height="1879"
     inkscape:window-x="5333"
     inkscape:window-y="72"
     inkscape:window-maximized="0"
     inkscape:document-rotation="0"
     showguides="true">
    <inkscape:grid
       type="xygrid"
       id="grid4623" />
    <sodipodi:guide
       position="-3.96875,62.441667"
       orientation="0,256"
       id="guide3351" />
    <sodipodi:guide
       position="62.177083,70.379167"
       orientation="256,0"
       id="guide3353" />
    <sodipodi:guide
       position="-2.6458333,22.754167"
       orientation="0,-256"
       id="guide3355" />
    <sodipodi:guide
       position="5.2916667,70.379167"
       orientation="-256,0"
       id="guide3357" />
    <sodipodi:guide
       position="0,67.733334"
       orientation="0,256"
       id="guide3359" />
    <sodipodi:guide
       position="67.733334,67.733334"
       orientation="256,0"
       id="guide3361" />
    <sodipodi:guide
       position="67.733334,0"
       orientation="0,-256"
       id="guide3363" />
    <sodipodi:guide
       position="0,0"
       orientation="-256,0"
       id="guide3365" />
    <sodipodi:guide
       position="0,67.733334"
       orientation="0,256"
       id="guide3367" />
    <sodipodi:guide
       position="67.733334,67.733334"
       orientation="256,0"
       id="guide3369" />
    <sodipodi:guide
       position="67.733334,0"
       orientation="0,-256"
       id="guide3371" />
    <sodipodi:guide
       position="0,0"
       orientation="-256,0"
       id="guide3373" />
    <sodipodi:guide
       position="0,67.733334"
       orientation="0,256"
       id="guide3375" />
    <sodipodi:guide
       position="67.733334,67.733334"
       orientation="256,0"
       id="guide3377" />
    <sodipodi:guide
       position="67.733334,0"
       orientation="0,-256"
       id="guide3379" />
    <sodipodi:guide
       position="0,0"
       orientation="-256,0"
       id="guide3381" />
  </sodipodi:namedview>
  <metadata
     id="metadata5">
    <rdf:RDF>
      <cc:Work
         rdf:about="">
        <dc:format>image/svg+xml</dc:format>
        <dc:type
           rdf:resource="http://purl.org/dc/dcmitype/StillImage" />
        <dc:title />
      </cc:Work>
    </rdf:RDF>
  </metadata>
  <g
     inkscape:groupmode="layer"
     id="layer2"
     inkscape:label="Icon">
    <path
       id="path879"
       style="color:#000000;font-style:normal;font-variant:normal;font-weight:normal;font-stretch:normal;font-size:medium;line-height:normal;font-family:sans-serif;font-variant-ligatures:normal;font-variant-position:normal;font-variant-caps:normal;font-variant-numeric:normal;font-variant-alternates:normal;font-variant-east-asian:normal;font-feature-settings:normal;font-variation-settings:normal;text-indent:0;text-align:start;text-decoration:none;text-decoration-line:none;text-decoration-style:solid;text-decoration-color:#000000;letter-spacing:normal;word-spacing:normal;text-transform:none;writing-mode:lr-tb;direction:ltr;text-orientation:mixed;dominant-baseline:auto;baseline-shift:baseline;text-anchor:start;white-space:normal;shape-padding:0;shape-margin:0;inline-size:0;clip-rule:nonzero;display:inline;overflow:visible;visibility:visible;opacity:1;isolation:auto;mix-blend-mode:normal;color-interpolation:sRGB;color-interpolation-filters:linearRGB;solid-color:#000000;solid-opacity:1;vector-effect:none;fill:#808080;fill-opacity:1;fill-rule:nonzero;stroke:none;stroke-width:4.18012;stroke-linecap:butt;stroke-linejoin:round;stroke-miterlimit:4;stroke-dasharray:none;stroke-dashoffset:6.00002;stroke-opacity:1;paint-order:markers fill stroke;color-rendering:auto;image-rendering:auto;shape-rendering:auto;text-rendering:auto;enable-background:accumulate;stop-color:#000000;stop-opacity:1"
       d="M 127.58789 20.675781 C 127.07776 20.675781 126.57048 20.691631 126.06445 20.714844 C 86.083754 21.520537 53.806153 53.830085 53.039062 93.820312 C 53.016752 94.302025 53.001953 94.785875 53.001953 95.271484 C 53.001953 95.757094 53.016752 96.239009 53.039062 96.720703 C 53.805522 136.71133 86.083349 169.01283 126.06445 169.81836 C 126.57048 169.84155 127.07776 169.85742 127.58789 169.85742 C 128.09791 169.85742 128.60542 169.84154 129.11133 169.81836 C 169.09244 169.01283 201.37221 136.71133 202.13867 96.720703 C 202.16096 96.239009 202.17578 95.757094 202.17578 95.271484 C 202.17578 94.785875 202.16096 94.302025 202.13867 93.820312 C 201.37158 53.830085 169.09203 21.520537 129.11133 20.714844 C 128.60542 20.691642 128.09791 20.675781 127.58789 20.675781 z M 127.58789 24.861328 C 129.19468 24.861328 131.21209 26.20196 133.33984 29.580078 C 135.46759 32.958196 137.51689 38.110852 139.23047 44.542969 C 139.54578 45.726525 139.84561 46.966502 140.13867 48.234375 C 136.05544 47.795592 131.86655 47.554688 127.58789 47.554688 C 123.31201 47.554688 119.12708 47.794198 115.04688 48.232422 C 115.33991 46.965278 115.63994 45.725886 115.95508 44.542969 C 117.66865 38.110852 119.71014 32.958197 121.83789 29.580078 C 123.96564 26.201959 125.9811 24.861329 127.58789 24.861328 z M 119.13086 26.123047 C 118.84891 26.518714 118.5713 26.923224 118.30273 27.349609 C 115.80898 31.308812 113.69181 36.777185 111.91016 43.464844 C 111.45724 45.164927 111.02726 46.945059 110.62109 48.796875 C 103.80521 49.80352 97.34733 51.403531 91.382812 53.517578 C 92.793411 50.536641 94.340979 47.729279 96.023438 45.140625 C 102.32333 35.447526 110.31051 28.759271 119.13086 26.123047 z M 136.04492 26.123047 C 144.86599 28.758895 152.85397 35.446863 159.1543 45.140625 C 160.83605 47.728197 162.38284 50.534133 163.79297 53.513672 C 157.82904 51.400852 151.3711 49.803079 144.55664 48.796875 C 144.15048 46.945055 143.7205 45.164931 143.26758 43.464844 C 141.48592 36.777185 139.36875 31.308811 136.875 27.349609 C 136.60641 26.92318 136.3269 26.518751 136.04492 26.123047 z M 105.86719 28.287109 C 100.85127 32.018132 96.342821 36.981614 92.517578 42.867188 C 89.99518 46.748183 87.767507 51.048214 85.857422 55.673828 C 82.050755 57.315289 78.485798 59.173868 75.214844 61.232422 C 69.115566 65.070963 64.012827 69.629965 60.234375 74.710938 C 66.924555 52.738602 84.058756 35.34599 105.86719 28.287109 z M 149.30664 28.287109 C 171.11344 35.344333 188.24888 52.732238 194.94141 74.701172 C 191.16525 69.623803 186.0664 65.068708 179.9707 61.232422 C 176.69765 59.172547 173.12844 57.314105 169.31836 55.671875 C 167.40849 51.047164 165.18212 46.747522 162.66016 42.867188 C 158.83459 36.981118 154.32307 32.018239 149.30664 28.287109 z M 127.58789 51.732422 C 132.1992 51.732422 136.70196 52.0192 141.06445 52.546875 C 142.44985 59.574181 143.48705 67.654443 144.11914 76.378906 C 138.79802 76.085457 133.28167 75.916015 127.58789 75.916016 C 121.89411 75.916015 116.37971 76.085457 111.05859 76.378906 C 111.69224 67.65441 112.73264 59.574204 114.11914 52.546875 C 118.47984 52.019653 122.97861 51.732422 127.58789 51.732422 z M 109.74023 53.158203 C 108.41707 60.193002 107.43798 68.126868 106.8418 76.636719 C 98.404128 77.231325 90.627703 78.18828 83.728516 79.425781 C 84.81959 72.064368 86.643843 65.145349 89.078125 58.876953 C 95.338844 56.33162 102.29092 54.37121 109.74023 53.158203 z M 145.4375 53.158203 C 152.88638 54.371278 159.83923 56.331694 166.09961 58.876953 C 168.53389 65.145349 170.35814 72.064368 171.44922 79.425781 C 164.54951 78.188186 156.77239 77.231316 148.33398 76.636719 C 147.73781 68.126957 146.76065 60.192944 145.4375 53.158203 z M 83.767578 61.259766 C 81.769592 67.181562 80.270613 73.548631 79.373047 80.248047 C 78.165868 80.500521 76.979822 80.760292 75.841797 81.03125 C 69.165394 82.62087 63.715965 84.505642 59.763672 86.730469 C 59.252601 87.018161 58.762219 87.3153 58.292969 87.621094 C 60.810615 78.90939 67.549444 70.997145 77.435547 64.775391 C 79.422137 63.525143 81.546028 62.357567 83.767578 61.259766 z M 171.41016 61.259766 C 173.63142 62.357457 175.75388 63.52529 177.74023 64.775391 C 187.62634 70.997145 194.36517 78.90939 196.88281 87.621094 C 196.41356 87.3153 195.92513 87.018161 195.41406 86.730469 C 191.46177 84.505642 186.01234 82.62087 179.33594 81.03125 C 178.19791 80.760292 177.01187 80.500521 175.80469 80.248047 C 174.90712 73.54863 173.40814 67.181561 171.41016 61.259766 z M 127.58789 80.09375 C 133.3907 80.09375 139.00385 80.27612 144.40625 80.585938 C 144.66843 85.326556 144.81055 90.237169 144.81055 95.271484 C 144.81055 100.30367 144.67017 105.21117 144.4082 109.94922 C 139.00521 110.25822 133.3914 110.44141 127.58789 110.44141 C 121.78461 110.44141 116.17232 110.25819 110.76953 109.94922 C 110.50686 105.21117 110.36719 100.30367 110.36719 95.271484 C 110.36719 90.237171 110.50859 85.326555 110.77148 80.585938 C 116.17368 80.276144 121.78531 80.09375 127.58789 80.09375 z M 106.5625 80.84375 C 106.31409 85.510428 106.18164 90.332 106.18164 95.271484 C 106.18164 100.20959 106.31423 105.02661 106.5625 109.69141 C 97.936937 109.06438 90.043664 108.05766 83.171875 106.76953 C 82.775328 103.02714 82.558594 99.189508 82.558594 95.271484 C 82.558594 91.35359 82.775353 87.514233 83.171875 83.771484 C 90.043683 82.482431 97.936904 81.472416 106.5625 80.84375 z M 148.61328 80.84375 C 157.23892 81.472415 165.13402 82.482425 172.00586 83.771484 C 172.40238 87.514233 172.61719 91.35359 172.61719 95.271484 C 172.61719 99.189508 172.40241 103.02714 172.00586 106.76953 C 165.13404 108.05766 157.23889 109.06438 148.61328 109.69141 C 148.86156 105.02661 148.99609 100.20959 148.99609 95.271484 C 148.99609 90.331998 148.86169 85.510429 148.61328 80.84375 z M 78.880859 84.628906 C 78.555548 88.106497 78.380859 91.657579 78.380859 95.271484 C 78.380859 98.885391 78.555548 102.43452 78.880859 105.91211 C 78.17885 105.75789 77.483017 105.60394 76.808594 105.44336 C 70.365217 103.90922 65.20143 102.06956 61.816406 100.16406 C 58.431378 98.258561 57.179688 96.468801 57.179688 95.271484 C 57.179688 94.074168 58.431378 92.274642 61.816406 90.369141 C 65.20143 88.463643 70.365217 86.631793 76.808594 85.097656 C 77.483017 84.937079 78.17885 84.783169 78.880859 84.628906 z M 176.29492 84.628906 C 176.99704 84.78319 177.69462 84.937056 178.36914 85.097656 C 184.81252 86.631793 189.98412 88.463643 193.36914 90.369141 C 196.75417 92.274642 197.99609 94.074168 197.99609 95.271484 C 197.99609 96.468801 196.75417 98.258561 193.36914 100.16406 C 189.98412 102.06956 184.81252 103.90922 178.36914 105.44336 C 177.69462 105.60396 176.99704 105.75786 176.29492 105.91211 C 176.62023 102.43452 176.79688 98.885391 176.79688 95.271484 C 176.79688 91.657578 176.62023 88.106497 176.29492 84.628906 z M 58.292969 102.92188 C 58.762219 103.22767 59.252601 103.52285 59.763672 103.81055 C 63.715965 106.03537 69.165394 107.92015 75.841797 109.50977 C 76.979822 109.78072 78.165868 110.04059 79.373047 110.29297 C 80.270553 116.99281 81.769523 123.3591 83.767578 129.28125 C 81.546028 128.18375 79.422137 127.01587 77.435547 125.76562 C 67.550126 119.5443 60.811026 111.63287 58.292969 102.92188 z M 196.88281 102.92188 C 194.36476 111.63287 187.62565 119.5443 177.74023 125.76562 C 175.75388 127.01572 173.63142 128.18386 171.41016 129.28125 C 173.40821 123.3591 174.90718 116.99281 175.80469 110.29297 C 177.01187 110.04059 178.19791 109.78072 179.33594 109.50977 C 186.01234 107.92015 191.46177 106.03537 195.41406 103.81055 C 195.92513 103.52285 196.41356 103.22767 196.88281 102.92188 z M 83.728516 111.11523 C 90.627703 112.35172 98.404128 113.30539 106.8418 113.89844 C 107.438 122.40906 108.41669 130.34374 109.74023 137.37891 C 102.2917 136.16733 95.34029 134.20779 89.080078 131.66406 C 86.644808 125.39575 84.819941 118.4773 83.728516 111.11523 z M 171.44922 111.11523 C 170.35779 118.4773 168.53293 125.39575 166.09766 131.66406 C 159.83725 134.20794 152.88437 136.16728 145.43555 137.37891 C 146.75911 130.34371 147.73777 122.40912 148.33398 113.89844 C 156.77239 113.30539 164.54951 112.35181 171.44922 111.11523 z M 111.05859 114.15625 C 116.37971 114.44885 121.89411 114.61914 127.58789 114.61914 C 133.28237 114.61914 138.79937 114.44892 144.12109 114.15625 C 143.48904 122.88097 142.4501 130.96081 141.06445 137.98828 C 136.70196 138.51533 132.1992 138.80078 127.58789 138.80078 C 122.97861 138.80078 118.47984 138.51488 114.11914 137.98828 C 112.7324 130.96082 111.6922 122.88095 111.05859 114.15625 z M 60.232422 115.82422 C 64.011033 120.90443 69.114688 125.46169 75.214844 129.30078 C 78.485115 131.35891 82.0497 133.21751 85.855469 134.85938 C 87.766219 139.4878 89.99384 143.79077 92.517578 147.67383 C 96.344791 153.56243 100.85598 158.52577 105.875 162.25586 C 84.060979 155.19794 66.922114 137.8019 60.232422 115.82422 z M 194.94336 115.83398 C 188.25126 137.80847 171.1115 155.20168 149.29883 162.25781 C 154.31875 158.52753 158.83238 153.5633 162.66016 147.67383 C 165.18329 143.7917 167.41182 139.49044 169.32227 134.86328 C 173.13111 133.22074 176.69859 131.36006 179.9707 129.30078 C 186.06728 125.46394 191.16704 120.91059 194.94336 115.83398 z M 91.384766 137.02148 C 97.349183 139.13653 103.80736 140.73461 110.62305 141.74219 C 111.02883 143.5917 111.45771 145.37202 111.91016 147.07031 C 113.69181 153.75797 115.80898 159.22439 118.30273 163.18359 C 118.57307 163.61279 118.85282 164.01991 119.13672 164.41797 C 110.31406 161.78091 102.32471 155.08976 96.023438 145.39453 C 94.341718 142.80701 92.794872 140.00046 91.384766 137.02148 z M 163.79102 137.02344 C 162.38118 140.00162 160.83561 142.80763 159.1543 145.39453 C 152.85259 155.09043 144.86244 161.78129 136.03906 164.41797 C 136.32299 164.01987 136.60464 163.61283 136.875 163.18359 C 139.36875 159.22439 141.48592 153.75797 143.26758 147.07031 C 143.72002 145.37201 144.1489 143.5917 144.55469 141.74219 C 151.36918 140.73502 157.82702 139.13736 163.79102 137.02344 z M 115.04883 142.30664 C 119.12847 142.74525 123.31264 142.98633 127.58789 142.98633 C 131.86585 142.98633 136.05412 142.7458 140.13672 142.30664 C 139.84421 143.57162 139.54513 144.81107 139.23047 145.99219 C 137.51689 152.42431 135.46759 157.57696 133.33984 160.95508 C 131.21209 164.33319 129.19468 165.67969 127.58789 165.67969 C 125.9811 165.67968 123.96564 164.33319 121.83789 160.95508 C 119.71014 157.57696 117.66865 152.42431 115.95508 145.99219 C 115.64043 144.81113 115.34143 143.57155 115.04883 142.30664 z "
       transform="scale(0.26458333)" />
  </g>
</svg>
