<?xml version="1.0" encoding="UTF-8" standalone="no"?>
<svg
   xmlns:dc="http://purl.org/dc/elements/1.1/"
   xmlns:cc="http://creativecommons.org/ns#"
   xmlns:rdf="http://www.w3.org/1999/02/22-rdf-syntax-ns#"
   xmlns:svg="http://www.w3.org/2000/svg"
   xmlns="http://www.w3.org/2000/svg"
   xmlns:sodipodi="http://sodipodi.sourceforge.net/DTD/sodipodi-0.dtd"
   xmlns:inkscape="http://www.inkscape.org/namespaces/inkscape"
   width="256"
   height="256"
   viewBox="0 0 67.733332 67.733335"
   version="1.1"
   id="svg8"
   inkscape:version="1.0.1 (3bc2e813f5, 2020-09-07)"
   sodipodi:docname="grid.svg"
   inkscape:export-filename="C:\Users\keath\Workspace\KMX\elite-streamdeck-icons\analysis-mode.png"
   inkscape:export-xdpi="96"
   inkscape:export-ydpi="96">
  <defs
     id="defs2" />
  <sodipodi:namedview
     id="base"
     pagecolor="#000000"
     bordercolor="#666666"
     borderopacity="1.0"
     inkscape:pageopacity="0"
     inkscape:pageshadow="2"
     inkscape:zoom="5.6"
     inkscape:cx="124.1086"
     inkscape:cy="141.53961"
     inkscape:document-units="px"
     inkscape:current-layer="layer2"
     showgrid="true"
     units="px"
     inkscape:snap-grids="true"
     objecttolerance="10000"
     guidetolerance="10000"
     inkscape:window-width="3840"
     inkscape:window-height="2066"
     inkscape:window-x="3829"
     inkscape:window-y="-11"
     inkscape:window-maximized="1"
     inkscape:document-rotation="0"
     showguides="true">
    <inkscape:grid
       type="xygrid"
       id="grid4623" />
    <sodipodi:guide
       position="-3.96875,62.441667"
       orientation="0,256"
       id="guide3351" />
    <sodipodi:guide
       position="62.177083,70.379167"
       orientation="256,0"
       id="guide3353" />
    <sodipodi:guide
       position="-2.6458333,22.754167"
       orientation="0,-256"
       id="guide3355" />
    <sodipodi:guide
       position="5.2916667,70.379167"
       orientation="-256,0"
       id="guide3357" />
    <sodipodi:guide
       position="0,67.733334"
       orientation="0,256"
       id="guide3359" />
    <sodipodi:guide
       position="67.733334,67.733334"
       orientation="256,0"
       id="guide3361" />
    <sodipodi:guide
       position="67.733334,0"
       orientation="0,-256"
       id="guide3363" />
    <sodipodi:guide
       position="0,0"
       orientation="-256,0"
       id="guide3365" />
    <sodipodi:guide
       position="0,67.733334"
       orientation="0,256"
       id="guide3367" />
    <sodipodi:guide
       position="67.733334,67.733334"
       orientation="256,0"
       id="guide3369" />
    <sodipodi:guide
       position="67.733334,0"
       orientation="0,-256"
       id="guide3371" />
    <sodipodi:guide
       position="0,0"
       orientation="-256,0"
       id="guide3373" />
    <sodipodi:guide
       position="0,67.733334"
       orientation="0,256"
       id="guide3375" />
    <sodipodi:guide
       position="67.733334,67.733334"
       orientation="256,0"
       id="guide3377" />
    <sodipodi:guide
       position="67.733334,0"
       orientation="0,-256"
       id="guide3379" />
    <sodipodi:guide
       position="0,0"
       orientation="-256,0"
       id="guide3381" />
  </sodipodi:namedview>
  <metadata
     id="metadata5">
    <rdf:RDF>
      <cc:Work
         rdf:about="">
        <dc:format>image/svg+xml</dc:format>
        <dc:type
           rdf:resource="http://purl.org/dc/dcmitype/StillImage" />
        <dc:title />
      </cc:Work>
    </rdf:RDF>
  </metadata>
  <g
     inkscape:groupmode="layer"
     id="layer2"
     inkscape:label="Icon">
    <path
       id="path903"
       style="color:#000000;font-style:normal;font-variant:normal;font-weight:normal;font-stretch:normal;font-size:medium;line-height:normal;font-family:sans-serif;font-variant-ligatures:normal;font-variant-position:normal;font-variant-caps:normal;font-variant-numeric:normal;font-variant-alternates:normal;font-variant-east-asian:normal;font-feature-settings:normal;font-variation-settings:normal;text-indent:0;text-align:start;text-decoration:none;text-decoration-line:none;text-decoration-style:solid;text-decoration-color:#000000;letter-spacing:normal;word-spacing:normal;text-transform:none;writing-mode:lr-tb;direction:ltr;text-orientation:mixed;dominant-baseline:auto;baseline-shift:baseline;text-anchor:start;white-space:normal;shape-padding:0;shape-margin:0;inline-size:0;clip-rule:nonzero;display:inline;overflow:visible;visibility:visible;opacity:1;isolation:auto;mix-blend-mode:normal;color-interpolation:sRGB;color-interpolation-filters:linearRGB;solid-color:#000000;solid-opacity:1;vector-effect:none;fill:#808080;fill-opacity:1;fill-rule:nonzero;stroke:none;stroke-width:2.53177;stroke-linecap:round;stroke-linejoin:round;stroke-miterlimit:4;stroke-dasharray:none;stroke-dashoffset:0;stroke-opacity:1;color-rendering:auto;image-rendering:auto;shape-rendering:auto;text-rendering:auto;enable-background:accumulate;stop-color:#000000;stop-opacity:1"
       d="M 6.7169051,5.2244877 A 1.2476693,1.2846268 0 0 0 5.4709848,6.5101011 V 43.618389 a 1.2476693,1.2846268 0 0 0 1.2459203,1.283385 H 60.777171 a 1.2476693,1.2846268 0 0 0 1.248626,-1.283385 V 6.5101011 A 1.2476693,1.2846268 0 0 0 60.777171,5.2244877 Z M 7.9655326,7.7957144 H 59.53125 V 42.333333 H 7.9655326 Z m 7.0298914,1.569385 V 11.00696 H 9.4410356 v 0.28433 h 5.5543884 v 4.353022 H 9.4410356 v 0.284329 H 14.995424 V 20.28222 H 9.4410356 v 0.28656 h 5.5543884 v 4.353579 H 9.4410356 v 0.284329 h 5.5543884 v 4.353023 H 9.4410356 v 0.284328 H 14.995424 V 34.19762 H 9.4410356 v 0.286557 H 14.995424 V 38.83776 H 9.4410356 v 0.284328 h 5.5543884 v 1.641303 h 0.27615 v -1.641303 h 5.961573 v 1.641303 h 0.27615 v -1.641303 h 5.961572 v 1.641303 h 0.27615 v -1.641303 h 5.961573 v 1.641303 h 0.27615 v -1.641303 h 5.961573 v 1.641303 h 0.27615 v -1.641303 h 5.961573 v 1.641303 h 0.27615 v -1.641303 h 5.961573 v 1.641303 h 0.27615 v -1.641303 h 5.259288 V 38.83776 h -5.259288 v -4.353583 h 5.259288 V 34.19762 h -5.259288 v -4.353581 h 5.259288 v -0.284328 h -5.259288 v -4.353023 h 5.259288 V 24.922359 H 52.697911 V 20.56878 h 5.259288 v -0.28656 h -5.259288 v -4.353579 h 5.259288 V 15.644312 H 52.697911 V 11.29129 h 5.259288 V 11.00696 H 52.697911 V 9.3650994 h -0.27615 V 11.00696 H 46.460188 V 9.3650994 h -0.27615 V 11.00696 H 40.222465 V 9.3650994 h -0.27615 V 11.00696 H 33.984742 V 9.3650994 h -0.27615 V 11.00696 H 27.747019 V 9.3650994 h -0.27615 V 11.00696 H 21.509297 V 9.3650994 h -0.27615 V 11.00696 H 15.271574 V 9.3650994 Z m 0.27615,1.9261906 h 5.961573 v 4.353022 h -5.961573 z m 6.237723,0 h 5.961572 v 4.353022 h -5.961572 z m 6.237722,0 h 5.961573 v 4.353022 h -5.961573 z m 6.237723,0 h 5.961573 v 4.353022 h -5.961573 z m 6.237723,0 h 5.961573 v 4.353022 h -5.961573 z m 6.237723,0 h 5.961573 v 4.353022 h -5.961573 z m -31.188614,4.637351 h 5.961573 v 4.353579 h -5.961573 z m 6.237723,0 h 5.961572 v 4.353579 h -5.961572 z m 6.237722,0 h 5.961573 v 4.353579 h -5.961573 z m 6.237723,0 h 5.961573 v 4.353579 h -5.961573 z m 6.237723,0 h 5.961573 v 4.353579 h -5.961573 z m 6.237723,0 h 5.961573 V 20.28222 H 46.460188 Z M 15.271574,20.56878 h 5.961573 v 4.353579 h -5.961573 z m 6.237723,0 h 5.961572 v 4.353579 h -5.961572 z m 6.237722,0 h 5.961573 v 4.353579 h -5.961573 z m 6.237723,0 h 5.961573 v 4.353579 h -5.961573 z m 6.237723,0 h 5.961573 v 4.353579 h -5.961573 z m 6.237723,0 h 5.961573 v 4.353579 h -5.961573 z m -31.188614,4.637908 h 5.961573 v 4.353023 h -5.961573 z m 6.237723,0 h 5.961572 v 4.353023 h -5.961572 z m 6.237722,0 h 5.961573 v 4.353023 h -5.961573 z m 6.237723,0 h 5.961573 v 4.353023 h -5.961573 z m 6.237723,0 h 5.961573 v 4.353023 h -5.961573 z m 6.237723,0 h 5.961573 v 4.353023 h -5.961573 z m -31.188614,4.637351 h 5.961573 v 4.353581 h -5.961573 z m 6.237723,0 h 5.961572 v 4.353581 h -5.961572 z m 6.237722,0 h 5.961573 v 4.353581 h -5.961573 z m 6.237723,0 h 5.961573 v 4.353581 h -5.961573 z m 6.237723,0 h 5.961573 v 4.353581 h -5.961573 z m 6.237723,0 h 5.961573 v 4.353581 h -5.961573 z m -31.188614,4.640138 h 5.961573 v 4.353583 h -5.961573 z m 6.237723,0 h 5.961572 v 4.353583 h -5.961572 z m 6.237722,0 h 5.961573 v 4.353583 h -5.961573 z m 6.237723,0 h 5.961573 v 4.353583 h -5.961573 z m 6.237723,0 h 5.961573 v 4.353583 h -5.961573 z m 6.237723,0 h 5.961573 v 4.353583 h -5.961573 z" />
  </g>
</svg>
