<?xml version="1.0" encoding="UTF-8" standalone="no"?>
<svg
   xmlns:dc="http://purl.org/dc/elements/1.1/"
   xmlns:cc="http://creativecommons.org/ns#"
   xmlns:rdf="http://www.w3.org/1999/02/22-rdf-syntax-ns#"
   xmlns:svg="http://www.w3.org/2000/svg"
   xmlns="http://www.w3.org/2000/svg"
   xmlns:sodipodi="http://sodipodi.sourceforge.net/DTD/sodipodi-0.dtd"
   xmlns:inkscape="http://www.inkscape.org/namespaces/inkscape"
   width="256"
   height="256"
   viewBox="0 0 67.733332 67.733335"
   version="1.1"
   id="svg8"
   inkscape:version="1.0.1 (3bc2e813f5, 2020-09-07)"
   sodipodi:docname="grid.svg"
   inkscape:export-filename="C:\Users\keath\Workspace\KMX\elite-streamdeck-icons\analysis-mode.png"
   inkscape:export-xdpi="96"
   inkscape:export-ydpi="96">
  <defs
     id="defs2" />
  <sodipodi:namedview
     id="base"
     pagecolor="#000000"
     bordercolor="#666666"
     borderopacity="1.0"
     inkscape:pageopacity="0"
     inkscape:pageshadow="2"
     inkscape:zoom="5.6"
     inkscape:cx="124.1086"
     inkscape:cy="141.53961"
     inkscape:document-units="px"
     inkscape:current-layer="layer2"
     showgrid="true"
     units="px"
     inkscape:snap-grids="true"
     objecttolerance="10000"
     guidetolerance="10000"
     inkscape:window-width="2321"
     inkscape:window-height="1879"
     inkscape:window-x="4802"
     inkscape:window-y="103"
     inkscape:window-maximized="0"
     inkscape:document-rotation="0"
     showguides="true">
    <inkscape:grid
       type="xygrid"
       id="grid4623" />
    <sodipodi:guide
       position="-3.96875,62.441667"
       orientation="0,256"
       id="guide3351" />
    <sodipodi:guide
       position="62.177083,70.379167"
       orientation="256,0"
       id="guide3353" />
    <sodipodi:guide
       position="-2.6458333,22.754167"
       orientation="0,-256"
       id="guide3355" />
    <sodipodi:guide
       position="5.2916667,70.379167"
       orientation="-256,0"
       id="guide3357" />
    <sodipodi:guide
       position="0,67.733334"
       orientation="0,256"
       id="guide3359" />
    <sodipodi:guide
       position="67.733334,67.733334"
       orientation="256,0"
       id="guide3361" />
    <sodipodi:guide
       position="67.733334,0"
       orientation="0,-256"
       id="guide3363" />
    <sodipodi:guide
       position="0,0"
       orientation="-256,0"
       id="guide3365" />
    <sodipodi:guide
       position="0,67.733334"
       orientation="0,256"
       id="guide3367" />
    <sodipodi:guide
       position="67.733334,67.733334"
       orientation="256,0"
       id="guide3369" />
    <sodipodi:guide
       position="67.733334,0"
       orientation="0,-256"
       id="guide3371" />
    <sodipodi:guide
       position="0,0"
       orientation="-256,0"
       id="guide3373" />
    <sodipodi:guide
       position="0,67.733334"
       orientation="0,256"
       id="guide3375" />
    <sodipodi:guide
       position="67.733334,67.733334"
       orientation="256,0"
       id="guide3377" />
    <sodipodi:guide
       position="67.733334,0"
       orientation="0,-256"
       id="guide3379" />
    <sodipodi:guide
       position="0,0"
       orientation="-256,0"
       id="guide3381" />
  </sodipodi:namedview>
  <metadata
     id="metadata5">
    <rdf:RDF>
      <cc:Work
         rdf:about="">
        <dc:format>image/svg+xml</dc:format>
        <dc:type
           rdf:resource="http://purl.org/dc/dcmitype/StillImage" />
        <dc:title />
      </cc:Work>
    </rdf:RDF>
  </metadata>
  <g
     inkscape:groupmode="layer"
     id="layer2"
     inkscape:label="Icon">
    <path
       id="path903"
       style="color:#000000;font-style:normal;font-variant:normal;font-weight:normal;font-stretch:normal;font-size:medium;line-height:normal;font-family:sans-serif;font-variant-ligatures:normal;font-variant-position:normal;font-variant-caps:normal;font-variant-numeric:normal;font-variant-alternates:normal;font-variant-east-asian:normal;font-feature-settings:normal;font-variation-settings:normal;text-indent:0;text-align:start;text-decoration:none;text-decoration-line:none;text-decoration-style:solid;text-decoration-color:#000000;letter-spacing:normal;word-spacing:normal;text-transform:none;writing-mode:lr-tb;direction:ltr;text-orientation:mixed;dominant-baseline:auto;baseline-shift:baseline;text-anchor:start;white-space:normal;shape-padding:0;shape-margin:0;inline-size:0;clip-rule:nonzero;display:inline;overflow:visible;visibility:visible;opacity:1;isolation:auto;mix-blend-mode:normal;color-interpolation:sRGB;color-interpolation-filters:linearRGB;solid-color:#000000;solid-opacity:1;vector-effect:none;fill:#808080;fill-opacity:1;fill-rule:nonzero;stroke:none;stroke-width:9;stroke-linecap:round;stroke-linejoin:round;stroke-miterlimit:4;stroke-dasharray:none;stroke-dashoffset:0;stroke-opacity:1;color-rendering:auto;image-rendering:auto;shape-rendering:auto;text-rendering:auto;enable-background:accumulate;stop-color:#000000;stop-opacity:1"
       d="M 30.353516 25.496094 A 4.5004498 4.5004498 0 0 0 25.859375 30 L 25.859375 160.00195 A 4.5004498 4.5004498 0 0 0 30.353516 164.49805 L 225.35352 164.49805 A 4.5004498 4.5004498 0 0 0 229.85742 160.00195 L 229.85742 30 A 4.5004498 4.5004498 0 0 0 225.35352 25.496094 L 30.353516 25.496094 z M 34.857422 34.503906 L 220.85938 34.503906 L 220.85938 155.5 L 34.857422 155.5 L 34.857422 34.503906 z M 60.214844 40.001953 L 60.214844 45.753906 L 40.179688 45.753906 L 40.179688 46.75 L 60.214844 46.75 L 60.214844 62 L 40.179688 62 L 40.179688 62.996094 L 60.214844 62.996094 L 60.214844 78.248047 L 40.179688 78.248047 L 40.179688 79.251953 L 60.214844 79.251953 L 60.214844 94.503906 L 40.179688 94.503906 L 40.179688 95.5 L 60.214844 95.5 L 60.214844 110.75 L 40.179688 110.75 L 40.179688 111.74609 L 60.214844 111.74609 L 60.214844 126.99805 L 40.179688 126.99805 L 40.179688 128.00195 L 60.214844 128.00195 L 60.214844 143.25391 L 40.179688 143.25391 L 40.179688 144.25 L 60.214844 144.25 L 60.214844 150 L 61.210938 150 L 61.210938 144.25 L 82.714844 144.25 L 82.714844 150 L 83.710938 150 L 83.710938 144.25 L 105.21484 144.25 L 105.21484 150 L 106.21094 150 L 106.21094 144.25 L 127.71484 144.25 L 127.71484 150 L 128.71094 150 L 128.71094 144.25 L 150.21484 144.25 L 150.21484 150 L 151.21094 150 L 151.21094 144.25 L 172.71484 144.25 L 172.71484 150 L 173.71094 150 L 173.71094 144.25 L 195.21484 144.25 L 195.21484 150 L 196.21094 150 L 196.21094 144.25 L 215.18164 144.25 L 215.18164 143.25391 L 196.21094 143.25391 L 196.21094 128.00195 L 215.18164 128.00195 L 215.18164 126.99805 L 196.21094 126.99805 L 196.21094 111.74609 L 215.18164 111.74609 L 215.18164 110.75 L 196.21094 110.75 L 196.21094 95.5 L 215.18164 95.5 L 215.18164 94.503906 L 196.21094 94.503906 L 196.21094 79.251953 L 215.18164 79.251953 L 215.18164 78.248047 L 196.21094 78.248047 L 196.21094 62.996094 L 215.18164 62.996094 L 215.18164 62 L 196.21094 62 L 196.21094 46.75 L 215.18164 46.75 L 215.18164 45.753906 L 196.21094 45.753906 L 196.21094 40.001953 L 195.21484 40.001953 L 195.21484 45.753906 L 173.71094 45.753906 L 173.71094 40.001953 L 172.71484 40.001953 L 172.71484 45.753906 L 151.21094 45.753906 L 151.21094 40.001953 L 150.21484 40.001953 L 150.21484 45.753906 L 128.71094 45.753906 L 128.71094 40.001953 L 127.71484 40.001953 L 127.71484 45.753906 L 106.21094 45.753906 L 106.21094 40.001953 L 105.21484 40.001953 L 105.21484 45.753906 L 83.710938 45.753906 L 83.710938 40.001953 L 82.714844 40.001953 L 82.714844 45.753906 L 61.210938 45.753906 L 61.210938 40.001953 L 60.214844 40.001953 z M 61.210938 46.75 L 82.714844 46.75 L 82.714844 62 L 61.210938 62 L 61.210938 46.75 z M 83.710938 46.75 L 105.21484 46.75 L 105.21484 62 L 83.710938 62 L 83.710938 46.75 z M 106.21094 46.75 L 127.71484 46.75 L 127.71484 62 L 106.21094 62 L 106.21094 46.75 z M 128.71094 46.75 L 150.21484 46.75 L 150.21484 62 L 128.71094 62 L 128.71094 46.75 z M 151.21094 46.75 L 172.71484 46.75 L 172.71484 62 L 151.21094 62 L 151.21094 46.75 z M 173.71094 46.75 L 195.21484 46.75 L 195.21484 62 L 173.71094 62 L 173.71094 46.75 z M 61.210938 62.996094 L 82.714844 62.996094 L 82.714844 78.248047 L 61.210938 78.248047 L 61.210938 62.996094 z M 83.710938 62.996094 L 105.21484 62.996094 L 105.21484 78.248047 L 83.710938 78.248047 L 83.710938 62.996094 z M 106.21094 62.996094 L 127.71484 62.996094 L 127.71484 78.248047 L 106.21094 78.248047 L 106.21094 62.996094 z M 128.71094 62.996094 L 150.21484 62.996094 L 150.21484 78.248047 L 128.71094 78.248047 L 128.71094 62.996094 z M 151.21094 62.996094 L 172.71484 62.996094 L 172.71484 78.248047 L 151.21094 78.248047 L 151.21094 62.996094 z M 173.71094 62.996094 L 195.21484 62.996094 L 195.21484 78.248047 L 173.71094 78.248047 L 173.71094 62.996094 z M 61.210938 79.251953 L 82.714844 79.251953 L 82.714844 94.503906 L 61.210938 94.503906 L 61.210938 79.251953 z M 83.710938 79.251953 L 105.21484 79.251953 L 105.21484 94.503906 L 83.710938 94.503906 L 83.710938 79.251953 z M 106.21094 79.251953 L 127.71484 79.251953 L 127.71484 94.503906 L 106.21094 94.503906 L 106.21094 79.251953 z M 128.71094 79.251953 L 150.21484 79.251953 L 150.21484 94.503906 L 128.71094 94.503906 L 128.71094 79.251953 z M 151.21094 79.251953 L 172.71484 79.251953 L 172.71484 94.503906 L 151.21094 94.503906 L 151.21094 79.251953 z M 173.71094 79.251953 L 195.21484 79.251953 L 195.21484 94.503906 L 173.71094 94.503906 L 173.71094 79.251953 z M 61.210938 95.5 L 82.714844 95.5 L 82.714844 110.75 L 61.210938 110.75 L 61.210938 95.5 z M 83.710938 95.5 L 105.21484 95.5 L 105.21484 110.75 L 83.710938 110.75 L 83.710938 95.5 z M 106.21094 95.5 L 127.71484 95.5 L 127.71484 110.75 L 106.21094 110.75 L 106.21094 95.5 z M 128.71094 95.5 L 150.21484 95.5 L 150.21484 110.75 L 128.71094 110.75 L 128.71094 95.5 z M 151.21094 95.5 L 172.71484 95.5 L 172.71484 110.75 L 151.21094 110.75 L 151.21094 95.5 z M 173.71094 95.5 L 195.21484 95.5 L 195.21484 110.75 L 173.71094 110.75 L 173.71094 95.5 z M 61.210938 111.74609 L 82.714844 111.74609 L 82.714844 126.99805 L 61.210938 126.99805 L 61.210938 111.74609 z M 83.710938 111.74609 L 105.21484 111.74609 L 105.21484 126.99805 L 83.710938 126.99805 L 83.710938 111.74609 z M 106.21094 111.74609 L 127.71484 111.74609 L 127.71484 126.99805 L 106.21094 126.99805 L 106.21094 111.74609 z M 128.71094 111.74609 L 150.21484 111.74609 L 150.21484 126.99805 L 128.71094 126.99805 L 128.71094 111.74609 z M 151.21094 111.74609 L 172.71484 111.74609 L 172.71484 126.99805 L 151.21094 126.99805 L 151.21094 111.74609 z M 173.71094 111.74609 L 195.21484 111.74609 L 195.21484 126.99805 L 173.71094 126.99805 L 173.71094 111.74609 z M 61.210938 128.00195 L 82.714844 128.00195 L 82.714844 143.25391 L 61.210938 143.25391 L 61.210938 128.00195 z M 83.710938 128.00195 L 105.21484 128.00195 L 105.21484 143.25391 L 83.710938 143.25391 L 83.710938 128.00195 z M 106.21094 128.00195 L 127.71484 128.00195 L 127.71484 143.25391 L 106.21094 143.25391 L 106.21094 128.00195 z M 128.71094 128.00195 L 150.21484 128.00195 L 150.21484 143.25391 L 128.71094 143.25391 L 128.71094 128.00195 z M 151.21094 128.00195 L 172.71484 128.00195 L 172.71484 143.25391 L 151.21094 143.25391 L 151.21094 128.00195 z M 173.71094 128.00195 L 195.21484 128.00195 L 195.21484 143.25391 L 173.71094 143.25391 L 173.71094 128.00195 z "
       transform="scale(0.26458333)" />
  </g>
</svg>
