<?xml version="1.0" encoding="UTF-8" standalone="no"?>
<svg
   xmlns:dc="http://purl.org/dc/elements/1.1/"
   xmlns:cc="http://creativecommons.org/ns#"
   xmlns:rdf="http://www.w3.org/1999/02/22-rdf-syntax-ns#"
   xmlns:svg="http://www.w3.org/2000/svg"
   xmlns="http://www.w3.org/2000/svg"
   xmlns:sodipodi="http://sodipodi.sourceforge.net/DTD/sodipodi-0.dtd"
   xmlns:inkscape="http://www.inkscape.org/namespaces/inkscape"
   width="256"
   height="256"
   viewBox="0 0 67.733332 67.733335"
   version="1.1"
   id="svg8"
   inkscape:version="1.0.1 (3bc2e813f5, 2020-09-07)"
   sodipodi:docname="hardpoints.svg"
   inkscape:export-filename="C:\Users\keath\Workspace\KMX\elite-streamdeck-icons\ship-lights.png"
   inkscape:export-xdpi="96"
   inkscape:export-ydpi="96">
  <defs
     id="defs2">
    <marker
       style="overflow:visible"
       id="TriangleOutL"
       refX="0.0"
       refY="0.0"
       orient="auto"
       inkscape:stockid="TriangleOutL"
       inkscape:isstock="true">
      <path
         transform="scale(0.8)"
         style="fill-rule:evenodd;stroke:#808080;stroke-width:1pt;stroke-opacity:1;fill:#808080;fill-opacity:1"
         d="M 5.77,0.0 L -2.88,5.0 L -2.88,-5.0 L 5.77,0.0 z "
         id="path2320" />
    </marker>
    <marker
       style="overflow:visible;"
       id="Arrow2Mend"
       refX="0.0"
       refY="0.0"
       orient="auto"
       inkscape:stockid="Arrow2Mend"
       inkscape:isstock="true">
      <path
         transform="scale(0.6) rotate(180) translate(0,0)"
         d="M 8.7185878,4.0337352 L -2.2072895,0.016013256 L 8.7185884,-4.0017078 C 6.9730900,-1.6296469 6.9831476,1.6157441 8.7185878,4.0337352 z "
         style="fill-rule:evenodd;stroke-width:0.625;stroke-linejoin:round;stroke:#808080;stroke-opacity:1;fill:#808080;fill-opacity:1"
         id="path2202" />
    </marker>
  </defs>
  <sodipodi:namedview
     id="base"
     pagecolor="#000000"
     bordercolor="#666666"
     borderopacity="1.0"
     inkscape:pageopacity="0"
     inkscape:pageshadow="2"
     inkscape:zoom="5.6"
     inkscape:cx="124.18032"
     inkscape:cy="132.82439"
     inkscape:document-units="px"
     inkscape:current-layer="layer2"
     showgrid="true"
     units="px"
     inkscape:snap-grids="true"
     objecttolerance="10000"
     guidetolerance="10000"
     inkscape:window-width="2321"
     inkscape:window-height="1879"
     inkscape:window-x="4802"
     inkscape:window-y="103"
     inkscape:window-maximized="0"
     inkscape:document-rotation="0"
     showguides="true">
    <inkscape:grid
       type="xygrid"
       id="grid4623" />
    <sodipodi:guide
       position="50.270833,62.441667"
       orientation="0,256"
       id="guide3351" />
    <sodipodi:guide
       position="62.177083,70.379167"
       orientation="256,0"
       id="guide3353" />
    <sodipodi:guide
       position="-2.6458333,22.754167"
       orientation="0,-256"
       id="guide3355" />
    <sodipodi:guide
       position="5.2916667,70.379167"
       orientation="-256,0"
       id="guide3357" />
    <sodipodi:guide
       position="0,67.733334"
       orientation="0,256"
       id="guide3359" />
    <sodipodi:guide
       position="67.733334,67.733334"
       orientation="256,0"
       id="guide3361" />
    <sodipodi:guide
       position="67.733334,0"
       orientation="0,-256"
       id="guide3363" />
    <sodipodi:guide
       position="0,0"
       orientation="-256,0"
       id="guide3365" />
    <sodipodi:guide
       position="0,67.733334"
       orientation="0,256"
       id="guide3367" />
    <sodipodi:guide
       position="67.733334,67.733334"
       orientation="256,0"
       id="guide3369" />
    <sodipodi:guide
       position="67.733334,0"
       orientation="0,-256"
       id="guide3371" />
    <sodipodi:guide
       position="0,0"
       orientation="-256,0"
       id="guide3373" />
    <sodipodi:guide
       position="0,67.733334"
       orientation="0,256"
       id="guide3375" />
    <sodipodi:guide
       position="67.733334,67.733334"
       orientation="256,0"
       id="guide3377" />
    <sodipodi:guide
       position="67.733334,0"
       orientation="0,-256"
       id="guide3379" />
    <sodipodi:guide
       position="0,0"
       orientation="-256,0"
       id="guide3381" />
  </sodipodi:namedview>
  <metadata
     id="metadata5">
    <rdf:RDF>
      <cc:Work
         rdf:about="">
        <dc:format>image/svg+xml</dc:format>
        <dc:type
           rdf:resource="http://purl.org/dc/dcmitype/StillImage" />
        <dc:title />
      </cc:Work>
    </rdf:RDF>
  </metadata>
  <g
     inkscape:groupmode="layer"
     id="layer2"
     inkscape:label="Icon">
    <path
       id="path862"
       style="color:#000000;font-style:normal;font-variant:normal;font-weight:normal;font-stretch:normal;font-size:medium;line-height:normal;font-family:sans-serif;font-variant-ligatures:normal;font-variant-position:normal;font-variant-caps:normal;font-variant-numeric:normal;font-variant-alternates:normal;font-variant-east-asian:normal;font-feature-settings:normal;font-variation-settings:normal;text-indent:0;text-align:start;text-decoration:none;text-decoration-line:none;text-decoration-style:solid;text-decoration-color:#000000;letter-spacing:normal;word-spacing:normal;text-transform:none;writing-mode:lr-tb;direction:ltr;text-orientation:mixed;dominant-baseline:auto;baseline-shift:baseline;text-anchor:start;white-space:normal;shape-padding:0;shape-margin:0;inline-size:0;clip-rule:nonzero;display:inline;overflow:visible;visibility:visible;opacity:1;isolation:auto;mix-blend-mode:normal;color-interpolation:sRGB;color-interpolation-filters:linearRGB;solid-color:#000000;solid-opacity:1;vector-effect:none;fill:#808080;fill-opacity:1;fill-rule:nonzero;stroke:none;stroke-width:8.63414;stroke-linecap:round;stroke-linejoin:round;stroke-miterlimit:4;stroke-dasharray:none;stroke-dashoffset:0;stroke-opacity:1;color-rendering:auto;image-rendering:auto;shape-rendering:auto;text-rendering:auto;enable-background:accumulate;stop-color:#000000;stop-opacity:1"
       d="m 106.14062,38.488281 a 4.3174992,4.3174992 0 0 0 -3.01953,1.234375 L 89.777344,52.810547 h 7.220703 v 5.015625 l 6.294923,-6.173828 -6.294923,10.949218 V 69.09375 L 109.08594,48.066406 125.91797,65.015625 98.314453,92.8125 h 4.566407 l 25.31836,-25.498047 24.33789,24.509766 h 4.5625 l -26.62305,-26.806641 16.26367,-16.378906 12.09571,21.039062 v -6.5 l -6.62696,-11.529296 6.62696,6.5 v -3.146485 -2 h 7.08398 L 152.38086,39.722656 a 4.3174992,4.3174992 0 0 0 -3.02734,-1.234375 z m 6.56641,8.634766 H 143.6875 L 128.19922,62.722656 Z M 60.796875,81.236328 22.201172,119.0918 a 4.3174992,4.3174992 0 0 0 -1.298828,3.08008 v 17.76953 a 4.3174992,4.3174992 0 0 0 4.316406,4.3164 h 205.0625 a 4.3174992,4.3174992 0 0 0 4.32031,-4.3164 v -17.76953 a 4.3174992,4.3174992 0 0 0 -1.29883,-3.08008 L 195.03711,81.560547 V 87.1875 h -6.59375 l 37.52148,36.80273 v 11.63086 h -25.37109 l -0.26367,-0.26562 -16.0918,-27.98828 -11.59961,-20.17969 h -3.73633 l 15.39844,26.7832 7.16406,12.45703 -21.89453,-22.04687 v 4.5957 l 26.45703,26.64453 H 60.373047 l 25.425781,-25.60547 v -4.5996 L 62.8125,128.5625 86.703125,87.003906 H 82.966797 L 55.013672,135.62109 H 29.539062 V 123.99023 L 67.25,87.003906 h -6.453125 z"
       transform="scale(0.26458333)" />
    <path
       id="rect948"
       style="fill:#808080;fill-opacity:1;stroke:none;stroke-width:2.38125;stroke-linecap:square;paint-order:markers fill stroke"
       d="m 16.615834,14.502474 v 7.987109 h 8.519583 v -7.987109 z m 4.264575,0.468619 a 0.27614012,0.34984558 0 0 1 0.275597,0.349852 v 0.404139 c 1.320478,0.130358 2.374974,1.184853 2.505331,2.505331 h 0.375645 a 0.34984558,0.27614012 0 0 1 0.35006,0.275597 0.34984558,0.27614012 0 0 1 -0.35006,0.276222 h -0.375645 c -0.130125,1.320677 -1.184675,2.3748 -2.505331,2.505123 v 0.383548 a 0.27614012,0.34984558 0 0 1 -0.275597,0.349852 0.27614012,0.34984558 0 0 1 -0.27622,-0.349852 V 21.287357 C 19.283335,21.157265 18.229158,20.103088 18.099065,18.782234 H 17.71427 a 0.34984558,0.27614012 0 0 1 -0.35006,-0.276222 0.34984558,0.27614012 0 0 1 0.35006,-0.275597 h 0.384795 c 0.130324,-1.320655 1.184448,-2.375205 2.505124,-2.505331 v -0.404139 a 0.27614012,0.34984558 0 0 1 0.27622,-0.349852 z m -0.27622,1.309969 c -1.020385,0.12427 -1.825261,0.929045 -1.94977,1.949353 h 0.377516 a 0.34984558,0.27614012 0 0 1 0.35006,0.275597 0.34984558,0.27614012 0 0 1 -0.35006,0.276222 h -0.377516 c 0.124294,1.02056 0.929208,1.825479 1.94977,1.94977 V 20.35324 a 0.27614012,0.34984558 0 0 1 0.27622,-0.349853 0.27614012,0.34984558 0 0 1 0.275597,0.349853 v 0.378764 c 1.020331,-0.124492 1.825082,-0.929371 1.949354,-1.94977 h -0.386044 a 0.34984558,0.27614012 0 0 1 -0.35006,-0.276222 0.34984558,0.27614012 0 0 1 0.35006,-0.275597 h 0.385836 C 22.980659,17.210276 22.176154,16.405739 21.156006,16.28127 v 0.357548 a 0.27614012,0.34984558 0 0 1 -0.275597,0.349852 0.27614012,0.34984558 0 0 1 -0.27622,-0.349852 z" />
    <path
       id="rect948-1"
       style="fill:#808080;fill-opacity:1;stroke:none;stroke-width:2.38125;stroke-linecap:square;paint-order:markers fill stroke"
       d="m 42.55445,14.552083 v 7.987109 h 8.519582 v -7.987109 z m 4.264574,0.468619 a 0.27614012,0.34984558 0 0 1 0.275598,0.349852 v 0.404139 c 1.320478,0.130358 2.374973,1.184853 2.50533,2.505331 h 0.375645 a 0.34984558,0.27614012 0 0 1 0.35006,0.275597 0.34984558,0.27614012 0 0 1 -0.35006,0.276222 h -0.375645 c -0.130125,1.320677 -1.184674,2.3748 -2.50533,2.505123 v 0.383548 a 0.27614012,0.34984558 0 0 1 -0.275598,0.349852 0.27614012,0.34984558 0 0 1 -0.27622,-0.349852 v -0.383548 c -1.320854,-0.130092 -2.37503,-1.184269 -2.505123,-2.505123 h -0.384795 a 0.34984558,0.27614012 0 0 1 -0.35006,-0.276222 0.34984558,0.27614012 0 0 1 0.35006,-0.275597 h 0.384795 c 0.130324,-1.320655 1.184447,-2.375205 2.505123,-2.505331 v -0.404139 a 0.27614012,0.34984558 0 0 1 0.27622,-0.349852 z m -0.27622,1.309969 c -1.020385,0.12427 -1.82526,0.929045 -1.949769,1.949353 h 0.377516 a 0.34984558,0.27614012 0 0 1 0.35006,0.275597 0.34984558,0.27614012 0 0 1 -0.35006,0.276222 h -0.377516 c 0.124294,1.02056 0.929207,1.825479 1.949769,1.94977 v -0.378764 a 0.27614012,0.34984558 0 0 1 0.27622,-0.349853 0.27614012,0.34984558 0 0 1 0.275598,0.349853 v 0.378764 c 1.02033,-0.124492 1.825082,-0.929371 1.949353,-1.94977 h -0.386044 a 0.34984558,0.27614012 0 0 1 -0.350059,-0.276222 0.34984558,0.27614012 0 0 1 0.350059,-0.275597 h 0.385837 c -0.124494,-1.020139 -0.928999,-1.824676 -1.949146,-1.949145 v 0.357548 a 0.27614012,0.34984558 0 0 1 -0.275598,0.349852 0.27614012,0.34984558 0 0 1 -0.27622,-0.349852 z" />
    <path
       id="rect948-6"
       style="fill:#808080;fill-opacity:1;stroke:none;stroke-width:2.38125;stroke-linecap:square;paint-order:markers fill stroke"
       d="m 23.230418,25.085808 v 7.987109 H 31.75 v -7.987109 z m 4.264574,0.468619 a 0.27614012,0.34984558 0 0 1 0.275598,0.349852 v 0.404139 c 1.320478,0.130358 2.374973,1.184853 2.50533,2.505331 h 0.375645 a 0.34984558,0.27614012 0 0 1 0.35006,0.275597 0.34984558,0.27614012 0 0 1 -0.35006,0.276222 H 30.27592 c -0.130125,1.320677 -1.184674,2.3748 -2.50533,2.505123 v 0.383548 a 0.27614012,0.34984558 0 0 1 -0.275598,0.349852 0.27614012,0.34984558 0 0 1 -0.27622,-0.349852 v -0.383548 c -1.320854,-0.130092 -2.37503,-1.184269 -2.505123,-2.505123 h -0.384795 a 0.34984558,0.27614012 0 0 1 -0.35006,-0.276222 0.34984558,0.27614012 0 0 1 0.35006,-0.275597 h 0.384795 c 0.130324,-1.320655 1.184447,-2.375205 2.505123,-2.505331 v -0.404139 a 0.27614012,0.34984558 0 0 1 0.27622,-0.349852 z m -0.27622,1.309969 c -1.020385,0.12427 -1.82526,0.929045 -1.949769,1.949353 h 0.377516 a 0.34984558,0.27614012 0 0 1 0.35006,0.275597 0.34984558,0.27614012 0 0 1 -0.35006,0.276222 h -0.377516 c 0.124294,1.02056 0.929207,1.825479 1.949769,1.94977 v -0.378764 a 0.27614012,0.34984558 0 0 1 0.27622,-0.349853 0.27614012,0.34984558 0 0 1 0.275598,0.349853 v 0.378764 c 1.02033,-0.124492 1.825082,-0.929371 1.949353,-1.94977 h -0.386044 a 0.34984558,0.27614012 0 0 1 -0.350059,-0.276222 0.34984558,0.27614012 0 0 1 0.350059,-0.275597 h 0.385837 C 29.595242,27.79361 28.790737,26.989073 27.77059,26.864604 v 0.357548 a 0.27614012,0.34984558 0 0 1 -0.275598,0.349852 0.27614012,0.34984558 0 0 1 -0.27622,-0.349852 z" />
    <path
       id="rect948-13"
       style="fill:#808080;fill-opacity:1;stroke:none;stroke-width:2.38125;stroke-linecap:square;paint-order:markers fill stroke"
       d="m 35.816997,24.824407 v 7.987109 h 8.519583 v -7.987109 z m 4.264575,0.468619 a 0.27614012,0.34984558 0 0 1 0.275597,0.349852 v 0.404139 c 1.320478,0.130358 2.374974,1.184853 2.505331,2.505331 h 0.375645 a 0.34984558,0.27614012 0 0 1 0.35006,0.275597 0.34984558,0.27614012 0 0 1 -0.35006,0.276222 H 42.8625 c -0.130125,1.320677 -1.184675,2.3748 -2.505331,2.505123 v 0.383548 a 0.27614012,0.34984558 0 0 1 -0.275597,0.349852 0.27614012,0.34984558 0 0 1 -0.27622,-0.349852 V 31.60929 c -1.320854,-0.130092 -2.375031,-1.184269 -2.505124,-2.505123 h -0.384795 a 0.34984558,0.27614012 0 0 1 -0.35006,-0.276222 0.34984558,0.27614012 0 0 1 0.35006,-0.275597 h 0.384795 c 0.130324,-1.320655 1.184448,-2.375205 2.505124,-2.505331 v -0.404139 a 0.27614012,0.34984558 0 0 1 0.27622,-0.349852 z m -0.27622,1.309969 c -1.020385,0.12427 -1.825261,0.929045 -1.94977,1.949353 h 0.377516 a 0.34984558,0.27614012 0 0 1 0.35006,0.275597 0.34984558,0.27614012 0 0 1 -0.35006,0.276222 h -0.377516 c 0.124294,1.02056 0.929208,1.825479 1.94977,1.94977 v -0.378764 a 0.27614012,0.34984558 0 0 1 0.27622,-0.349853 0.27614012,0.34984558 0 0 1 0.275597,0.349853 v 0.378764 c 1.020331,-0.124492 1.825082,-0.929371 1.949354,-1.94977 h -0.386044 a 0.34984558,0.27614012 0 0 1 -0.35006,-0.276222 0.34984558,0.27614012 0 0 1 0.35006,-0.275597 h 0.385836 c -0.124493,-1.020139 -0.928998,-1.824676 -1.949146,-1.949145 v 0.357548 a 0.27614012,0.34984558 0 0 1 -0.275597,0.349852 0.27614012,0.34984558 0 0 1 -0.27622,-0.349852 z" />
  </g>
</svg>
