<?xml version="1.0" encoding="UTF-8" standalone="no"?>
<svg
   xmlns:dc="http://purl.org/dc/elements/1.1/"
   xmlns:cc="http://creativecommons.org/ns#"
   xmlns:rdf="http://www.w3.org/1999/02/22-rdf-syntax-ns#"
   xmlns:svg="http://www.w3.org/2000/svg"
   xmlns="http://www.w3.org/2000/svg"
   xmlns:sodipodi="http://sodipodi.sourceforge.net/DTD/sodipodi-0.dtd"
   xmlns:inkscape="http://www.inkscape.org/namespaces/inkscape"
   inkscape:export-ydpi="96"
   inkscape:export-xdpi="96"
   inkscape:export-filename="C:\Users\keath\Workspace\KMX\elite-streamdeck-icons\ship-lights.png"
   sodipodi:docname="hyperspace.svg"
   inkscape:version="1.0.1 (3bc2e813f5, 2020-09-07)"
   id="svg8"
   version="1.1"
   viewBox="0 0 67.733332 67.733335"
   height="256"
   width="256">
  <defs
     id="defs2">
    <inkscape:path-effect
       effect="fillet_chamfer"
       id="path-effect1414"
       is_visible="true"
       lpeversion="1"
       satellites_param="F,0,0,1,0,0,0,1 @ F,0,0,1,0,0,0,1 @ F,0,0,1,0,0,0,1"
       unit="px"
       method="bezier"
       mode="F"
       radius="0"
       chamfer_steps="1"
       flexible="false"
       use_knot_distance="true"
       apply_no_radius="true"
       apply_with_radius="true"
       only_selected="false"
       hide_knots="false" />
  </defs>
  <sodipodi:namedview
     id="base"
     pagecolor="#000000"
     bordercolor="#666666"
     borderopacity="1.0"
     inkscape:pageopacity="0"
     inkscape:pageshadow="2"
     inkscape:zoom="5.6"
     inkscape:cx="122.00048"
     inkscape:cy="118.40346"
     inkscape:document-units="px"
     inkscape:current-layer="layer2"
     showgrid="true"
     units="px"
     inkscape:snap-grids="true"
     objecttolerance="10000"
     guidetolerance="10000"
     inkscape:window-width="2321"
     inkscape:window-height="1879"
     inkscape:window-x="4802"
     inkscape:window-y="103"
     inkscape:window-maximized="0"
     inkscape:document-rotation="0"
     showguides="true">
    <inkscape:grid
       type="xygrid"
       id="grid4623" />
    <sodipodi:guide
       position="-3.96875,62.441667"
       orientation="0,256"
       id="guide3351" />
    <sodipodi:guide
       position="62.177083,70.379167"
       orientation="256,0"
       id="guide3353" />
    <sodipodi:guide
       position="-2.6458333,22.754167"
       orientation="0,-256"
       id="guide3355" />
    <sodipodi:guide
       position="5.2916667,70.379167"
       orientation="-256,0"
       id="guide3357" />
    <sodipodi:guide
       position="0,67.733334"
       orientation="0,256"
       id="guide3359" />
    <sodipodi:guide
       position="67.733334,67.733334"
       orientation="256,0"
       id="guide3361" />
    <sodipodi:guide
       position="67.733334,0"
       orientation="0,-256"
       id="guide3363" />
    <sodipodi:guide
       position="0,0"
       orientation="-256,0"
       id="guide3365" />
    <sodipodi:guide
       position="0,67.733334"
       orientation="0,256"
       id="guide3367" />
    <sodipodi:guide
       position="67.733334,67.733334"
       orientation="256,0"
       id="guide3369" />
    <sodipodi:guide
       position="67.733334,0"
       orientation="0,-256"
       id="guide3371" />
    <sodipodi:guide
       position="0,0"
       orientation="-256,0"
       id="guide3373" />
    <sodipodi:guide
       position="0,67.733334"
       orientation="0,256"
       id="guide3375" />
    <sodipodi:guide
       position="67.733334,67.733334"
       orientation="256,0"
       id="guide3377" />
    <sodipodi:guide
       position="67.733334,0"
       orientation="0,-256"
       id="guide3379" />
    <sodipodi:guide
       position="0,0"
       orientation="-256,0"
       id="guide3381" />
  </sodipodi:namedview>
  <metadata
     id="metadata5">
    <rdf:RDF>
      <cc:Work
         rdf:about="">
        <dc:format>image/svg+xml</dc:format>
        <dc:type
           rdf:resource="http://purl.org/dc/dcmitype/StillImage" />
        <dc:title></dc:title>
      </cc:Work>
    </rdf:RDF>
  </metadata>
  <g
     inkscape:groupmode="layer"
     id="layer2"
     inkscape:label="Icon">
    <path
       id="path3102"
       style="color:#000000;font-style:normal;font-variant:normal;font-weight:normal;font-stretch:normal;font-size:medium;line-height:normal;font-family:sans-serif;font-variant-ligatures:normal;font-variant-position:normal;font-variant-caps:normal;font-variant-numeric:normal;font-variant-alternates:normal;font-variant-east-asian:normal;font-feature-settings:normal;font-variation-settings:normal;text-indent:0;text-align:start;text-decoration:none;text-decoration-line:none;text-decoration-style:solid;text-decoration-color:#000000;letter-spacing:normal;word-spacing:normal;text-transform:none;writing-mode:lr-tb;direction:ltr;text-orientation:mixed;dominant-baseline:auto;baseline-shift:baseline;text-anchor:start;white-space:normal;shape-padding:0;shape-margin:0;inline-size:0;clip-rule:nonzero;display:inline;overflow:visible;visibility:visible;opacity:1;isolation:auto;mix-blend-mode:normal;color-interpolation:sRGB;color-interpolation-filters:linearRGB;solid-color:#000000;solid-opacity:1;vector-effect:none;fill:#808080;fill-opacity:1;fill-rule:nonzero;stroke:none;stroke-width:3;stroke-linecap:butt;stroke-linejoin:miter;stroke-miterlimit:4;stroke-dasharray:none;stroke-dashoffset:6.00002;stroke-opacity:1;paint-order:markers fill stroke;color-rendering:auto;image-rendering:auto;shape-rendering:auto;text-rendering:auto;enable-background:accumulate;stop-color:#000000;stop-opacity:1"
       d="M 128.6582 30.539062 C 110.65816 30.539062 94.439756 38.209747 83.072266 50.447266 L 87.355469 53.152344 C 97.767037 42.299175 112.40926 35.537109 128.6582 35.537109 C 145.66334 35.53711 160.91523 42.937582 171.39258 54.689453 L 175.64258 52.005859 C 164.22621 38.865725 147.4092 30.539064 128.6582 30.539062 z M 128.6582 44.925781 C 115.79075 44.925781 104.11419 50.027927 95.513672 58.304688 L 98.111328 59.945312 C 106.11556 52.492532 116.84626 47.929687 128.6582 47.929688 C 141.23464 47.929688 152.58795 53.100818 160.72656 61.427734 L 163.29883 59.802734 C 154.58094 50.645926 142.28547 44.925781 128.6582 44.925781 z M 77.261719 57.710938 C 72.848147 64.165276 69.627589 71.493012 67.894531 79.376953 L 72.875 79.988281 C 73.776095 76.030464 75.08057 72.23011 76.753906 68.632812 C 76.080651 67.860572 75.674733 66.86219 75.671875 65.595703 A 2.5002499 2.5002499 0 0 1 75.671875 65.587891 C 75.672903 64.413372 76.417382 63.026242 77.554688 62.458984 C 78.470897 62.002042 79.410638 62.011404 80.244141 62.238281 C 80.69388 61.525956 81.156862 60.823392 81.636719 60.132812 L 77.261719 57.710938 z M 128.6582 58.605469 C 120.69392 58.605469 113.37177 61.341268 107.5625 65.914062 L 108.45508 66.478516 C 114.04855 62.174504 121.0508 59.609375 128.6582 59.609375 C 137.04792 59.609375 144.70199 62.728292 150.54102 67.861328 L 151.42188 67.304688 C 145.37761 61.897719 137.40159 58.605469 128.6582 58.605469 z M 181.31445 59.632812 L 176.95117 62.046875 C 180.84415 68.158575 183.60536 75.057716 184.94922 82.458984 L 189.90625 81.775391 C 188.47317 73.758698 185.50716 66.274087 181.31445 59.632812 z M 89.925781 64.720703 C 89.644324 65.108696 89.363722 65.497891 89.09375 65.894531 L 91.910156 67.076172 C 92.121932 66.773617 92.333738 66.470837 92.552734 66.173828 L 89.925781 64.720703 z M 168.70117 66.611328 L 166.08203 68.060547 C 169.25302 72.856933 171.52474 78.299266 172.66211 84.150391 L 175.63867 83.740234 C 174.44794 77.518994 172.05205 71.726973 168.70117 66.611328 z M 85.34375 72.474609 C 84.049138 75.231285 83.011135 78.129794 82.257812 81.142578 L 85.246094 81.509766 C 85.963476 78.730851 86.943438 76.057563 88.152344 73.515625 L 85.34375 72.474609 z M 156.69141 73.255859 L 155.81445 73.742188 C 155.86659 73.81648 155.91916 73.890105 155.9707 73.964844 L 156.91406 73.568359 C 156.84203 73.462602 156.76459 73.360763 156.69141 73.255859 z M 98.234375 77.251953 C 98.06268 77.588005 97.893201 77.92521 97.732422 78.267578 C 98.107866 78.178066 98.496789 78.140834 98.876953 78.175781 C 98.9721 77.981859 99.073075 77.791375 99.171875 77.599609 L 98.234375 77.251953 z M 160.28711 79.851562 L 159.34766 80.201172 C 160.07581 81.97845 160.65556 83.831671 161.06836 85.748047 L 162.06445 85.611328 C 161.63981 83.621665 161.0419 81.696581 160.28711 79.851562 z M 190.59766 86.726562 L 185.63281 87.410156 C 185.65447 87.644015 185.66865 87.880563 185.6875 88.115234 L 190.68164 87.820312 C 190.65287 87.455971 190.63269 87.089121 190.59766 86.726562 z M 66.634766 87.931641 C 66.511502 89.529569 66.429688 91.138314 66.429688 92.767578 C 66.429688 92.89337 66.438706 93.016961 66.439453 93.142578 L 71.429688 92.845703 C 71.429652 92.819504 71.427734 92.793786 71.427734 92.767578 C 71.427734 91.263307 71.503578 89.77757 71.617188 88.302734 L 66.634766 87.931641 z M 80.986328 89.001953 C 80.901651 90.086492 80.846955 91.179672 80.835938 92.283203 L 83.839844 92.105469 C 83.853891 91.137104 83.90024 90.177095 83.974609 89.224609 L 80.986328 89.001953 z M 94.623047 90.019531 C 94.58479 90.499463 94.555314 90.981494 94.537109 91.466797 L 95.535156 91.40625 C 95.552937 90.965938 95.582417 90.529463 95.617188 90.09375 L 94.623047 90.019531 z M 190.89453 92.814453 L 185.88281 93.115234 C 185.87308 94.747403 185.78976 96.362157 185.64648 97.958984 L 190.63477 98.330078 C 190.79645 96.511302 190.89315 94.674559 190.89453 92.814453 z M 176.47852 93.675781 L 173.46875 93.855469 C 173.44324 94.925711 173.38815 95.98876 173.28906 97.039062 L 176.2832 97.261719 C 176.39371 96.078747 176.45592 94.882054 176.47852 93.675781 z M 162.77734 94.494141 L 161.76953 94.552734 C 161.74072 95.096192 161.69917 95.635686 161.64453 96.171875 L 162.64844 96.246094 C 162.70713 95.666313 162.74805 95.082093 162.77734 94.494141 z M 71.664062 97.841797 L 66.675781 98.136719 C 66.701618 98.438043 66.715969 98.742879 66.746094 99.042969 L 71.703125 98.361328 C 71.686475 98.189244 71.679188 98.014326 71.664062 97.841797 z M 96.304688 100.01758 L 95.314453 100.1543 C 95.714279 101.96667 96.258464 103.7241 96.933594 105.41602 L 97.865234 105.07031 C 97.215876 103.44534 96.69259 101.75769 96.304688 100.01758 z M 84.697266 101.61523 L 81.728516 102.02539 C 82.890657 107.94231 85.147995 113.46414 88.275391 118.38281 L 90.890625 116.93555 C 90.548008 116.40084 90.216693 115.85852 89.896484 115.30859 C 89.483224 115.22831 89.076732 115.07085 88.714844 114.81836 C 87.729997 114.13123 87.313018 112.96909 87.3125 112.00586 C 87.312773 111.49607 87.379426 111.02355 87.505859 110.58789 C 86.27172 107.7382 85.320819 104.73618 84.697266 101.61523 z M 72.410156 103.30859 L 67.460938 103.99023 C 68.869265 111.70249 71.690708 118.92189 75.664062 125.36328 L 80.023438 122.95117 C 76.349302 117.03806 73.728951 110.40553 72.410156 103.30859 z M 160.06836 103.39648 C 160.04944 103.45246 160.03093 103.50861 160.01172 103.56445 C 160.06477 103.69457 160.12695 103.82274 160.12695 103.9668 C 160.12656 104.97727 159.83174 106.00622 159.06445 106.83008 C 158.89143 107.01585 158.68433 107.18227 158.45703 107.32812 C 158.1607 107.93372 157.84123 108.52523 157.50977 109.10938 L 158.45898 109.46094 C 159.51359 107.58328 160.39344 105.5969 161.08203 103.52148 L 160.06836 103.39648 z M 171.83984 104.84375 C 171.0259 107.76433 169.92569 110.564 168.56836 113.21094 L 171.39258 114.25781 C 172.83668 111.39504 174.00372 108.37063 174.85352 105.21484 L 171.83984 104.84375 z M 184.25391 106.36914 C 183.12266 111.01811 181.42804 115.44321 179.24023 119.56836 C 179.29241 119.86385 179.32738 120.1718 179.32812 120.50195 A 2.5002562 2.5002562 0 0 1 179.32812 120.50977 C 179.3271 121.68428 178.58262 123.07141 177.44531 123.63867 C 177.19075 123.76567 176.93386 123.85326 176.67773 123.91406 C 176.05637 124.87082 175.41415 125.81246 174.73828 126.72852 L 179.11719 129.15234 C 183.85292 122.60184 187.34075 115.09792 189.24219 106.98242 L 184.25391 106.36914 z M 101.12305 111.25391 L 100.19531 111.64258 C 100.21847 111.67744 100.24039 111.71327 100.26367 111.74805 L 101.13281 111.26758 C 101.12969 111.26294 101.12617 111.25854 101.12305 111.25391 z M 153.68359 115.07617 L 154.24609 115.38867 C 154.26262 115.37 154.27844 115.35074 154.29492 115.33203 L 153.68359 115.07617 z M 106.18359 117.14648 L 105.31836 117.69531 C 111.42569 123.41979 119.6303 126.93164 128.6582 126.93164 C 135.96382 126.93164 142.7296 124.62835 148.28516 120.71875 L 147.375 120.14258 C 142.04848 123.79044 135.60465 125.92773 128.6582 125.92773 C 119.98228 125.92773 112.09156 122.59638 106.18359 117.14648 z M 164.56641 119.63867 C 164.30739 119.98441 164.0343 120.31836 163.76562 120.65625 L 166.41211 122.12109 C 166.74519 121.69349 167.07191 121.26128 167.39062 120.82227 L 164.56641 119.63867 z M 96.054688 123.54492 L 93.484375 125.16797 C 102.22742 134.65676 114.75069 140.60938 128.6582 140.60938 C 140.88895 140.60938 152.04866 136.00263 160.51172 128.43945 L 157.87695 126.77539 C 150.03082 133.52126 139.82864 137.60547 128.6582 137.60547 C 115.80174 137.60547 104.22637 132.20016 96.054688 123.54492 z M 85.417969 130.26172 L 81.171875 132.94336 C 92.591138 146.42385 109.62874 154.99805 128.6582 154.99805 C 146.02977 154.99804 161.74407 147.85228 173.04102 136.35352 L 168.73438 133.63281 C 158.41375 143.75497 144.2762 150 128.6582 150 C 111.3741 150 95.906377 142.35142 85.417969 130.26172 z "
       transform="scale(0.26458333)" />
    <path
       style="color:#000000;font-style:normal;font-variant:normal;font-weight:normal;font-stretch:normal;font-size:medium;line-height:normal;font-family:sans-serif;font-variant-ligatures:normal;font-variant-position:normal;font-variant-caps:normal;font-variant-numeric:normal;font-variant-alternates:normal;font-variant-east-asian:normal;font-feature-settings:normal;font-variation-settings:normal;text-indent:0;text-align:start;text-decoration:none;text-decoration-line:none;text-decoration-style:solid;text-decoration-color:#000000;letter-spacing:normal;word-spacing:normal;text-transform:none;writing-mode:lr-tb;direction:ltr;text-orientation:mixed;dominant-baseline:auto;baseline-shift:baseline;text-anchor:start;white-space:normal;shape-padding:0;shape-margin:0;inline-size:0;clip-rule:nonzero;display:inline;overflow:visible;visibility:visible;isolation:auto;mix-blend-mode:normal;color-interpolation:sRGB;color-interpolation-filters:linearRGB;solid-color:#000000;solid-opacity:1;vector-effect:none;fill:#808080;fill-opacity:1;fill-rule:nonzero;stroke:none;stroke-width:1.32292;stroke-linecap:round;stroke-linejoin:round;stroke-miterlimit:4;stroke-dasharray:none;stroke-dashoffset:6.00002;stroke-opacity:1;paint-order:markers fill stroke;color-rendering:auto;image-rendering:auto;shape-rendering:auto;text-rendering:auto;enable-background:accumulate;stop-color:#000000"
       d="m 58.792466,6.76089 c 0.5829,-0.36815 1.1643,-0.61073 1.6077,-0.66389 0.4565,-0.05473 0.7189,0.09686 0.7186,0.42267 -4e-4,0.67801 -1.0862,1.82824 -2.3263,2.51454 L 39.211666,19.871 c -0.1254,0.0694 -0.2248,-0.038 -0.2248,-0.2383 0,-0.0963 0.0231,-0.2028 0.0647,-0.2968 0.0419,-0.0949 0.0994,-0.1699 0.1601,-0.2082 z M 43.403766,19.391 c 0.1654,-0.0691 0.3023,0.0252 0.3024,0.2122 -1e-4,0.1872 -0.137,0.3896 -0.3024,0.4512 l -6.7465,2.5013 c -0.0419,0.0155 -0.0755,-0.0466 -0.0755,-0.1386 0,-0.092 0.0336,-0.1806 0.0755,-0.1982 z m 7.4678,2.8274 c 0.307,-0.0423 0.6099,0.0057 0.8388,0.1365 0.2337,0.1335 0.3671,0.3401 0.3669,0.572 -2e-4,0.4828 -0.5565,0.9072 -1.2057,0.9459 l -12.6972,0.7572 c -0.0997,0.006 -0.1789,-0.1344 -0.1789,-0.3133 -1e-4,-0.086 0.0184,-0.1707 0.0516,-0.2358 0.0333,-0.0657 0.0791,-0.1065 0.1273,-0.1131 z m 3.3357,4.7425 c 0.5345,0.0399 0.9853,0.3496 0.9857,0.6905 -4e-4,0.3408 -0.4512,0.5616 -0.9857,0.4959 l -12.8568,-1.58 c -0.1169,-0.0146 -0.2099,-0.1499 -0.21,-0.3028 10e-5,-0.1528 0.0931,-0.2697 0.21,-0.2612 z m -12.8568,0.0209 c 0.0924,0.0146 0.1824,0.0776 0.2496,0.1758 0.068,0.0993 0.1065,0.2255 0.1065,0.3499 -1e-4,0.259 -0.1621,0.4306 -0.3561,0.3847 l -5.265,-1.2458 c -0.0568,-0.0134 -0.1021,-0.134 -0.1021,-0.2696 0,-0.0651 0.0106,-0.1257 0.0295,-0.1686 0.0191,-0.0432 0.0452,-0.0651 0.0726,-0.0608 z m 4.9874,4.3225 c 0.2444,0.0907 0.448,0.351 0.4485,0.5794 -2e-4,0.2284 -0.2039,0.3281 -0.4485,0.2256 l -7.6752,-3.217 c -0.0693,-0.0293 -0.1247,-0.1482 -0.1248,-0.2663 10e-5,-0.1179 0.0555,-0.1929 0.1248,-0.1674 z m 7.8694,7.3947 c 0.8741,0.4838 1.63,1.3591 1.6303,1.9231 2e-4,0.271 -0.1817,0.4194 -0.4993,0.4127 -0.31,-0.0065 -0.7186,-0.1603 -1.131,-0.4208 l -15.5446,-9.8176 c -0.0539,-0.0341 -0.105,-0.1028 -0.1423,-0.1909 -0.037,-0.0873 -0.0576,-0.1871 -0.0576,-0.2779 10e-5,-0.189 0.0884,-0.2933 0.1999,-0.2316 z"
       id="path3113" />
    <path
       style="color:#000000;font-style:normal;font-variant:normal;font-weight:normal;font-stretch:normal;font-size:medium;line-height:normal;font-family:sans-serif;font-variant-ligatures:normal;font-variant-position:normal;font-variant-caps:normal;font-variant-numeric:normal;font-variant-alternates:normal;font-variant-east-asian:normal;font-feature-settings:normal;font-variation-settings:normal;text-indent:0;text-align:start;text-decoration:none;text-decoration-line:none;text-decoration-style:solid;text-decoration-color:#000000;letter-spacing:normal;word-spacing:normal;text-transform:none;writing-mode:lr-tb;direction:ltr;text-orientation:mixed;dominant-baseline:auto;baseline-shift:baseline;text-anchor:start;white-space:normal;shape-padding:0;shape-margin:0;inline-size:0;clip-rule:nonzero;display:inline;overflow:visible;visibility:visible;isolation:auto;mix-blend-mode:normal;color-interpolation:sRGB;color-interpolation-filters:linearRGB;solid-color:#000000;solid-opacity:1;vector-effect:none;fill:#808080;fill-opacity:1;fill-rule:nonzero;stroke:none;stroke-width:1.32292;stroke-linecap:round;stroke-linejoin:round;stroke-miterlimit:4;stroke-dasharray:none;stroke-dashoffset:6.00002;stroke-opacity:1;paint-order:markers fill stroke;color-rendering:auto;image-rendering:auto;shape-rendering:auto;text-rendering:auto;enable-background:accumulate;stop-color:#000000"
       d="m 8.6763159,42.476831 c -0.5828997,0.36815 -1.1642994,0.61073 -1.6076991,0.66389 -0.4564997,0.05473 -0.7188997,-0.09686 -0.7185997,-0.42267 3.97e-4,-0.67801 1.0861994,-1.82824 2.3262988,-2.51454 L 28.257115,29.366722 c 0.1254,-0.0694 0.2248,0.038 0.2248,0.238299 0,0.0963 -0.0231,0.202801 -0.0647,0.2968 -0.0419,0.0949 -0.0994,0.169901 -0.1601,0.208201 z M 24.065015,29.846721 c -0.1654,0.0691 -0.3023,-0.0252 -0.3024,-0.2122 10e-5,-0.187199 0.137,-0.389599 0.3024,-0.451199 l 6.7465,-2.5013 c 0.0419,-0.0155 0.0755,0.0466 0.0755,0.1386 0,0.092 -0.0336,0.1806 -0.0755,0.198199 z m -7.4678,-2.827399 c -0.307,0.0423 -0.6099,-0.0057 -0.8388,-0.1365 -0.2337,-0.1335 -0.3671,-0.340101 -0.3669,-0.572 2e-4,-0.4828 0.5565,-0.9072 1.2057,-0.9459 l 12.6972,-0.7572 c 0.0997,-0.006 0.1789,0.1344 0.1789,0.3133 10e-5,0.086 -0.0184,0.1707 -0.0516,0.2358 -0.0333,0.0657 -0.0791,0.1065 -0.1273,0.1131 z m -3.3357,-4.7425 c -0.5345,-0.0399 -0.9853,-0.3496 -0.9857,-0.6905 3.97e-4,-0.3408 0.4512,-0.5616 0.9857,-0.4959 l 12.8568,1.58 c 0.1169,0.0146 0.2099,0.1499 0.21,0.3028 -10e-5,0.1528 -0.0931,0.2697 -0.21,0.2612 z m 12.8568,-0.0209 c -0.0924,-0.0146 -0.1824,-0.0776 -0.2496,-0.1758 -0.068,-0.0993 -0.1065,-0.2255 -0.1065,-0.3499 10e-5,-0.259 0.1621,-0.4306 0.3561,-0.3847 l 5.265,1.2458 c 0.0568,0.0134 0.1021,0.134 0.1021,0.2696 0,0.0651 -0.0106,0.1257 -0.0295,0.1686 -0.0191,0.0432 -0.0452,0.0651 -0.0726,0.0608 z m -4.9874,-4.3225 c -0.2444,-0.0907 -0.448,-0.351 -0.4485,-0.5794 2e-4,-0.2284 0.2039,-0.3281 0.4485,-0.2256 l 7.6752,3.217 c 0.0693,0.0293 0.1247,0.1482 0.1248,0.2663 -10e-5,0.1179 -0.0555,0.1929 -0.1248,0.1674 z m -7.8694,-7.394702 c -0.8741,-0.4838 -1.63,-1.3590994 -1.6303,-1.9231005 -2e-4,-0.271 0.1817,-0.419399 0.4993,-0.4127 0.31,0.0065 0.7186,0.1603 1.131,0.420801 l 15.5446,9.8176015 c 0.0539,0.0341 0.105,0.1028 0.1423,0.1909 0.037,0.0873 0.0576,0.1871 0.0576,0.2779 -10e-5,0.189 -0.0884,0.2933 -0.1999,0.2316 z"
       id="path3087" />
  </g>
</svg>
