<?xml version="1.0" encoding="UTF-8" standalone="no"?>
<svg
   xmlns:dc="http://purl.org/dc/elements/1.1/"
   xmlns:cc="http://creativecommons.org/ns#"
   xmlns:rdf="http://www.w3.org/1999/02/22-rdf-syntax-ns#"
   xmlns:svg="http://www.w3.org/2000/svg"
   xmlns="http://www.w3.org/2000/svg"
   xmlns:sodipodi="http://sodipodi.sourceforge.net/DTD/sodipodi-0.dtd"
   xmlns:inkscape="http://www.inkscape.org/namespaces/inkscape"
   inkscape:export-ydpi="96"
   inkscape:export-xdpi="96"
   inkscape:export-filename="C:\Users\keath\Workspace\KMX\elite-streamdeck-icons\ship-lights.png"
   sodipodi:docname="hyperspace.svg"
   inkscape:version="1.0.1 (3bc2e813f5, 2020-09-07)"
   id="svg8"
   version="1.1"
   viewBox="0 0 67.733332 67.733335"
   height="256"
   width="256">
  <defs
     id="defs2">
    <inkscape:path-effect
       effect="fillet_chamfer"
       id="path-effect1414"
       is_visible="true"
       lpeversion="1"
       satellites_param="F,0,0,1,0,0,0,1 @ F,0,0,1,0,0,0,1 @ F,0,0,1,0,0,0,1"
       unit="px"
       method="bezier"
       mode="F"
       radius="0"
       chamfer_steps="1"
       flexible="false"
       use_knot_distance="true"
       apply_no_radius="true"
       apply_with_radius="true"
       only_selected="false"
       hide_knots="false" />
  </defs>
  <sodipodi:namedview
     id="base"
     pagecolor="#000000"
     bordercolor="#666666"
     borderopacity="1.0"
     inkscape:pageopacity="0"
     inkscape:pageshadow="2"
     inkscape:zoom="5.6"
     inkscape:cx="122.00048"
     inkscape:cy="118.40346"
     inkscape:document-units="px"
     inkscape:current-layer="layer2"
     showgrid="true"
     units="px"
     inkscape:snap-grids="true"
     objecttolerance="10000"
     guidetolerance="10000"
     inkscape:window-width="3840"
     inkscape:window-height="2066"
     inkscape:window-x="3829"
     inkscape:window-y="-11"
     inkscape:window-maximized="1"
     inkscape:document-rotation="0"
     showguides="true">
    <inkscape:grid
       type="xygrid"
       id="grid4623" />
    <sodipodi:guide
       position="-3.96875,62.441667"
       orientation="0,256"
       id="guide3351" />
    <sodipodi:guide
       position="62.177083,70.379167"
       orientation="256,0"
       id="guide3353" />
    <sodipodi:guide
       position="-2.6458333,22.754167"
       orientation="0,-256"
       id="guide3355" />
    <sodipodi:guide
       position="5.2916667,70.379167"
       orientation="-256,0"
       id="guide3357" />
    <sodipodi:guide
       position="0,67.733334"
       orientation="0,256"
       id="guide3359" />
    <sodipodi:guide
       position="67.733334,67.733334"
       orientation="256,0"
       id="guide3361" />
    <sodipodi:guide
       position="67.733334,0"
       orientation="0,-256"
       id="guide3363" />
    <sodipodi:guide
       position="0,0"
       orientation="-256,0"
       id="guide3365" />
    <sodipodi:guide
       position="0,67.733334"
       orientation="0,256"
       id="guide3367" />
    <sodipodi:guide
       position="67.733334,67.733334"
       orientation="256,0"
       id="guide3369" />
    <sodipodi:guide
       position="67.733334,0"
       orientation="0,-256"
       id="guide3371" />
    <sodipodi:guide
       position="0,0"
       orientation="-256,0"
       id="guide3373" />
    <sodipodi:guide
       position="0,67.733334"
       orientation="0,256"
       id="guide3375" />
    <sodipodi:guide
       position="67.733334,67.733334"
       orientation="256,0"
       id="guide3377" />
    <sodipodi:guide
       position="67.733334,0"
       orientation="0,-256"
       id="guide3379" />
    <sodipodi:guide
       position="0,0"
       orientation="-256,0"
       id="guide3381" />
  </sodipodi:namedview>
  <metadata
     id="metadata5">
    <rdf:RDF>
      <cc:Work
         rdf:about="">
        <dc:format>image/svg+xml</dc:format>
        <dc:type
           rdf:resource="http://purl.org/dc/dcmitype/StillImage" />
        <dc:title />
      </cc:Work>
    </rdf:RDF>
  </metadata>
  <g
     inkscape:groupmode="layer"
     id="layer2"
     inkscape:label="Icon">
    <g
       id="g854"
       transform="matrix(1.0318276,0,0,1.0573264,-0.93887335,-1.1033614)">
      <path
         id="path3102"
         style="color:#000000;font-style:normal;font-variant:normal;font-weight:normal;font-stretch:normal;font-size:medium;line-height:normal;font-family:sans-serif;font-variant-ligatures:normal;font-variant-position:normal;font-variant-caps:normal;font-variant-numeric:normal;font-variant-alternates:normal;font-variant-east-asian:normal;font-feature-settings:normal;font-variation-settings:normal;text-indent:0;text-align:start;text-decoration:none;text-decoration-line:none;text-decoration-style:solid;text-decoration-color:#000000;letter-spacing:normal;word-spacing:normal;text-transform:none;writing-mode:lr-tb;direction:ltr;text-orientation:mixed;dominant-baseline:auto;baseline-shift:baseline;text-anchor:start;white-space:normal;shape-padding:0;shape-margin:0;inline-size:0;clip-rule:nonzero;display:inline;overflow:visible;visibility:visible;opacity:1;isolation:auto;mix-blend-mode:normal;color-interpolation:sRGB;color-interpolation-filters:linearRGB;solid-color:#000000;solid-opacity:1;vector-effect:none;fill:#808080;fill-opacity:1;fill-rule:nonzero;stroke:none;stroke-width:3;stroke-linecap:butt;stroke-linejoin:miter;stroke-miterlimit:4;stroke-dasharray:none;stroke-dashoffset:6.00002;stroke-opacity:1;paint-order:markers fill stroke;color-rendering:auto;image-rendering:auto;shape-rendering:auto;text-rendering:auto;enable-background:accumulate;stop-color:#000000;stop-opacity:1"
         d="m 128.6582,30.539062 c -18.00004,0 -34.218444,7.670685 -45.585934,19.908204 l 4.283203,2.705078 C 97.767037,42.299175 112.40926,35.537109 128.6582,35.537109 c 17.00514,10e-7 32.25703,7.400473 42.73438,19.152344 l 4.25,-2.683594 C 164.22621,38.865725 147.4092,30.539064 128.6582,30.539062 Z m 0,14.386719 c -12.86745,0 -24.54401,5.102146 -33.144528,13.378907 l 2.597656,1.640624 c 8.004232,-7.45278 18.734932,-12.015625 30.546872,-12.015624 12.57644,0 23.92975,5.17113 32.06836,13.498046 l 2.57227,-1.625 C 154.58094,50.645926 142.28547,44.925781 128.6582,44.925781 Z M 77.261719,57.710938 c -4.413572,6.454338 -7.63413,13.782074 -9.367188,21.666015 L 72.875,79.988281 c 0.901095,-3.957817 2.20557,-7.758171 3.878906,-11.355469 -0.673255,-0.77224 -1.079173,-1.770622 -1.082031,-3.037109 a 2.5002499,2.5002499 0 0 1 0,-0.0078 c 0.001,-1.174519 0.745507,-2.561649 1.882813,-3.128907 0.916209,-0.456942 1.85595,-0.44758 2.689453,-0.220703 0.449739,-0.712325 0.912721,-1.414889 1.392578,-2.105469 z m 51.396481,0.894531 c -7.96428,0 -15.28643,2.735799 -21.0957,7.308593 l 0.89258,0.564454 c 5.59347,-4.304012 12.59572,-6.869141 20.20312,-6.869141 8.38972,0 16.04379,3.118917 21.88282,8.251953 l 0.88086,-0.55664 c -6.04427,-5.406969 -14.02029,-8.699219 -22.76368,-8.699219 z m 52.65625,1.027343 -4.36328,2.414063 c 3.89298,6.1117 6.65419,13.010841 7.99805,20.412109 l 4.95703,-0.683593 c -1.43308,-8.016693 -4.39909,-15.501304 -8.5918,-22.142579 z m -91.388669,5.087891 c -0.281457,0.387993 -0.562059,0.777188 -0.832031,1.173828 l 2.816406,1.181641 c 0.211776,-0.302555 0.423582,-0.605335 0.642578,-0.902344 z m 78.775389,1.890625 -2.61914,1.449219 c 3.17099,4.796386 5.44271,10.238719 6.58008,16.089844 l 2.97656,-0.410157 c -1.19073,-6.22124 -3.58662,-12.013261 -6.9375,-17.128906 z m -83.35742,5.863281 c -1.294612,2.756676 -2.332615,5.655185 -3.085938,8.667969 l 2.988282,0.367188 c 0.717382,-2.778915 1.697344,-5.452203 2.90625,-7.994141 z m 71.34766,0.78125 -0.87696,0.486329 c 0.0521,0.07429 0.10471,0.147917 0.15625,0.222656 l 0.94336,-0.396485 c -0.072,-0.105757 -0.14947,-0.207596 -0.22265,-0.3125 z m -58.457035,3.996094 c -0.171695,0.336052 -0.341174,0.673257 -0.501953,1.015625 0.375444,-0.08951 0.764367,-0.126744 1.144531,-0.0918 0.09515,-0.193922 0.196122,-0.384406 0.294922,-0.576172 z m 62.052735,2.599609 -0.93945,0.34961 c 0.72815,1.777278 1.3079,3.630499 1.7207,5.546875 l 0.99609,-0.136719 c -0.42464,-1.989663 -1.02255,-3.914747 -1.77734,-5.759766 z m 30.31055,6.875 -4.96485,0.683594 c 0.0217,0.233859 0.0358,0.470407 0.0547,0.705078 l 4.99414,-0.294922 c -0.0288,-0.364341 -0.0489,-0.731191 -0.084,-1.09375 z M 66.634766,87.931641 c -0.123264,1.597928 -0.205078,3.206673 -0.205078,4.835937 0,0.125792 0.009,0.249383 0.0098,0.375 l 4.990235,-0.296875 c -3.6e-5,-0.0262 -0.002,-0.05192 -0.002,-0.07813 0,-1.504271 0.07584,-2.990008 0.189454,-4.464844 z m 14.351562,1.070312 c -0.08468,1.084539 -0.139373,2.177719 -0.15039,3.28125 l 3.003906,-0.177734 c 0.01405,-0.968365 0.0604,-1.928374 0.134765,-2.88086 z m 13.636719,1.017578 c -0.03826,0.479932 -0.06773,0.961963 -0.08594,1.447266 l 0.998047,-0.06055 c 0.01778,-0.440312 0.04726,-0.876787 0.08203,-1.3125 z m 96.271483,2.794922 -5.01172,0.300781 c -0.01,1.632169 -0.0931,3.246923 -0.23633,4.84375 l 4.98829,0.371094 c 0.16168,-1.818776 0.25838,-3.655519 0.25976,-5.515625 z m -14.41601,0.861328 -3.00977,0.179688 c -0.0255,1.070242 -0.0806,2.133291 -0.17969,3.183593 l 2.99414,0.222657 c 0.11051,-1.182972 0.17272,-2.379665 0.19532,-3.585938 z m -13.70118,0.81836 -1.00781,0.05859 c -0.0288,0.543458 -0.0704,1.082952 -0.125,1.619141 l 1.00391,0.07422 c 0.0587,-0.579781 0.0996,-1.164001 0.1289,-1.751953 z m -91.113278,3.347656 -4.988281,0.294922 c 0.02584,0.301324 0.04019,0.60616 0.07031,0.90625 l 4.957031,-0.681641 c -0.01665,-0.172084 -0.02394,-0.347002 -0.03906,-0.519531 z m 24.640626,2.175783 -0.990235,0.13672 c 0.399826,1.81237 0.944011,3.5698 1.619141,5.26172 l 0.93164,-0.34571 c -0.649358,-1.62497 -1.172644,-3.31262 -1.560546,-5.05273 z m -11.607422,1.59765 -2.96875,0.41016 c 1.162141,5.91692 3.419479,11.43875 6.546875,16.35742 l 2.615234,-1.44726 c -0.342617,-0.53471 -0.673932,-1.07703 -0.994141,-1.62696 -0.41326,-0.0803 -0.819752,-0.23774 -1.18164,-0.49023 -0.984847,-0.68713 -1.401826,-1.84927 -1.402344,-2.8125 2.73e-4,-0.50979 0.06693,-0.98231 0.193359,-1.41797 -1.234139,-2.84969 -2.18504,-5.85171 -2.808593,-8.97266 z m -12.28711,1.69336 -4.949218,0.68164 c 1.408327,7.71226 4.22977,14.93166 8.203124,21.37305 l 4.359376,-2.41211 c -3.674136,-5.91311 -6.294487,-12.54564 -7.613282,-19.64258 z m 87.658204,0.0879 c -0.0189,0.056 -0.0374,0.11213 -0.0566,0.16797 0.0531,0.13012 0.11523,0.25829 0.11523,0.40235 -3.9e-4,1.01047 -0.29521,2.03942 -1.0625,2.86328 -0.17302,0.18577 -0.38012,0.35219 -0.60742,0.49804 -0.29633,0.6056 -0.6158,1.19711 -0.94726,1.78126 l 0.94921,0.35156 c 1.05461,-1.87766 1.93446,-3.86404 2.62305,-5.93946 z m 11.77148,1.44727 c -0.81394,2.92058 -1.91415,5.72025 -3.27148,8.36719 l 2.82422,1.04687 c 1.4441,-2.86277 2.61114,-5.88718 3.46094,-9.04297 z m 12.41407,1.52539 c -1.13125,4.64897 -2.82587,9.07407 -5.01368,13.19922 0.0522,0.29549 0.0872,0.60344 0.0879,0.93359 a 2.5002562,2.5002562 0 0 1 0,0.008 c -10e-4,1.17451 -0.7455,2.56164 -1.88281,3.1289 -0.25456,0.127 -0.51145,0.21459 -0.76758,0.27539 -0.62136,0.95676 -1.26358,1.8984 -1.93945,2.81446 l 4.37891,2.42382 c 4.73573,-6.5505 8.22356,-14.05442 10.125,-22.16992 z m -83.13086,4.88477 -0.92774,0.38867 c 0.0232,0.0349 0.0451,0.0707 0.0684,0.10547 l 0.86914,-0.48047 c -0.003,-0.005 -0.007,-0.009 -0.01,-0.0137 z m 52.56054,3.82226 0.5625,0.3125 c 0.0165,-0.0187 0.0323,-0.0379 0.0488,-0.0566 z m -47.5,2.07031 -0.86523,0.54883 c 6.10733,5.72448 14.31194,9.23633 23.33984,9.23633 7.30562,0 14.0714,-2.30329 19.62696,-6.21289 l -0.91016,-0.57617 c -5.32652,3.64786 -11.77035,5.78515 -18.7168,5.78515 -8.67592,0 -16.56664,-3.33135 -22.47461,-8.78125 z m 58.38282,2.49219 c -0.25902,0.34574 -0.53211,0.67969 -0.80079,1.01758 l 2.64649,1.46484 c 0.33308,-0.4276 0.6598,-0.85981 0.97851,-1.29882 z m -68.511722,3.90625 -2.570313,1.62305 c 8.743045,9.48879 21.266315,15.44141 35.173825,15.44141 12.23075,0 23.39046,-4.60675 31.85352,-12.16993 l -2.63477,-1.66406 c -7.84613,6.74587 -18.04831,10.83008 -29.21875,10.83008 -12.85646,0 -24.43183,-5.40531 -32.603512,-14.06055 z m -10.636719,6.7168 -4.246094,2.68164 c 11.419263,13.48049 28.456865,22.05469 47.486325,22.05469 17.37157,-1e-5 33.08587,-7.14577 44.38282,-18.64453 l -4.30664,-2.72071 C 158.41375,143.75497 144.2762,150 128.6582,150 111.3741,150 95.906377,142.35142 85.417969,130.26172 Z"
         transform="scale(0.26458333)" />
      <path
         style="color:#000000;font-style:normal;font-variant:normal;font-weight:normal;font-stretch:normal;font-size:medium;line-height:normal;font-family:sans-serif;font-variant-ligatures:normal;font-variant-position:normal;font-variant-caps:normal;font-variant-numeric:normal;font-variant-alternates:normal;font-variant-east-asian:normal;font-feature-settings:normal;font-variation-settings:normal;text-indent:0;text-align:start;text-decoration:none;text-decoration-line:none;text-decoration-style:solid;text-decoration-color:#000000;letter-spacing:normal;word-spacing:normal;text-transform:none;writing-mode:lr-tb;direction:ltr;text-orientation:mixed;dominant-baseline:auto;baseline-shift:baseline;text-anchor:start;white-space:normal;shape-padding:0;shape-margin:0;inline-size:0;clip-rule:nonzero;display:inline;overflow:visible;visibility:visible;isolation:auto;mix-blend-mode:normal;color-interpolation:sRGB;color-interpolation-filters:linearRGB;solid-color:#000000;solid-opacity:1;vector-effect:none;fill:#808080;fill-opacity:1;fill-rule:nonzero;stroke:none;stroke-width:1.32292;stroke-linecap:round;stroke-linejoin:round;stroke-miterlimit:4;stroke-dasharray:none;stroke-dashoffset:6.00002;stroke-opacity:1;paint-order:markers fill stroke;color-rendering:auto;image-rendering:auto;shape-rendering:auto;text-rendering:auto;enable-background:accumulate;stop-color:#000000"
         d="m 58.792466,6.76089 c 0.5829,-0.36815 1.1643,-0.61073 1.6077,-0.66389 0.4565,-0.05473 0.7189,0.09686 0.7186,0.42267 -4e-4,0.67801 -1.0862,1.82824 -2.3263,2.51454 L 39.211666,19.871 c -0.1254,0.0694 -0.2248,-0.038 -0.2248,-0.2383 0,-0.0963 0.0231,-0.2028 0.0647,-0.2968 0.0419,-0.0949 0.0994,-0.1699 0.1601,-0.2082 z M 43.403766,19.391 c 0.1654,-0.0691 0.3023,0.0252 0.3024,0.2122 -1e-4,0.1872 -0.137,0.3896 -0.3024,0.4512 l -6.7465,2.5013 c -0.0419,0.0155 -0.0755,-0.0466 -0.0755,-0.1386 0,-0.092 0.0336,-0.1806 0.0755,-0.1982 z m 7.4678,2.8274 c 0.307,-0.0423 0.6099,0.0057 0.8388,0.1365 0.2337,0.1335 0.3671,0.3401 0.3669,0.572 -2e-4,0.4828 -0.5565,0.9072 -1.2057,0.9459 l -12.6972,0.7572 c -0.0997,0.006 -0.1789,-0.1344 -0.1789,-0.3133 -1e-4,-0.086 0.0184,-0.1707 0.0516,-0.2358 0.0333,-0.0657 0.0791,-0.1065 0.1273,-0.1131 z m 3.3357,4.7425 c 0.5345,0.0399 0.9853,0.3496 0.9857,0.6905 -4e-4,0.3408 -0.4512,0.5616 -0.9857,0.4959 l -12.8568,-1.58 c -0.1169,-0.0146 -0.2099,-0.1499 -0.21,-0.3028 10e-5,-0.1528 0.0931,-0.2697 0.21,-0.2612 z m -12.8568,0.0209 c 0.0924,0.0146 0.1824,0.0776 0.2496,0.1758 0.068,0.0993 0.1065,0.2255 0.1065,0.3499 -1e-4,0.259 -0.1621,0.4306 -0.3561,0.3847 l -5.265,-1.2458 c -0.0568,-0.0134 -0.1021,-0.134 -0.1021,-0.2696 0,-0.0651 0.0106,-0.1257 0.0295,-0.1686 0.0191,-0.0432 0.0452,-0.0651 0.0726,-0.0608 z m 4.9874,4.3225 c 0.2444,0.0907 0.448,0.351 0.4485,0.5794 -2e-4,0.2284 -0.2039,0.3281 -0.4485,0.2256 l -7.6752,-3.217 c -0.0693,-0.0293 -0.1247,-0.1482 -0.1248,-0.2663 10e-5,-0.1179 0.0555,-0.1929 0.1248,-0.1674 z m 7.8694,7.3947 c 0.8741,0.4838 1.63,1.3591 1.6303,1.9231 2e-4,0.271 -0.1817,0.4194 -0.4993,0.4127 -0.31,-0.0065 -0.7186,-0.1603 -1.131,-0.4208 l -15.5446,-9.8176 c -0.0539,-0.0341 -0.105,-0.1028 -0.1423,-0.1909 -0.037,-0.0873 -0.0576,-0.1871 -0.0576,-0.2779 10e-5,-0.189 0.0884,-0.2933 0.1999,-0.2316 z"
         id="path3113" />
      <path
         style="color:#000000;font-style:normal;font-variant:normal;font-weight:normal;font-stretch:normal;font-size:medium;line-height:normal;font-family:sans-serif;font-variant-ligatures:normal;font-variant-position:normal;font-variant-caps:normal;font-variant-numeric:normal;font-variant-alternates:normal;font-variant-east-asian:normal;font-feature-settings:normal;font-variation-settings:normal;text-indent:0;text-align:start;text-decoration:none;text-decoration-line:none;text-decoration-style:solid;text-decoration-color:#000000;letter-spacing:normal;word-spacing:normal;text-transform:none;writing-mode:lr-tb;direction:ltr;text-orientation:mixed;dominant-baseline:auto;baseline-shift:baseline;text-anchor:start;white-space:normal;shape-padding:0;shape-margin:0;inline-size:0;clip-rule:nonzero;display:inline;overflow:visible;visibility:visible;isolation:auto;mix-blend-mode:normal;color-interpolation:sRGB;color-interpolation-filters:linearRGB;solid-color:#000000;solid-opacity:1;vector-effect:none;fill:#808080;fill-opacity:1;fill-rule:nonzero;stroke:none;stroke-width:1.32292;stroke-linecap:round;stroke-linejoin:round;stroke-miterlimit:4;stroke-dasharray:none;stroke-dashoffset:6.00002;stroke-opacity:1;paint-order:markers fill stroke;color-rendering:auto;image-rendering:auto;shape-rendering:auto;text-rendering:auto;enable-background:accumulate;stop-color:#000000"
         d="m 8.6763159,42.476831 c -0.5828997,0.36815 -1.1642994,0.61073 -1.6076991,0.66389 -0.4564997,0.05473 -0.7188997,-0.09686 -0.7185997,-0.42267 3.97e-4,-0.67801 1.0861994,-1.82824 2.3262988,-2.51454 L 28.257115,29.366722 c 0.1254,-0.0694 0.2248,0.038 0.2248,0.238299 0,0.0963 -0.0231,0.202801 -0.0647,0.2968 -0.0419,0.0949 -0.0994,0.169901 -0.1601,0.208201 z M 24.065015,29.846721 c -0.1654,0.0691 -0.3023,-0.0252 -0.3024,-0.2122 10e-5,-0.187199 0.137,-0.389599 0.3024,-0.451199 l 6.7465,-2.5013 c 0.0419,-0.0155 0.0755,0.0466 0.0755,0.1386 0,0.092 -0.0336,0.1806 -0.0755,0.198199 z m -7.4678,-2.827399 c -0.307,0.0423 -0.6099,-0.0057 -0.8388,-0.1365 -0.2337,-0.1335 -0.3671,-0.340101 -0.3669,-0.572 2e-4,-0.4828 0.5565,-0.9072 1.2057,-0.9459 l 12.6972,-0.7572 c 0.0997,-0.006 0.1789,0.1344 0.1789,0.3133 10e-5,0.086 -0.0184,0.1707 -0.0516,0.2358 -0.0333,0.0657 -0.0791,0.1065 -0.1273,0.1131 z m -3.3357,-4.7425 c -0.5345,-0.0399 -0.9853,-0.3496 -0.9857,-0.6905 3.97e-4,-0.3408 0.4512,-0.5616 0.9857,-0.4959 l 12.8568,1.58 c 0.1169,0.0146 0.2099,0.1499 0.21,0.3028 -10e-5,0.1528 -0.0931,0.2697 -0.21,0.2612 z m 12.8568,-0.0209 c -0.0924,-0.0146 -0.1824,-0.0776 -0.2496,-0.1758 -0.068,-0.0993 -0.1065,-0.2255 -0.1065,-0.3499 10e-5,-0.259 0.1621,-0.4306 0.3561,-0.3847 l 5.265,1.2458 c 0.0568,0.0134 0.1021,0.134 0.1021,0.2696 0,0.0651 -0.0106,0.1257 -0.0295,0.1686 -0.0191,0.0432 -0.0452,0.0651 -0.0726,0.0608 z m -4.9874,-4.3225 c -0.2444,-0.0907 -0.448,-0.351 -0.4485,-0.5794 2e-4,-0.2284 0.2039,-0.3281 0.4485,-0.2256 l 7.6752,3.217 c 0.0693,0.0293 0.1247,0.1482 0.1248,0.2663 -10e-5,0.1179 -0.0555,0.1929 -0.1248,0.1674 z m -7.8694,-7.394702 c -0.8741,-0.4838 -1.63,-1.3590994 -1.6303,-1.9231005 -2e-4,-0.271 0.1817,-0.419399 0.4993,-0.4127 0.31,0.0065 0.7186,0.1603 1.131,0.420801 l 15.5446,9.8176015 c 0.0539,0.0341 0.105,0.1028 0.1423,0.1909 0.037,0.0873 0.0576,0.1871 0.0576,0.2779 -10e-5,0.189 -0.0884,0.2933 -0.1999,0.2316 z"
         id="path3087" />
    </g>
  </g>
</svg>
