<?xml version="1.0" encoding="UTF-8" standalone="no"?>
<svg
   xmlns:dc="http://purl.org/dc/elements/1.1/"
   xmlns:cc="http://creativecommons.org/ns#"
   xmlns:rdf="http://www.w3.org/1999/02/22-rdf-syntax-ns#"
   xmlns:svg="http://www.w3.org/2000/svg"
   xmlns="http://www.w3.org/2000/svg"
   xmlns:sodipodi="http://sodipodi.sourceforge.net/DTD/sodipodi-0.dtd"
   xmlns:inkscape="http://www.inkscape.org/namespaces/inkscape"
   width="256"
   height="256"
   viewBox="0 0 67.733332 67.733335"
   version="1.1"
   id="svg8"
   inkscape:version="1.0.1 (3bc2e813f5, 2020-09-07)"
   sodipodi:docname="inara.svg"
   inkscape:export-filename="C:\Users\keath\Workspace\KMX\elite-streamdeck-icons\ship-lights.png"
   inkscape:export-xdpi="96"
   inkscape:export-ydpi="96">
  <defs
     id="defs2" />
  <sodipodi:namedview
     id="base"
     pagecolor="#000000"
     bordercolor="#666666"
     borderopacity="1.0"
     inkscape:pageopacity="0"
     inkscape:pageshadow="2"
     inkscape:zoom="5.6"
     inkscape:cx="111.90634"
     inkscape:cy="121.54987"
     inkscape:document-units="px"
     inkscape:current-layer="layer2"
     showgrid="true"
     units="px"
     inkscape:snap-grids="true"
     objecttolerance="10000"
     guidetolerance="10000"
     inkscape:window-width="3840"
     inkscape:window-height="2066"
     inkscape:window-x="3829"
     inkscape:window-y="-11"
     inkscape:window-maximized="1"
     inkscape:document-rotation="0"
     showguides="true"
     inkscape:guide-bbox="true">
    <inkscape:grid
       type="xygrid"
       id="grid4623" />
    <sodipodi:guide
       position="-3.96875,62.441667"
       orientation="0,256"
       id="guide3351" />
    <sodipodi:guide
       position="62.441667,42.597917"
       orientation="-1,0"
       id="guide3353"
       inkscape:label=""
       inkscape:locked="false"
       inkscape:color="rgb(0,0,255)" />
    <sodipodi:guide
       position="-2.6458333,22.754167"
       orientation="0,-256"
       id="guide3355" />
    <sodipodi:guide
       position="5.2916667,70.379167"
       orientation="-256,0"
       id="guide3357" />
    <sodipodi:guide
       position="0,67.733334"
       orientation="0,256"
       id="guide3359" />
    <sodipodi:guide
       position="67.733334,67.733334"
       orientation="256,0"
       id="guide3361" />
    <sodipodi:guide
       position="67.733334,0"
       orientation="0,-256"
       id="guide3363" />
    <sodipodi:guide
       position="0,0"
       orientation="-256,0"
       id="guide3365" />
    <sodipodi:guide
       position="0,67.733334"
       orientation="0,256"
       id="guide3367" />
    <sodipodi:guide
       position="67.733334,67.733334"
       orientation="256,0"
       id="guide3369" />
    <sodipodi:guide
       position="67.733334,0"
       orientation="0,-256"
       id="guide3371" />
    <sodipodi:guide
       position="0,0"
       orientation="-256,0"
       id="guide3373" />
    <sodipodi:guide
       position="0,67.733334"
       orientation="0,256"
       id="guide3375" />
    <sodipodi:guide
       position="67.733334,67.733334"
       orientation="256,0"
       id="guide3377" />
    <sodipodi:guide
       position="67.733334,0"
       orientation="0,-256"
       id="guide3379" />
    <sodipodi:guide
       position="0,0"
       orientation="-256,0"
       id="guide3381" />
    <sodipodi:guide
       position="33.866667,46.83125"
       orientation="1,0"
       id="guide895" />
    <sodipodi:guide
       position="41.010417,42.597917"
       orientation="0,-1"
       id="guide897" />
  </sodipodi:namedview>
  <metadata
     id="metadata5">
    <rdf:RDF>
      <cc:Work
         rdf:about="">
        <dc:format>image/svg+xml</dc:format>
        <dc:type
           rdf:resource="http://purl.org/dc/dcmitype/StillImage" />
        <dc:title></dc:title>
      </cc:Work>
    </rdf:RDF>
  </metadata>
  <g
     inkscape:groupmode="layer"
     id="layer2"
     inkscape:label="Icon">
    <path
       id="path884"
       style="fill:#808080;fill-opacity:0.99811;stroke:none;stroke-width:1.5875;stroke-linecap:square;paint-order:markers stroke fill"
       inkscape:transform-center-x="-0.0069548098"
       inkscape:transform-center-y="-0.19596882"
       d="m 33.918638,9.7769923 -0.650192,1.2491937 -1.426264,0.189612 1.020276,0.984627 -0.257779,1.376514 1.280665,-0.640529 1.26695,0.661158 -0.228792,-1.380559 1.040912,-0.967913 -1.422087,-0.212595 z m -5.991843,0.6087967 -0.376612,1.356796 -1.355884,0.481602 1.202448,0.751398 0.03371,1.400154 1.119786,-0.892564 1.376638,0.383792 -0.510462,-1.302992 0.817213,-1.163007 -1.43528,0.08724 z m 12.041933,0.01344 -0.904968,1.078779 -1.43345,-0.123537 0.782994,1.182073 -0.549638,1.288236 1.38905,-0.348275 1.093799,0.919591 0.07535,-1.397276 1.225685,-0.719797 -1.3423,-0.515296 z m 5.42993,1.699979 -1.001865,0.989455 -1.415688,-0.256996 0.669124,1.250108 -0.667688,1.231172 1.415429,-0.216772 1.003168,1.017793 0.205673,-1.384089 1.287455,-0.602138 -1.288235,-0.638568 z m -23.349445,0.02207 -0.14652,1.400544 -1.257286,0.699683 1.310443,0.541676 0.265221,1.375073 0.956287,-1.065718 1.421171,0.150176 -0.719273,-1.200222 0.61311,-1.282363 -1.400938,0.323856 z m -16.6755389,0.723321 1.50384,3.326565 -0.00261,-0.0065 c 0.1596896,0.432988 0.4947411,0.806021 1.1110315,1.044952 l 0.00691,0.0031 14.1566524,3.109009 c 0.264068,0.09379 0.658339,0.255802 0.927813,0.408084 0.134997,0.07628 0.239322,0.15612 0.269795,0.196662 -0.0047,0.0026 -0.0055,0.0035 -0.01502,0.0072 l -0.01436,0.0049 -0.260648,0.199407 -0.656849,-0.124841 -9.61106,-2.018219 1.948619,3.419936 v -9.26e-4 c 0.356126,0.636348 0.747397,0.771696 1.094711,0.866185 h 4.4e-4 c 8.82e-4,2.33e-4 0.0013,9.25e-4 0.0022,9.25e-4 l 1.829132,0.551207 -1.73981,0.696029 0.0375,0.193397 h 18.174804 17.626994 l 0.0375,-0.193397 -1.739809,-0.696029 1.829128,-0.551207 c 8.81e-4,-2.33e-4 0.0013,-9.25e-4 0.0022,-9.25e-4 h 8.82e-4 c 0.347238,-0.09447 0.738509,-0.229817 1.094635,-0.866165 v 9.25e-4 l 1.948616,-3.419935 -9.611052,2.018219 -0.65685,0.12484 -0.260657,-0.199407 -0.01436,-0.0049 c -0.0095,-0.0035 -0.0104,-0.0048 -0.01502,-0.0072 0.03049,-0.04054 0.134789,-0.120378 0.269787,-0.196662 0.269477,-0.152283 0.663754,-0.314298 0.927821,-0.408084 l 14.156658,-3.10901 0.0069,-0.0031 c 0.613157,-0.237719 0.94776,-0.608241 1.108414,-1.038427 l 1.503835,-3.326564 -25.923035,5.950707 0.117394,0.127321 c 0.515826,0.55853 0.969103,1.11179 1.096276,1.610527 0.06358,0.24937 0.0504,0.481518 -0.06868,0.713659 -0.118554,0.231079 -0.348892,0.46518 -0.733381,0.694461 -0.184795,0.07924 -0.358744,0.16585 -0.52117,0.191436 -0.153459,0.02419 -0.297859,-0.0055 -0.466978,-0.140117 l 0.03745,-1.414518 -2.026968,1.649183 -2.027094,-1.649183 0.03745,1.414518 c -0.169123,0.134571 -0.313515,0.164299 -0.466973,0.140117 -0.162426,-0.0256 -0.336383,-0.1122 -0.521178,-0.191436 -0.384484,-0.229281 -0.614819,-0.463382 -0.733372,-0.694461 -0.1191,-0.232141 -0.13227,-0.464289 -0.06869,-0.713659 0.127172,-0.498737 0.58045,-1.051997 1.09628,-1.610527 l 0.117398,-0.127321 z m 26.8657529,1.905129 -0.224478,4.005093 0.388362,0.219649 0.01684,1.256635 1.445333,1.267478 v 0.0068 l 1.439849,-1.274267 0.01687,-1.256635 0.388363,-0.219649 -0.224483,-4.005093 -0.16884,0.325685 c -0.232996,0.449683 -0.311647,0.962027 -0.484216,1.401716 -0.168197,0.428525 -0.410759,0.78541 -0.970266,0.990241 -0.559588,-0.204822 -0.802189,-0.561689 -0.970385,-0.990241 -0.172574,-0.439689 -0.25122,-0.952033 -0.484216,-1.401716 z M 21.58302,25.21704 l -2.225849,0.01776 -9.26e-4,0.09911 -0.05928,10.648049 h 2.398742 l 0.03159,-6.147241 2.998269,6.155598 h 2.302507 l 0.0091,-10.706157 h -2.340506 v 6.161084 z m 25.247652,0.01423 -0.02128,0.07248 -3.079236,10.600121 h 2.339467 l 0.693412,-2.331492 H 49.0453 l 0.677097,2.323139 h 2.34638 L 49.130173,25.231275 Z m -16.06596,0.05289 -0.02128,0.07248 -3.079237,10.600119 h 2.339459 l 0.693417,-2.331496 h 2.282269 l 0.677096,2.323139 h 2.34638 L 33.064221,25.284157 Z m -15.094004,0.0252 v 0.100162 l -0.0084,10.488469 h 2.306949 v -10.58862 z m 24.492857,0.01371 c -0.03252,4e-5 -0.06421,9.25e-4 -0.09481,0.0031 h -3.512132 v 0.100166 10.522159 h 2.256538 v -4.245499 h 1.256506 c 0.170044,0.03488 0.334431,0.04444 0.488661,0.142078 0.154758,0.09799 0.313532,0.290769 0.444251,0.720055 v 2.581311 l 0.0013,0.0089 c 0.02666,0.149386 0.04147,0.321569 0.09676,0.47194 0.02763,0.07518 0.06688,0.146669 0.129278,0.202279 0.0624,0.05561 0.148114,0.09011 0.245377,0.09376 h 0.0013 2.133269 l 0.04465,-0.190001 c -0.271944,-0.135084 -0.433652,-0.372495 -0.446069,-0.832153 v -2.303943 l -9.26e-4,-0.0078 c -0.117901,-0.718429 -0.357895,-1.136043 -0.647971,-1.409686 -0.253392,-0.239041 -0.532436,-0.356472 -0.790702,-0.494923 0.02789,-0.01847 0.04921,-0.03279 0.08827,-0.05877 0.131878,-0.08768 0.316498,-0.218008 0.503021,-0.407692 0.372901,-0.379232 0.751843,-1.001211 0.748128,-1.983093 v -4.84e-4 c 0.0096,-1.031132 -0.51922,-1.780045 -1.160745,-2.254038 -0.60153,-0.44444 -1.296357,-0.658092 -1.784201,-0.6575 z m -1.551241,1.682741 1.521071,0.0167 c 1.318776,0.09144 1.071909,2.994519 0.0084,3.042149 h -1.52943 z m 9.313055,1.710556 0.877542,3.159156 h -1.796873 z m -16.065961,0.05288 0.877544,3.159158 h -1.796874 z m -15.921139,7.814322 v 0.334171 h 35.853909 v -0.334171 z m 13.051101,1.078385 c -0.15196,0 -0.279022,0.03526 -0.381052,0.105776 -0.133865,0.09177 -0.235455,0.223717 -0.304918,0.395677 -0.06947,0.171961 -0.104207,0.368502 -0.104207,0.58973 0,0.20384 0.03115,0.392724 0.09336,0.566616 0.06223,0.172925 0.155199,0.306279 0.278935,0.399988 0.123738,0.09275 0.268812,0.139074 0.435247,0.139074 0.130975,0 0.260094,-0.0329 0.38745,-0.09859 0.128081,-0.06666 0.225739,-0.143409 0.29304,-0.230356 v -0.846334 h -0.692506 v 0.357939 h 0.367993 v 0.269532 c -0.04848,0.05023 -0.1067,0.09328 -0.174723,0.129019 -0.06729,0.03477 -0.134592,0.0521 -0.201884,0.0521 -0.136042,0 -0.246055,-0.06272 -0.329998,-0.188306 -0.08394,-0.126556 -0.125885,-0.31591 -0.125885,-0.568053 0,-0.233788 0.04116,-0.410049 0.123666,-0.528876 0.08322,-0.118825 0.195096,-0.178251 0.335478,-0.178251 0.09263,0 0.169629,0.03042 0.231137,0.09128 0.06223,0.0599 0.104629,0.141951 0.127061,0.246286 l 0.319158,-0.07966 C 29.634872,38.0914 29.563229,37.93871 29.451787,37.828578 29.341068,37.717482 29.18693,37.661949 28.989378,37.661949 Z m 4.786792,0 c -0.129528,0 -0.243922,0.02807 -0.343053,0.0841 -0.07453,0.04154 -0.14324,0.105329 -0.206196,0.19131 -0.06223,0.08598 -0.111513,0.183008 -0.147696,0.291208 -0.04848,0.146841 -0.07274,0.328409 -0.07274,0.544808 0,0.338123 0.06994,0.603891 0.209594,0.797102 0.139659,0.192249 0.327769,0.288336 0.564395,0.288336 0.23373,0 0.420434,-0.09656 0.560088,-0.289772 0.139659,-0.194179 0.209463,-0.462768 0.209463,-0.80572 0,-0.345852 -0.07058,-0.615852 -0.211679,-0.81003 -0.14039,-0.194179 -0.327724,-0.291339 -0.562178,-0.291339 z m 3.186709,0 c -0.122294,0 -0.226836,0.02464 -0.313669,0.07391 -0.08611,0.04927 -0.152314,0.121313 -0.198622,0.215989 -0.04559,0.09371 -0.06829,0.194633 -0.06829,0.302831 0,0.168096 0.04882,0.310519 0.146515,0.427411 0.06947,0.08308 0.190284,0.153115 0.36251,0.210115 0.133869,0.04444 0.219622,0.07546 0.257252,0.09285 0.05501,0.02609 0.09334,0.05698 0.11505,0.09272 0.02243,0.03478 0.03371,0.07722 0.03371,0.127453 0,0.07824 -0.02643,0.146872 -0.07926,0.205804 -0.0521,0.05796 -0.129882,0.08697 -0.233366,0.08697 -0.09768,0 -0.175468,-0.0329 -0.233355,-0.09859 -0.05716,-0.06569 -0.09519,-0.168498 -0.114002,-0.308577 l -0.312621,0.04049 c 0.02097,0.237651 0.08545,0.41888 0.19327,0.543503 0.107815,0.123655 0.262283,0.185432 0.463447,0.185432 0.138215,0 0.253565,-0.02558 0.346192,-0.07679 0.09262,-0.05217 0.164289,-0.1314 0.214943,-0.237667 0.05065,-0.106264 0.07601,-0.220281 0.07601,-0.342008 0,-0.134282 -0.02133,-0.246757 -0.06399,-0.337566 -0.04199,-0.09177 -0.100647,-0.163823 -0.175905,-0.215991 -0.07453,-0.05314 -0.190013,-0.104302 -0.346318,-0.153571 -0.156297,-0.04927 -0.254603,-0.09667 -0.295123,-0.142077 -0.03186,-0.03574 -0.0478,-0.07866 -0.0478,-0.12889 0,-0.05507 0.01705,-0.09905 0.05106,-0.131892 0.05283,-0.0512 0.125902,-0.07679 0.219252,-0.07679 0.09045,0 0.158068,0.02417 0.202936,0.07248 0.04558,0.04734 0.07517,0.125499 0.08893,0.234663 l 0.321379,-0.01881 c -0.005,-0.195142 -0.05827,-0.351125 -0.159579,-0.468019 -0.10058,-0.116893 -0.250804,-0.175378 -0.450524,-0.175378 z m 2.231725,0 c -0.222878,0 -0.402685,0.0981 -0.539455,0.294211 -0.136764,0.195144 -0.205147,0.469511 -0.205147,0.823088 0,0.33426 0.06806,0.598015 0.204103,0.791226 0.136042,0.192249 0.309619,0.288336 0.520911,0.288336 0.170774,0 0.311606,-0.056 0.422315,-0.168064 0.111442,-0.113031 0.190965,-0.285533 0.238715,-0.517385 l -0.311452,-0.131894 c -0.02679,0.155539 -0.07091,0.269554 -0.132406,0.342007 -0.06151,0.07246 -0.135046,0.108649 -0.220433,0.108649 -0.115782,0 -0.209837,-0.05695 -0.2822,-0.170939 -0.07236,-0.113995 -0.10852,-0.305232 -0.10852,-0.573798 0,-0.25311 0.03661,-0.436221 0.109701,-0.549248 0.0738,-0.11303 0.169594,-0.169502 0.287543,-0.169502 0.08539,0 0.157831,0.03183 0.217174,0.09559 0.06006,0.06376 0.09949,0.15065 0.118306,0.260782 l 0.317983,-0.101339 c -0.03617,-0.170027 -0.09049,-0.300425 -0.162846,-0.391238 -0.121566,-0.153602 -0.279638,-0.230485 -0.474292,-0.230485 z m 1.621626,0 c -0.129528,0 -0.243913,0.02807 -0.343052,0.0841 -0.07453,0.04154 -0.143241,0.105329 -0.206197,0.19131 -0.06222,0.08598 -0.111376,0.183008 -0.14756,0.291208 -0.04848,0.146841 -0.07274,0.328409 -0.07274,0.544808 0,0.338123 0.06979,0.603891 0.209462,0.797102 0.139654,0.192249 0.327772,0.288336 0.564394,0.288336 0.233731,0 0.420431,-0.09656 0.56009,-0.289772 0.139658,-0.194179 0.209457,-0.462768 0.209457,-0.80572 0,-0.345852 -0.07044,-0.615852 -0.21155,-0.81003 -0.140382,-0.194179 -0.327852,-0.291339 -0.562307,-0.291339 z m 8.726856,0 c -0.129529,0 -0.243915,0.02807 -0.343048,0.0841 -0.07454,0.04154 -0.143243,0.105329 -0.206198,0.19131 -0.06223,0.08598 -0.111385,0.183008 -0.147563,0.291208 -0.04849,0.146841 -0.07274,0.328409 -0.07274,0.544808 0,0.338123 0.0698,0.603891 0.209461,0.797102 0.13966,0.192249 0.327774,0.288336 0.564395,0.288336 0.233732,0 0.420426,-0.09656 0.560086,-0.289772 0.139658,-0.194179 0.209461,-0.462768 0.209461,-0.80572 0,-0.345852 -0.07045,-0.615852 -0.211545,-0.81003 -0.140383,-0.194179 -0.327861,-0.291339 -0.562311,-0.291339 z m -33.761256,0.0363 v 2.124254 h 1.210282 v -0.357803 h -0.889039 v -0.57824 h 0.798931 v -0.357939 h -0.798931 v -0.470895 h 0.858609 v -0.359375 z m 2.830863,0 v 2.124254 h 0.321243 v -2.124255 z m 0.513332,0 v 0.359374 h 0.472203 v 1.76488 h 0.321243 v -1.764881 h 0.471163 v -0.359374 z m 1.471846,0 v 2.124254 h 1.210281 v -0.357803 h -0.889035 v -0.57824 h 0.798928 v -0.357939 h -0.798928 v -0.470895 h 0.85861 v -0.359375 z m 2.839481,0 v 2.124254 h 0.604614 c 0.118677,0 0.213507,-0.01498 0.284421,-0.04492 0.09479,-0.04057 0.170062,-0.09705 0.225782,-0.169501 0.07381,-0.09564 0.130618,-0.220737 0.170414,-0.375308 0.03256,-0.126554 0.04884,-0.277232 0.04884,-0.45209 0,-0.199009 -0.01736,-0.366203 -0.0521,-0.501453 -0.03473,-0.136216 -0.08543,-0.251173 -0.15201,-0.344881 -0.06657,-0.09371 -0.146538,-0.158907 -0.239879,-0.195618 -0.06948,-0.02705 -0.170414,-0.04048 -0.302833,-0.04048 z m 2.064582,0 -0.619899,2.124254 h 0.340828 l 0.131371,-0.482518 h 0.636093 l 0.138944,0.482518 h 0.349442 l -0.637132,-2.124254 z m 1.150463,0 v 2.124254 h 0.29852 v -1.385266 l 0.641446,1.385266 h 0.322419 v -2.124255 h -0.29852 v 1.418564 l -0.651236,-1.418564 z m 3.331266,0 v 2.124254 h 1.210149 v -0.357803 h -0.888902 v -0.57824 h 0.798928 v -0.357939 h -0.798928 v -0.470895 h 0.858609 v -0.359375 z m 1.48373,0 v 2.124254 h 0.321243 v -0.886816 h 0.06516 c 0.07381,0 0.127789,0.0082 0.161797,0.02469 0.03402,0.01545 0.06611,0.04493 0.0965,0.0884 0.0304,0.0425 0.08688,0.146386 0.169374,0.31158 l 0.232313,0.462147 h 0.384185 l -0.194309,-0.414352 c -0.07671,-0.165196 -0.137759,-0.280154 -0.183346,-0.34488 -0.04486,-0.06472 -0.102123,-0.124151 -0.171586,-0.17825 0.139655,-0.02705 0.244644,-0.09225 0.314835,-0.195619 0.0702,-0.104334 0.10526,-0.236276 0.10526,-0.395679 0,-0.125588 -0.02318,-0.23712 -0.06948,-0.334693 -0.04631,-0.09757 -0.108133,-0.165254 -0.185563,-0.202932 -0.0767,-0.03865 -0.20016,-0.05785 -0.370213,-0.05785 z m 3.331139,0 v 1.1331 c 0,0.237653 0.01062,0.417339 0.03159,0.539062 0.0145,0.08212 0.04439,0.16088 0.08997,0.236232 0.04559,0.07439 0.107543,0.135223 0.185695,0.182559 0.07887,0.04637 0.194225,0.06961 0.346187,0.06961 0.125911,0 0.227946,-0.02122 0.306094,-0.06373 0.07815,-0.04347 0.140434,-0.101488 0.186739,-0.173941 0.04703,-0.07246 0.07927,-0.161358 0.09663,-0.266659 0.01736,-0.105303 0.02599,-0.285459 0.02599,-0.540499 V 37.69825 h -0.321243 v 1.17515 c 0,0.168094 -0.0047,0.288357 -0.0141,0.360811 -0.0094,0.07246 -0.03727,0.133763 -0.08358,0.183996 -0.04631,0.04927 -0.115019,0.07391 -0.206196,0.07391 -0.08973,0 -0.16076,-0.02605 -0.212855,-0.07822 -0.05138,-0.05313 -0.08393,-0.123167 -0.09768,-0.210114 -0.0079,-0.0541 -0.0119,-0.172479 -0.0119,-0.355065 v -1.150474 z m 7.037977,0 v 2.124254 h 0.29852 v -1.672164 l 0.314712,1.672164 h 0.309363 l 0.31589,-1.672164 v 1.672164 h 0.298515 v -2.124255 h -0.48199 l -0.285468,1.44899 -0.28872,-1.44899 z m 1.856158,0 v 2.124254 h 0.321248 v -0.801282 h 0.209457 c 0.145444,0 0.256556,-0.01014 0.333254,-0.03042 0.05644,-0.01642 0.111838,-0.0498 0.16611,-0.100031 0.055,-0.0512 0.100223,-0.121234 0.13568,-0.210114 0.03547,-0.08888 0.05315,-0.198527 0.05315,-0.328949 0,-0.169059 -0.0308,-0.306648 -0.09233,-0.412914 -0.06151,-0.107237 -0.137738,-0.176801 -0.228916,-0.208682 -0.05934,-0.02125 -0.186722,-0.03186 -0.382101,-0.03186 z m 1.775725,0 -0.619771,2.124254 h 0.340833 l 0.131366,-0.482518 h 0.635964 l 0.138944,0.482518 h 0.349581 l -0.637133,-2.124255 z m 1.1506,0 v 2.124254 h 0.298383 v -1.385266 l 0.641574,1.385266 h 0.32229 v -2.124255 h -0.298388 v 1.418564 l -0.651367,-1.418564 z m 1.59224,0 v 2.124254 h 0.321372 v -2.124255 z m 2.359706,0 v 2.124254 h 0.298515 v -1.385266 l 0.641577,1.385266 H 51.83332 V 37.698253 H 51.5348 v 1.418564 l -0.651236,-1.418564 z m -33.297676,0.01737 v 2.106886 h 1.120174 v -0.357801 h -0.798927 v -1.74908 z m 16.506174,0.313017 c 0.132419,0 0.23838,0.0599 0.317977,0.179689 0.08032,0.119791 0.120532,0.301361 0.120532,0.544808 0,0.246346 -0.04129,0.431338 -0.123801,0.554994 -0.08176,0.122691 -0.186633,0.183996 -0.314708,0.183996 -0.12808,0 -0.233846,-0.06178 -0.317066,-0.185432 -0.08321,-0.124621 -0.124709,-0.307131 -0.124709,-0.547682 0,-0.244414 0.0404,-0.427053 0.121444,-0.547812 0.08105,-0.121723 0.187902,-0.182561 0.320331,-0.182561 z m 7.040061,0 c 0.132424,0 0.238384,0.0599 0.317981,0.179689 0.08032,0.119791 0.120527,0.301361 0.120527,0.544808 0,0.246346 -0.04129,0.431338 -0.123792,0.554994 -0.08177,0.122691 -0.186633,0.183996 -0.314716,0.183996 -0.128076,0 -0.23372,-0.06178 -0.316934,-0.185432 -0.08321,-0.124621 -0.124841,-0.307131 -0.124841,-0.547682 0,-0.244414 0.04054,-0.427053 0.121579,-0.547812 0.08104,-0.121723 0.187771,-0.182561 0.320196,-0.182561 z m 8.726858,0 c 0.132425,0 0.238376,0.0599 0.317974,0.179689 0.08033,0.119791 0.120535,0.301361 0.120535,0.544808 -8e-6,0.246346 -0.04129,0.431338 -0.123796,0.554994 -0.08178,0.122691 -0.186638,0.183996 -0.314713,0.183996 -0.128084,0 -0.233726,-0.06178 -0.316938,-0.185432 -0.08321,-0.124621 -0.124845,-0.307131 -0.124845,-0.547682 0,-0.244414 0.04054,-0.427053 0.121581,-0.547812 0.08105,-0.121723 0.187778,-0.182561 0.320202,-0.182561 z m -25.787627,0.02899 h 0.144294 c 0.130983,0 0.218923,0.0067 0.263786,0.02024 0.06006,0.01739 0.109665,0.05076 0.14874,0.10003 0.03909,0.04927 0.06944,0.117762 0.09115,0.205673 0.02172,0.08791 0.03252,0.21408 0.03252,0.378311 0,0.164232 -0.01079,0.294162 -0.03252,0.389802 -0.02172,0.09467 -0.05002,0.162696 -0.08475,0.204237 -0.03402,0.04155 -0.07705,0.07103 -0.129151,0.0884 -0.03979,0.01353 -0.104581,0.02037 -0.194313,0.02037 h -0.239758 z m 8.029908,0 h 0.250726 c 0.130256,-10e-7 0.208484,0.0023 0.234537,0.0072 0.0521,0.01159 0.09218,0.03966 0.1204,0.0841 0.02895,0.04347 0.04349,0.100887 0.04349,0.172375 0,0.06376 -0.01079,0.116942 -0.03252,0.159446 -0.02172,0.04251 -0.05176,0.07246 -0.0901,0.08984 -0.03834,0.01739 -0.134596,0.02612 -0.288729,0.02612 h -0.237797 z m 12.225279,0 h 0.155261 c 0.115782,0 0.192785,0.0049 0.231145,0.0145 0.0521,0.01256 0.09513,0.04391 0.129145,0.09415 0.03402,0.05023 0.05107,0.114023 0.05107,0.191309 0,0.06279 -0.01238,0.117858 -0.03697,0.165192 -0.02388,0.04734 -0.0572,0.08212 -0.09989,0.104339 -0.0427,0.02222 -0.127357,0.03331 -0.253991,0.03331 h -0.175772 z m -18.346009,0.136203 0.219257,0.788223 h -0.434072 z m 19.966587,0 0.219253,0.788223 h -0.434196 z m -23.497528,0.08984 v 0.407171 h 0.305054 v -0.407171 z m 0,1.131667 v 0.407169 h 0.305054 v -0.407169 z" />
  </g>
</svg>
