<?xml version="1.0" encoding="UTF-8" standalone="no"?>
<svg
   xmlns:dc="http://purl.org/dc/elements/1.1/"
   xmlns:cc="http://creativecommons.org/ns#"
   xmlns:rdf="http://www.w3.org/1999/02/22-rdf-syntax-ns#"
   xmlns:svg="http://www.w3.org/2000/svg"
   xmlns="http://www.w3.org/2000/svg"
   xmlns:sodipodi="http://sodipodi.sourceforge.net/DTD/sodipodi-0.dtd"
   xmlns:inkscape="http://www.inkscape.org/namespaces/inkscape"
   inkscape:export-ydpi="96"
   inkscape:export-xdpi="96"
   inkscape:export-filename="C:\Users\keath\Workspace\KMX\elite-streamdeck-icons\ship-lights.png"
   sodipodi:docname="nav-panel.svg"
   inkscape:version="1.0.1 (3bc2e813f5, 2020-09-07)"
   id="svg8"
   version="1.1"
   viewBox="0 0 67.733332 67.733335"
   height="256"
   width="256">
  <defs
     id="defs2">
    <inkscape:path-effect
       effect="fillet_chamfer"
       id="path-effect1414"
       is_visible="true"
       lpeversion="1"
       satellites_param="F,0,0,1,0,0,0,1 @ F,0,0,1,0,0,0,1 @ F,0,0,1,0,0,0,1"
       unit="px"
       method="bezier"
       mode="F"
       radius="0"
       chamfer_steps="1"
       flexible="false"
       use_knot_distance="true"
       apply_no_radius="true"
       apply_with_radius="true"
       only_selected="false"
       hide_knots="false" />
  </defs>
  <sodipodi:namedview
     id="base"
     pagecolor="#000000"
     bordercolor="#666666"
     borderopacity="1.0"
     inkscape:pageopacity="0"
     inkscape:pageshadow="2"
     inkscape:zoom="2.8"
     inkscape:cx="2.5644638"
     inkscape:cy="103.66063"
     inkscape:document-units="px"
     inkscape:current-layer="layer2"
     showgrid="true"
     units="px"
     inkscape:snap-grids="true"
     objecttolerance="10000"
     guidetolerance="10000"
     inkscape:window-width="3840"
     inkscape:window-height="2066"
     inkscape:window-x="-11"
     inkscape:window-y="-11"
     inkscape:window-maximized="1"
     inkscape:document-rotation="0"
     showguides="true">
    <inkscape:grid
       type="xygrid"
       id="grid4623" />
    <sodipodi:guide
       position="-3.96875,62.441667"
       orientation="0,256"
       id="guide3351" />
    <sodipodi:guide
       position="62.177083,70.379167"
       orientation="256,0"
       id="guide3353" />
    <sodipodi:guide
       position="-2.6458333,22.754167"
       orientation="0,-256"
       id="guide3355" />
    <sodipodi:guide
       position="5.2916667,70.379167"
       orientation="-256,0"
       id="guide3357" />
    <sodipodi:guide
       position="0,67.733334"
       orientation="0,256"
       id="guide3359" />
    <sodipodi:guide
       position="67.733334,67.733334"
       orientation="256,0"
       id="guide3361" />
    <sodipodi:guide
       position="67.733334,0"
       orientation="0,-256"
       id="guide3363" />
    <sodipodi:guide
       position="0,0"
       orientation="-256,0"
       id="guide3365" />
    <sodipodi:guide
       position="0,67.733334"
       orientation="0,256"
       id="guide3367" />
    <sodipodi:guide
       position="67.733334,67.733334"
       orientation="256,0"
       id="guide3369" />
    <sodipodi:guide
       position="67.733334,0"
       orientation="0,-256"
       id="guide3371" />
    <sodipodi:guide
       position="0,0"
       orientation="-256,0"
       id="guide3373" />
    <sodipodi:guide
       position="0,67.733334"
       orientation="0,256"
       id="guide3375" />
    <sodipodi:guide
       position="67.733334,67.733334"
       orientation="256,0"
       id="guide3377" />
    <sodipodi:guide
       position="67.733334,0"
       orientation="0,-256"
       id="guide3379" />
    <sodipodi:guide
       position="0,0"
       orientation="-256,0"
       id="guide3381" />
  </sodipodi:namedview>
  <metadata
     id="metadata5">
    <rdf:RDF>
      <cc:Work
         rdf:about="">
        <dc:format>image/svg+xml</dc:format>
        <dc:type
           rdf:resource="http://purl.org/dc/dcmitype/StillImage" />
        <dc:title />
      </cc:Work>
    </rdf:RDF>
  </metadata>
  <g
     inkscape:groupmode="layer"
     id="layer2"
     inkscape:label="Icon">
    <path
       id="path903"
       style="color:#000000;font-style:normal;font-variant:normal;font-weight:normal;font-stretch:normal;font-size:medium;line-height:normal;font-family:sans-serif;font-variant-ligatures:normal;font-variant-position:normal;font-variant-caps:normal;font-variant-numeric:normal;font-variant-alternates:normal;font-variant-east-asian:normal;font-feature-settings:normal;font-variation-settings:normal;text-indent:0;text-align:start;text-decoration:none;text-decoration-line:none;text-decoration-style:solid;text-decoration-color:#000000;letter-spacing:normal;word-spacing:normal;text-transform:none;writing-mode:lr-tb;direction:ltr;text-orientation:mixed;dominant-baseline:auto;baseline-shift:baseline;text-anchor:start;white-space:normal;shape-padding:0;shape-margin:0;inline-size:0;clip-rule:nonzero;display:inline;overflow:visible;visibility:visible;opacity:1;isolation:auto;mix-blend-mode:normal;color-interpolation:sRGB;color-interpolation-filters:linearRGB;solid-color:#000000;solid-opacity:1;vector-effect:none;fill:#808080;fill-opacity:1;fill-rule:nonzero;stroke:none;stroke-width:9.56889;stroke-linecap:round;stroke-linejoin:round;stroke-miterlimit:4;stroke-dasharray:none;stroke-dashoffset:0;stroke-opacity:1;color-rendering:auto;image-rendering:auto;shape-rendering:auto;text-rendering:auto;enable-background:accumulate;stop-color:#000000;stop-opacity:1"
       d="M 25.333984,19.349609 A 4.7156005,4.8552824 0 0 0 20.625,24.208984 V 164.46094 a 4.7156005,4.8552824 0 0 0 4.708984,4.85156 H 229.65625 a 4.7156005,4.8552824 0 0 0 4.71875,-4.85156 V 24.208984 a 4.7156005,4.8552824 0 0 0 -4.71875,-4.859375 z m 4.71875,9.71875 H 224.94727 V 159.60352 H 30.052734 Z M 56.623047,35 v 6.205078 H 35.630859 v 1.074219 H 56.623047 V 58.732422 H 35.630859 v 1.074219 H 56.623047 V 76.261719 H 35.630859 V 77.34375 H 56.623047 V 93.798828 H 35.630859 v 1.074219 h 20.992188 v 6.181643 c 0.342192,-0.22572 0.689592,-0.44373 1.042969,-0.65235 v -5.529293 h 22.533203 v 4.269531 c 0.08008,0.04002 0.162507,0.0741 0.242187,0.115234 l 0.800782,-0.728515 v -3.65625 h 4.021484 l 1.18164,-1.074219 H 81.242188 V 77.34375 h 22.531252 v 0.683594 c 0.64497,-0.590519 1.2937,-1.176194 1.93945,-1.765625 h -0.89453 V 59.806641 h 10.39453 c 0.0208,-0.359074 0.0565,-0.716615 0.10156,-1.074219 H 104.81836 V 42.279297 h 22.53125 v 2.046875 c 0.34395,-0.09153 0.69205,-0.169143 1.04492,-0.234375 v -1.8125 h 22.53125 v 16.453125 h -2.88867 c 0.0425,0.357178 0.0728,0.715428 0.0918,1.074219 h 2.79687 v 11.794921 c 0.34809,0.421487 0.69455,0.844414 1.04297,1.265626 V 59.806641 h 22.5332 v 16.455078 h -19.71484 c 0.30021,0.36115 0.60182,0.721137 0.90234,1.082031 h 18.8125 v 1.802734 c 0.34904,0.04233 0.69596,0.09319 1.04297,0.148438 V 77.34375 h 22.53125 v 16.455078 h -1.02539 c 0.21624,0.353716 0.42578,0.71155 0.62695,1.074219 h 0.39844 v 0.730469 c 0.38138,0.736445 0.72845,1.490981 1.04492,2.259765 v -2.990234 h 19.87696 V 93.798828 H 199.12109 V 77.34375 h 19.87696 V 76.261719 H 199.12109 V 59.806641 h 19.87696 V 58.732422 H 199.12109 V 42.279297 h 19.87696 V 41.205078 H 199.12109 V 35 h -1.04492 v 6.205078 H 175.54492 V 35 h -1.04297 v 6.205078 h -22.5332 V 35 h -1.04297 v 6.205078 H 128.39453 V 35 h -1.04492 v 6.205078 H 104.81836 V 35 h -1.04492 v 6.205078 H 81.242188 V 35 h -1.042969 v 6.205078 H 57.666016 V 35 Z m 1.042969,7.279297 H 80.199219 V 58.732422 H 57.666016 Z m 23.576172,0 H 103.77344 V 58.732422 H 81.242188 Z m 70.726562,0 h 22.5332 v 16.453125 h -22.5332 z m 23.57617,0 h 22.53125 V 58.732422 H 175.54492 Z M 57.666016,59.806641 H 80.199219 V 76.261719 H 57.666016 Z m 23.576172,0 H 103.77344 V 76.261719 H 81.242188 Z m 94.302732,0 h 22.53125 V 76.261719 H 175.54492 Z M 129.2793,76.521484 c -0.64362,0.582902 -1.28611,1.167065 -1.92969,1.75 v 15.527344 h -17.11719 c -0.39496,0.358315 -0.79061,0.715874 -1.18554,1.074219 h 18.30273 v 14.167973 c 0.34846,-0.0222 0.69649,-0.0443 1.04492,-0.0664 V 94.873047 h 15.93164 c 0.19666,-0.363382 0.40612,-0.71913 0.61719,-1.074219 H 128.39453 V 77.34375 h 6.48438 l -0.21485,-0.257812 c -1.26886,-1.227073 -3.67235,0.157493 -5.38476,-0.564454 z M 57.666016,77.34375 H 80.199219 V 93.798828 H 57.666016 Z m 47.152344,21.365234 c -0.34839,0.316308 -0.69655,0.632884 -1.04492,0.949219 v 10.857417 c 0.348,-0.021 0.69683,-0.0433 1.04492,-0.0644 z M 35.630859,111.32617 v 1.07422 h 12.085938 c 0.08241,-0.22048 0.15985,-0.44185 0.25,-0.66016 0.05125,-0.14018 0.111858,-0.2755 0.166015,-0.41406 z m 165.691411,0 c -0.0284,0.35878 -0.0662,0.71656 -0.10743,1.07422 h 17.78321 v -1.07422 z m -2.20118,9.24805 c -0.31686,0.78329 -0.66738,1.55232 -1.04492,2.30859 v 5.97266 h -3.86328 c -0.30158,0.36765 -0.60963,0.72883 -0.92773,1.08203 h 4.79101 v 16.45508 h -22.53125 v -6.92383 c -0.34733,0.0489 -0.69413,0.0947 -1.04297,0.13086 v 6.79297 h -22.5332 v -13.3418 c -0.35457,-0.27727 -0.70136,-0.56457 -1.04297,-0.85742 v 14.19922 H 128.39453 V 129.9375 h 20.16992 c -0.32797,-0.35212 -0.64713,-0.71322 -0.95703,-1.08203 h -19.21289 v -3.88086 c -0.34826,0.0214 -0.69656,0.0449 -1.04492,0.0664 v 3.81445 h -22.53125 v -2.39258 c -0.34848,0.0218 -0.69653,0.0428 -1.04492,0.0644 v 2.32813 H 92.15625 c -1e-5,7.1e-4 9e-6,0.001 0,0.002 -0.123113,0.3647 -0.255991,0.72584 -0.398438,1.08008 h 12.015628 v 16.45508 H 81.242188 v -5.10547 c -0.343625,0.18174 -0.691054,0.35384 -1.042969,0.51953 v 4.58594 H 57.666016 v -5.53906 c -0.354827,-0.21558 -0.702241,-0.4424 -1.042969,-0.67774 v 6.2168 H 35.630859 v 1.07422 h 20.992188 v 6.20312 h 1.042969 v -6.20312 h 22.533203 v 6.20312 h 1.042969 v -6.20312 h 22.531252 v 6.20312 h 1.04492 v -6.20312 h 22.53125 v 6.20312 h 1.04492 v -6.20312 h 22.53125 v 6.20312 h 1.04297 v -6.20312 h 22.5332 v 6.20312 h 1.04297 v -6.20312 h 22.53125 v 6.20312 h 1.04492 v -6.20312 h 19.87696 v -1.07422 H 199.12109 V 129.9375 h 19.87696 v -1.08203 h -19.87696 z m -163.490231,8.28125 v 1.08203 h 12.757813 c -0.153455,-0.35739 -0.298566,-0.71789 -0.435547,-1.08203 z m 69.187501,1.08203 h 22.53125 v 16.45508 h -22.53125 z"
       transform="scale(0.26458333)" />
    <path
       id="path3248"
       style="fill:#808080;fill-opacity:1;stroke:none;stroke-width:6.99999;stroke-linecap:butt;stroke-linejoin:round;stroke-miterlimit:4;stroke-dasharray:none;stroke-dashoffset:6.00002;stroke-opacity:1;paint-order:markers fill stroke"
       d="M 131.59375,49.822266 A 10.446428,10.446428 0 0 0 121.25,60.267578 a 10.446428,10.446428 0 0 0 2.96289,7.289063 L 81.085938,106.76562 A 17.678572,17.678572 0 0 0 70,102.85742 17.678572,17.678572 0 0 0 52.322266,120.53516 17.678572,17.678572 0 0 0 70,138.21484 17.678572,17.678572 0 0 0 87.650391,121.52148 l 60.441409,-3.77343 a 24.375,24.375 0 0 0 22.89062,16.00195 24.375,24.375 0 0 0 24.375,-24.375 24.375,24.375 0 0 0 -24.375,-24.375 24.375,24.375 0 0 0 -13.3789,4 L 139.47266,67.244141 a 10.446428,10.446428 0 0 0 2.66992,-6.976563 10.446428,10.446428 0 0 0 -10.44531,-10.445312 10.446428,10.446428 0 0 0 -0.10352,0 z m 4.68359,19.833984 18.17383,21.806641 a 24.375,24.375 0 0 0 -7.84375,17.912109 24.375,24.375 0 0 0 0.40625,4.43164 l -59.591795,3.72852 a 17.678572,17.678572 0 0 0 -3.523437,-7.92383 L 127.60547,69.878906 a 10.446428,10.446428 0 0 0 4.0918,0.835938 10.446428,10.446428 0 0 0 4.58007,-1.058594 z"
       transform="scale(0.26458333)" />
  </g>
</svg>
