<?xml version="1.0" encoding="UTF-8" standalone="no"?>
<svg
   xmlns:dc="http://purl.org/dc/elements/1.1/"
   xmlns:cc="http://creativecommons.org/ns#"
   xmlns:rdf="http://www.w3.org/1999/02/22-rdf-syntax-ns#"
   xmlns:svg="http://www.w3.org/2000/svg"
   xmlns="http://www.w3.org/2000/svg"
   xmlns:sodipodi="http://sodipodi.sourceforge.net/DTD/sodipodi-0.dtd"
   xmlns:inkscape="http://www.inkscape.org/namespaces/inkscape"
   width="256"
   height="256"
   viewBox="0 0 67.733332 67.733335"
   version="1.1"
   id="svg8"
   inkscape:version="1.0.1 (3bc2e813f5, 2020-09-07)"
   sodipodi:docname="next-firegroup.svg"
   inkscape:export-filename="C:\Users\keath\Workspace\KMX\elite-streamdeck-icons\ship-lights.png"
   inkscape:export-xdpi="96"
   inkscape:export-ydpi="96">
  <defs
     id="defs2" />
  <sodipodi:namedview
     id="base"
     pagecolor="#000000"
     bordercolor="#666666"
     borderopacity="1.0"
     inkscape:pageopacity="0"
     inkscape:pageshadow="2"
     inkscape:zoom="5.6"
     inkscape:cx="159.04337"
     inkscape:cy="126.17749"
     inkscape:document-units="px"
     inkscape:current-layer="layer2"
     showgrid="true"
     units="px"
     inkscape:snap-grids="true"
     objecttolerance="10000"
     guidetolerance="10000"
     inkscape:window-width="3840"
     inkscape:window-height="2066"
     inkscape:window-x="3829"
     inkscape:window-y="-11"
     inkscape:window-maximized="1"
     inkscape:document-rotation="0"
     showguides="true"
     inkscape:guide-bbox="true">
    <inkscape:grid
       type="xygrid"
       id="grid4623" />
    <sodipodi:guide
       position="-3.96875,62.441667"
       orientation="0,256"
       id="guide3351" />
    <sodipodi:guide
       position="62.441667,42.597917"
       orientation="-1,0"
       id="guide3353"
       inkscape:label=""
       inkscape:locked="false"
       inkscape:color="rgb(0,0,255)" />
    <sodipodi:guide
       position="-2.6458333,22.754167"
       orientation="0,-256"
       id="guide3355" />
    <sodipodi:guide
       position="5.2916667,70.379167"
       orientation="-256,0"
       id="guide3357" />
    <sodipodi:guide
       position="0,67.733334"
       orientation="0,256"
       id="guide3359" />
    <sodipodi:guide
       position="67.733334,67.733334"
       orientation="256,0"
       id="guide3361" />
    <sodipodi:guide
       position="67.733334,0"
       orientation="0,-256"
       id="guide3363" />
    <sodipodi:guide
       position="0,0"
       orientation="-256,0"
       id="guide3365" />
    <sodipodi:guide
       position="0,67.733334"
       orientation="0,256"
       id="guide3367" />
    <sodipodi:guide
       position="67.733334,67.733334"
       orientation="256,0"
       id="guide3369" />
    <sodipodi:guide
       position="67.733334,0"
       orientation="0,-256"
       id="guide3371" />
    <sodipodi:guide
       position="0,0"
       orientation="-256,0"
       id="guide3373" />
    <sodipodi:guide
       position="0,67.733334"
       orientation="0,256"
       id="guide3375" />
    <sodipodi:guide
       position="67.733334,67.733334"
       orientation="256,0"
       id="guide3377" />
    <sodipodi:guide
       position="67.733334,0"
       orientation="0,-256"
       id="guide3379" />
    <sodipodi:guide
       position="0,0"
       orientation="-256,0"
       id="guide3381" />
    <sodipodi:guide
       position="33.866667,46.83125"
       orientation="1,0"
       id="guide895" />
    <sodipodi:guide
       position="41.010417,42.597917"
       orientation="0,-1"
       id="guide897" />
  </sodipodi:namedview>
  <metadata
     id="metadata5">
    <rdf:RDF>
      <cc:Work
         rdf:about="">
        <dc:format>image/svg+xml</dc:format>
        <dc:type
           rdf:resource="http://purl.org/dc/dcmitype/StillImage" />
        <dc:title></dc:title>
      </cc:Work>
    </rdf:RDF>
  </metadata>
  <g
     inkscape:groupmode="layer"
     id="layer2"
     inkscape:label="Icon">
    <path
       id="path852"
       style="color:#000000;font-style:normal;font-variant:normal;font-weight:normal;font-stretch:normal;font-size:medium;line-height:normal;font-family:sans-serif;font-variant-ligatures:normal;font-variant-position:normal;font-variant-caps:normal;font-variant-numeric:normal;font-variant-alternates:normal;font-variant-east-asian:normal;font-feature-settings:normal;font-variation-settings:normal;text-indent:0;text-align:start;text-decoration:none;text-decoration-line:none;text-decoration-style:solid;text-decoration-color:#000000;letter-spacing:normal;word-spacing:normal;text-transform:none;writing-mode:lr-tb;direction:ltr;text-orientation:mixed;dominant-baseline:auto;baseline-shift:baseline;text-anchor:start;white-space:normal;shape-padding:0;shape-margin:0;inline-size:0;clip-rule:nonzero;display:inline;overflow:visible;visibility:visible;isolation:auto;mix-blend-mode:normal;color-interpolation:sRGB;color-interpolation-filters:linearRGB;solid-color:#000000;solid-opacity:1;vector-effect:none;fill:#808080;fill-opacity:1;fill-rule:nonzero;stroke:none;stroke-width:0.264582;stroke-linecap:butt;stroke-linejoin:miter;stroke-miterlimit:4;stroke-dasharray:none;stroke-dashoffset:0;stroke-opacity:1;color-rendering:auto;image-rendering:auto;shape-rendering:auto;text-rendering:auto;enable-background:accumulate;stop-color:#000000"
       d="m 9.4046681,11.986264 -0.064319,0.04572 -0.5106979,0.371204 -0.2534116,0.185216 -0.6587133,0.478923 0.3549307,0.488997 0.1867653,0.254189 0.1852151,0.254958 0.370429,0.509148 0.1844407,0.254187 0.1852153,0.254187 0.3712048,0.510696 0.1852155,0.254962 0.1844393,0.254963 0.371207,0.509147 0.185215,0.254959 0.18444,0.254962 0.371204,0.5076 0.185217,0.256509 0.184439,0.253411 0.371204,0.510699 0.185217,0.253412 0.184438,0.255735 0.371207,0.508372 0.185213,0.254963 0.185217,0.254184 0.370428,0.511473 0.185215,0.253411 0.184442,0.254186 0.371204,0.510699 0.185216,0.253413 0.185213,0.254961 0.184441,0.25496 0.113148,0.155768 0.0558,-0.127098 c 0.05942,-0.136376 0.133598,-0.264853 0.223963,-0.380504 l 0.0032,-0.0032 0.0014,-0.0038 c 0.03692,-0.05912 0.07912,-0.113509 0.123232,-0.165841 l 0.0403,-0.04803 -0.108501,-0.146529 -0.183709,-0.253377 -0.18599,-0.254958 -0.371205,-0.5107 -0.184441,-0.25496 -0.185215,-0.254186 -0.371204,-0.509923 -0.185215,-0.254186 -0.184441,-0.254961 -0.370429,-0.508373 -0.18599,-0.255736 -0.18444,-0.253412 -0.370431,-0.509923 -0.184441,-0.254185 -0.18599,-0.254961 -0.370429,-0.509149 -0.18444,-0.254962 -0.18675,-0.254982 L 10.76311,15.639353 10.577895,15.384392 10.392751,15.129418 10.022321,14.619497 9.8371052,14.364534 9.65189,14.111123 9.2822353,13.602751 9.0962445,13.347015 l -0.076716,-0.106176 0.020917,-0.01395 0.1906398,-0.139497 0.1387161,0.190639 0.1844394,0.254962 0.1852167,0.254963 0.3712045,0.509146 0.184439,0.254961 0.185215,0.254187 0.371205,0.509923 0.184439,0.254962 0.185216,0.254185 0.369657,0.509923 0.186765,0.254187 0.18444,0.25496 0.369653,0.509147 0.186765,0.254188 0.184441,0.255734 0.371205,0.50915 0.185216,0.25496 0.184439,0.253412 0.371205,0.510698 0.185217,0.254962 0.184438,0.25341 0.371206,0.510698 0.185215,0.254186 0.185215,0.254187 0.369656,0.509146 0.216211,0.297585 0.06277,-0.04185 c 0.173767,-0.115582 0.369502,-0.192302 0.575795,-0.230937 l 0.121667,-0.02248 -0.151892,-0.210789 -0.186002,-0.255653 -0.369665,-0.508366 -0.185217,-0.254961 -0.185988,-0.254187 -0.371207,-0.509923 -0.185214,-0.254187 -0.185216,-0.25496 -0.37043,-0.510699 -0.185215,-0.253411 -0.184438,-0.25496 -0.370432,-0.509148 -0.185989,-0.256511 -0.185216,-0.252637 -0.369653,-0.509922 -0.185216,-0.254962 -0.18599,-0.254187 -0.369656,-0.509921 -0.185215,-0.254188 -0.185989,-0.254959 -0.370425,-0.509929 -0.185214,-0.254188 -0.185216,-0.254961 -0.371205,-0.509148 -0.18444,-0.25496 -0.185217,-0.254963 -0.3696526,-0.50837 z m 14.4506479,0.121668 -0.04803,0.06199 -0.320832,0.416151 -0.19219,0.248761 -0.192964,0.250311 -0.383603,0.498299 -0.192966,0.249535 -0.192189,0.248762 -0.385154,0.500624 -0.191416,0.248763 -0.192964,0.248761 -0.385155,0.499073 -0.19219,0.250312 -0.192188,0.248761 -0.38438,0.497522 -0.192964,0.250313 -0.19219,0.248761 -0.383605,0.499073 -0.19219,0.248762 -0.192964,0.251085 -0.385153,0.4983 -0.19219,0.24876 -0.191416,0.248762 -0.385153,0.500624 -0.192191,0.248763 -0.192964,0.248759 -0.385154,0.499075 -0.191417,0.249535 -0.192188,0.249538 -0.19219,0.248761 -0.117013,0.151893 0.135612,0.01782 c 0.14764,0.01868 0.292228,0.05354 0.428552,0.107718 l 0.0047,0.0015 0.0032,0.0014 c 0.06734,0.01883 0.132073,0.04301 0.194516,0.07052 l 0.05656,0.02481 0.110821,-0.143366 0.19219,-0.248761 0.191414,-0.248763 0.385155,-0.500623 0.192964,-0.248761 0.19219,-0.248761 0.385156,-0.500624 0.191412,-0.24876 0.19219,-0.248763 0.385155,-0.497523 0.192964,-0.251086 0.192191,-0.249537 0.383602,-0.497524 0.192193,-0.248761 0.192963,-0.251087 0.385154,-0.498297 0.191415,-0.249538 0.192189,-0.249535 0.385155,-0.498299 0.192964,-0.249537 0.191415,-0.248761 0.385159,-0.499843 0.192189,-0.249538 0.19219,-0.248761 0.385155,-0.497523 0.192188,-0.251088 0.07983,-0.102286 0.01938,0.01469 0.187539,0.144145 -0.144145,0.185989 -0.19219,0.249539 -0.19219,0.248762 -0.38438,0.499072 -0.193739,0.249535 -0.191413,0.249537 -0.385155,0.498299 -0.192965,0.250313 -0.192189,0.24876 -0.383605,0.498298 -0.192965,0.250312 -0.192189,0.249538 -0.385154,0.498297 -0.191415,0.248761 -0.192964,0.249536 -0.384379,0.499075 -0.191416,0.249536 -0.192189,0.247986 -0.386704,0.500622 -0.191415,0.248762 -0.192189,0.248763 -0.385154,0.500625 -0.192966,0.248761 -0.191415,0.248759 -0.384379,0.4983 -0.223964,0.291384 0.05813,0.04806 c 0.159763,0.134231 0.287717,0.300312 0.38283,0.487449 l 0.05656,0.111583 0.158091,-0.206913 0.192963,-0.250312 0.384381,-0.497523 0.191416,-0.249535 0.193738,-0.249539 0.384379,-0.499073 0.19219,-0.24876 0.192189,-0.249537 0.384381,-0.499848 0.192963,-0.248763 0.19219,-0.249536 0.383605,-0.497523 0.193739,-0.251087 0.191417,-0.248762 0.385154,-0.499073 0.192188,-0.248761 0.192966,-0.250311 0.383604,-0.497525 0.19219,-0.249536 0.192964,-0.249537 0.385155,-0.499072 0.191412,-0.248762 0.192191,-0.248762 0.385929,-0.500623 0.19219,-0.248761 0.19219,-0.248761 0.383605,-0.499074 0.241784,-0.313083 -0.562617,-0.432428 -0.249538,-0.192188 z m -13.606717,7.510119 -0.01002,0.07904 -0.04185,0.312311 -0.7517105,5.592098 13.2680625,1.78008 0.139496,-1.03922 5.461132,0.731561 -0.04187,0.313082 0.781159,0.103853 0.04185,-0.312307 1.039992,0.14026 0.139497,-1.039994 3.120755,0.418476 0.245662,-1.820378 -3.122308,-0.420026 0.140275,-1.04077 -1.039995,-0.139496 0.04186,-0.311533 -0.781932,-0.10462 -0.04186,0.311533 -5.46113,-0.733111 0.140259,-1.039994 -3.781796,-0.508373 -0.02789,0.03643 c -0.148329,0.192402 -0.295781,0.385761 -0.444053,0.578119 l -0.08369,0.107718 3.45089,0.463426 -0.593619,4.421137 -11.704194,-1.570065 0.592841,-4.421136 2.298527,0.308432 -0.108493,-0.149573 c -0.17078,-0.235164 -0.341368,-0.470766 -0.512268,-0.705983 l -0.02015,-0.02635 z m 5.576599,0.748609 0.107718,0.148794 c 0.158135,0.21736 0.316899,0.435927 0.475049,0.653289 l 0.06122,0.08523 0.06509,-0.0829 c 0.13744,-0.178098 0.274886,-0.356667 0.412277,-0.53472 l 0.08369,-0.108494 z m -4.765221,0.314633 -0.01083,0.07826 -0.02789,0.208464 -0.17824,1.32518 3.829067,0.514572 -0.106943,-0.148793 C 14.452088,22.50299 14.337173,22.345984 14.224159,22.19013 l -0.01938,-0.02711 -2.712354,-0.363455 0.06278,-0.468849 2.265204,0.304557 -0.107718,-0.148794 c -0.11345,-0.156339 -0.229086,-0.314123 -0.34254,-0.470401 l -0.01938,-0.02635 z m 5.449509,1.03147 c -0.439346,0.01469 -0.869571,0.219118 -1.157788,0.592843 -0.512369,0.664387 -0.38773,1.624963 0.27666,2.137334 0.664386,0.512372 1.625744,0.388502 2.13811,-0.275884 0.512367,-0.664388 0.3885,-1.625742 -0.275885,-2.13811 -0.290668,-0.224163 -0.639391,-0.327612 -0.981097,-0.316183 z m 2.558137,0.04341 -0.02789,0.03643 c -0.09857,0.127887 -0.198175,0.255614 -0.29681,0.383603 l -0.08214,0.108495 3.142458,0.420801 -0.06278,0.467299 -3.476464,-0.464974 0.03021,0.11391 c 0.036,0.134323 0.05185,0.271057 0.05191,0.409178 v 0.06975 l 3.89029,0.521545 0.216215,-1.612689 z m -2.562012,0.532395 c 0.03778,-0.0021 0.07605,-0.0016 0.113909,7.96e-4 0.181772,0.01163 0.361118,0.07533 0.517674,0.196063 0.417363,0.321869 0.49389,0.910937 0.172041,1.328278 -0.321871,0.417368 -0.910945,0.494661 -1.328278,0.172815 -0.417366,-0.321869 -0.494664,-0.911713 -0.172817,-1.329053 0.176013,-0.228234 0.433083,-0.353937 0.697463,-0.368879 z m 0.05656,0.108494 c -0.465287,-1.58e-4 -0.844145,0.379419 -0.843929,0.844705 3.6e-5,0.465112 0.37882,0.843368 0.843929,0.843154 0.464936,-3.6e-5 0.843118,-0.378219 0.843155,-0.843154 2.2e-4,-0.465112 -0.378043,-0.844668 -0.843155,-0.844705 z m -5.754064,0.157317 -0.01002,0.0775 -0.02867,0.208466 -0.26116,1.952118 5.774215,0.774183 0.07286,-0.55022 -0.0744,-0.01243 c -0.134232,-0.02345 -0.264456,-0.06212 -0.389803,-0.116238 l -0.09532,-0.04186 -0.0093,0.07051 -4.629604,-0.619966 0.146472,-1.093467 3.515211,0.472725 -0.02092,-0.108495 c -0.02589,-0.132567 -0.03397,-0.268182 -0.02402,-0.406854 l 0.0047,-0.07361 z m 12.46288,0.666464 5.461131,0.732335 -0.03488,0.259612 -5.461133,-0.731561 z m -4.954309,0.340981 -0.01705,0.06974 c -0.03182,0.133731 -0.07915,0.26345 -0.140261,0.38748 l -0.04882,0.09842 3.44159,0.461875 -0.146469,1.091917 -4.421139,-0.592844 0.01395,-0.110821 -0.10927,0.0248 c -0.136107,0.03009 -0.273009,0.03994 -0.408403,0.03332 l -0.07208,-0.0032 -0.07286,0.550996 5.564976,0.74706 0.300683,-2.238079 z m 11.197372,0.495974 0.258061,0.03488 -0.03488,0.259611 -0.25806,-0.03487 z m -6.382556,0.203039 5.461129,0.732335 -0.03488,0.259612 -5.461129,-0.732335 z m 6.243066,0.836955 0.258059,0.03487 -0.03488,0.259613 -0.25806,-0.03487 z m 1.039218,0.139495 2.340373,0.313083 -0.03488,0.260386 -2.339601,-0.313857 z m -7.422551,0.06432 5.461904,0.732335 -0.03488,0.258836 -5.461127,-0.73311 z m 6.243062,0.837729 0.258839,0.03487 -0.03488,0.258061 -0.25884,-0.03333 z" />
    <rect
       style="fill:none;stroke:#808080;stroke-width:1.58751;stroke-linecap:square;stroke-opacity:1;paint-order:markers fill stroke"
       id="rect859"
       width="55.5625"
       height="25.135416"
       x="6.0854168"
       y="6.6145835"
       rx="2.2224998"
       ry="1.3405555" />
    <path
       sodipodi:type="star"
       style="fill:#808080;fill-opacity:1;stroke:none;stroke-width:1.5875;stroke-linecap:square;stroke-opacity:1;paint-order:markers fill stroke"
       id="path895"
       sodipodi:sides="3"
       sodipodi:cx="37.306252"
       sodipodi:cy="40.216667"
       sodipodi:r1="5.2916665"
       sodipodi:r2="2.6458333"
       sodipodi:arg1="0"
       sodipodi:arg2="1.0471976"
       inkscape:flatsided="true"
       inkscape:rounded="0"
       inkscape:randomized="0"
       d="m 42.597918,40.216667 -7.9375,4.582718 V 35.63395 Z"
       inkscape:transform-center-x="-1.3229171" />
    <path
       sodipodi:type="star"
       style="fill:#808080;fill-opacity:1;stroke:none;stroke-width:1.5875;stroke-linecap:square;stroke-opacity:1;paint-order:markers fill stroke"
       id="path895-1"
       sodipodi:sides="3"
       sodipodi:cx="29.104146"
       sodipodi:cy="40.216667"
       sodipodi:r1="5.291666"
       sodipodi:r2="2.645833"
       sodipodi:arg1="0"
       sodipodi:arg2="1.0471976"
       inkscape:flatsided="true"
       inkscape:rounded="0"
       inkscape:randomized="0"
       d="m 34.395811,40.216667 -7.937499,4.582717 0,-9.165434 z"
       inkscape:transform-center-x="-1.3229171" />
    <path
       id="path852-2"
       style="color:#000000;font-style:normal;font-variant:normal;font-weight:normal;font-stretch:normal;font-size:medium;line-height:normal;font-family:sans-serif;font-variant-ligatures:normal;font-variant-position:normal;font-variant-caps:normal;font-variant-numeric:normal;font-variant-alternates:normal;font-variant-east-asian:normal;font-feature-settings:normal;font-variation-settings:normal;text-indent:0;text-align:start;text-decoration:none;text-decoration-line:none;text-decoration-style:solid;text-decoration-color:#000000;letter-spacing:normal;word-spacing:normal;text-transform:none;writing-mode:lr-tb;direction:ltr;text-orientation:mixed;dominant-baseline:auto;baseline-shift:baseline;text-anchor:start;white-space:normal;shape-padding:0;shape-margin:0;inline-size:0;clip-rule:nonzero;display:inline;overflow:visible;visibility:visible;isolation:auto;mix-blend-mode:normal;color-interpolation:sRGB;color-interpolation-filters:linearRGB;solid-color:#000000;solid-opacity:1;vector-effect:none;fill:#808080;fill-opacity:1;fill-rule:nonzero;stroke:none;stroke-width:0.264582;stroke-linecap:butt;stroke-linejoin:miter;stroke-miterlimit:4;stroke-dasharray:none;stroke-dashoffset:0;stroke-opacity:1;color-rendering:auto;image-rendering:auto;shape-rendering:auto;text-rendering:auto;enable-background:accumulate;stop-color:#000000"
       d="m 35.080677,11.986264 -0.06431,0.04572 -0.510698,0.371204 -0.253411,0.185216 -0.658714,0.478923 0.354931,0.488997 0.186765,0.254189 0.185216,0.254958 0.370429,0.509148 0.18444,0.254186 0.185215,0.254188 0.371206,0.510696 0.185214,0.254962 0.18444,0.254963 0.371206,0.509146 0.185215,0.25496 0.18444,0.254961 0.371205,0.5076 0.185217,0.25651 0.184438,0.25341 0.371205,0.510699 0.185216,0.253412 0.184439,0.255735 0.371206,0.508373 0.185213,0.254962 0.185217,0.254184 0.370429,0.511473 0.185215,0.253412 0.184441,0.254185 0.371205,0.5107 0.185215,0.253413 0.185213,0.254961 0.184442,0.25496 0.113147,0.155768 0.0558,-0.127098 c 0.05942,-0.136376 0.133597,-0.264853 0.223963,-0.380504 l 0.0032,-0.0032 0.0014,-0.0038 c 0.03692,-0.05912 0.07912,-0.113509 0.123233,-0.165841 L 40.99281,21.897965 40.884309,21.751436 40.7006,21.498058 40.51461,21.2431 40.143405,20.7324 39.958964,20.47744 39.773749,20.223254 39.402544,19.713331 39.21733,19.459145 39.032889,19.204184 38.662459,18.695811 38.47647,18.440075 38.29203,18.186663 37.921599,17.67674 l -0.184442,-0.254185 -0.185989,-0.254961 -0.370429,-0.509148 -0.18444,-0.254962 -0.186764,-0.25496 -0.370431,-0.509148 -0.185215,-0.254962 -0.185144,-0.254974 -0.370431,-0.50992 -0.185215,-0.254963 -0.185214,-0.253411 -0.369656,-0.508372 -0.18599,-0.255736 -0.07672,-0.106176 0.02092,-0.01395 0.190639,-0.139497 0.138717,0.190639 0.184439,0.254962 0.185217,0.254963 0.371204,0.509146 0.184439,0.254961 0.185215,0.254187 0.371205,0.509922 0.184438,0.254962 0.185216,0.254185 0.369658,0.509923 0.186765,0.254188 0.18444,0.254959 0.369653,0.509148 0.186765,0.254187 0.184441,0.255734 0.371205,0.50915 0.185216,0.254961 0.184439,0.253412 0.371205,0.510697 0.185217,0.254962 0.184438,0.25341 0.371205,0.510699 0.185216,0.254185 0.185215,0.254188 0.369655,0.509146 0.216212,0.297585 0.06277,-0.04185 c 0.173767,-0.115583 0.369501,-0.192302 0.575794,-0.230938 L 41.948344,21.430608 41.796453,21.219819 41.610451,20.964166 41.240786,20.4558 41.055569,20.200839 40.869581,19.946652 40.498374,19.436729 40.31316,19.182542 40.127944,18.927582 39.757514,18.416883 39.572298,18.163472 39.387861,17.908512 39.017429,17.399364 38.83144,17.142853 38.646224,16.890217 38.276575,16.380289 38.091359,16.125328 37.90537,15.87114 37.535714,15.361219 37.350499,15.107032 37.164509,14.852074 36.794084,14.342146 36.60887,14.087957 36.423654,13.832996 36.05245,13.323848 35.86801,13.068888 35.682793,12.813926 35.31314,12.305555 Z m 14.450647,0.121668 -0.04803,0.06199 -0.320832,0.416151 -0.19219,0.248761 -0.192964,0.250311 -0.383604,0.498299 -0.192965,0.249535 -0.192189,0.248762 -0.385155,0.500624 -0.191415,0.248762 -0.192965,0.248762 -0.385154,0.499072 -0.19219,0.250313 -0.192188,0.24876 -0.38438,0.497523 -0.192965,0.250313 -0.192189,0.248761 -0.383605,0.499072 -0.192191,0.248763 -0.192963,0.251085 -0.385154,0.4983 -0.19219,0.248759 -0.191415,0.248763 -0.385154,0.500623 -0.192191,0.248764 -0.192963,0.248758 -0.385155,0.499076 -0.191416,0.249534 -0.192188,0.249538 -0.19219,0.248762 -0.117014,0.151892 0.135613,0.01782 c 0.147639,0.01868 0.292228,0.05354 0.428551,0.107718 l 0.0047,0.0015 0.0032,0.0014 c 0.06734,0.01883 0.132073,0.04301 0.194516,0.07052 l 0.05656,0.02481 0.110822,-0.143366 0.192189,-0.248761 0.191415,-0.248763 0.385154,-0.500623 0.192965,-0.248761 0.19219,-0.24876 0.385155,-0.500625 0.191413,-0.24876 0.19219,-0.248763 0.385155,-0.497523 0.192964,-0.251086 0.192191,-0.249537 0.383602,-0.497524 0.192193,-0.248761 0.192962,-0.251087 0.385155,-0.498297 0.191414,-0.249537 0.192189,-0.249536 0.385156,-0.498298 0.192963,-0.249537 0.191416,-0.248761 0.385159,-0.499844 0.192189,-0.249538 0.19219,-0.248761 0.385154,-0.497523 0.192188,-0.251088 0.07983,-0.102286 0.01938,0.01469 0.18754,0.144146 -0.144145,0.185989 -0.19219,0.249539 -0.19219,0.248762 -0.38438,0.499072 -0.193739,0.249535 -0.191413,0.249537 -0.385155,0.498299 -0.192965,0.250313 -0.192189,0.24876 -0.383606,0.498298 -0.192964,0.250312 -0.192189,0.249538 -0.385155,0.498297 -0.191414,0.248761 -0.192965,0.249536 -0.384379,0.499075 -0.191415,0.249536 -0.19219,0.247986 -0.386703,0.500622 -0.191416,0.248762 -0.192189,0.248763 -0.385153,0.500625 -0.192967,0.248761 -0.191414,0.248759 -0.384379,0.4983 -0.223964,0.291384 0.05813,0.04806 c 0.159762,0.134231 0.287717,0.300312 0.38283,0.487449 l 0.05656,0.111583 0.15809,-0.206913 0.192964,-0.250312 0.384381,-0.497523 0.191415,-0.249535 0.193738,-0.249539 0.384379,-0.499073 0.19219,-0.24876 0.19219,-0.249537 0.384381,-0.499848 0.192963,-0.248763 0.19219,-0.249536 0.383605,-0.497523 0.193739,-0.251087 0.191416,-0.248762 0.385155,-0.499073 0.192188,-0.248761 0.192965,-0.250311 0.383605,-0.497525 0.19219,-0.249536 0.192964,-0.249537 0.385155,-0.499072 0.191412,-0.248762 0.192191,-0.248762 0.385928,-0.500627 0.19219,-0.248758 0.19219,-0.248761 0.383604,-0.499074 0.241784,-0.313083 -0.562617,-0.432428 -0.249537,-0.192188 z m -13.606717,7.510118 -0.01002,0.07905 -0.04185,0.312311 -0.751709,5.592099 13.268062,1.78008 0.139496,-1.03922 5.461131,0.731561 -0.04187,0.313082 0.781159,0.103853 0.04185,-0.312307 1.039992,0.14026 0.139497,-1.039994 3.120755,0.418476 0.245661,-1.820378 -3.122308,-0.420026 0.140275,-1.04077 -1.039995,-0.139496 0.04186,-0.311533 -0.781931,-0.10462 -0.04186,0.311533 -5.461131,-0.733111 0.14026,-1.039995 -3.781796,-0.508373 -0.0279,0.03643 c -0.148328,0.192402 -0.295781,0.385762 -0.444053,0.578119 l -0.08369,0.107719 3.45089,0.463426 -0.593619,4.421137 -11.704194,-1.570065 0.592841,-4.421137 2.298527,0.308432 -0.108494,-0.149573 c -0.17078,-0.235164 -0.341367,-0.470766 -0.512267,-0.705983 l -0.02015,-0.02635 z m 5.576599,0.748609 0.107718,0.148795 c 0.158136,0.217359 0.3169,0.435927 0.47505,0.653288 l 0.06121,0.08523 0.06509,-0.0829 c 0.137441,-0.178098 0.274887,-0.356667 0.412278,-0.534719 l 0.08369,-0.108495 z m -4.76522,0.314634 -0.01083,0.07826 -0.02788,0.208465 -0.178241,1.32518 3.829067,0.514572 -0.106943,-0.148793 C 40.128096,22.50299 40.013181,22.345984 39.900167,22.19013 l -0.01938,-0.02711 -2.712354,-0.363455 0.06278,-0.46885 2.265203,0.304558 -0.107717,-0.148795 c -0.11345,-0.156339 -0.229086,-0.314123 -0.342541,-0.4704 l -0.01938,-0.02635 z m 5.449509,1.03147 c -0.439347,0.01469 -0.869571,0.219118 -1.157788,0.592843 -0.51237,0.664387 -0.38773,1.624963 0.27666,2.137334 0.664385,0.512372 1.625743,0.388502 2.13811,-0.275884 0.512367,-0.664388 0.3885,-1.625742 -0.275886,-2.13811 -0.290667,-0.224163 -0.63939,-0.327612 -0.981096,-0.316183 z m 2.558137,0.04341 -0.0279,0.03643 c -0.09857,0.127887 -0.198175,0.255614 -0.296809,0.383603 l -0.08214,0.108495 3.142458,0.420801 -0.06278,0.467299 -3.476463,-0.464974 0.03021,0.11391 c 0.036,0.134323 0.05185,0.271057 0.05191,0.409178 v 0.06975 l 3.89029,0.521545 0.216215,-1.612689 z m -2.562013,0.532395 c 0.03778,-0.0021 0.07605,-0.0016 0.11391,7.89e-4 0.181771,0.01163 0.361118,0.07533 0.517673,0.196062 0.417364,0.32187 0.493891,0.910938 0.172042,1.328279 -0.321872,0.417367 -0.910945,0.49466 -1.328279,0.172815 -0.417365,-0.32187 -0.494664,-0.911714 -0.172817,-1.329053 0.176014,-0.228234 0.433084,-0.353938 0.697464,-0.36888 z m 0.05656,0.108494 c -0.465286,-1.58e-4 -0.844145,0.379419 -0.843929,0.844705 3.7e-5,0.465112 0.37882,0.843368 0.843929,0.843154 0.464935,-3.6e-5 0.843119,-0.378219 0.843154,-0.843154 2.21e-4,-0.465112 -0.378042,-0.844668 -0.843154,-0.844705 z m -5.754065,0.157317 -0.01002,0.0775 -0.02867,0.208466 -0.26116,1.952118 5.774215,0.774183 0.07286,-0.55022 -0.0744,-0.01243 c -0.134231,-0.02345 -0.264455,-0.06212 -0.389802,-0.116238 l -0.09532,-0.04186 -0.0093,0.07051 -4.629603,-0.619966 0.146472,-1.093467 3.51521,0.472725 -0.02092,-0.108495 c -0.02589,-0.132567 -0.03398,-0.268182 -0.02402,-0.406854 l 0.0047,-0.07361 z m 12.46288,0.666464 5.461132,0.732335 -0.03488,0.259612 -5.461134,-0.731561 z m -4.954309,0.340981 -0.01705,0.06974 c -0.03182,0.133731 -0.07915,0.26345 -0.140262,0.38748 l -0.04882,0.09842 3.441589,0.461875 -0.146468,1.091917 -4.421139,-0.592844 0.01395,-0.110821 -0.10927,0.0248 c -0.136107,0.03009 -0.273009,0.03994 -0.408403,0.03332 l -0.07208,-0.0032 -0.07286,0.550996 5.564975,0.74706 0.300684,-2.238079 z m 11.197372,0.495974 0.258062,0.03488 -0.03488,0.259611 -0.258061,-0.03487 z m -6.382556,0.203035 5.461128,0.732335 -0.03488,0.259612 -5.461128,-0.732335 z m 6.243065,0.836955 0.25806,0.03487 -0.03488,0.259613 -0.258061,-0.03487 z m 1.039219,0.139495 2.340373,0.313083 -0.03488,0.260386 -2.339601,-0.313857 z m -7.422551,0.06432 5.461903,0.732335 -0.03488,0.258836 -5.461126,-0.73311 z m 6.243062,0.837729 0.258839,0.03487 -0.03488,0.258061 -0.25884,-0.03333 z" />
  </g>
</svg>
