<?xml version="1.0" encoding="UTF-8" standalone="no"?>
<svg
   xmlns:dc="http://purl.org/dc/elements/1.1/"
   xmlns:cc="http://creativecommons.org/ns#"
   xmlns:rdf="http://www.w3.org/1999/02/22-rdf-syntax-ns#"
   xmlns:svg="http://www.w3.org/2000/svg"
   xmlns="http://www.w3.org/2000/svg"
   xmlns:sodipodi="http://sodipodi.sourceforge.net/DTD/sodipodi-0.dtd"
   xmlns:inkscape="http://www.inkscape.org/namespaces/inkscape"
   width="256"
   height="256"
   viewBox="0 0 67.733332 67.733335"
   version="1.1"
   id="svg8"
   inkscape:version="1.0.1 (3bc2e813f5, 2020-09-07)"
   sodipodi:docname="next-system.svg"
   inkscape:export-filename="C:\Users\keath\Workspace\KMX\elite-streamdeck-icons\ship-lights.png"
   inkscape:export-xdpi="96"
   inkscape:export-ydpi="96">
  <defs
     id="defs2">
    <inkscape:path-effect
       effect="fillet_chamfer"
       id="path-effect1414"
       is_visible="true"
       lpeversion="1"
       satellites_param="F,0,0,1,0,0,0,1 @ F,0,0,1,0,0,0,1 @ F,0,0,1,0,0,0,1"
       unit="px"
       method="bezier"
       mode="F"
       radius="0"
       chamfer_steps="1"
       flexible="false"
       use_knot_distance="true"
       apply_no_radius="true"
       apply_with_radius="true"
       only_selected="false"
       hide_knots="false" />
  </defs>
  <sodipodi:namedview
     id="base"
     pagecolor="#000000"
     bordercolor="#666666"
     borderopacity="1.0"
     inkscape:pageopacity="0"
     inkscape:pageshadow="2"
     inkscape:zoom="5.6"
     inkscape:cx="109.46236"
     inkscape:cy="122.56975"
     inkscape:document-units="px"
     inkscape:current-layer="layer2"
     showgrid="true"
     units="px"
     inkscape:snap-grids="true"
     objecttolerance="10000"
     guidetolerance="10000"
     inkscape:window-width="3840"
     inkscape:window-height="2066"
     inkscape:window-x="3829"
     inkscape:window-y="-11"
     inkscape:window-maximized="1"
     inkscape:document-rotation="0"
     showguides="true">
    <inkscape:grid
       type="xygrid"
       id="grid4623" />
    <sodipodi:guide
       position="-3.96875,62.441667"
       orientation="0,256"
       id="guide3351" />
    <sodipodi:guide
       position="62.177083,70.379167"
       orientation="256,0"
       id="guide3353" />
    <sodipodi:guide
       position="-2.6458333,22.754167"
       orientation="0,-256"
       id="guide3355" />
    <sodipodi:guide
       position="5.2916667,70.379167"
       orientation="-256,0"
       id="guide3357" />
    <sodipodi:guide
       position="0,67.733334"
       orientation="0,256"
       id="guide3359" />
    <sodipodi:guide
       position="67.733334,67.733334"
       orientation="256,0"
       id="guide3361" />
    <sodipodi:guide
       position="67.733334,0"
       orientation="0,-256"
       id="guide3363" />
    <sodipodi:guide
       position="0,0"
       orientation="-256,0"
       id="guide3365" />
    <sodipodi:guide
       position="0,67.733334"
       orientation="0,256"
       id="guide3367" />
    <sodipodi:guide
       position="67.733334,67.733334"
       orientation="256,0"
       id="guide3369" />
    <sodipodi:guide
       position="67.733334,0"
       orientation="0,-256"
       id="guide3371" />
    <sodipodi:guide
       position="0,0"
       orientation="-256,0"
       id="guide3373" />
    <sodipodi:guide
       position="0,67.733334"
       orientation="0,256"
       id="guide3375" />
    <sodipodi:guide
       position="67.733334,67.733334"
       orientation="256,0"
       id="guide3377" />
    <sodipodi:guide
       position="67.733334,0"
       orientation="0,-256"
       id="guide3379" />
    <sodipodi:guide
       position="0,0"
       orientation="-256,0"
       id="guide3381" />
  </sodipodi:namedview>
  <metadata
     id="metadata5">
    <rdf:RDF>
      <cc:Work
         rdf:about="">
        <dc:format>image/svg+xml</dc:format>
        <dc:type
           rdf:resource="http://purl.org/dc/dcmitype/StillImage" />
        <dc:title />
      </cc:Work>
    </rdf:RDF>
  </metadata>
  <g
     inkscape:groupmode="layer"
     id="layer2"
     inkscape:label="Icon">
    <g
       id="g1668"
       transform="translate(15.875,10.583335)">
      <rect
         style="fill:#808080;fill-opacity:1;stroke:none;stroke-width:0.79375;stroke-linecap:round;stroke-miterlimit:4;stroke-dasharray:none;stroke-dashoffset:6.00002;stroke-opacity:1;paint-order:markers fill stroke"
         id="rect1662"
         width="10.583333"
         height="5.2916665"
         x="13.229167"
         y="25.135416" />
      <path
         sodipodi:type="star"
         style="fill:#808080;fill-opacity:1;stroke:none;stroke-width:0.972141;stroke-linecap:round;stroke-miterlimit:4;stroke-dasharray:none;stroke-dashoffset:6.00002;stroke-opacity:1;paint-order:markers fill stroke"
         id="path1664"
         sodipodi:sides="3"
         sodipodi:cx="23.8125"
         sodipodi:cy="27.78125"
         sodipodi:r1="5.2916665"
         sodipodi:r2="2.6458333"
         sodipodi:arg1="0"
         sodipodi:arg2="1.0471976"
         inkscape:flatsided="true"
         inkscape:rounded="0"
         inkscape:randomized="0"
         d="m 29.104167,27.78125 -7.9375,4.582718 0,-9.165436 z"
         inkscape:transform-center-x="-0.88194417"
         transform="matrix(0.66666668,0,0,1,8.378472,6.835936e-8)" />
    </g>
    <path
       id="path1135"
       style="color:#000000;font-style:normal;font-variant:normal;font-weight:normal;font-stretch:normal;font-size:medium;line-height:normal;font-family:sans-serif;font-variant-ligatures:normal;font-variant-position:normal;font-variant-caps:normal;font-variant-numeric:normal;font-variant-alternates:normal;font-variant-east-asian:normal;font-feature-settings:normal;font-variation-settings:normal;text-indent:0;text-align:start;text-decoration:none;text-decoration-line:none;text-decoration-style:solid;text-decoration-color:#000000;letter-spacing:normal;word-spacing:normal;text-transform:none;writing-mode:lr-tb;direction:ltr;text-orientation:mixed;dominant-baseline:auto;baseline-shift:baseline;text-anchor:start;white-space:normal;shape-padding:0;shape-margin:0;inline-size:0;clip-rule:nonzero;display:inline;overflow:visible;visibility:visible;isolation:auto;mix-blend-mode:normal;color-interpolation:sRGB;color-interpolation-filters:linearRGB;solid-color:#000000;solid-opacity:1;vector-effect:none;fill:#808080;fill-opacity:1;fill-rule:nonzero;stroke:none;stroke-width:0.793749;stroke-linecap:square;stroke-linejoin:miter;stroke-miterlimit:4;stroke-dasharray:none;stroke-dashoffset:0;stroke-opacity:1;paint-order:markers fill stroke;color-rendering:auto;image-rendering:auto;shape-rendering:auto;text-rendering:auto;enable-background:accumulate;stop-color:#000000"
       d="m 32.371793,12.348439 a 6.9669794,6.9669794 0 0 0 -5.984908,7.826454 6.9669794,6.9669794 0 0 0 1.406571,3.357729 c 4.181194,-0.506128 8.293195,-1.414287 12.270619,-2.640009 a 6.9669794,6.9669794 0 0 0 0.134259,-2.558627 6.9669794,6.9669794 0 0 0 -7.826541,-5.985547 z m 6.806977,0.284832 c -0.376616,0.0494 -0.759402,0.10472 -1.141034,0.159228 a 8.0177445,8.0176434 82.407878 0 1 1.055283,0.926801 c 0.0748,-0.0099 0.151067,-0.0217 0.225676,-0.03137 4.891332,-0.641276 9.329888,-0.844447 12.899358,-0.636295 2.595975,0.151386 4.732757,0.523459 6.221792,1.077719 1.489046,0.554259 2.250799,1.255097 2.396718,1.983631 0.145921,0.728533 -0.286785,1.670764 -1.447501,2.755745 -0.219503,0.205182 -0.470075,0.413784 -0.736239,0.624071 a 2.6555857,2.6555857 0 0 0 -2.159111,-0.688123 2.6555857,2.6555857 0 0 0 -2.281421,2.983122 2.6555857,2.6555857 0 0 0 0.0739,0.359605 c -0.07544,0.03735 -0.146803,0.07491 -0.223334,0.112221 -4.674852,2.278995 -11.38297,4.46318 -18.97003,5.982794 -7.587054,1.519612 -14.619403,2.087609 -19.811358,1.78484 C 12.685488,29.875875 10.548627,29.503166 9.0595843,28.948906 7.5705417,28.394647 6.8085345,27.691892 6.6626138,26.96336 6.5166945,26.234827 6.9498231,25.295785 8.1105401,24.210805 c 1.1607196,-1.084979 2.9892479,-2.25277 5.3266709,-3.392267 3.263313,-1.590867 7.518828,-3.135005 12.370988,-4.439626 a 8.0177445,8.0176434 82.407878 0 1 0.617267,-1.263362 c -5.272993,1.365368 -9.905932,3.02 -13.453633,4.749505 -2.396893,1.168488 -4.299807,2.364654 -5.5870116,3.567865 -1.2872018,1.203212 -2.0187591,2.472581 -1.7651249,3.738923 0.253641,1.26634 1.4172412,2.156642 3.0685463,2.771299 1.6513082,0.614658 3.8686372,0.989098 6.5306562,1.144334 5.324048,0.310474 12.421373,-0.270331 20.082076,-1.804695 7.660706,-1.534363 14.434278,-3.731505 19.228064,-6.06848 0.08214,-0.04003 0.158753,-0.08079 0.239711,-0.120917 a 2.6555857,2.6555857 0 0 0 2.426663,0.975818 2.6555857,2.6555857 0 0 0 2.281419,-2.983125 2.6555857,2.6555857 0 0 0 -0.206158,-0.728311 c 0.302618,-0.238085 0.589008,-0.476513 0.84423,-0.715083 1.287201,-1.203212 2.018126,-2.472498 1.764488,-3.73884 -0.253642,-1.266341 -1.41716,-2.156002 -3.068463,-2.770659 -1.651299,-0.614661 -3.868367,-0.987183 -6.530391,-1.142421 -3.660281,-0.21345 -8.158303,-0.006 -13.101761,0.642494 z m 0.06059,1.243785 a 8.0177445,8.0176434 82.407878 0 1 0.771857,1.002238 c 1.721446,-0.149298 3.310151,-0.212907 4.678223,-0.175532 1.639016,0.04477 2.984499,0.226064 3.898599,0.512758 0.457045,0.143348 0.801883,0.3159 1.020769,0.482732 0.218888,0.166832 0.30313,0.308274 0.331342,0.444762 0.02825,0.136485 0.0069,0.300457 -0.127955,0.540397 -0.134803,0.239935 -0.383475,0.533375 -0.746241,0.846167 -0.725548,0.625583 -1.888868,1.325216 -3.375837,2.016085 -2.97394,1.381738 -7.246887,2.746738 -12.071539,3.743918 -4.733925,0.97843 -9.114481,1.418317 -12.374378,1.350032 a 1.7703903,1.7703903 0 0 0 -1.950976,-1.323615 1.7703903,1.7703903 0 0 0 -1.369802,1.005249 c -0.28278,-0.05837 -0.540626,-0.123729 -0.770872,-0.195931 -0.457047,-0.143349 -0.804098,-0.31301 -1.022982,-0.47984 -0.218886,-0.166831 -0.302105,-0.31036 -0.330318,-0.446848 -0.02825,-0.136484 -0.008,-0.299016 0.126854,-0.538948 0.134817,-0.239938 0.385133,-0.535547 0.747906,-0.848338 0.725541,-0.625585 1.889497,-1.325302 3.37647,-2.016171 1.491727,-0.69308 3.310832,-1.381394 5.361956,-2.021739 a 8.0177445,8.0176434 82.407878 0 1 0.325542,-1.206298 c -2.344163,0.704576 -4.433894,1.47613 -6.1345,2.26626 -1.541601,0.716251 -2.771563,1.441214 -3.621629,2.174161 -0.425029,0.366473 -0.757938,0.734692 -0.980393,1.130607 -0.222451,0.395915 -0.333475,0.840782 -0.243549,1.275883 0.08992,0.435104 0.368313,0.798829 0.729492,1.074115 0.361175,0.275289 0.813401,0.482071 1.348891,0.650023 0.290055,0.09097 0.607222,0.170089 0.946692,0.238724 a 1.7703903,1.7703903 0 0 0 1.978105,1.449212 1.7703903,1.7703903 0 0 0 1.419612,-1.123571 c 3.380642,0.07547 7.834811,-0.375113 12.65275,-1.370903 4.890797,-1.010852 9.220814,-2.38915 12.304015,-3.821653 1.541601,-0.716252 2.771308,-1.443128 3.621371,-2.176075 0.425032,-0.366475 0.757133,-0.735883 0.979584,-1.131797 0.222456,-0.395914 0.334202,-0.840228 0.244274,-1.275332 -0.08991,-0.435103 -0.368312,-0.798826 -0.729488,-1.074114 -0.361177,-0.275287 -0.813403,-0.482071 -1.348893,-0.650021 -1.070974,-0.335898 -2.486832,-0.513728 -4.186067,-0.56015 -1.602578,-0.04377 -3.45571,0.03375 -5.478878,0.233553 z m -0.793773,10.066802 c -2.597986,0.707499 -5.23358,1.293008 -7.893486,1.715698 a 6.9669794,6.9669794 0 0 0 3.660679,0.500968 6.9669794,6.9669794 0 0 0 4.232807,-2.216666 z" />
  </g>
</svg>
