<?xml version="1.0" encoding="UTF-8" standalone="no"?>
<svg
   xmlns:dc="http://purl.org/dc/elements/1.1/"
   xmlns:cc="http://creativecommons.org/ns#"
   xmlns:rdf="http://www.w3.org/1999/02/22-rdf-syntax-ns#"
   xmlns:svg="http://www.w3.org/2000/svg"
   xmlns="http://www.w3.org/2000/svg"
   xmlns:sodipodi="http://sodipodi.sourceforge.net/DTD/sodipodi-0.dtd"
   xmlns:inkscape="http://www.inkscape.org/namespaces/inkscape"
   width="256"
   height="256"
   viewBox="0 0 67.733332 67.733335"
   version="1.1"
   id="svg8"
   inkscape:version="1.0.1 (3bc2e813f5, 2020-09-07)"
   sodipodi:docname="night-vision.svg"
   inkscape:export-filename="C:\Users\keath\Workspace\KMX\elite-streamdeck-icons\ship-lights.png"
   inkscape:export-xdpi="96"
   inkscape:export-ydpi="96">
  <defs
     id="defs2">
    <marker
       style="overflow:visible"
       id="TriangleOutL"
       refX="0.0"
       refY="0.0"
       orient="auto"
       inkscape:stockid="TriangleOutL"
       inkscape:isstock="true">
      <path
         transform="scale(0.8)"
         style="fill-rule:evenodd;stroke:#808080;stroke-width:1pt;stroke-opacity:1;fill:#808080;fill-opacity:1"
         d="M 5.77,0.0 L -2.88,5.0 L -2.88,-5.0 L 5.77,0.0 z "
         id="path2320" />
    </marker>
    <marker
       style="overflow:visible;"
       id="Arrow2Mend"
       refX="0.0"
       refY="0.0"
       orient="auto"
       inkscape:stockid="Arrow2Mend"
       inkscape:isstock="true">
      <path
         transform="scale(0.6) rotate(180) translate(0,0)"
         d="M 8.7185878,4.0337352 L -2.2072895,0.016013256 L 8.7185884,-4.0017078 C 6.9730900,-1.6296469 6.9831476,1.6157441 8.7185878,4.0337352 z "
         style="fill-rule:evenodd;stroke-width:0.625;stroke-linejoin:round;stroke:#808080;stroke-opacity:1;fill:#808080;fill-opacity:1"
         id="path2202" />
    </marker>
  </defs>
  <sodipodi:namedview
     id="base"
     pagecolor="#000000"
     bordercolor="#666666"
     borderopacity="1.0"
     inkscape:pageopacity="0"
     inkscape:pageshadow="2"
     inkscape:zoom="3.959798"
     inkscape:cx="74.715771"
     inkscape:cy="101.55204"
     inkscape:document-units="px"
     inkscape:current-layer="layer2"
     showgrid="true"
     units="px"
     inkscape:snap-grids="true"
     objecttolerance="10000"
     guidetolerance="10000"
     inkscape:window-width="2497"
     inkscape:window-height="1962"
     inkscape:window-x="3942"
     inkscape:window-y="34"
     inkscape:window-maximized="0"
     inkscape:document-rotation="0"
     showguides="true">
    <inkscape:grid
       type="xygrid"
       id="grid4623" />
    <sodipodi:guide
       position="-3.96875,62.441667"
       orientation="0,256"
       id="guide3351" />
    <sodipodi:guide
       position="62.177083,70.379167"
       orientation="256,0"
       id="guide3353" />
    <sodipodi:guide
       position="-2.6458333,22.754167"
       orientation="0,-256"
       id="guide3355" />
    <sodipodi:guide
       position="5.2916667,70.379167"
       orientation="-256,0"
       id="guide3357" />
    <sodipodi:guide
       position="0,67.733334"
       orientation="0,256"
       id="guide3359" />
    <sodipodi:guide
       position="67.733334,67.733334"
       orientation="256,0"
       id="guide3361" />
    <sodipodi:guide
       position="67.733334,0"
       orientation="0,-256"
       id="guide3363" />
    <sodipodi:guide
       position="0,0"
       orientation="-256,0"
       id="guide3365" />
    <sodipodi:guide
       position="0,67.733334"
       orientation="0,256"
       id="guide3367" />
    <sodipodi:guide
       position="67.733334,67.733334"
       orientation="256,0"
       id="guide3369" />
    <sodipodi:guide
       position="67.733334,0"
       orientation="0,-256"
       id="guide3371" />
    <sodipodi:guide
       position="0,0"
       orientation="-256,0"
       id="guide3373" />
    <sodipodi:guide
       position="0,67.733334"
       orientation="0,256"
       id="guide3375" />
    <sodipodi:guide
       position="67.733334,67.733334"
       orientation="256,0"
       id="guide3377" />
    <sodipodi:guide
       position="67.733334,0"
       orientation="0,-256"
       id="guide3379" />
    <sodipodi:guide
       position="0,0"
       orientation="-256,0"
       id="guide3381" />
  </sodipodi:namedview>
  <metadata
     id="metadata5">
    <rdf:RDF>
      <cc:Work
         rdf:about="">
        <dc:format>image/svg+xml</dc:format>
        <dc:type
           rdf:resource="http://purl.org/dc/dcmitype/StillImage" />
        <dc:title />
      </cc:Work>
    </rdf:RDF>
  </metadata>
  <g
     inkscape:groupmode="layer"
     id="layer2"
     inkscape:label="Icon">
    <path
       id="path903"
       style="color:#000000;font-style:normal;font-variant:normal;font-weight:normal;font-stretch:normal;font-size:medium;line-height:normal;font-family:sans-serif;font-variant-ligatures:normal;font-variant-position:normal;font-variant-caps:normal;font-variant-numeric:normal;font-variant-alternates:normal;font-variant-east-asian:normal;font-feature-settings:normal;font-variation-settings:normal;text-indent:0;text-align:start;text-decoration:none;text-decoration-line:none;text-decoration-style:solid;text-decoration-color:#000000;letter-spacing:normal;word-spacing:normal;text-transform:none;writing-mode:lr-tb;direction:ltr;text-orientation:mixed;dominant-baseline:auto;baseline-shift:baseline;text-anchor:start;white-space:normal;shape-padding:0;shape-margin:0;inline-size:0;clip-rule:nonzero;display:inline;overflow:visible;visibility:visible;opacity:1;isolation:auto;mix-blend-mode:normal;color-interpolation:sRGB;color-interpolation-filters:linearRGB;solid-color:#000000;solid-opacity:1;vector-effect:none;fill:#808080;fill-opacity:1;fill-rule:nonzero;stroke:none;stroke-width:9.56889;stroke-linecap:round;stroke-linejoin:round;stroke-miterlimit:4;stroke-dasharray:none;stroke-dashoffset:0;stroke-opacity:1;color-rendering:auto;image-rendering:auto;shape-rendering:auto;text-rendering:auto;enable-background:accumulate;stop-color:#000000;stop-opacity:1"
       d="m 25.832031,20.679688 a 4.7156004,4.8552823 0 0 0 -4.708984,4.859374 V 165.79102 a 4.7156004,4.8552823 0 0 0 4.708984,4.8496 H 230.1543 a 4.7156004,4.8552823 0 0 0 4.7207,-4.8496 V 25.539062 a 4.7156004,4.8552823 0 0 0 -4.7207,-4.859374 z m 4.720703,9.71875 H 225.44531 V 160.93359 H 30.552734 Z m 26.56836,5.93164 v 6.205078 H 36.128906 v 1.074219 H 57.121094 V 60.0625 H 36.128906 v 1.074219 H 57.121094 V 77.591797 H 36.128906 v 1.082031 h 20.992188 v 11.238281 c 0.344948,-0.470172 0.689628,-0.93942 1.044922,-1.40039 v -9.837891 h 9.09375 c 0.399445,-0.363382 0.798386,-0.726989 1.205078,-1.082031 H 58.166016 V 61.136719 h 22.53125 v 7.630859 c 0.346509,-0.205515 0.693531,-0.410624 1.042968,-0.611328 v -7.019531 h 15.490235 c 1.097179,-0.377943 2.199802,-0.737673 3.310551,-1.074219 H 81.740234 V 43.609375 h 22.533206 v 15.410156 c 0.34742,-0.0897 0.69457,-0.179936 1.04297,-0.265625 V 43.609375 h 22.5332 v 12.458984 c 0.34769,-3.29e-4 0.69532,0.0055 1.04297,0.0078 V 43.609375 h 22.53125 v 15.208984 c 0.3493,0.08687 0.69659,0.182423 1.04492,0.273438 V 43.609375 H 175 V 60.0625 h -19.08008 c 1.1098,0.336992 2.21217,0.695068 3.3086,1.074219 H 175 v 7.21875 c 0.34985,0.203707 0.69611,0.412564 1.04297,0.621093 v -7.839843 h 22.5332 v 16.455078 h -10.67578 c 0.41022,0.357857 0.81988,0.715894 1.22266,1.082031 h 9.45312 v 10.304688 c 0.35361,0.4652 0.70012,0.936037 1.04297,1.410156 V 78.673828 h 19.87695 V 77.591797 H 199.61914 V 61.136719 h 19.87695 V 60.0625 H 199.61914 V 43.609375 h 19.87695 v -1.074219 h -19.87695 v -6.205078 h -1.04297 v 6.205078 h -22.5332 V 36.330078 H 175 v 6.205078 h -22.53125 v -6.205078 h -1.04492 v 6.205078 h -22.53125 v -6.205078 h -1.04297 v 6.205078 h -22.5332 v -6.205078 h -1.04297 v 6.205078 H 81.740234 v -6.205078 h -1.042968 v 6.205078 h -22.53125 v -6.205078 z m 1.044922,7.279297 h 22.53125 V 60.0625 h -22.53125 z m 117.876954,0 h 22.5332 V 60.0625 h -22.5332 z M 36.128906,95.128906 v 1.074219 h 18.673828 c -0.01963,-0.358093 -0.01883,-0.717 0.0059,-1.074219 z m 166.644534,0 c 0.13151,0.215756 0.26908,0.427177 0.39844,0.644532 -0.0991,0.143261 -0.19796,0.286328 -0.29688,0.429687 h 16.62109 v -1.074219 z m -3.1543,5.736324 c -0.18421,0.2576 -0.36258,0.51921 -0.54883,0.77539 -0.16097,0.22139 -0.33085,0.435 -0.49414,0.6543 v 10.36133 h -9.35742 c -0.39594,0.36374 -0.79985,0.71893 -1.20313,1.07422 h 10.56055 v 16.45312 h -22.5332 v -7.72656 c -0.34741,0.20815 -0.69253,0.41981 -1.04297,0.62305 v 7.10351 h -15.56641 c -1.10419,0.3826 -2.21581,0.74318 -3.33398,1.08399 H 175 v 16.45508 h -22.53125 v -15.42774 c -0.34796,0.0909 -0.69596,0.18259 -1.04492,0.26953 v 15.15821 h -22.53125 v -12.35157 c -0.34748,0.004 -0.69526,0.006 -1.04297,0.006 v 12.34571 h -22.5332 v -15.07227 c -0.34773,-0.0853 -0.69624,-0.16656 -1.04297,-0.25586 v 15.32813 H 81.740234 v -16.45508 h 18.552736 c -1.123366,-0.34283 -2.242473,-0.69897 -3.351564,-1.08399 H 81.740234 v -6.91797 c -0.34778,-0.19974 -0.69812,-0.39505 -1.042968,-0.5996 v 7.51757 h -22.53125 v -16.45312 h 10.205078 c -0.399905,-0.35204 -0.790809,-0.7139 -1.183594,-1.07422 h -9.021484 v -9.86914 c -0.123787,-0.16263 -0.252481,-0.32059 -0.375,-0.48438 -0.237823,-0.19707 -0.459082,-0.40797 -0.669922,-0.6289 v 10.98242 H 36.128906 v 1.07422 h 20.992188 v 16.45312 H 36.128906 v 1.08399 h 20.992188 v 16.45508 H 36.128906 v 1.07422 H 57.121094 V 155 h 1.044922 v -6.20312 h 22.53125 V 155 h 1.042968 v -6.20312 H 104.27344 V 155 h 1.04297 v -6.20312 h 22.5332 V 155 h 1.04297 v -6.20312 h 22.53125 V 155 h 1.04492 v -6.20312 H 175 V 155 h 1.04297 v -6.20312 h 22.5332 V 155 h 1.04297 v -6.20312 h 19.87695 v -1.07422 h -19.87695 v -16.45508 h 19.87695 v -1.08399 h -19.87695 v -16.45312 h 19.87695 v -1.07422 H 199.61914 Z M 58.166016,131.26758 h 22.53125 v 16.45508 h -22.53125 z m 117.876954,0 h 22.5332 v 16.45508 h -22.5332 z"
       transform="scale(0.26458333)" />
    <path
       id="path1485"
       style="fill:#808080;fill-opacity:1;stroke:none;stroke-width:0.793749;stroke-linecap:square;stroke-linejoin:miter;stroke-miterlimit:4;stroke-dasharray:none;stroke-dashoffset:0;stroke-opacity:1;paint-order:markers stroke fill"
       d="M 33.919813,16.942967 A 19.951247,16.758002 0 0 0 16.64141,25.32249 19.951247,16.758002 0 0 0 33.919813,33.702011 19.951247,16.758002 0 0 0 51.198217,25.32249 19.951247,16.758002 0 0 0 33.919813,16.942967 Z m -0.06483,1.995125 a 6.3843987,6.3843987 0 0 1 0.06483,0 6.3843987,6.3843987 0 0 1 6.384401,6.384398 6.3843987,6.3843987 0 0 1 -6.384401,6.384403 6.3843987,6.3843987 0 0 1 -6.384398,-6.384403 6.3843987,6.3843987 0 0 1 6.319559,-6.384398 z m 0.144644,1.436488 a 4.9772824,4.9772824 0 0 0 -4.977213,4.977214 4.9772824,4.9772824 0 0 0 4.977213,4.977211 4.9772824,4.9772824 0 0 0 3.382361,-1.326132 3.8913294,3.8913294 0 0 1 -1.346085,0.240037 3.8913294,3.8913294 0 0 1 -3.891742,-3.891116 3.8913294,3.8913294 0 0 1 3.891742,-3.891118 3.8913294,3.8913294 0 0 1 1.346085,0.240663 4.9772824,4.9772824 0 0 0 -3.382361,-1.326759 z" />
  </g>
</svg>
