<?xml version="1.0" encoding="UTF-8" standalone="no"?>
<svg
   xmlns:dc="http://purl.org/dc/elements/1.1/"
   xmlns:cc="http://creativecommons.org/ns#"
   xmlns:rdf="http://www.w3.org/1999/02/22-rdf-syntax-ns#"
   xmlns:svg="http://www.w3.org/2000/svg"
   xmlns="http://www.w3.org/2000/svg"
   xmlns:sodipodi="http://sodipodi.sourceforge.net/DTD/sodipodi-0.dtd"
   xmlns:inkscape="http://www.inkscape.org/namespaces/inkscape"
   width="256"
   height="256"
   viewBox="0 0 67.733332 67.733335"
   version="1.1"
   id="svg8"
   inkscape:version="1.0.1 (3bc2e813f5, 2020-09-07)"
   sodipodi:docname="night-vision.svg"
   inkscape:export-filename="C:\Users\keath\Workspace\KMX\elite-streamdeck-icons\ship-lights.png"
   inkscape:export-xdpi="96"
   inkscape:export-ydpi="96">
  <defs
     id="defs2">
    <marker
       style="overflow:visible"
       id="TriangleOutL"
       refX="0.0"
       refY="0.0"
       orient="auto"
       inkscape:stockid="TriangleOutL"
       inkscape:isstock="true">
      <path
         transform="scale(0.8)"
         style="fill-rule:evenodd;stroke:#808080;stroke-width:1pt;stroke-opacity:1;fill:#808080;fill-opacity:1"
         d="M 5.77,0.0 L -2.88,5.0 L -2.88,-5.0 L 5.77,0.0 z "
         id="path2320" />
    </marker>
    <marker
       style="overflow:visible;"
       id="Arrow2Mend"
       refX="0.0"
       refY="0.0"
       orient="auto"
       inkscape:stockid="Arrow2Mend"
       inkscape:isstock="true">
      <path
         transform="scale(0.6) rotate(180) translate(0,0)"
         d="M 8.7185878,4.0337352 L -2.2072895,0.016013256 L 8.7185884,-4.0017078 C 6.9730900,-1.6296469 6.9831476,1.6157441 8.7185878,4.0337352 z "
         style="fill-rule:evenodd;stroke-width:0.625;stroke-linejoin:round;stroke:#808080;stroke-opacity:1;fill:#808080;fill-opacity:1"
         id="path2202" />
    </marker>
  </defs>
  <sodipodi:namedview
     id="base"
     pagecolor="#000000"
     bordercolor="#666666"
     borderopacity="1.0"
     inkscape:pageopacity="0"
     inkscape:pageshadow="2"
     inkscape:zoom="3.959798"
     inkscape:cx="74.715771"
     inkscape:cy="101.55204"
     inkscape:document-units="px"
     inkscape:current-layer="layer2"
     showgrid="true"
     units="px"
     inkscape:snap-grids="true"
     objecttolerance="10000"
     guidetolerance="10000"
     inkscape:window-width="2321"
     inkscape:window-height="1879"
     inkscape:window-x="4802"
     inkscape:window-y="103"
     inkscape:window-maximized="0"
     inkscape:document-rotation="0"
     showguides="true">
    <inkscape:grid
       type="xygrid"
       id="grid4623" />
    <sodipodi:guide
       position="-3.96875,62.441667"
       orientation="0,256"
       id="guide3351" />
    <sodipodi:guide
       position="62.177083,70.379167"
       orientation="256,0"
       id="guide3353" />
    <sodipodi:guide
       position="-2.6458333,22.754167"
       orientation="0,-256"
       id="guide3355" />
    <sodipodi:guide
       position="5.2916667,70.379167"
       orientation="-256,0"
       id="guide3357" />
    <sodipodi:guide
       position="0,67.733334"
       orientation="0,256"
       id="guide3359" />
    <sodipodi:guide
       position="67.733334,67.733334"
       orientation="256,0"
       id="guide3361" />
    <sodipodi:guide
       position="67.733334,0"
       orientation="0,-256"
       id="guide3363" />
    <sodipodi:guide
       position="0,0"
       orientation="-256,0"
       id="guide3365" />
    <sodipodi:guide
       position="0,67.733334"
       orientation="0,256"
       id="guide3367" />
    <sodipodi:guide
       position="67.733334,67.733334"
       orientation="256,0"
       id="guide3369" />
    <sodipodi:guide
       position="67.733334,0"
       orientation="0,-256"
       id="guide3371" />
    <sodipodi:guide
       position="0,0"
       orientation="-256,0"
       id="guide3373" />
    <sodipodi:guide
       position="0,67.733334"
       orientation="0,256"
       id="guide3375" />
    <sodipodi:guide
       position="67.733334,67.733334"
       orientation="256,0"
       id="guide3377" />
    <sodipodi:guide
       position="67.733334,0"
       orientation="0,-256"
       id="guide3379" />
    <sodipodi:guide
       position="0,0"
       orientation="-256,0"
       id="guide3381" />
  </sodipodi:namedview>
  <metadata
     id="metadata5">
    <rdf:RDF>
      <cc:Work
         rdf:about="">
        <dc:format>image/svg+xml</dc:format>
        <dc:type
           rdf:resource="http://purl.org/dc/dcmitype/StillImage" />
        <dc:title></dc:title>
      </cc:Work>
    </rdf:RDF>
  </metadata>
  <g
     inkscape:groupmode="layer"
     id="layer2"
     inkscape:label="Icon">
    <path
       id="path1042"
       style="fill:#808080;fill-opacity:1;stroke:none;stroke-width:1.5875;stroke-linecap:round;stroke-linejoin:round;stroke-miterlimit:4;stroke-dasharray:none;stroke-dashoffset:6.00002;stroke-opacity:1;paint-order:markers fill stroke"
       d="m 33.867703,13.129496 c -0.07392,8.13e-4 -0.147794,0.0017 -0.221579,0.003 v 1.084437 h -4.783483 v -0.641968 c -0.07394,0.01257 -0.1479,0.02486 -0.221579,0.03793 v 0.604036 h -2.685877 c -0.25169,0.06934 -0.501294,0.141838 -0.748587,0.2174 h 3.434464 v 3.328345 h -4.783483 v -2.877348 c -0.07444,0.0271 -0.147625,0.05544 -0.22158,0.08313 v 2.794224 h -4.783482 v -0.363186 c -0.07372,0.04965 -0.148872,0.09836 -0.22158,0.148769 v 0.214416 h -0.298913 c -0.100331,0.07243 -0.202382,0.143489 -0.300651,0.2174 h 0.599564 v 3.328772 h -3.927584 c -0.05264,0.07222 -0.10189,0.14611 -0.152933,0.219105 h 4.080517 v 3.328772 h -4.027076 c 0.05165,0.07285 0.104038,0.145335 0.157277,0.2174 h 3.869799 v 3.328346 h -0.500941 c 0.09924,0.07369 0.201518,0.145209 0.302824,0.217399 h 0.198117 v 0.141097 c 0.07324,0.05081 0.147324,0.100861 0.22158,0.1509 v -0.291997 h 4.783482 v 2.723038 c 0.074,0.02771 0.147089,0.05641 0.22158,0.08355 v -2.806587 h 4.783483 v 3.328773 h -3.198547 c 0.25858,0.07656 0.519657,0.149311 0.782909,0.219103 h 2.415638 v 0.53199 c 0.0736,0.01308 0.147709,0.02538 0.221579,0.03794 v -0.569927 h 4.783483 v 1.0124 c 0.07377,0.0013 0.14767,0.0025 0.221579,0.0034 v -1.015811 h 4.783484 v 0.715715 c 0.07401,-0.01024 0.1478,-0.02079 0.221579,-0.03154 v -0.68417 h 3.362776 c 0.263102,-0.06973 0.524031,-0.142611 0.782476,-0.219104 H 38.872766 V 28.619871 H 43.65625 V 31.75 c 0.07367,-0.02376 0.148335,-0.04603 0.221578,-0.07034 v -3.059792 h 4.783485 v 0.895177 c 0.07485,-0.04469 0.147602,-0.09099 0.221578,-0.136408 v -0.758816 h 1.146994 c 0.101144,-0.07207 0.202864,-0.143837 0.301955,-0.217399 h -1.448949 v -3.328313 h 4.21998 v -0.2174 h -4.21998 v -3.328771 h 4.21998 v -0.219104 h -4.21998 v -3.328772 h 1.540621 c -0.09796,-0.07367 -0.198904,-0.1452 -0.298914,-0.2174 h -1.241707 v -0.826971 c -0.07402,-0.04545 -0.146681,-0.09211 -0.221578,-0.136834 v 0.963805 h -4.783485 v -3.129276 c -0.07325,-0.02432 -0.1479,-0.04657 -0.221578,-0.07033 v 3.199611 h -4.783484 v -3.328344 h 4.375085 c -0.247202,-0.07552 -0.496563,-0.148101 -0.748153,-0.2174 h -3.626932 v -0.756207 c -0.07378,-0.01076 -0.147565,-0.0213 -0.221579,-0.03154 v 0.787753 h -4.783484 z m -5.005062,1.304822 h 4.783483 v 3.328344 h -4.783483 z m 5.005062,0 h 4.783484 v 3.328344 h -4.783484 z m -15.015186,3.545744 h 4.783482 v 3.328772 h -4.783482 z m 5.005062,0 h 4.783483 v 3.328772 h -4.783483 z m 5.005062,0 h 4.783483 v 3.328772 h -4.783483 z m 5.005062,0 h 4.783484 v 3.328772 h -4.783484 z m 5.005063,0 h 4.783484 v 3.328772 h -4.783484 z m 5.005062,0 h 4.783485 v 3.328772 h -4.783485 z m -25.025311,3.547877 h 4.783482 v 3.328771 h -4.783482 z m 5.005062,0 h 4.783483 v 3.328771 h -4.783483 z m 5.005062,0 h 4.783483 v 3.328771 h -4.783483 z m 5.005062,0 h 4.783484 v 3.328771 h -4.783484 z m 5.005063,0 h 4.783484 v 3.328771 h -4.783484 z m 5.005062,0 h 4.783485 v 3.328771 h -4.783485 z m 10.488039,0.698236 v 1.86239 c 0.121583,-0.199561 0.238665,-0.400976 0.348444,-0.605735 a 0.66734167,0.65475647 0 0 0 -0.0087,-0.02771 0.66734167,0.65475647 0 0 0 0.0087,-0.623212 c -0.109779,-0.204759 -0.226861,-0.40617 -0.348444,-0.605735 z m -35.51335,2.847935 h 4.783482 v 3.328345 h -4.783482 z m 5.005062,0 h 4.783483 v 3.328345 h -4.783483 z m 5.005062,0 h 4.783483 v 3.328345 h -4.783483 z m 5.005062,0 h 4.783484 v 3.328345 h -4.783484 z m 5.005063,0 h 4.783484 v 3.328345 h -4.783484 z m 5.005062,0 h 4.783485 v 3.328345 h -4.783485 z m -15.015187,3.545745 h 4.783483 v 3.328772 h -4.783483 z m 5.005062,0 h 4.783484 v 3.328772 h -4.783484 z" />
    <path
       id="path1014"
       style="color:#000000;font-style:normal;font-variant:normal;font-weight:normal;font-stretch:normal;font-size:medium;line-height:normal;font-family:sans-serif;font-variant-ligatures:normal;font-variant-position:normal;font-variant-caps:normal;font-variant-numeric:normal;font-variant-alternates:normal;font-variant-east-asian:normal;font-feature-settings:normal;font-variation-settings:normal;text-indent:0;text-align:start;text-decoration:none;text-decoration-line:none;text-decoration-style:solid;text-decoration-color:#000000;letter-spacing:normal;word-spacing:normal;text-transform:none;writing-mode:lr-tb;direction:ltr;text-orientation:mixed;dominant-baseline:auto;baseline-shift:baseline;text-anchor:start;white-space:normal;shape-padding:0;shape-margin:0;inline-size:0;clip-rule:nonzero;display:inline;overflow:visible;visibility:visible;opacity:1;isolation:auto;mix-blend-mode:normal;color-interpolation:sRGB;color-interpolation-filters:linearRGB;solid-color:#000000;solid-opacity:1;vector-effect:none;fill:#808080;fill-opacity:1;fill-rule:nonzero;stroke:none;stroke-width:1.5875;stroke-linecap:round;stroke-linejoin:round;stroke-miterlimit:4;stroke-dasharray:none;stroke-dashoffset:6.00002;stroke-opacity:1;paint-order:markers fill stroke;color-rendering:auto;image-rendering:auto;shape-rendering:auto;text-rendering:auto;enable-background:accumulate;stop-color:#000000;stop-opacity:1"
       d="m 34.022437,12.464215 c -9.574145,0.01012 -18.169023,4.025231 -21.477874,10.305992 a 0.70002366,0.69205224 0 0 0 0.112569,0.79568 c 3.385618,6.16423 11.894636,10.094132 21.365305,10.104141 9.574149,0.01013 18.186748,-3.985065 21.52436,-10.257781 a 0.70002366,0.69205224 0 0 0 -0.0091,-0.02929 0.70002366,0.69205224 0 0 0 0.0091,-0.658711 C 52.209185,16.451535 43.596586,12.454094 34.022437,12.464215 Z m 0.0019,1.384555 c 9.008987,-0.0095 17.004379,3.773976 20.114286,9.218352 -3.109867,5.444483 -11.105231,9.228327 -20.114328,9.218802 -8.986653,-0.0095 -16.947675,-3.790571 -20.048205,-9.218802 3.100622,-5.42811 11.061676,-9.208852 20.048205,-9.218352 z" />
    <path
       id="path1142"
       style="fill:#808080;fill-opacity:1;stroke:none;stroke-width:1.5875;stroke-linecap:round;stroke-linejoin:round;stroke-miterlimit:4;stroke-dasharray:none;stroke-dashoffset:6.00002;stroke-opacity:1;paint-order:markers fill stroke"
       d="m 34.103888,15.330645 a 7.7209521,7.4898156 0 0 0 -7.721096,7.490291 7.7209521,7.4898156 0 0 0 7.721096,7.489736 7.7209521,7.4898156 0 0 0 5.854543,-2.607341 5.2582544,5.3773954 0 0 1 -2.33431,0.558796 5.2582544,5.3773954 0 0 1 -5.258502,-5.376949 5.2582544,5.3773954 0 0 1 5.258502,-5.377503 5.2582544,5.3773954 0 0 1 2.53598,0.666789 7.7209521,7.4898156 0 0 0 -6.056213,-2.843819 z" />
  </g>
</svg>
