<?xml version="1.0" encoding="UTF-8" standalone="no"?>
<svg
   xmlns:dc="http://purl.org/dc/elements/1.1/"
   xmlns:cc="http://creativecommons.org/ns#"
   xmlns:rdf="http://www.w3.org/1999/02/22-rdf-syntax-ns#"
   xmlns:svg="http://www.w3.org/2000/svg"
   xmlns="http://www.w3.org/2000/svg"
   xmlns:sodipodi="http://sodipodi.sourceforge.net/DTD/sodipodi-0.dtd"
   xmlns:inkscape="http://www.inkscape.org/namespaces/inkscape"
   width="256"
   height="256"
   viewBox="0 0 67.733332 67.733335"
   version="1.1"
   id="svg8"
   inkscape:version="1.0.1 (3bc2e813f5, 2020-09-07)"
   sodipodi:docname="role-panel.svg"
   inkscape:export-filename="C:\Users\keath\Workspace\KMX\elite-streamdeck-icons\analysis-mode.png"
   inkscape:export-xdpi="96"
   inkscape:export-ydpi="96">
  <defs
     id="defs2" />
  <sodipodi:namedview
     id="base"
     pagecolor="#000000"
     bordercolor="#666666"
     borderopacity="1.0"
     inkscape:pageopacity="0"
     inkscape:pageshadow="2"
     inkscape:zoom="5.6"
     inkscape:cx="124.1086"
     inkscape:cy="134.39675"
     inkscape:document-units="px"
     inkscape:current-layer="layer2"
     showgrid="true"
     units="px"
     inkscape:snap-grids="true"
     objecttolerance="10000"
     guidetolerance="10000"
     inkscape:window-width="2321"
     inkscape:window-height="1879"
     inkscape:window-x="4802"
     inkscape:window-y="103"
     inkscape:window-maximized="0"
     inkscape:document-rotation="0"
     showguides="true">
    <inkscape:grid
       type="xygrid"
       id="grid4623" />
    <sodipodi:guide
       position="-3.96875,62.441667"
       orientation="0,256"
       id="guide3351" />
    <sodipodi:guide
       position="62.177083,70.379167"
       orientation="256,0"
       id="guide3353" />
    <sodipodi:guide
       position="-2.6458333,22.754167"
       orientation="0,-256"
       id="guide3355" />
    <sodipodi:guide
       position="5.2916667,70.379167"
       orientation="-256,0"
       id="guide3357" />
    <sodipodi:guide
       position="0,67.733334"
       orientation="0,256"
       id="guide3359" />
    <sodipodi:guide
       position="67.733334,67.733334"
       orientation="256,0"
       id="guide3361" />
    <sodipodi:guide
       position="67.733334,0"
       orientation="0,-256"
       id="guide3363" />
    <sodipodi:guide
       position="0,0"
       orientation="-256,0"
       id="guide3365" />
    <sodipodi:guide
       position="0,67.733334"
       orientation="0,256"
       id="guide3367" />
    <sodipodi:guide
       position="67.733334,67.733334"
       orientation="256,0"
       id="guide3369" />
    <sodipodi:guide
       position="67.733334,0"
       orientation="0,-256"
       id="guide3371" />
    <sodipodi:guide
       position="0,0"
       orientation="-256,0"
       id="guide3373" />
    <sodipodi:guide
       position="0,67.733334"
       orientation="0,256"
       id="guide3375" />
    <sodipodi:guide
       position="67.733334,67.733334"
       orientation="256,0"
       id="guide3377" />
    <sodipodi:guide
       position="67.733334,0"
       orientation="0,-256"
       id="guide3379" />
    <sodipodi:guide
       position="0,0"
       orientation="-256,0"
       id="guide3381" />
  </sodipodi:namedview>
  <metadata
     id="metadata5">
    <rdf:RDF>
      <cc:Work
         rdf:about="">
        <dc:format>image/svg+xml</dc:format>
        <dc:type
           rdf:resource="http://purl.org/dc/dcmitype/StillImage" />
        <dc:title />
      </cc:Work>
    </rdf:RDF>
  </metadata>
  <g
     inkscape:groupmode="layer"
     id="layer2"
     inkscape:label="Icon">
    <path
       style="color:#000000;font-style:normal;font-variant:normal;font-weight:normal;font-stretch:normal;font-size:medium;line-height:normal;font-family:sans-serif;font-variant-ligatures:normal;font-variant-position:normal;font-variant-caps:normal;font-variant-numeric:normal;font-variant-alternates:normal;font-variant-east-asian:normal;font-feature-settings:normal;font-variation-settings:normal;text-indent:0;text-align:start;text-decoration:none;text-decoration-line:none;text-decoration-style:solid;text-decoration-color:#000000;letter-spacing:normal;word-spacing:normal;text-transform:none;writing-mode:lr-tb;direction:ltr;text-orientation:mixed;dominant-baseline:auto;baseline-shift:baseline;text-anchor:start;white-space:normal;shape-padding:0;shape-margin:0;inline-size:0;clip-rule:nonzero;display:inline;overflow:visible;visibility:visible;isolation:auto;mix-blend-mode:normal;color-interpolation:sRGB;color-interpolation-filters:linearRGB;solid-color:#000000;solid-opacity:1;vector-effect:none;fill:#808080;fill-opacity:1;fill-rule:nonzero;stroke:none;stroke-width:0.844569;stroke-linecap:round;stroke-linejoin:round;stroke-miterlimit:4;stroke-dasharray:none;stroke-dashoffset:0;stroke-opacity:1;color-rendering:auto;image-rendering:auto;shape-rendering:auto;text-rendering:auto;enable-background:accumulate;stop-color:#000000"
       d="m 32.799074,17.17373 c -0.09599,0.0019 -0.189689,0.03103 -0.270864,0.08408 l -0.973417,0.635868 c -0.244828,0.159732 -0.318109,0.493425 -0.163646,0.745174 l 1.848337,3.012751 c 0.154395,0.251672 0.477902,0.32614 0.72256,0.166325 l 0.973672,-0.635867 c 0.244739,-0.159819 0.3179,-0.493494 0.163389,-0.745174 l -1.848336,-3.012753 c -0.09759,-0.159131 -0.268809,-0.25405 -0.451695,-0.250405 z M 15.419935,17.2155 c -0.175025,0.0041 -0.336237,0.09808 -0.429637,0.250405 l -1.848337,3.012753 c -0.154336,0.251627 -0.08119,0.585103 0.163391,0.74491 l 0.972903,0.635343 c 0.244658,0.159814 0.568166,0.08535 0.722559,-0.166326 l 1.848338,-3.012752 c 0.154464,-0.25175 0.08118,-0.585443 -0.163647,-0.745174 l -0.972647,-0.635341 c -0.08754,-0.05712 -0.189472,-0.08628 -0.292923,-0.08382 z m 1.855776,1.825361 c -0.148282,0.003 -0.288405,0.07012 -0.385777,0.184717 -0.190769,0.22422 -0.16779,0.564452 0.0513,0.759625 l 1.998903,1.782794 c 0.218987,0.195534 0.551321,0.171874 0.741797,-0.05281 0.190705,-0.224289 0.167614,-0.564526 -0.05155,-0.759624 l -1.999926,-1.782532 c -0.09818,-0.08755 -0.224591,-0.134653 -0.354739,-0.132164 z m 13.806353,5.06e-4 c -0.0102,-1.33e-4 -0.02035,3.7e-5 -0.03052,5.09e-4 -0.118687,0.0052 -0.232163,0.05138 -0.321905,0.131115 l -1.998903,1.782532 c -0.219169,0.195098 -0.24226,0.535336 -0.05156,0.759625 0.190387,0.223999 0.521931,0.247636 0.740772,0.05281 l 1.999928,-1.782794 c 0.21917,-0.195099 0.242262,-0.535338 0.05156,-0.759628 -0.0983,-0.115347 -0.239908,-0.182336 -0.389367,-0.184192 z m -10.644738,1.250454 c -0.254502,4.5e-5 -0.460767,0.212988 -0.460673,0.475587 v 6.536299 c -9.4e-5,0.262598 0.206171,0.475541 0.460673,0.475586 h 7.486201 c 0.254602,1.02e-4 0.461024,-0.212883 0.460931,-0.475586 V 20.76743 c 9.3e-5,-0.262703 -0.206328,-0.475689 -0.460931,-0.475588 z m 0.57456,0.594877 c 3.35e-4,0 6.71e-4,0 0.001,0 h 6.335038 c 0.254503,-10e-5 0.460882,0.212725 0.46093,0.475325 v 3.565325 c 1.04e-4,0.262709 -0.206321,0.475706 -0.46093,0.475606 h -6.335019 c -0.254602,10e-5 -0.461023,-0.212885 -0.460929,-0.475587 v -3.565326 c 4.7e-5,-0.262187 0.205802,-0.474841 0.459904,-0.475324 z m -6.909334,4.208027 c -0.870664,-1.46e-4 -1.576473,0.722995 -1.57619,1.614893 v 4.158889 c -2.84e-4,0.8919 0.705525,1.61504 1.57619,1.614895 0.870365,-2.9e-4 1.575706,-0.723303 1.575422,-1.614895 v -4.158872 c 2.83e-4,-0.891591 -0.705057,-1.614603 -1.575422,-1.614893 z m 4.03115,0 c -0.870766,-2.9e-4 -1.57673,0.722892 -1.576447,1.614893 v 4.158889 c -2.84e-4,0.892002 0.705681,1.615184 1.576447,1.614895 0.870665,1.45e-4 1.576475,-0.722995 1.576191,-1.614895 v -4.158872 c 2.83e-4,-0.891899 -0.705526,-1.615038 -1.576191,-1.614893 z m 12.093706,0 c -0.870665,-1.46e-4 -1.576474,0.722995 -1.576191,1.614893 v 4.158889 c -2.84e-4,0.8919 0.705525,1.61504 1.576191,1.614895 0.870363,-2.91e-4 1.575703,-0.723304 1.575419,-1.614895 v -4.158872 c 2.83e-4,-0.89159 -0.705056,-1.614602 -1.575419,-1.614893 z m 4.031149,0 c -0.870764,-2.9e-4 -1.576729,0.722893 -1.576446,1.614893 v 4.158889 c -2.84e-4,0.892002 0.705681,1.615184 1.576446,1.614895 0.870264,-4.35e-4 1.575448,-0.723407 1.575164,-1.614895 v -4.158868 c 2.83e-4,-0.891488 -0.7049,-1.614459 -1.575164,-1.614894 z m -13.245646,3.45392 c -0.289922,-1.46e-4 -0.525144,0.240342 -0.525568,0.537335 -1.41e-4,0.297402 0.235246,0.53853 0.525568,0.538385 h 6.334261 c 0.290321,1.44e-4 0.525709,-0.240984 0.525568,-0.538385 -4.25e-4,-0.296992 -0.235646,-0.53748 -0.525568,-0.537335 z"
       id="path970" />
    <path
       style="color:#000000;font-style:normal;font-variant:normal;font-weight:normal;font-stretch:normal;font-size:medium;line-height:normal;font-family:sans-serif;font-variant-ligatures:normal;font-variant-position:normal;font-variant-caps:normal;font-variant-numeric:normal;font-variant-alternates:normal;font-variant-east-asian:normal;font-feature-settings:normal;font-variation-settings:normal;text-indent:0;text-align:start;text-decoration:none;text-decoration-line:none;text-decoration-style:solid;text-decoration-color:#000000;letter-spacing:normal;word-spacing:normal;text-transform:none;writing-mode:lr-tb;direction:ltr;text-orientation:mixed;dominant-baseline:auto;baseline-shift:baseline;text-anchor:start;white-space:normal;shape-padding:0;shape-margin:0;inline-size:0;clip-rule:nonzero;display:inline;overflow:visible;visibility:visible;isolation:auto;mix-blend-mode:normal;color-interpolation:sRGB;color-interpolation-filters:linearRGB;solid-color:#000000;solid-opacity:1;vector-effect:none;fill:#808080;fill-opacity:1;fill-rule:nonzero;stroke:none;stroke-width:0.844569;stroke-linecap:butt;stroke-linejoin:round;stroke-miterlimit:4;stroke-dasharray:none;stroke-dashoffset:6.00002;stroke-opacity:1;paint-order:markers fill stroke;color-rendering:auto;image-rendering:auto;shape-rendering:auto;text-rendering:auto;enable-background:accumulate;stop-color:#000000"
       d="m 39.821592,13.268953 a 0.41726928,0.42744566 0 0 0 -0.416817,0.429085 v 8.548059 a 0.41726928,0.42744566 0 0 0 0.416817,0.426983 h 15.299027 a 0.41726928,0.42744566 0 0 0 0.416818,-0.426983 v -8.548059 a 0.41726928,0.42744566 0 0 0 -0.416818,-0.429085 z m 0.416816,0.856068 H 54.70175 v 7.691991 H 40.238408 Z"
       id="path1001" />
    <path
       style="color:#000000;font-style:normal;font-variant:normal;font-weight:normal;font-stretch:normal;font-size:medium;line-height:normal;font-family:sans-serif;font-variant-ligatures:normal;font-variant-position:normal;font-variant-caps:normal;font-variant-numeric:normal;font-variant-alternates:normal;font-variant-east-asian:normal;font-feature-settings:normal;font-variation-settings:normal;text-indent:0;text-align:start;text-decoration:none;text-decoration-line:none;text-decoration-style:solid;text-decoration-color:#000000;letter-spacing:normal;word-spacing:normal;text-transform:none;writing-mode:lr-tb;direction:ltr;text-orientation:mixed;dominant-baseline:auto;baseline-shift:baseline;text-anchor:start;white-space:normal;shape-padding:0;shape-margin:0;inline-size:0;clip-rule:nonzero;display:inline;overflow:visible;visibility:visible;isolation:auto;mix-blend-mode:normal;color-interpolation:sRGB;color-interpolation-filters:linearRGB;solid-color:#000000;solid-opacity:1;vector-effect:none;fill:#808080;fill-opacity:1;fill-rule:nonzero;stroke:none;stroke-width:0.844569;stroke-linecap:butt;stroke-linejoin:round;stroke-miterlimit:4;stroke-dasharray:none;stroke-dashoffset:6.00002;stroke-opacity:1;paint-order:markers fill stroke;color-rendering:auto;image-rendering:auto;shape-rendering:auto;text-rendering:auto;enable-background:accumulate;stop-color:#000000"
       d="m 39.821592,26.091041 a 0.41726928,0.42744566 0 0 0 -0.416817,0.429085 v 9.972034 a 0.41726928,0.42744566 0 0 0 0.416817,0.426982 h 15.299027 a 0.41726928,0.42744566 0 0 0 0.416818,-0.426982 v -9.972034 a 0.41726928,0.42744566 0 0 0 -0.416818,-0.429085 z m 0.416816,0.856068 H 54.70175 v 9.11807 H 40.238408 Z"
       id="path1023" />
    <path
       style="fill:#808080;fill-opacity:1;stroke:#808080;stroke-width:0.844569;stroke-linejoin:round;stroke-miterlimit:4;stroke-dasharray:none;stroke-dashoffset:6.00002;stroke-opacity:1;paint-order:markers fill stroke"
       d="m 41.212349,16.54669 h 5.563035"
       id="path1028" />
    <path
       style="fill:#808080;fill-opacity:1;stroke:#808080;stroke-width:0.844569;stroke-linejoin:round;stroke-miterlimit:4;stroke-dasharray:none;stroke-dashoffset:6.00002;stroke-opacity:1;paint-order:markers fill stroke"
       d="m 41.212349,17.971366 h 8.344552"
       id="path1030" />
    <path
       style="fill:#808080;fill-opacity:1;stroke:#808080;stroke-width:0.844569;stroke-linejoin:round;stroke-miterlimit:4;stroke-dasharray:none;stroke-dashoffset:6.00002;stroke-opacity:1;paint-order:markers fill stroke"
       d="m 41.212349,19.396043 h 5.563035"
       id="path1032" />
    <path
       style="fill:#808080;fill-opacity:1;stroke:#808080;stroke-width:0.844569;stroke-linejoin:round;stroke-miterlimit:4;stroke-dasharray:none;stroke-dashoffset:6.00002;stroke-opacity:1;paint-order:markers fill stroke"
       d="m 49.556901,29.368778 h 4.172275"
       id="path1036" />
    <path
       style="fill:#808080;fill-opacity:1;stroke:#808080;stroke-width:0.844569;stroke-linejoin:round;stroke-miterlimit:4;stroke-dasharray:none;stroke-dashoffset:6.00002;stroke-opacity:1;paint-order:markers fill stroke"
       d="m 43.993866,30.793454 h 9.73531"
       id="path1038" />
    <path
       style="fill:#808080;fill-opacity:1;stroke:#808080;stroke-width:0.844569;stroke-linejoin:round;stroke-miterlimit:4;stroke-dasharray:none;stroke-dashoffset:6.00002;stroke-opacity:1;paint-order:markers fill stroke"
       d="M 43.993866,33.642807 H 41.212349"
       id="path1040" />
    <path
       style="fill:#808080;fill-opacity:1;stroke:#808080;stroke-width:0.844569;stroke-linejoin:round;stroke-miterlimit:4;stroke-dasharray:none;stroke-dashoffset:6.00002;stroke-opacity:1;paint-order:markers fill stroke"
       d="m 46.775384,33.642807 h 6.953792"
       id="path1042" />
    <path
       id="path903"
       style="color:#000000;font-style:normal;font-variant:normal;font-weight:normal;font-stretch:normal;font-size:medium;line-height:normal;font-family:sans-serif;font-variant-ligatures:normal;font-variant-position:normal;font-variant-caps:normal;font-variant-numeric:normal;font-variant-alternates:normal;font-variant-east-asian:normal;font-feature-settings:normal;font-variation-settings:normal;text-indent:0;text-align:start;text-decoration:none;text-decoration-line:none;text-decoration-style:solid;text-decoration-color:#000000;letter-spacing:normal;word-spacing:normal;text-transform:none;writing-mode:lr-tb;direction:ltr;text-orientation:mixed;dominant-baseline:auto;baseline-shift:baseline;text-anchor:start;white-space:normal;shape-padding:0;shape-margin:0;inline-size:0;clip-rule:nonzero;display:inline;overflow:visible;visibility:visible;opacity:1;isolation:auto;mix-blend-mode:normal;color-interpolation:sRGB;color-interpolation-filters:linearRGB;solid-color:#000000;solid-opacity:1;vector-effect:none;fill:#808080;fill-opacity:1;fill-rule:nonzero;stroke:none;stroke-width:2.53371;stroke-linecap:round;stroke-linejoin:round;stroke-miterlimit:4;stroke-dasharray:none;stroke-dashoffset:0;stroke-opacity:1;color-rendering:auto;image-rendering:auto;shape-rendering:auto;text-rendering:auto;enable-background:accumulate;stop-color:#000000;stop-opacity:1"
       d="M 6.5417173,5.2906326 A 1.2518078,1.2823369 0 0 0 5.2916643,6.5739544 V 43.616098 a 1.2518078,1.2823369 0 0 0 1.250053,1.281097 H 60.781302 A 1.2518078,1.2823369 0 0 0 62.03407,43.616098 V 6.5739544 A 1.2518078,1.2823369 0 0 0 60.781302,5.2906326 Z M 7.7944864,7.8572762 H 59.53125 V 42.333333 H 7.7944864 Z" />
    <path
       style="fill:none;stroke:#808080;stroke-width:0.563046;stroke-linejoin:round;stroke-dashoffset:6.00002;paint-order:markers fill stroke"
       d="m 12.006421,10.847985 h 6.953792"
       id="path974" />
    <path
       style="fill:none;stroke:#808080;stroke-width:0.563046;stroke-linejoin:round;stroke-dashoffset:6.00002;paint-order:markers fill stroke"
       d="m 12.006421,12.272661 h 4.172275"
       id="path976" />
    <path
       style="fill:none;stroke:#808080;stroke-width:0.563046;stroke-linejoin:round;stroke-dashoffset:6.00002;paint-order:markers fill stroke"
       d="m 12.006421,13.697337 h 6.953792"
       id="path978" />
  </g>
</svg>
