<?xml version="1.0" encoding="UTF-8" standalone="no"?>
<svg
   xmlns:dc="http://purl.org/dc/elements/1.1/"
   xmlns:cc="http://creativecommons.org/ns#"
   xmlns:rdf="http://www.w3.org/1999/02/22-rdf-syntax-ns#"
   xmlns:svg="http://www.w3.org/2000/svg"
   xmlns="http://www.w3.org/2000/svg"
   xmlns:sodipodi="http://sodipodi.sourceforge.net/DTD/sodipodi-0.dtd"
   xmlns:inkscape="http://www.inkscape.org/namespaces/inkscape"
   width="256"
   height="256"
   viewBox="0 0 67.733332 67.733335"
   version="1.1"
   id="svg8"
   inkscape:version="1.0.1 (3bc2e813f5, 2020-09-07)"
   sodipodi:docname="rotation-correction.svg"
   inkscape:export-filename="C:\Users\keath\Workspace\KMX\elite-streamdeck-icons\ship-lights.png"
   inkscape:export-xdpi="96"
   inkscape:export-ydpi="96">
  <defs
     id="defs2" />
  <sodipodi:namedview
     id="base"
     pagecolor="#000000"
     bordercolor="#666666"
     borderopacity="1.0"
     inkscape:pageopacity="0"
     inkscape:pageshadow="2"
     inkscape:zoom="5.6"
     inkscape:cx="119.77829"
     inkscape:cy="112.31004"
     inkscape:document-units="px"
     inkscape:current-layer="layer2"
     showgrid="true"
     units="px"
     inkscape:snap-grids="true"
     objecttolerance="10000"
     guidetolerance="10000"
     inkscape:window-width="2321"
     inkscape:window-height="1879"
     inkscape:window-x="4802"
     inkscape:window-y="103"
     inkscape:window-maximized="0"
     inkscape:document-rotation="0"
     showguides="true">
    <inkscape:grid
       type="xygrid"
       id="grid4623" />
    <sodipodi:guide
       position="-3.96875,62.441667"
       orientation="0,256"
       id="guide3351" />
    <sodipodi:guide
       position="62.177083,70.379167"
       orientation="256,0"
       id="guide3353" />
    <sodipodi:guide
       position="-2.6458333,22.754167"
       orientation="0,-256"
       id="guide3355" />
    <sodipodi:guide
       position="5.2916667,70.379167"
       orientation="-256,0"
       id="guide3357" />
    <sodipodi:guide
       position="0,67.733334"
       orientation="0,256"
       id="guide3359" />
    <sodipodi:guide
       position="67.733334,67.733334"
       orientation="256,0"
       id="guide3361" />
    <sodipodi:guide
       position="67.733334,0"
       orientation="0,-256"
       id="guide3363" />
    <sodipodi:guide
       position="0,0"
       orientation="-256,0"
       id="guide3365" />
    <sodipodi:guide
       position="0,67.733334"
       orientation="0,256"
       id="guide3367" />
    <sodipodi:guide
       position="67.733334,67.733334"
       orientation="256,0"
       id="guide3369" />
    <sodipodi:guide
       position="67.733334,0"
       orientation="0,-256"
       id="guide3371" />
    <sodipodi:guide
       position="0,0"
       orientation="-256,0"
       id="guide3373" />
    <sodipodi:guide
       position="0,67.733334"
       orientation="0,256"
       id="guide3375" />
    <sodipodi:guide
       position="67.733334,67.733334"
       orientation="256,0"
       id="guide3377" />
    <sodipodi:guide
       position="67.733334,0"
       orientation="0,-256"
       id="guide3379" />
    <sodipodi:guide
       position="0,0"
       orientation="-256,0"
       id="guide3381" />
  </sodipodi:namedview>
  <metadata
     id="metadata5">
    <rdf:RDF>
      <cc:Work
         rdf:about="">
        <dc:format>image/svg+xml</dc:format>
        <dc:type
           rdf:resource="http://purl.org/dc/dcmitype/StillImage" />
        <dc:title />
      </cc:Work>
    </rdf:RDF>
  </metadata>
  <g
     inkscape:groupmode="layer"
     id="layer2"
     inkscape:label="Icon">
    <path
       id="path2119"
       style="color:#000000;font-style:normal;font-variant:normal;font-weight:normal;font-stretch:normal;font-size:medium;line-height:normal;font-family:sans-serif;font-variant-ligatures:normal;font-variant-position:normal;font-variant-caps:normal;font-variant-numeric:normal;font-variant-alternates:normal;font-variant-east-asian:normal;font-feature-settings:normal;font-variation-settings:normal;text-indent:0;text-align:start;text-decoration:none;text-decoration-line:none;text-decoration-style:solid;text-decoration-color:#000000;letter-spacing:normal;word-spacing:normal;text-transform:none;writing-mode:lr-tb;direction:ltr;text-orientation:mixed;dominant-baseline:auto;baseline-shift:baseline;text-anchor:start;white-space:normal;shape-padding:0;shape-margin:0;inline-size:0;clip-rule:nonzero;display:inline;overflow:visible;visibility:visible;isolation:auto;mix-blend-mode:normal;color-interpolation:sRGB;color-interpolation-filters:linearRGB;solid-color:#000000;solid-opacity:1;vector-effect:none;fill:#808080;fill-opacity:1;fill-rule:nonzero;stroke:none;stroke-width:0.919589;stroke-linecap:round;stroke-linejoin:round;stroke-miterlimit:4;stroke-dasharray:none;stroke-dashoffset:0;stroke-opacity:1;color-rendering:auto;image-rendering:auto;shape-rendering:auto;text-rendering:auto;enable-background:accumulate;stop-color:#000000"
       d="m 27.885383,16.078457 a 0.67361335,0.5991425 0 0 0 -0.676244,0.598364 v 3.393578 h -1.570885 a 0.6736807,0.59920241 0 0 0 -0.673613,0.601484 v 1.397999 H 21.14925 a 0.67361335,0.5991425 0 0 0 -0.676243,0.598363 0.67361335,0.5991425 0 0 0 0.676243,0.598364 h 3.815391 v 2.795215 H 21.14925 a 0.67361335,0.5991425 0 0 0 -0.676243,0.601483 0.67361335,0.5991425 0 0 0 0.676243,0.599141 h 3.815391 v 1.397223 a 0.6736807,0.59920241 0 0 0 0.673613,0.598363 h 1.570885 v 3.396699 a 0.67361335,0.5991425 0 0 0 0.676244,0.599142 0.67361335,0.5991425 0 0 0 0.673614,-0.599142 v -3.396699 h 4.040804 v 3.396699 a 0.67361335,0.5991425 0 0 0 0.672738,0.599142 0.67361335,0.5991425 0 0 0 0.672733,-0.599142 v -3.396699 h 4.491635 v 3.396699 a 0.67361335,0.5991425 0 0 0 0.673614,0.599142 0.67361335,0.5991425 0 0 0 0.676246,-0.599142 v -3.396699 h 1.570884 a 0.6736807,0.59920241 0 0 0 0.673613,-0.598363 v -1.397223 h 3.81539 A 0.67361335,0.5991425 0 0 0 46.5229,26.663307 0.67361335,0.5991425 0 0 0 45.846654,26.061824 h -3.81539 v -2.795215 h 3.81539 A 0.67361335,0.5991425 0 0 0 46.5229,22.668245 0.67361335,0.5991425 0 0 0 45.846654,22.069882 h -3.81539 v -1.397999 a 0.6736807,0.59920241 0 0 0 -0.673613,-0.601484 h -1.570884 v -3.393578 a 0.67361335,0.5991425 0 0 0 -0.676246,-0.598364 0.67361335,0.5991425 0 0 0 -0.673614,0.598364 v 3.393578 h -4.040804 v -3.393578 a 0.67361335,0.5991425 0 0 0 -0.672738,-0.598364 0.67361335,0.5991425 0 0 0 -0.672732,0.598364 v 3.393578 h -4.491636 v -3.393578 a 0.67361335,0.5991425 0 0 0 -0.673614,-0.598364 z m 0,5.393065 h 11.225138 a 1.3473614,1.1984048 0 0 1 1.348978,1.196723 v 3.995062 a 1.3473614,1.1984048 0 0 1 -1.348978,1.197509 H 27.885383 a 1.3473614,1.1984048 0 0 1 -1.348977,-1.197509 v -3.995062 a 1.3473614,1.1984048 0 0 1 1.348977,-1.196723 z" />
    <path
       id="path1266"
       style="color:#000000;font-style:normal;font-variant:normal;font-weight:normal;font-stretch:normal;font-size:medium;line-height:normal;font-family:sans-serif;font-variant-ligatures:normal;font-variant-position:normal;font-variant-caps:normal;font-variant-numeric:normal;font-variant-alternates:normal;font-variant-east-asian:normal;font-feature-settings:normal;font-variation-settings:normal;text-indent:0;text-align:start;text-decoration:none;text-decoration-line:none;text-decoration-style:solid;text-decoration-color:#000000;letter-spacing:normal;word-spacing:normal;text-transform:none;writing-mode:lr-tb;direction:ltr;text-orientation:mixed;dominant-baseline:auto;baseline-shift:baseline;text-anchor:start;white-space:normal;shape-padding:0;shape-margin:0;inline-size:0;clip-rule:nonzero;display:inline;overflow:visible;visibility:visible;opacity:1;isolation:auto;mix-blend-mode:normal;color-interpolation:sRGB;color-interpolation-filters:linearRGB;solid-color:#000000;solid-opacity:1;vector-effect:none;fill:#808080;fill-opacity:1;fill-rule:nonzero;stroke:none;stroke-width:2.14571;stroke-linecap:round;stroke-linejoin:miter;stroke-miterlimit:4;stroke-dasharray:none;stroke-dashoffset:6.00002;stroke-opacity:1;paint-order:markers fill stroke;color-rendering:auto;image-rendering:auto;shape-rendering:auto;text-rendering:auto;enable-background:accumulate;stop-color:#000000;stop-opacity:1"
       d="m 40.498616,5.7802308 v 2.2953798 c 6.570793,2.7071194 11.188928,9.1659034 11.188928,16.7226264 0,7.556901 -4.617849,14.017342 -11.188928,16.725023 v 2.295379 c 7.771399,-2.82494 13.33344,-10.28146 13.33344,-19.020402 0,-8.738943 -5.561922,-16.1937067 -13.33344,-19.0180062 z m -13.903393,0.039513 c -7.714205,2.8539937 -13.22328,10.2802182 -13.22328,18.9784932 0,8.69828 5.509065,16.12625 13.22328,18.980887 V 41.480753 C 20.082158,38.74708 15.517052,32.313762 15.517052,24.798237 c 0,-7.515522 4.565112,-13.94712 11.078171,-16.6801201 z" />
    <path
       sodipodi:type="star"
       style="fill:#808080;fill-opacity:1;stroke:none;stroke-width:2.53828;stroke-linecap:round;stroke-miterlimit:4;stroke-dasharray:none;stroke-dashoffset:6.00002;stroke-opacity:1;paint-order:markers fill stroke"
       id="path1288"
       sodipodi:sides="3"
       sodipodi:cx="28.042162"
       sodipodi:cy="10.421278"
       sodipodi:r1="4.7698436"
       sodipodi:r2="2.3849218"
       sodipodi:arg1="1.0471976"
       sodipodi:arg2="2.0943951"
       inkscape:flatsided="true"
       inkscape:rounded="0"
       inkscape:randomized="0"
       d="M 30.427084,14.552084 23.272318,10.421278 30.427084,6.2904724 Z"
       inkscape:transform-center-x="0.048585053"
       transform="matrix(0.74205769,0.40490373,-0.40490373,0.74205769,8.2058148,-11.182558)"
       inkscape:transform-center-y="0.96566337" />
    <path
       sodipodi:type="star"
       style="fill:#808080;fill-opacity:1;stroke:none;stroke-width:2.53828;stroke-linecap:round;stroke-miterlimit:4;stroke-dasharray:none;stroke-dashoffset:6.00002;stroke-opacity:1;paint-order:markers fill stroke"
       id="path1288-9"
       sodipodi:sides="3"
       sodipodi:cx="28.042162"
       sodipodi:cy="10.421278"
       sodipodi:r1="4.7698436"
       sodipodi:r2="2.3849218"
       sodipodi:arg1="1.0471976"
       sodipodi:arg2="2.0943951"
       inkscape:flatsided="true"
       inkscape:rounded="0"
       inkscape:randomized="0"
       d="M 30.427084,14.552084 23.272318,10.421278 30.427084,6.2904724 Z"
       inkscape:transform-center-x="0.04858446"
       transform="matrix(0.74205745,-0.40490413,0.40490413,0.74205745,15.975045,45.971569)"
       inkscape:transform-center-y="-0.96566505" />
  </g>
</svg>
