<?xml version="1.0" encoding="UTF-8" standalone="no"?>
<svg
   xmlns:dc="http://purl.org/dc/elements/1.1/"
   xmlns:cc="http://creativecommons.org/ns#"
   xmlns:rdf="http://www.w3.org/1999/02/22-rdf-syntax-ns#"
   xmlns:svg="http://www.w3.org/2000/svg"
   xmlns="http://www.w3.org/2000/svg"
   xmlns:sodipodi="http://sodipodi.sourceforge.net/DTD/sodipodi-0.dtd"
   xmlns:inkscape="http://www.inkscape.org/namespaces/inkscape"
   width="256"
   height="256"
   viewBox="0 0 67.733332 67.733335"
   version="1.1"
   id="svg8"
   inkscape:version="1.0.1 (3bc2e813f5, 2020-09-07)"
   sodipodi:docname="rotation-correction.svg"
   inkscape:export-filename="C:\Users\keath\Workspace\KMX\elite-streamdeck-icons\ship-lights.png"
   inkscape:export-xdpi="96"
   inkscape:export-ydpi="96">
  <defs
     id="defs2" />
  <sodipodi:namedview
     id="base"
     pagecolor="#000000"
     bordercolor="#666666"
     borderopacity="1.0"
     inkscape:pageopacity="0"
     inkscape:pageshadow="2"
     inkscape:zoom="5.6"
     inkscape:cx="119.77829"
     inkscape:cy="112.31004"
     inkscape:document-units="px"
     inkscape:current-layer="layer2"
     showgrid="true"
     units="px"
     inkscape:snap-grids="true"
     objecttolerance="10000"
     guidetolerance="10000"
     inkscape:window-width="2321"
     inkscape:window-height="1879"
     inkscape:window-x="4802"
     inkscape:window-y="103"
     inkscape:window-maximized="0"
     inkscape:document-rotation="0"
     showguides="true">
    <inkscape:grid
       type="xygrid"
       id="grid4623" />
    <sodipodi:guide
       position="-3.96875,62.441667"
       orientation="0,256"
       id="guide3351" />
    <sodipodi:guide
       position="62.177083,70.379167"
       orientation="256,0"
       id="guide3353" />
    <sodipodi:guide
       position="-2.6458333,22.754167"
       orientation="0,-256"
       id="guide3355" />
    <sodipodi:guide
       position="5.2916667,70.379167"
       orientation="-256,0"
       id="guide3357" />
    <sodipodi:guide
       position="0,67.733334"
       orientation="0,256"
       id="guide3359" />
    <sodipodi:guide
       position="67.733334,67.733334"
       orientation="256,0"
       id="guide3361" />
    <sodipodi:guide
       position="67.733334,0"
       orientation="0,-256"
       id="guide3363" />
    <sodipodi:guide
       position="0,0"
       orientation="-256,0"
       id="guide3365" />
    <sodipodi:guide
       position="0,67.733334"
       orientation="0,256"
       id="guide3367" />
    <sodipodi:guide
       position="67.733334,67.733334"
       orientation="256,0"
       id="guide3369" />
    <sodipodi:guide
       position="67.733334,0"
       orientation="0,-256"
       id="guide3371" />
    <sodipodi:guide
       position="0,0"
       orientation="-256,0"
       id="guide3373" />
    <sodipodi:guide
       position="0,67.733334"
       orientation="0,256"
       id="guide3375" />
    <sodipodi:guide
       position="67.733334,67.733334"
       orientation="256,0"
       id="guide3377" />
    <sodipodi:guide
       position="67.733334,0"
       orientation="0,-256"
       id="guide3379" />
    <sodipodi:guide
       position="0,0"
       orientation="-256,0"
       id="guide3381" />
  </sodipodi:namedview>
  <metadata
     id="metadata5">
    <rdf:RDF>
      <cc:Work
         rdf:about="">
        <dc:format>image/svg+xml</dc:format>
        <dc:type
           rdf:resource="http://purl.org/dc/dcmitype/StillImage" />
        <dc:title></dc:title>
      </cc:Work>
    </rdf:RDF>
  </metadata>
  <g
     inkscape:groupmode="layer"
     id="layer2"
     inkscape:label="Icon">
    <path
       id="path2119"
       style="color:#000000;font-style:normal;font-variant:normal;font-weight:normal;font-stretch:normal;font-size:medium;line-height:normal;font-family:sans-serif;font-variant-ligatures:normal;font-variant-position:normal;font-variant-caps:normal;font-variant-numeric:normal;font-variant-alternates:normal;font-variant-east-asian:normal;font-feature-settings:normal;font-variation-settings:normal;text-indent:0;text-align:start;text-decoration:none;text-decoration-line:none;text-decoration-style:solid;text-decoration-color:#000000;letter-spacing:normal;word-spacing:normal;text-transform:none;writing-mode:lr-tb;direction:ltr;text-orientation:mixed;dominant-baseline:auto;baseline-shift:baseline;text-anchor:start;white-space:normal;shape-padding:0;shape-margin:0;inline-size:0;clip-rule:nonzero;display:inline;overflow:visible;visibility:visible;isolation:auto;mix-blend-mode:normal;color-interpolation:sRGB;color-interpolation-filters:linearRGB;solid-color:#000000;solid-opacity:1;vector-effect:none;fill:#808080;fill-opacity:1;fill-rule:nonzero;stroke:none;stroke-width:0.79375;stroke-linecap:round;stroke-linejoin:round;stroke-miterlimit:4;stroke-dasharray:none;stroke-dashoffset:0;stroke-opacity:1;color-rendering:auto;image-rendering:auto;shape-rendering:auto;text-rendering:auto;enable-background:accumulate;stop-color:#000000"
       d="m 29.603493,17.844222 a 0.58143442,0.51715435 0 0 0 -0.583706,0.516482 v 2.929192 h -1.355921 a 0.58149255,0.51720605 0 0 0 -0.581434,0.519176 v 1.206693 h -3.293283 a 0.58143442,0.51715435 0 0 0 -0.583704,0.516482 0.58143442,0.51715435 0 0 0 0.583704,0.516482 h 3.293283 v 2.412711 h -3.293283 a 0.58143442,0.51715435 0 0 0 -0.583704,0.519175 0.58143442,0.51715435 0 0 0 0.583704,0.517153 h 3.293283 v 1.206023 a 0.58149255,0.51720605 0 0 0 0.581434,0.516482 h 1.355921 v 2.931886 a 0.58143442,0.51715435 0 0 0 0.583706,0.517154 0.58143442,0.51715435 0 0 0 0.581435,-0.517154 v -2.931886 h 3.48785 v 2.931886 a 0.58143442,0.51715435 0 0 0 0.580679,0.517154 0.58143442,0.51715435 0 0 0 0.580674,-0.517154 v -2.931886 h 3.876989 v 2.931886 a 0.58143442,0.51715435 0 0 0 0.581435,0.517154 0.58143442,0.51715435 0 0 0 0.583706,-0.517154 v -2.931886 h 1.355921 a 0.58149255,0.51720605 0 0 0 0.581434,-0.516482 v -1.206023 h 3.293283 a 0.58143442,0.51715435 0 0 0 0.583706,-0.517153 0.58143442,0.51715435 0 0 0 -0.583706,-0.519175 h -3.293283 v -2.412711 h 3.293283 a 0.58143442,0.51715435 0 0 0 0.583706,-0.516482 0.58143442,0.51715435 0 0 0 -0.583706,-0.516482 h -3.293283 v -1.206693 a 0.58149255,0.51720605 0 0 0 -0.581434,-0.519176 h -1.355921 v -2.929192 a 0.58143442,0.51715435 0 0 0 -0.583706,-0.516482 0.58143442,0.51715435 0 0 0 -0.581435,0.516482 v 2.929192 h -3.48785 v -2.929192 a 0.58143442,0.51715435 0 0 0 -0.580679,-0.516482 0.58143442,0.51715435 0 0 0 -0.580674,0.516482 v 2.929192 h -3.876989 v -2.929192 a 0.58143442,0.51715435 0 0 0 -0.581435,-0.516482 z m 0,4.655065 h 9.689062 a 1.1629851,1.0344121 0 0 1 1.16438,1.03296 v 3.448368 a 1.1629851,1.0344121 0 0 1 -1.16438,1.033638 h -9.689062 a 1.1629851,1.0344121 0 0 1 -1.16438,-1.033638 v -3.448368 a 1.1629851,1.0344121 0 0 1 1.16438,-1.03296 z" />
    <path
       id="path1266"
       style="color:#000000;font-style:normal;font-variant:normal;font-weight:normal;font-stretch:normal;font-size:medium;line-height:normal;font-family:sans-serif;font-variant-ligatures:normal;font-variant-position:normal;font-variant-caps:normal;font-variant-numeric:normal;font-variant-alternates:normal;font-variant-east-asian:normal;font-feature-settings:normal;font-variation-settings:normal;text-indent:0;text-align:start;text-decoration:none;text-decoration-line:none;text-decoration-style:solid;text-decoration-color:#000000;letter-spacing:normal;word-spacing:normal;text-transform:none;writing-mode:lr-tb;direction:ltr;text-orientation:mixed;dominant-baseline:auto;baseline-shift:baseline;text-anchor:start;white-space:normal;shape-padding:0;shape-margin:0;inline-size:0;clip-rule:nonzero;display:inline;overflow:visible;visibility:visible;opacity:1;isolation:auto;mix-blend-mode:normal;color-interpolation:sRGB;color-interpolation-filters:linearRGB;solid-color:#000000;solid-opacity:1;vector-effect:none;fill:#808080;fill-opacity:1;fill-rule:nonzero;stroke:none;stroke-width:1.85208;stroke-linecap:round;stroke-linejoin:miter;stroke-miterlimit:4;stroke-dasharray:none;stroke-dashoffset:6.00002;stroke-opacity:1;paint-order:markers fill stroke;color-rendering:auto;image-rendering:auto;shape-rendering:auto;text-rendering:auto;enable-background:accumulate;stop-color:#000000;stop-opacity:1"
       d="m 40.490699,8.9552307 v 1.9812743 c 5.67163,2.33667 9.657808,7.911619 9.657808,14.434261 0,6.522795 -3.985932,12.099174 -9.657808,14.436328 v 1.981275 C 47.198641,39.35 51.999558,32.913849 51.999558,25.370766 c 0,-7.543084 -4.800814,-13.97772 -11.508859,-16.4155353 z M 28.489882,8.989337 c -6.658574,2.463446 -11.413774,8.873447 -11.413774,16.381429 0,7.507986 4.755191,13.919494 11.413774,16.383495 v -1.983856 c -5.621802,-2.359591 -9.562207,-7.912558 -9.562207,-14.399639 0,-6.487079 3.940411,-12.038561 9.562207,-14.397571 z" />
    <path
       sodipodi:type="star"
       style="fill:#808080;fill-opacity:1;stroke:none;stroke-width:2.53828;stroke-linecap:round;stroke-miterlimit:4;stroke-dasharray:none;stroke-dashoffset:6.00002;stroke-opacity:1;paint-order:markers fill stroke"
       id="path1288"
       sodipodi:sides="3"
       sodipodi:cx="28.042162"
       sodipodi:cy="10.421278"
       sodipodi:r1="4.7698436"
       sodipodi:r2="2.3849218"
       sodipodi:arg1="1.0471976"
       sodipodi:arg2="2.0943951"
       inkscape:flatsided="true"
       inkscape:rounded="0"
       inkscape:randomized="0"
       d="M 30.427084,14.552084 23.272318,10.421278 30.427084,6.2904724 Z"
       inkscape:transform-center-x="0.041936608"
       transform="matrix(0.64051266,0.34949569,-0.34949569,0.64051266,12.616927,-5.6863271)"
       inkscape:transform-center-y="0.83351984" />
    <path
       sodipodi:type="star"
       style="fill:#808080;fill-opacity:1;stroke:none;stroke-width:2.53828;stroke-linecap:round;stroke-miterlimit:4;stroke-dasharray:none;stroke-dashoffset:6.00002;stroke-opacity:1;paint-order:markers fill stroke"
       id="path1288-9"
       sodipodi:sides="3"
       sodipodi:cx="28.042162"
       sodipodi:cy="10.421278"
       sodipodi:r1="4.7698436"
       sodipodi:r2="2.3849218"
       sodipodi:arg1="1.0471976"
       sodipodi:arg2="2.0943951"
       inkscape:flatsided="true"
       inkscape:rounded="0"
       inkscape:randomized="0"
       d="M 30.427084,14.552084 23.272318,10.421278 30.427084,6.2904724 Z"
       inkscape:transform-center-x="0.041936021"
       transform="matrix(0.64051246,-0.34949604,0.34949604,0.64051246,19.322995,43.646686)"
       inkscape:transform-center-y="-0.83352107" />
  </g>
</svg>
