<?xml version="1.0" encoding="UTF-8" standalone="no"?>
<svg
   xmlns:osb="http://www.openswatchbook.org/uri/2009/osb"
   xmlns:dc="http://purl.org/dc/elements/1.1/"
   xmlns:cc="http://creativecommons.org/ns#"
   xmlns:rdf="http://www.w3.org/1999/02/22-rdf-syntax-ns#"
   xmlns:svg="http://www.w3.org/2000/svg"
   xmlns="http://www.w3.org/2000/svg"
   xmlns:sodipodi="http://sodipodi.sourceforge.net/DTD/sodipodi-0.dtd"
   xmlns:inkscape="http://www.inkscape.org/namespaces/inkscape"
   width="256"
   height="256"
   viewBox="0 0 67.733332 67.733335"
   version="1.1"
   id="svg8"
   inkscape:version="1.0.1 (3bc2e813f5, 2020-09-07)"
   sodipodi:docname="srv.svg"
   inkscape:export-filename="C:\Users\keath\Workspace\KMX\elite-streamdeck-icons\srv.png"
   inkscape:export-xdpi="96"
   inkscape:export-ydpi="96">
  <defs
     id="defs2">
    <linearGradient
       id="linearGradient1429"
       osb:paint="solid">
      <stop
         style="stop-color:#000000;stop-opacity:1;"
         offset="0"
         id="stop1427" />
    </linearGradient>
  </defs>
  <sodipodi:namedview
     id="base"
     pagecolor="#000000"
     bordercolor="#666666"
     borderopacity="1.0"
     inkscape:pageopacity="0"
     inkscape:pageshadow="2"
     inkscape:zoom="5.6"
     inkscape:cx="120.09074"
     inkscape:cy="127.2539"
     inkscape:document-units="px"
     inkscape:current-layer="layer2"
     showgrid="true"
     units="px"
     inkscape:snap-grids="true"
     objecttolerance="10000"
     guidetolerance="10000"
     inkscape:window-width="2321"
     inkscape:window-height="1879"
     inkscape:window-x="4802"
     inkscape:window-y="103"
     inkscape:window-maximized="0"
     inkscape:document-rotation="0"
     showguides="true">
    <inkscape:grid
       type="xygrid"
       id="grid4623" />
    <sodipodi:guide
       position="-3.96875,62.441667"
       orientation="0,256"
       id="guide3351" />
    <sodipodi:guide
       position="62.177083,70.379167"
       orientation="256,0"
       id="guide3353" />
    <sodipodi:guide
       position="-2.6458333,22.754167"
       orientation="0,-256"
       id="guide3355" />
    <sodipodi:guide
       position="5.2916667,70.379167"
       orientation="-256,0"
       id="guide3357" />
    <sodipodi:guide
       position="0,67.733334"
       orientation="0,256"
       id="guide3359" />
    <sodipodi:guide
       position="67.733334,67.733334"
       orientation="256,0"
       id="guide3361" />
    <sodipodi:guide
       position="67.733334,0"
       orientation="0,-256"
       id="guide3363" />
    <sodipodi:guide
       position="0,0"
       orientation="-256,0"
       id="guide3365" />
    <sodipodi:guide
       position="0,67.733334"
       orientation="0,256"
       id="guide3367" />
    <sodipodi:guide
       position="67.733334,67.733334"
       orientation="256,0"
       id="guide3369" />
    <sodipodi:guide
       position="67.733334,0"
       orientation="0,-256"
       id="guide3371" />
    <sodipodi:guide
       position="0,0"
       orientation="-256,0"
       id="guide3373" />
    <sodipodi:guide
       position="0,67.733334"
       orientation="0,256"
       id="guide3375" />
    <sodipodi:guide
       position="67.733334,67.733334"
       orientation="256,0"
       id="guide3377" />
    <sodipodi:guide
       position="67.733334,0"
       orientation="0,-256"
       id="guide3379" />
    <sodipodi:guide
       position="0,0"
       orientation="-256,0"
       id="guide3381" />
  </sodipodi:namedview>
  <metadata
     id="metadata5">
    <rdf:RDF>
      <cc:Work
         rdf:about="">
        <dc:format>image/svg+xml</dc:format>
        <dc:type
           rdf:resource="http://purl.org/dc/dcmitype/StillImage" />
        <dc:title />
      </cc:Work>
    </rdf:RDF>
  </metadata>
  <g
     inkscape:groupmode="layer"
     id="layer2"
     inkscape:label="Icon">
    <path
       id="path3551"
       style="color:#000000;font-style:normal;font-variant:normal;font-weight:normal;font-stretch:normal;font-size:medium;line-height:normal;font-family:sans-serif;font-variant-ligatures:normal;font-variant-position:normal;font-variant-caps:normal;font-variant-numeric:normal;font-variant-alternates:normal;font-variant-east-asian:normal;font-feature-settings:normal;font-variation-settings:normal;text-indent:0;text-align:start;text-decoration:none;text-decoration-line:none;text-decoration-style:solid;text-decoration-color:#000000;letter-spacing:normal;word-spacing:normal;text-transform:none;writing-mode:lr-tb;direction:ltr;text-orientation:mixed;dominant-baseline:auto;baseline-shift:baseline;text-anchor:start;white-space:normal;shape-padding:0;shape-margin:0;inline-size:0;clip-rule:nonzero;display:inline;overflow:visible;visibility:visible;isolation:auto;mix-blend-mode:normal;color-interpolation:sRGB;color-interpolation-filters:linearRGB;solid-color:#000000;solid-opacity:1;vector-effect:none;fill:#808080;fill-opacity:1;fill-rule:nonzero;stroke:none;stroke-width:8.00001;stroke-linecap:round;stroke-linejoin:round;stroke-miterlimit:4;stroke-dasharray:none;stroke-dashoffset:0;stroke-opacity:1;color-rendering:auto;image-rendering:auto;shape-rendering:auto;text-rendering:auto;enable-background:accumulate;stop-color:#000000"
       d="M 190.86328 33.59375 A 3.9873607 4.0134845 12.666172 0 0 188.80078 34.21875 L 181.38867 38.945312 A 3.9873607 4.0134845 12.666172 0 0 180.14258 44.484375 L 194.2168 66.878906 A 3.9873607 4.0134845 12.666172 0 0 199.71875 68.115234 L 207.13281 63.388672 A 3.9873607 4.0134845 12.666172 0 0 208.37695 57.849609 L 194.30273 35.455078 A 3.9873607 4.0134845 12.666172 0 0 190.86328 33.59375 z M 58.529297 33.904297 A 4.0134845 3.9873607 77.33379 0 0 55.257812 35.765625 L 41.183594 58.160156 A 4.0134845 3.9873607 77.33379 0 0 42.427734 63.697266 L 49.835938 68.419922 A 4.0134845 3.9873607 77.33379 0 0 55.337891 67.183594 L 69.412109 44.789062 A 4.0134845 3.9873607 77.33379 0 0 68.166016 39.25 L 60.759766 34.527344 A 4.0134845 3.9873607 77.33379 0 0 58.529297 33.904297 z M 72.660156 47.472656 A 4.0000059 4.0000059 0 0 0 69.722656 48.845703 A 4.0000059 4.0000059 0 0 0 70.113281 54.492188 L 85.333984 67.744141 A 4.0000059 4.0000059 0 0 0 90.982422 67.351562 A 4.0000059 4.0000059 0 0 0 90.589844 61.705078 L 75.361328 48.455078 A 4.0000059 4.0000059 0 0 0 72.660156 47.472656 z M 177.78906 47.476562 A 4.0000059 4.0000059 0 0 0 177.55664 47.480469 A 4.0000059 4.0000059 0 0 0 175.10547 48.455078 L 159.88477 61.705078 A 4.0000059 4.0000059 0 0 0 159.49219 67.351562 A 4.0000059 4.0000059 0 0 0 165.13281 67.744141 L 180.36133 54.492188 A 4.0000059 4.0000059 0 0 0 180.75391 48.845703 A 4.0000059 4.0000059 0 0 0 177.78906 47.476562 z M 96.734375 56.771484 A 3.5084175 3.5338574 0 0 0 93.226562 60.306641 L 93.226562 108.89258 A 3.5084175 3.5338574 0 0 0 96.734375 112.42773 L 153.73828 112.42773 A 3.5084175 3.5338574 0 0 0 157.24805 108.89258 L 157.24805 60.306641 A 3.5084175 3.5338574 0 0 0 153.73828 56.771484 L 96.734375 56.771484 z M 101.10938 61.193359 A 3.5084175 3.5338574 0 0 1 101.11719 61.193359 L 149.35547 61.193359 A 3.5084175 3.5338574 0 0 1 152.86523 64.726562 L 152.86523 91.228516 A 3.5084175 3.5338574 0 0 1 149.35547 94.763672 L 101.11719 94.763672 A 3.5084175 3.5338574 0 0 1 97.607422 91.228516 L 97.607422 64.726562 A 3.5084175 3.5338574 0 0 1 101.10938 61.193359 z M 48.498047 92.472656 A 12 12 0 0 0 36.496094 104.47656 L 36.496094 135.39062 A 12 12 0 0 0 48.498047 147.39453 A 12 12 0 0 0 60.494141 135.39062 L 60.494141 104.47656 A 12 12 0 0 0 48.498047 92.472656 z M 79.193359 92.472656 A 12 12 0 0 0 67.189453 104.47656 L 67.189453 135.39062 A 12 12 0 0 0 79.193359 147.39453 A 12 12 0 0 0 91.195312 135.39062 L 91.195312 104.47656 A 12 12 0 0 0 79.193359 92.472656 z M 171.28125 92.472656 A 12 12 0 0 0 159.2793 104.47656 L 159.2793 135.39062 A 12 12 0 0 0 171.28125 147.39453 A 12 12 0 0 0 183.27734 135.39062 L 183.27734 104.47656 A 12 12 0 0 0 171.28125 92.472656 z M 201.97656 92.472656 A 12 12 0 0 0 189.97266 104.47656 L 189.97266 135.39062 A 12 12 0 0 0 201.97656 147.39453 A 12 12 0 0 0 213.9707 135.39062 L 213.9707 104.47656 A 12 12 0 0 0 201.97656 92.472656 z M 101.11719 118.14648 A 4.0000059 4.0000059 0 0 0 97.115234 122.14062 A 4.0000059 4.0000059 0 0 0 101.11719 126.14258 L 149.34961 126.14258 A 4.0000059 4.0000059 0 0 0 153.35156 122.14062 A 4.0000059 4.0000059 0 0 0 149.34961 118.14648 L 101.11719 118.14648 z "
       transform="scale(0.26458333)" />
  </g>
</svg>
