<?xml version="1.0" encoding="UTF-8" standalone="no"?>
<svg
   xmlns:dc="http://purl.org/dc/elements/1.1/"
   xmlns:cc="http://creativecommons.org/ns#"
   xmlns:rdf="http://www.w3.org/1999/02/22-rdf-syntax-ns#"
   xmlns:svg="http://www.w3.org/2000/svg"
   xmlns="http://www.w3.org/2000/svg"
   xmlns:sodipodi="http://sodipodi.sourceforge.net/DTD/sodipodi-0.dtd"
   xmlns:inkscape="http://www.inkscape.org/namespaces/inkscape"
   width="256"
   height="256"
   viewBox="0 0 67.733332 67.733335"
   version="1.1"
   id="svg8"
   inkscape:version="1.0.1 (3bc2e813f5, 2020-09-07)"
   sodipodi:docname="system.svg"
   inkscape:export-filename="C:\Users\keath\Workspace\KMX\elite-streamdeck-icons\ship-lights.png"
   inkscape:export-xdpi="96"
   inkscape:export-ydpi="96">
  <defs
     id="defs2" />
  <sodipodi:namedview
     id="base"
     pagecolor="#000000"
     bordercolor="#666666"
     borderopacity="1.0"
     inkscape:pageopacity="0"
     inkscape:pageshadow="2"
     inkscape:zoom="5.6"
     inkscape:cx="141.04306"
     inkscape:cy="61.623482"
     inkscape:document-units="px"
     inkscape:current-layer="layer2"
     showgrid="true"
     units="px"
     inkscape:snap-grids="true"
     objecttolerance="10000"
     guidetolerance="10000"
     inkscape:window-width="3840"
     inkscape:window-height="2066"
     inkscape:window-x="3829"
     inkscape:window-y="-11"
     inkscape:window-maximized="1"
     inkscape:document-rotation="0"
     showguides="true"
     inkscape:guide-bbox="true">
    <inkscape:grid
       type="xygrid"
       id="grid4623" />
    <sodipodi:guide
       position="-3.96875,62.441667"
       orientation="0,256"
       id="guide3351" />
    <sodipodi:guide
       position="62.441667,42.597917"
       orientation="-1,0"
       id="guide3353"
       inkscape:label=""
       inkscape:locked="false"
       inkscape:color="rgb(0,0,255)" />
    <sodipodi:guide
       position="-2.6458333,22.754167"
       orientation="0,-256"
       id="guide3355" />
    <sodipodi:guide
       position="5.2916667,70.379167"
       orientation="-256,0"
       id="guide3357" />
    <sodipodi:guide
       position="0,67.733334"
       orientation="0,256"
       id="guide3359" />
    <sodipodi:guide
       position="67.733334,67.733334"
       orientation="256,0"
       id="guide3361" />
    <sodipodi:guide
       position="67.733334,0"
       orientation="0,-256"
       id="guide3363" />
    <sodipodi:guide
       position="0,0"
       orientation="-256,0"
       id="guide3365" />
    <sodipodi:guide
       position="0,67.733334"
       orientation="0,256"
       id="guide3367" />
    <sodipodi:guide
       position="67.733334,67.733334"
       orientation="256,0"
       id="guide3369" />
    <sodipodi:guide
       position="67.733334,0"
       orientation="0,-256"
       id="guide3371" />
    <sodipodi:guide
       position="0,0"
       orientation="-256,0"
       id="guide3373" />
    <sodipodi:guide
       position="0,67.733334"
       orientation="0,256"
       id="guide3375" />
    <sodipodi:guide
       position="67.733334,67.733334"
       orientation="256,0"
       id="guide3377" />
    <sodipodi:guide
       position="67.733334,0"
       orientation="0,-256"
       id="guide3379" />
    <sodipodi:guide
       position="0,0"
       orientation="-256,0"
       id="guide3381" />
    <sodipodi:guide
       position="33.866667,46.83125"
       orientation="1,0"
       id="guide895" />
    <sodipodi:guide
       position="41.010417,42.597917"
       orientation="0,-1"
       id="guide897" />
  </sodipodi:namedview>
  <metadata
     id="metadata5">
    <rdf:RDF>
      <cc:Work
         rdf:about="">
        <dc:format>image/svg+xml</dc:format>
        <dc:type
           rdf:resource="http://purl.org/dc/dcmitype/StillImage" />
        <dc:title></dc:title>
      </cc:Work>
    </rdf:RDF>
  </metadata>
  <g
     inkscape:groupmode="layer"
     id="layer2"
     inkscape:label="Icon">
    <path
       id="path1135"
       style="color:#000000;font-style:normal;font-variant:normal;font-weight:normal;font-stretch:normal;font-size:medium;line-height:normal;font-family:sans-serif;font-variant-ligatures:normal;font-variant-position:normal;font-variant-caps:normal;font-variant-numeric:normal;font-variant-alternates:normal;font-variant-east-asian:normal;font-feature-settings:normal;font-variation-settings:normal;text-indent:0;text-align:start;text-decoration:none;text-decoration-line:none;text-decoration-style:solid;text-decoration-color:#000000;letter-spacing:normal;word-spacing:normal;text-transform:none;writing-mode:lr-tb;direction:ltr;text-orientation:mixed;dominant-baseline:auto;baseline-shift:baseline;text-anchor:start;white-space:normal;shape-padding:0;shape-margin:0;inline-size:0;clip-rule:nonzero;display:inline;overflow:visible;visibility:visible;isolation:auto;mix-blend-mode:normal;color-interpolation:sRGB;color-interpolation-filters:linearRGB;solid-color:#000000;solid-opacity:1;vector-effect:none;fill:#808080;fill-opacity:1;fill-rule:nonzero;stroke:none;stroke-width:0.793749;stroke-linecap:square;stroke-linejoin:miter;stroke-miterlimit:4;stroke-dasharray:none;stroke-dashoffset:0;stroke-opacity:1;paint-order:markers fill stroke;color-rendering:auto;image-rendering:auto;shape-rendering:auto;text-rendering:auto;enable-background:accumulate;stop-color:#000000"
       d="m 32.485742,17.532169 a 7.0049593,7.0049593 0 0 0 -6.017533,7.869119 7.0049593,7.0049593 0 0 0 1.414239,3.376033 c 4.203988,-0.508888 8.338406,-1.421997 12.33751,-2.654401 a 7.0049593,7.0049593 0 0 0 0.13499,-2.572575 7.0049593,7.0049593 0 0 0 -7.869206,-6.018176 z m 6.844086,0.286385 c -0.378668,0.04967 -0.763543,0.105291 -1.147254,0.160096 a 8.0614523,8.0613508 82.407878 0 1 1.061036,0.931853 c 0.07521,-0.01 0.15189,-0.02181 0.226905,-0.03155 4.917995,-0.644773 9.380749,-0.849051 12.969676,-0.639764 2.610128,0.152211 4.758558,0.526313 6.255712,1.083594 1.497163,0.55728 2.263069,1.261939 2.409782,1.994445 0.146717,0.732504 -0.288348,1.679872 -1.45539,2.770767 -0.220701,0.206301 -0.47264,0.41604 -0.740254,0.627473 a 2.6700623,2.6700623 0 0 0 -2.17088,-0.691875 2.6700623,2.6700623 0 0 0 -2.293858,2.999385 2.6700623,2.6700623 0 0 0 0.0743,0.361566 c -0.07585,0.03756 -0.147602,0.07532 -0.224553,0.112838 -4.700334,2.291418 -11.445022,4.48751 -19.07344,6.015407 -7.628421,1.5279 -14.699105,2.098994 -19.919362,1.794575 C 12.692114,35.155154 10.543604,34.780413 9.0464441,34.223131 7.5492835,33.66585 6.783123,32.959265 6.6364062,32.226761 6.4896918,31.494257 6.9251816,30.550095 8.0922255,29.459202 9.259273,28.368308 11.097769,27.19415 13.447934,26.048442 16.729037,24.448903 21.00775,22.896347 25.886362,21.584614 a 8.0614523,8.0613508 82.407878 0 1 0.620632,-1.270249 c -5.301739,1.37281 -9.959934,3.036463 -13.526974,4.775396 -2.409961,1.174857 -4.3232475,2.377543 -5.617469,3.587315 -1.2942191,1.209771 -2.0297633,2.486059 -1.774747,3.759305 0.2550235,1.273243 1.4249673,2.168398 3.0852748,2.786406 1.6603082,0.618009 3.8897252,0.994489 6.5662572,1.150573 5.353071,0.312165 12.489085,-0.271804 20.191551,-1.814533 7.702466,-1.542727 14.512963,-3.751847 19.332884,-6.101563 0.08258,-0.04025 0.159617,-0.08123 0.241016,-0.12157 a 2.6700623,2.6700623 0 0 0 2.439892,0.981137 2.6700623,2.6700623 0 0 0 2.293856,-2.999386 2.6700623,2.6700623 0 0 0 -0.207282,-0.732282 c 0.304269,-0.239382 0.59222,-0.479111 0.848834,-0.71898 1.294218,-1.209772 2.029126,-2.485978 1.774106,-3.759223 -0.255024,-1.273244 -1.424884,-2.167755 -3.08519,-2.785763 -1.6603,-0.618011 -3.889456,-0.992565 -6.56599,-1.148648 -3.680237,-0.214614 -8.202778,-0.006 -13.173185,0.645996 z m 0.06092,1.250565 a 8.0614523,8.0613508 82.407878 0 1 0.776065,1.007702 c 1.730832,-0.150112 3.328198,-0.214068 4.703726,-0.176489 1.647954,0.04502 3.00077,0.227296 3.919853,0.515553 0.459536,0.14413 0.806254,0.317621 1.026335,0.485363 0.220081,0.167742 0.304782,0.309955 0.333146,0.447187 0.0284,0.13723 0.0069,0.302096 -0.128656,0.543342 -0.135542,0.241244 -0.385565,0.536284 -0.750311,0.850781 -0.7295,0.628994 -1.899161,1.33244 -3.394239,2.027076 -2.99015,1.38927 -7.28639,2.761711 -12.137343,3.764325 -4.759733,0.983764 -9.164169,1.42605 -12.441837,1.357393 a 1.7800414,1.7800414 0 0 0 -1.961611,-1.330832 1.7800414,1.7800414 0 0 0 -1.37727,1.010731 c -0.284321,-0.05869 -0.543573,-0.124399 -0.775074,-0.197001 -0.459539,-0.144129 -0.808481,-0.314714 -1.028558,-0.482456 -0.22008,-0.16774 -0.303753,-0.312052 -0.33212,-0.449283 -0.0284,-0.137227 -0.0081,-0.300645 0.127543,-0.541886 0.135547,-0.241246 0.387233,-0.538466 0.751983,-0.852962 0.729496,-0.628994 1.899797,-1.332527 3.394877,-2.027162 1.499859,-0.696858 3.328881,-1.388924 5.391185,-2.03276 a 8.0614523,8.0613508 82.407878 0 1 0.327318,-1.212874 c -2.356942,0.708418 -4.458066,1.484177 -6.167942,2.278614 -1.550005,0.720156 -2.786672,1.449071 -3.641372,2.186014 -0.427346,0.36847 -0.762069,0.738697 -0.985737,1.13677 -0.223665,0.398073 -0.335293,0.845364 -0.244876,1.282838 0.09041,0.437475 0.37032,0.803183 0.733468,1.07997 0.363144,0.276789 0.817835,0.4847 1.356244,0.653566 0.291636,0.09147 0.610532,0.171016 0.951853,0.240026 a 1.7800414,1.7800414 0 0 0 1.988888,1.457111 1.7800414,1.7800414 0 0 0 1.427351,-1.129695 c 3.399071,0.07588 7.877521,-0.377157 12.721725,-1.378377 4.91746,-1.016361 9.27108,-2.402174 12.37109,-3.842485 1.550002,-0.720156 2.786415,-1.450995 3.64111,-2.187938 0.427351,-0.368472 0.761263,-0.739894 0.984927,-1.137967 0.223666,-0.398071 0.336022,-0.844807 0.245603,-1.282283 -0.0904,-0.437475 -0.370318,-0.803181 -0.733465,-1.07997 -0.363146,-0.276787 -0.817838,-0.484699 -1.356246,-0.653564 -1.076812,-0.337729 -2.500388,-0.516529 -4.208885,-0.563204 -1.611316,-0.04401 -3.474551,0.03393 -5.508748,0.234826 z m -0.7981,10.121679 c -2.612149,0.711357 -5.26211,1.300057 -7.936515,1.725053 a 7.0049593,7.0049593 0 0 0 3.680634,0.503697 7.0049593,7.0049593 0 0 0 4.255881,-2.22875 z" />
  </g>
</svg>
