<?xml version="1.0" encoding="UTF-8" standalone="no"?>
<svg
   xmlns:dc="http://purl.org/dc/elements/1.1/"
   xmlns:cc="http://creativecommons.org/ns#"
   xmlns:rdf="http://www.w3.org/1999/02/22-rdf-syntax-ns#"
   xmlns:svg="http://www.w3.org/2000/svg"
   xmlns="http://www.w3.org/2000/svg"
   xmlns:sodipodi="http://sodipodi.sourceforge.net/DTD/sodipodi-0.dtd"
   xmlns:inkscape="http://www.inkscape.org/namespaces/inkscape"
   width="256"
   height="256"
   viewBox="0 0 67.733332 67.733335"
   version="1.1"
   id="svg8"
   inkscape:version="1.0.1 (3bc2e813f5, 2020-09-07)"
   sodipodi:docname="system-map.svg"
   inkscape:export-filename="C:\Users\keath\Workspace\KMX\elite-streamdeck-icons\system-map.png"
   inkscape:export-xdpi="96"
   inkscape:export-ydpi="96">
  <defs
     id="defs2" />
  <sodipodi:namedview
     id="base"
     pagecolor="#000000"
     bordercolor="#666666"
     borderopacity="1.0"
     inkscape:pageopacity="0"
     inkscape:pageshadow="2"
     inkscape:zoom="5.6"
     inkscape:cx="100.44789"
     inkscape:cy="127.2539"
     inkscape:document-units="px"
     inkscape:current-layer="layer2"
     showgrid="true"
     units="px"
     inkscape:snap-grids="true"
     objecttolerance="10"
     guidetolerance="10"
     inkscape:window-width="3840"
     inkscape:window-height="2066"
     inkscape:window-x="3829"
     inkscape:window-y="-11"
     inkscape:window-maximized="1"
     inkscape:document-rotation="0"
     showguides="true">
    <inkscape:grid
       type="xygrid"
       id="grid4623" />
    <sodipodi:guide
       position="-3.96875,62.441667"
       orientation="0,256"
       id="guide3351" />
    <sodipodi:guide
       position="62.177083,70.379167"
       orientation="256,0"
       id="guide3353" />
    <sodipodi:guide
       position="-2.6458333,22.754167"
       orientation="0,-256"
       id="guide3355" />
    <sodipodi:guide
       position="5.2916667,70.379167"
       orientation="-256,0"
       id="guide3357" />
    <sodipodi:guide
       position="0,67.733334"
       orientation="0,256"
       id="guide3359" />
    <sodipodi:guide
       position="67.733334,67.733334"
       orientation="256,0"
       id="guide3361" />
    <sodipodi:guide
       position="67.733334,0"
       orientation="0,-256"
       id="guide3363" />
    <sodipodi:guide
       position="0,0"
       orientation="-256,0"
       id="guide3365" />
    <sodipodi:guide
       position="0,67.733334"
       orientation="0,256"
       id="guide3367" />
    <sodipodi:guide
       position="67.733334,67.733334"
       orientation="256,0"
       id="guide3369" />
    <sodipodi:guide
       position="67.733334,0"
       orientation="0,-256"
       id="guide3371" />
    <sodipodi:guide
       position="0,0"
       orientation="-256,0"
       id="guide3373" />
    <sodipodi:guide
       position="0,67.733334"
       orientation="0,256"
       id="guide3375" />
    <sodipodi:guide
       position="67.733334,67.733334"
       orientation="256,0"
       id="guide3377" />
    <sodipodi:guide
       position="67.733334,0"
       orientation="0,-256"
       id="guide3379" />
    <sodipodi:guide
       position="0,0"
       orientation="-256,0"
       id="guide3381" />
  </sodipodi:namedview>
  <metadata
     id="metadata5">
    <rdf:RDF>
      <cc:Work
         rdf:about="">
        <dc:format>image/svg+xml</dc:format>
        <dc:type
           rdf:resource="http://purl.org/dc/dcmitype/StillImage" />
        <dc:title />
      </cc:Work>
    </rdf:RDF>
  </metadata>
  <g
     inkscape:groupmode="layer"
     id="layer2"
     inkscape:label="Icon">
    <path
       id="path903"
       style="color:#000000;font-style:normal;font-variant:normal;font-weight:normal;font-stretch:normal;font-size:medium;line-height:normal;font-family:sans-serif;font-variant-ligatures:normal;font-variant-position:normal;font-variant-caps:normal;font-variant-numeric:normal;font-variant-alternates:normal;font-variant-east-asian:normal;font-feature-settings:normal;font-variation-settings:normal;text-indent:0;text-align:start;text-decoration:none;text-decoration-line:none;text-decoration-style:solid;text-decoration-color:#000000;letter-spacing:normal;word-spacing:normal;text-transform:none;writing-mode:lr-tb;direction:ltr;text-orientation:mixed;dominant-baseline:auto;baseline-shift:baseline;text-anchor:start;white-space:normal;shape-padding:0;shape-margin:0;inline-size:0;clip-rule:nonzero;display:inline;overflow:visible;visibility:visible;opacity:1;isolation:auto;mix-blend-mode:normal;color-interpolation:sRGB;color-interpolation-filters:linearRGB;solid-color:#000000;solid-opacity:1;vector-effect:none;fill:#808080;fill-opacity:1;fill-rule:nonzero;stroke:none;stroke-width:9.56889;stroke-linecap:round;stroke-linejoin:round;stroke-miterlimit:4;stroke-dasharray:none;stroke-dashoffset:0;stroke-opacity:1;color-rendering:auto;image-rendering:auto;shape-rendering:auto;text-rendering:auto;enable-background:accumulate;stop-color:#000000;stop-opacity:1"
       d="m 25.257812,19.349609 a 4.7156004,4.8552823 0 0 0 -4.708984,4.859375 V 164.46094 a 4.7156004,4.8552823 0 0 0 4.708984,4.85156 H 229.58008 a 4.7156004,4.8552823 0 0 0 4.71875,-4.85156 V 24.208984 a 4.7156004,4.8552823 0 0 0 -4.71875,-4.859375 z m 4.71875,9.71875 H 224.87109 V 159.60352 H 29.976562 Z M 56.546875,35 v 6.205078 H 35.552734 v 1.074219 H 56.546875 V 58.732422 H 35.552734 v 1.074219 H 56.546875 V 76.261719 H 35.552734 V 77.34375 H 56.546875 V 86.375 c 0.347193,-0.188488 0.694036,-0.377362 1.042969,-0.5625 v -8.46875 h 19.230468 c 1.000487,-0.367652 2.003175,-0.729222 3.009766,-1.082031 H 57.589844 V 59.806641 h 22.53125 v 16.353515 c 0.348055,-0.121457 0.696219,-0.241526 1.044922,-0.361328 V 59.806641 h 22.531254 v 9.189453 c 0.34765,-0.09549 0.69548,-0.192079 1.04296,-0.28711 V 59.806641 H 125.75 c 1.05186,-0.06372 2.10497,-0.05367 3.15625,0 h 21.94336 v 0.447265 c 0.34759,-0.03891 0.6953,-0.07714 1.04297,-0.115234 v -0.332031 h 2.99804 c 4.73352,-0.481243 9.4748,-0.868282 14.22852,-1.074219 H 151.89258 V 42.279297 h 22.53125 v 16.3125 c 0.34813,-0.0043 0.69666,-7.25e-4 1.04492,-0.0039 V 42.279297 H 198 v 16.453125 h -11.97852 c 3.83152,0.174002 7.65121,0.508289 11.44532,1.074219 H 198 v 0.08398 c 0.34771,0.05397 0.69576,0.105943 1.04297,0.164063 v -0.248047 h 19.87891 V 58.732422 H 199.04297 V 42.279297 h 19.87891 V 41.205078 H 199.04297 V 35 H 198 v 6.205078 H 175.46875 V 35 h -1.04492 v 6.205078 H 151.89258 V 35 h -1.04297 v 6.205078 h -22.5332 V 35 h -1.04297 v 6.205078 H 104.74023 V 35 h -1.04296 v 6.205078 H 81.166016 V 35 h -1.044922 v 6.205078 H 57.589844 V 35 Z m 1.042969,7.279297 h 22.53125 v 16.453125 h -22.53125 z m 23.576172,0 H 103.69727 V 58.732422 H 81.166016 Z m 23.574214,0 h 22.53321 v 16.453125 h -22.53321 z m 23.57618,0 h 22.5332 v 16.453125 h -22.5332 z M 198,75.410156 v 0.851563 h -8.83398 c 0.0458,0.357438 0.0795,0.718033 0.0937,1.082031 H 198 v 3.470703 c 0.34457,-0.102884 0.69216,-0.189666 1.04297,-0.267578 V 77.34375 h 5.83594 c -1.0532,-0.421655 -2.13271,-0.771926 -3.22461,-1.082031 h -2.61133 V 75.611328 C 198.69696,75.537572 198.34801,75.47618 198,75.410156 Z M 35.552734,93.798828 v 1.074219 h 7.679688 c 0.233266,-0.187087 0.466076,-0.377734 0.701172,-0.556641 0.242838,-0.178365 0.49412,-0.341602 0.738281,-0.517578 z m 54.900391,0 c -0.793754,0.338646 -1.575468,0.703819 -2.355469,1.074219 h 12.130864 c -0.0931,-0.355781 -0.16816,-0.715219 -0.248051,-1.074219 z m 86.458985,0 c -0.8167,0.491753 -1.64694,0.960517 -2.48828,1.414063 v 3.285156 c 0.34887,-0.129192 0.6967,-0.261739 1.04492,-0.392578 v -3.232422 h 8.14648 c 0.83853,-0.35204 1.67394,-0.712213 2.50782,-1.074219 z m 39.27734,0 c -0.0717,0.337344 -0.0932,0.700526 -0.0898,1.074219 h 2.82227 V 93.798828 Z M 57.589844,103.43945 c -0.349715,0.23152 -0.698433,0.46412 -1.042969,0.70313 v 7.18359 h -6.556641 c 0.33256,0.39008 0.871619,0.71231 1.580078,0.90235 0.146212,0.0609 0.294617,0.11311 0.441407,0.17187 h 4.535156 v 1.48047 c 0.34698,0.0899 0.693872,0.17648 1.042969,0.25781 v -1.73828 H 73.875 c -0.0933,-0.0995 -0.181382,-0.21301 -0.277344,-0.30664 -0.792055,-0.19245 -1.574698,-0.45392 -2.339844,-0.76758 H 57.589844 Z m 94.302736,0.60352 c -0.35777,0.12866 -0.7032,0.27732 -1.04297,0.43555 v 1.39453 c 0.34744,-0.0899 0.69588,-0.17621 1.04297,-0.26758 z M 198,108.60742 v 2.71875 h -14.08203 c -0.95262,0.3617 -1.90506,0.72245 -2.86133,1.07422 H 198 v 16.45508 h -22.53125 v -14.45899 c -0.34771,0.12008 -0.69677,0.23668 -1.04492,0.35547 v 14.10352 h -22.53125 v -7.38477 c -0.3476,0.0895 -0.69506,0.1793 -1.04297,0.26758 v 7.11719 h -22.5332 v -2.25586 c -0.3477,0.0619 -0.69507,0.12473 -1.04297,0.18555 v 2.07031 h -13.54883 c -3.33709,0.44126 -6.67964,0.83347 -10.02734,1.17383 v 16.36328 H 81.166016 v -14.99805 c -0.348396,0.006 -0.696568,0.0112 -1.044922,0.0156 v 14.98242 H 57.589844 V 129.9375 h 1.113281 c -1.769596,-0.30334 -3.53149,-0.66343 -5.285156,-1.08203 H 35.552734 v 1.08203 h 20.994141 v 16.45508 H 35.552734 v 1.07422 h 20.994141 v 6.20312 h 1.042969 v -6.20312 h 22.53125 v 6.20312 h 1.044922 v -6.20312 h 22.531254 v 6.20312 h 1.04296 v -6.20312 h 22.53321 v 6.20312 h 1.04297 v -6.20312 h 22.5332 v 6.20312 h 1.04297 v -6.20312 h 22.53125 v 6.20312 h 1.04492 V 147.4668 H 198 v 6.20312 h 1.04297 v -6.20312 h 19.87891 v -1.07422 H 199.04297 V 129.9375 h 19.87891 v -1.08203 h -19.87891 v -16.45508 h 19.87891 v -1.07422 h -19.87891 v -2.49414 c -0.35011,-0.0602 -0.69823,-0.13631 -1.04297,-0.22461 z m -93.25977,4.8711 c -0.34778,0.0342 -0.69489,0.0626 -1.04296,0.0957 v 1.04883 c 0.34794,-0.0393 0.69516,-0.0845 1.04296,-0.125 z m 0,16.45898 h 22.53321 v 16.45508 h -22.53321 z m 23.57618,0 h 22.5332 v 16.45508 h -22.5332 z m 23.57617,0 h 22.53125 v 16.45508 h -22.53125 z m 23.57617,0 H 198 v 16.45508 h -22.53125 z"
       transform="scale(0.26458333)" />
    <g
       id="g4686"
       style="opacity:1" />
    <path
       id="path1135"
       style="color:#000000;font-style:normal;font-variant:normal;font-weight:normal;font-stretch:normal;font-size:medium;line-height:normal;font-family:sans-serif;font-variant-ligatures:normal;font-variant-position:normal;font-variant-caps:normal;font-variant-numeric:normal;font-variant-alternates:normal;font-variant-east-asian:normal;font-feature-settings:normal;font-variation-settings:normal;text-indent:0;text-align:start;text-decoration:none;text-decoration-line:none;text-decoration-style:solid;text-decoration-color:#000000;letter-spacing:normal;word-spacing:normal;text-transform:none;writing-mode:lr-tb;direction:ltr;text-orientation:mixed;dominant-baseline:auto;baseline-shift:baseline;text-anchor:start;white-space:normal;shape-padding:0;shape-margin:0;inline-size:0;clip-rule:nonzero;display:inline;overflow:visible;visibility:visible;isolation:auto;mix-blend-mode:normal;color-interpolation:sRGB;color-interpolation-filters:linearRGB;solid-color:#000000;solid-opacity:1;vector-effect:none;fill:#808080;fill-opacity:1;fill-rule:nonzero;stroke:none;stroke-width:0.79375;stroke-linecap:square;stroke-linejoin:miter;stroke-miterlimit:4;stroke-dasharray:none;stroke-dashoffset:0;stroke-opacity:1;paint-order:markers fill stroke;color-rendering:auto;image-rendering:auto;shape-rendering:auto;text-rendering:auto;enable-background:accumulate;stop-color:#000000"
       d="m 32.914113,17.442036 a 5.8286333,5.8286333 0 0 0 -5.007023,6.547677 5.8286333,5.8286333 0 0 0 1.176748,2.809104 c 3.498023,-0.423432 6.938159,-1.183205 10.265703,-2.208654 a 5.8286333,5.8286333 0 0 0 0.11232,-2.140569 5.8286333,5.8286333 0 0 0 -6.547748,-5.007558 z m 5.694775,0.238293 c -0.315079,0.04133 -0.635323,0.08761 -0.954598,0.133212 a 6.707712,6.7076276 82.407878 0 1 0.882859,0.775369 c 0.06258,-0.0083 0.126384,-0.01815 0.188801,-0.02625 4.092127,-0.536498 7.805461,-0.706472 10.791708,-0.53233 2.171816,0.12665 3.959465,0.43793 5.205207,0.901628 1.245749,0.463698 1.883036,1.050025 2.005112,1.659523 0.122079,0.609496 -0.239926,1.397775 -1.210989,2.305479 -0.18364,0.171657 -0.393271,0.346175 -0.615946,0.522103 a 2.2216851,2.2216851 0 0 0 -1.806328,-0.57569 2.2216851,2.2216851 0 0 0 -1.908657,2.495705 2.2216851,2.2216851 0 0 0 0.06182,0.300849 c -0.06311,0.03125 -0.122814,0.06267 -0.186844,0.09389 -3.911018,1.906625 -9.523085,3.733933 -15.870483,5.005254 -6.347398,1.271323 -12.23072,1.746515 -16.57435,1.493217 -2.171818,-0.126652 -3.959535,-0.438463 -5.20528,-0.902163 -1.245746,-0.463698 -1.883247,-1.051627 -2.005326,-1.661124 -0.122077,-0.609497 0.240282,-1.395107 1.211347,-2.30281 0.971068,-0.907703 2.50083,-1.884687 4.456338,-2.837999 2.730115,-1.330932 6.290313,-2.622771 10.349671,-3.714228 a 6.707712,6.7076276 82.407878 0 1 0.516412,-1.056939 c -4.411432,1.142277 -8.287386,2.526557 -11.255422,3.973475 -2.005262,0.977566 -3.597255,1.978288 -4.674141,2.984906 -1.076884,1.006617 -1.68891,2.068581 -1.476718,3.128014 0.212198,1.05943 1.185676,1.804264 2.567172,2.318491 1.381497,0.514229 3.236533,0.827488 5.463602,0.95736 4.454141,0.259744 10.391822,-0.22616 16.800832,-1.509823 6.40901,-1.28366 12.075835,-3.121808 16.086359,-5.076942 0.06871,-0.03349 0.132812,-0.06759 0.200544,-0.101155 a 2.2216851,2.2216851 0 0 0 2.030165,0.816377 2.2216851,2.2216851 0 0 0 1.908654,-2.495706 2.2216851,2.2216851 0 0 0 -0.172473,-0.609312 c 0.253173,-0.199183 0.492771,-0.398655 0.706292,-0.598243 1.076883,-1.006618 1.688377,-2.068514 1.476183,-3.127946 -0.212196,-1.059431 -1.185605,-1.803729 -2.567099,-2.317956 -1.38149,-0.51423 -3.236311,-0.825886 -5.463381,-0.955759 -3.062222,-0.178574 -6.825304,-0.005 -10.961044,0.537516 z m 0.05069,1.040561 a 6.707712,6.7076276 82.407878 0 1 0.645742,0.838481 c 1.440178,-0.124904 2.769302,-0.17812 3.913841,-0.146852 1.371218,0.03746 2.496858,0.189127 3.261602,0.428978 0.382369,0.119926 0.670861,0.264283 0.853984,0.403857 0.183124,0.139573 0.253601,0.257905 0.277203,0.372092 0.02362,0.114185 0.0057,0.251366 -0.10705,0.4521 -0.112783,0.200732 -0.320818,0.446227 -0.624315,0.707911 -0.606997,0.523369 -1.58024,1.108687 -2.824252,1.686674 -2.488023,1.155973 -6.062806,2.297944 -10.099149,3.132191 -3.960443,0.818563 -7.625252,1.186577 -10.35251,1.129449 a 1.4811233,1.4811233 0 0 0 -1.632202,-1.107348 1.4811233,1.4811233 0 0 0 -1.145989,0.841001 c -0.236575,-0.04883 -0.452291,-0.103509 -0.644916,-0.163919 -0.38237,-0.119926 -0.672715,-0.261865 -0.855835,-0.401438 -0.183123,-0.139572 -0.252745,-0.25965 -0.276348,-0.373836 -0.02363,-0.114183 -0.0067,-0.250159 0.106125,-0.450889 0.112785,-0.200734 0.322206,-0.448042 0.625704,-0.709726 0.606994,-0.523368 1.580768,-1.108759 2.824783,-1.686745 1.247991,-0.579837 2.76987,-1.155686 4.485856,-1.691404 a 6.707712,6.7076276 82.407878 0 1 0.272353,-1.009199 c -1.961146,0.589455 -3.709433,1.234943 -5.132175,1.895972 -1.289716,0.599222 -2.318712,1.205732 -3.029884,1.818922 -0.355583,0.306594 -0.634097,0.614649 -0.820205,0.945875 -0.186105,0.331225 -0.278988,0.703404 -0.203754,1.067414 0.07523,0.364011 0.308133,0.668306 0.610298,0.898613 0.302162,0.230309 0.680498,0.403306 1.128493,0.543814 0.242663,0.07611 0.508007,0.142298 0.79201,0.199719 a 1.4811233,1.4811233 0 0 0 1.654899,1.212423 1.4811233,1.4811233 0 0 0 1.187659,-0.939989 c 2.828274,0.06314 6.554668,-0.313822 10.585397,-1.146909 4.091683,-0.845686 7.714209,-1.998783 10.293643,-3.197226 1.289714,-0.599222 2.318499,-1.207333 3.029668,-1.820523 0.355587,-0.306595 0.633426,-0.615645 0.81953,-0.946871 0.186106,-0.331224 0.279593,-0.70294 0.204359,-1.066952 -0.07522,-0.364011 -0.308131,-0.668305 -0.610296,-0.898613 -0.302165,-0.230307 -0.680499,-0.403305 -1.128495,-0.543813 -0.895986,-0.281015 -2.080504,-0.429789 -3.502098,-0.468626 -1.340731,-0.03662 -2.891078,0.02823 -4.583676,0.195392 z M 37.9955,27.14286 c -2.173495,0.5919 -4.378454,1.081741 -6.603753,1.435369 a 5.8286333,5.8286333 0 0 0 3.062554,0.419112 5.8286333,5.8286333 0 0 0 3.541199,-1.854481 z" />
  </g>
</svg>
