<?xml version="1.0" encoding="UTF-8" standalone="no"?>
<svg
   xmlns:dc="http://purl.org/dc/elements/1.1/"
   xmlns:cc="http://creativecommons.org/ns#"
   xmlns:rdf="http://www.w3.org/1999/02/22-rdf-syntax-ns#"
   xmlns:svg="http://www.w3.org/2000/svg"
   xmlns="http://www.w3.org/2000/svg"
   xmlns:sodipodi="http://sodipodi.sourceforge.net/DTD/sodipodi-0.dtd"
   xmlns:inkscape="http://www.inkscape.org/namespaces/inkscape"
   width="256"
   height="256"
   viewBox="0 0 67.733332 67.733335"
   version="1.1"
   id="svg8"
   inkscape:version="1.0.1 (3bc2e813f5, 2020-09-07)"
   sodipodi:docname="weapon.svg"
   inkscape:export-filename="C:\Users\keath\Workspace\KMX\elite-streamdeck-icons\ship-lights.png"
   inkscape:export-xdpi="96"
   inkscape:export-ydpi="96">
  <defs
     id="defs2" />
  <sodipodi:namedview
     id="base"
     pagecolor="#000000"
     bordercolor="#666666"
     borderopacity="1.0"
     inkscape:pageopacity="0"
     inkscape:pageshadow="2"
     inkscape:zoom="5.6"
     inkscape:cx="111.90634"
     inkscape:cy="121.54987"
     inkscape:document-units="px"
     inkscape:current-layer="layer2"
     showgrid="true"
     units="px"
     inkscape:snap-grids="true"
     objecttolerance="10000"
     guidetolerance="10000"
     inkscape:window-width="3840"
     inkscape:window-height="2066"
     inkscape:window-x="-11"
     inkscape:window-y="-11"
     inkscape:window-maximized="1"
     inkscape:document-rotation="0"
     showguides="true"
     inkscape:guide-bbox="true">
    <inkscape:grid
       type="xygrid"
       id="grid4623" />
    <sodipodi:guide
       position="-3.96875,62.441667"
       orientation="0,256"
       id="guide3351" />
    <sodipodi:guide
       position="62.441667,42.597917"
       orientation="-1,0"
       id="guide3353"
       inkscape:label=""
       inkscape:locked="false"
       inkscape:color="rgb(0,0,255)" />
    <sodipodi:guide
       position="-2.6458333,22.754167"
       orientation="0,-256"
       id="guide3355" />
    <sodipodi:guide
       position="5.2916667,70.379167"
       orientation="-256,0"
       id="guide3357" />
    <sodipodi:guide
       position="0,67.733334"
       orientation="0,256"
       id="guide3359" />
    <sodipodi:guide
       position="67.733334,67.733334"
       orientation="256,0"
       id="guide3361" />
    <sodipodi:guide
       position="67.733334,0"
       orientation="0,-256"
       id="guide3363" />
    <sodipodi:guide
       position="0,0"
       orientation="-256,0"
       id="guide3365" />
    <sodipodi:guide
       position="0,67.733334"
       orientation="0,256"
       id="guide3367" />
    <sodipodi:guide
       position="67.733334,67.733334"
       orientation="256,0"
       id="guide3369" />
    <sodipodi:guide
       position="67.733334,0"
       orientation="0,-256"
       id="guide3371" />
    <sodipodi:guide
       position="0,0"
       orientation="-256,0"
       id="guide3373" />
    <sodipodi:guide
       position="0,67.733334"
       orientation="0,256"
       id="guide3375" />
    <sodipodi:guide
       position="67.733334,67.733334"
       orientation="256,0"
       id="guide3377" />
    <sodipodi:guide
       position="67.733334,0"
       orientation="0,-256"
       id="guide3379" />
    <sodipodi:guide
       position="0,0"
       orientation="-256,0"
       id="guide3381" />
    <sodipodi:guide
       position="33.866667,46.83125"
       orientation="1,0"
       id="guide895" />
    <sodipodi:guide
       position="41.010417,42.597917"
       orientation="0,-1"
       id="guide897" />
  </sodipodi:namedview>
  <metadata
     id="metadata5">
    <rdf:RDF>
      <cc:Work
         rdf:about="">
        <dc:format>image/svg+xml</dc:format>
        <dc:type
           rdf:resource="http://purl.org/dc/dcmitype/StillImage" />
        <dc:title />
      </cc:Work>
    </rdf:RDF>
  </metadata>
  <g
     inkscape:groupmode="layer"
     id="layer2"
     inkscape:label="Icon">
    <path
       id="path1085"
       style="color:#000000;font-style:normal;font-variant:normal;font-weight:normal;font-stretch:normal;font-size:medium;line-height:normal;font-family:sans-serif;font-variant-ligatures:normal;font-variant-position:normal;font-variant-caps:normal;font-variant-numeric:normal;font-variant-alternates:normal;font-variant-east-asian:normal;font-feature-settings:normal;font-variation-settings:normal;text-indent:0;text-align:start;text-decoration:none;text-decoration-line:none;text-decoration-style:solid;text-decoration-color:#000000;letter-spacing:normal;word-spacing:normal;text-transform:none;writing-mode:lr-tb;direction:ltr;text-orientation:mixed;dominant-baseline:auto;baseline-shift:baseline;text-anchor:start;white-space:normal;shape-padding:0;shape-margin:0;inline-size:0;clip-rule:nonzero;display:inline;overflow:visible;visibility:visible;opacity:1;isolation:auto;mix-blend-mode:normal;color-interpolation:sRGB;color-interpolation-filters:linearRGB;solid-color:#000000;solid-opacity:1;vector-effect:none;fill:#808080;fill-opacity:1;fill-rule:nonzero;stroke:#808080;stroke-width:0.26458333;stroke-linecap:butt;stroke-linejoin:miter;stroke-miterlimit:4;stroke-dasharray:none;stroke-dashoffset:0;stroke-opacity:1;color-rendering:auto;image-rendering:auto;shape-rendering:auto;text-rendering:auto;enable-background:accumulate;stop-color:#000000;stop-opacity:1"
       d="m 10.342071,9.7242683 -0.8572873,0.6231677 -0.426922,0.310552 -0.997759,0.725768 0.518502,0.714061 0.311243,0.427611 0.311927,0.4283 0.621789,0.855221 0.3105523,0.426233 0.311244,0.427611 0.622477,0.856598 0.310552,0.427611 0.311239,0.42761 0.622481,0.855911 0.310552,0.42761 0.311239,0.427611 0.621791,0.854532 0.31193,0.428989 0.310552,0.426922 0.621791,0.85591 0.311238,0.426233 0.311239,0.428988 0.621794,0.855221 0.310549,0.426922 0.311242,0.427611 0.622479,0.856599 0.310551,0.427611 0.311238,0.42761 0.622483,0.855909 0.310552,0.426923 0.311238,0.427611 0.310551,0.426921 0.05371,0.07437 c 0.103934,-0.238528 0.235489,-0.46364 0.394561,-0.667237 0.06609,-0.105826 0.139817,-0.203224 0.216903,-0.294715 l -0.119124,-0.163193 -0.310552,-0.426922 -0.310552,-0.42761 -0.623169,-0.85591 -0.310551,-0.427611 -0.310552,-0.427611 -0.623169,-0.85591 -0.311239,-0.427611 -0.310552,-0.42761 L 16.27973,20.884153 15.967115,20.455165 15.656563,20.028243 15.03546,19.173022 14.724908,18.7461 14.412291,18.317112 13.7905,17.46189 13.479948,17.03428 13.169398,16.608047 12.546228,15.75076 12.235677,15.32315 11.925125,14.896227 11.301955,14.039628 10.99072,13.612013 10.680169,13.185091 10.059065,12.331247 9.7464477,11.90157 l -0.205886,-0.284384 0.140473,-0.101909 0.4276093,-0.311241 0.310552,0.427611 0.310552,0.426923 0.310552,0.427611 0.623166,0.855908 0.31055,0.427611 0.310552,0.427611 0.623169,0.855911 0.311239,0.427609 0.310552,0.427612 0.621103,0.854533 0.312618,0.428987 0.310551,0.426923 0.621104,0.855221 0.311239,0.426922 0.31193,0.428987 0.621791,0.855221 0.310552,0.427611 0.310551,0.426234 0.623169,0.857287 0.310552,0.42761 0.310548,0.426922 0.623169,0.8566 0.311239,0.42761 0.31055,0.426922 0.621104,0.854532 0.28783,0.396626 c 0.307498,-0.204518 0.652413,-0.339051 1.014973,-0.406954 L 21.541198,25.122384 21.228581,24.692708 20.607478,23.838863 20.29693,23.411941 19.985687,22.983641 19.362522,22.127732 19.05197,21.700121 18.741418,21.27251 18.11825,20.4166 17.807698,19.988991 17.497146,19.562068 16.875356,18.706846 16.562738,18.277859 16.252186,17.850936 15.631084,16.995715 15.320532,16.568793 15.007914,16.139806 14.386812,15.285272 14.07626,14.857662 13.76502,14.430051 13.141852,13.574141 12.8313,13.14653 12.520748,12.71892 11.897582,11.862322 11.587031,11.435399 11.27648,11.007788 10.654689,10.153945 Z m 24.318717,0.2045094 -0.538472,0.6989123 -0.322946,0.41797 -0.324323,0.420727 -0.644513,0.835939 -0.322947,0.41866 -0.322944,0.418659 -0.646583,0.838695 -0.322944,0.417971 -0.322947,0.418658 -0.646579,0.838696 -0.322259,0.418659 -0.322944,0.417971 -0.645204,0.837319 -0.324323,0.420036 -0.322257,0.41797 -0.645894,0.837318 -0.322257,0.41797 -0.324321,0.420725 -0.645205,0.83663 -0.322256,0.417971 -0.322948,0.418658 -0.646578,0.838695 -0.322948,0.417971 -0.322944,0.419348 -0.646582,0.838006 -0.322256,0.41866 -0.322948,0.41797 -0.322256,0.41866 -0.05578,0.0723 c 0.258131,0.03266 0.511156,0.09531 0.751246,0.190738 0.12019,0.03362 0.234138,0.07638 0.343604,0.124628 l 0.122562,-0.159064 0.322261,-0.41797 0.322944,-0.418658 0.646582,-0.838696 0.322944,-0.418659 0.322256,-0.417971 0.64727,-0.838695 0.322948,-0.418659 0.322256,-0.41866 0.645203,-0.835941 0.324323,-0.420725 0.322256,-0.41797 0.645892,-0.837318 0.322259,-0.41797 0.324323,-0.420725 0.645203,-0.83663 0.322944,-0.418658 0.322261,-0.417971 0.646579,-0.838695 0.322947,-0.41866 0.322943,-0.417971 0.646583,-0.838695 0.322943,-0.418658 0.322257,-0.418659 0.645204,-0.835941 0.324323,-0.420725 0.214153,-0.278188 0.138402,0.106732 0.417972,0.322258 -0.322257,0.41797 -0.322948,0.418658 -0.322256,0.417971 -0.646578,0.838695 -0.322948,0.41866 -0.322948,0.418659 -0.646578,0.838007 -0.322948,0.419347 -0.322256,0.417971 -0.645205,0.83663 -0.324321,0.420035 -0.322257,0.41866 -0.645892,0.836629 -0.322259,0.41797 -0.324323,0.420725 -0.645891,0.837319 -0.322257,0.41797 -0.322256,0.417971 -0.64727,0.838695 -0.322946,0.418658 -0.322257,0.41866 -0.646579,0.838695 -0.322948,0.418659 -0.322944,0.417971 -0.644515,0.836629 -0.299535,0.388361 c 0.282743,0.237567 0.508381,0.530533 0.675502,0.859353 l 0.138406,-0.180409 0.324323,-0.420036 0.645203,-0.83663 0.322944,-0.41797 0.322948,-0.419347 0.646578,-0.838007 0.322263,-0.418654 0.322948,-0.418659 0.646579,-0.838696 0.322947,-0.41797 0.322256,-0.41866 0.645892,-0.836628 0.323634,-0.420725 0.322948,-0.417971 0.645201,-0.837318 0.322948,-0.417971 0.323634,-0.420036 0.645204,-0.83663 0.322944,-0.418658 0.322948,-0.418659 0.646578,-0.838696 0.32226,-0.417971 0.322944,-0.418659 0.64727,-0.838695 0.322256,-0.417971 0.322257,-0.418658 0.645894,-0.83663 0.324323,-0.420725 -0.839384,-0.647268 -0.41866,-0.322258 z m -22.759074,12.5762973 -0.07024,0.524013 -1.242893,9.260079 22.016092,2.953335 0.234117,-1.745559 9.432225,1.264928 -0.07024,0.524013 1.050779,0.140469 0.07024,-0.523323 1.746248,0.234119 0.234121,-1.746247 5.241498,0.703043 0.375281,-2.795652 -5.241503,-0.703731 0.234809,-1.749005 -1.74625,-0.234118 0.07024,-0.523324 -1.05078,-0.14116 -0.07024,0.523324 L 33.683,27.20535 33.917118,25.458413 27.774947,24.634178 c -0.24904,0.323038 -0.498109,0.646487 -0.747112,0.969526 l 5.698033,0.764329 -1.030811,7.686662 -19.915225,-2.671705 1.030812,-7.686663 3.684611,0.494403 c -0.286683,-0.394792 -0.5744,-0.790018 -0.861418,-1.185054 z m 9.538953,1.279391 c 0.265605,0.365075 0.531879,0.732008 0.797376,1.096913 0.230756,-0.29901 0.461288,-0.598194 0.692031,-0.897225 z m -8.176246,0.50542 -0.04682,0.348424 -0.281631,2.096738 5.993434,0.804266 c -0.189689,-0.261724 -0.3823,-0.525841 -0.572215,-0.787741 l -4.628659,-0.621102 0.140469,-1.048026 3.628837,0.48683 c -0.190403,-0.262394 -0.382314,-0.525897 -0.572902,-0.788428 z m 9.042484,1.715263 c -0.699987,0.02341 -1.385491,0.346514 -1.844715,0.941982 -0.816394,1.058612 -0.618621,2.589338 0.440003,3.405737 1.058612,0.816398 2.589346,0.618611 3.405737,-0.440006 0.81639,-1.058618 0.618607,-2.589342 -0.440007,-3.405736 -0.463141,-0.357177 -1.016584,-0.520186 -1.561018,-0.501977 z m 4.348406,0.08125 c -0.165577,0.214827 -0.331599,0.429686 -0.497155,0.644514 l 5.181592,0.69547 -0.140471,1.047337 -5.772398,-0.773968 c 0.06377,0.238045 0.09148,0.48102 0.09158,0.723012 l 6.286084,0.843516 0.327767,-2.445161 z M 22.4942,26.70819 c 0.330761,0.02116 0.658851,0.138495 0.942673,0.357376 0.756853,0.583679 0.8963,1.659378 0.312613,2.416241 -0.583683,0.756859 -1.659385,0.896297 -2.416239,0.312617 -0.756853,-0.583686 -0.8963,-1.659387 -0.312617,-2.416244 0.364802,-0.473036 0.922297,-0.705253 1.47357,-0.669992 z m -0.103974,0.446202 a 1.2843075,1.2843075 0 0 0 -1.2849,1.284899 1.2843075,1.2843075 0 0 0 1.2849,1.284208 1.2843075,1.2843075 0 0 0 1.284206,-1.284208 1.2843075,1.2843075 0 0 0 -1.284206,-1.284899 z m -9.547908,0.279566 -0.04682,0.348423 -0.422099,3.147519 9.432911,1.265615 0.08952,-0.667239 c -0.235583,-0.04116 -0.464529,-0.109584 -0.684448,-0.204506 l -0.01026,0.0778 -8.035087,-1.077634 0.281631,-2.096739 5.850897,0.784987 c -0.04565,-0.233625 -0.06164,-0.473464 -0.04408,-0.718192 z m 20.699522,0.82148 9.432911,1.265617 -0.09433,0.698915 -9.432224,-1.265619 z m -8.10532,0.868304 c -0.05583,0.234619 -0.139013,0.462175 -0.245826,0.678945 l 5.726955,0.768459 -0.280944,2.09674 -7.686661,-1.031502 0.0172,-0.128759 c -0.240447,0.05317 -0.481122,0.07154 -0.719568,0.05991 l -0.09021,0.674815 9.084489,1.218794 0.468926,-3.495943 z m 18.588324,0.537785 0.696159,0.09365 -0.09365,0.698913 -0.696156,-0.09365 z m -10.717122,0.339472 9.432912,1.265619 -0.09434,0.698911 -9.432221,-1.265616 z m 10.483004,1.406777 0.696159,0.09295 -0.09365,0.698912 -0.696158,-0.09365 z m 1.746248,0.234119 4.19141,0.561884 -0.09434,0.698911 -4.190722,-0.561883 z M 33.072917,31.75 l 9.432912,1.265616 -0.09365,0.696159 -9.432221,-1.265616 z m 18.852741,0.55982 -0.14116,1.047334 1.050088,0.141163 0.140473,-1.047338 z m 2.096049,0.281631 -0.140473,1.047334 1.048026,0.140473 0.140468,-1.047336 z m 2.097426,0.28094 -0.140471,1.048026 1.047334,0.140472 0.140473,-1.048025 z m 2.097428,0.281631 -0.140472,1.04734 1.046647,0.140468 0.140472,-1.047335 z m -14.660643,0.0028 0.696158,0.09297 -0.09365,0.696159 -0.696159,-0.09297 z m 16.754625,0.27819 -0.140471,1.047335 1.050091,0.14116 0.140473,-1.048026 z" />
  </g>
</svg>
