<?xml version="1.0" encoding="UTF-8" standalone="no"?>
<svg
   xmlns:dc="http://purl.org/dc/elements/1.1/"
   xmlns:cc="http://creativecommons.org/ns#"
   xmlns:rdf="http://www.w3.org/1999/02/22-rdf-syntax-ns#"
   xmlns:svg="http://www.w3.org/2000/svg"
   xmlns="http://www.w3.org/2000/svg"
   xmlns:sodipodi="http://sodipodi.sourceforge.net/DTD/sodipodi-0.dtd"
   xmlns:inkscape="http://www.inkscape.org/namespaces/inkscape"
   width="256"
   height="256"
   viewBox="0 0 67.733332 67.733335"
   version="1.1"
   id="svg8"
   inkscape:version="1.0.1 (3bc2e813f5, 2020-09-07)"
   sodipodi:docname="weapon-power.svg"
   inkscape:export-filename="C:\Users\keath\Workspace\KMX\elite-streamdeck-icons\ship-lights.png"
   inkscape:export-xdpi="96"
   inkscape:export-ydpi="96">
  <defs
     id="defs2" />
  <sodipodi:namedview
     id="base"
     pagecolor="#000000"
     bordercolor="#666666"
     borderopacity="1.0"
     inkscape:pageopacity="0"
     inkscape:pageshadow="2"
     inkscape:zoom="5.6"
     inkscape:cx="111.90634"
     inkscape:cy="121.54987"
     inkscape:document-units="px"
     inkscape:current-layer="layer2"
     showgrid="true"
     units="px"
     inkscape:snap-grids="true"
     objecttolerance="10000"
     guidetolerance="10000"
     inkscape:window-width="2973"
     inkscape:window-height="1895"
     inkscape:window-x="4344"
     inkscape:window-y="103"
     inkscape:window-maximized="0"
     inkscape:document-rotation="0"
     showguides="true"
     inkscape:guide-bbox="true">
    <inkscape:grid
       type="xygrid"
       id="grid4623" />
    <sodipodi:guide
       position="-3.96875,62.441667"
       orientation="0,256"
       id="guide3351" />
    <sodipodi:guide
       position="62.441667,42.597917"
       orientation="-1,0"
       id="guide3353"
       inkscape:label=""
       inkscape:locked="false"
       inkscape:color="rgb(0,0,255)" />
    <sodipodi:guide
       position="-2.6458333,22.754167"
       orientation="0,-256"
       id="guide3355" />
    <sodipodi:guide
       position="5.2916667,70.379167"
       orientation="-256,0"
       id="guide3357" />
    <sodipodi:guide
       position="0,67.733334"
       orientation="0,256"
       id="guide3359" />
    <sodipodi:guide
       position="67.733334,67.733334"
       orientation="256,0"
       id="guide3361" />
    <sodipodi:guide
       position="67.733334,0"
       orientation="0,-256"
       id="guide3363" />
    <sodipodi:guide
       position="0,0"
       orientation="-256,0"
       id="guide3365" />
    <sodipodi:guide
       position="0,67.733334"
       orientation="0,256"
       id="guide3367" />
    <sodipodi:guide
       position="67.733334,67.733334"
       orientation="256,0"
       id="guide3369" />
    <sodipodi:guide
       position="67.733334,0"
       orientation="0,-256"
       id="guide3371" />
    <sodipodi:guide
       position="0,0"
       orientation="-256,0"
       id="guide3373" />
    <sodipodi:guide
       position="0,67.733334"
       orientation="0,256"
       id="guide3375" />
    <sodipodi:guide
       position="67.733334,67.733334"
       orientation="256,0"
       id="guide3377" />
    <sodipodi:guide
       position="67.733334,0"
       orientation="0,-256"
       id="guide3379" />
    <sodipodi:guide
       position="0,0"
       orientation="-256,0"
       id="guide3381" />
    <sodipodi:guide
       position="33.866667,46.83125"
       orientation="1,0"
       id="guide895" />
    <sodipodi:guide
       position="41.010417,42.597917"
       orientation="0,-1"
       id="guide897" />
  </sodipodi:namedview>
  <metadata
     id="metadata5">
    <rdf:RDF>
      <cc:Work
         rdf:about="">
        <dc:format>image/svg+xml</dc:format>
        <dc:type
           rdf:resource="http://purl.org/dc/dcmitype/StillImage" />
        <dc:title></dc:title>
      </cc:Work>
    </rdf:RDF>
  </metadata>
  <g
     inkscape:groupmode="layer"
     id="layer2"
     inkscape:label="Icon">
    <path
       id="path881"
       style="color:#000000;font-style:normal;font-variant:normal;font-weight:normal;font-stretch:normal;font-size:medium;line-height:normal;font-family:sans-serif;font-variant-ligatures:normal;font-variant-position:normal;font-variant-caps:normal;font-variant-numeric:normal;font-variant-alternates:normal;font-variant-east-asian:normal;font-feature-settings:normal;font-variation-settings:normal;text-indent:0;text-align:start;text-decoration:none;text-decoration-line:none;text-decoration-style:solid;text-decoration-color:#000000;letter-spacing:normal;word-spacing:normal;text-transform:none;writing-mode:lr-tb;direction:ltr;text-orientation:mixed;dominant-baseline:auto;baseline-shift:baseline;text-anchor:start;white-space:normal;shape-padding:0;shape-margin:0;inline-size:0;clip-rule:nonzero;display:inline;overflow:visible;visibility:visible;isolation:auto;mix-blend-mode:normal;color-interpolation:sRGB;color-interpolation-filters:linearRGB;solid-color:#000000;solid-opacity:1;vector-effect:none;fill:#808080;fill-opacity:1;fill-rule:nonzero;stroke:none;stroke-width:0.264583;stroke-linecap:butt;stroke-linejoin:miter;stroke-miterlimit:4;stroke-dasharray:none;stroke-dashoffset:0;stroke-opacity:1;color-rendering:auto;image-rendering:auto;shape-rendering:auto;text-rendering:auto;enable-background:accumulate;stop-color:#000000"
       d="m 14.838751,8.2258214 -0.0931,0.068033 -0.742538,0.539336 -0.370597,0.2689966 -0.956035,0.6955419 0.516062,0.7121031 0.268996,0.370597 0.270787,0.37015 0.539784,0.741196 0.268997,0.368808 0.268548,0.37015 0.539784,0.742985 0.268996,0.37015 0.268997,0.370598 0.539784,0.740748 0.268996,0.370597 0.268996,0.370598 0.537546,0.738958 0.270787,0.372388 0.268997,0.368807 0.537993,0.742537 0.270787,0.368808 0.268996,0.370598 0.537994,0.740747 0.268996,0.370598 0.27034,0.370598 0.539783,0.740748 0.268997,0.370598 0.268997,0.370596 0.539336,0.742539 0.268996,0.368807 0.268996,0.37015 0.268997,0.370598 0.164262,0.226924 0.07967,-0.184404 c 0.08643,-0.198339 0.196655,-0.385011 0.328078,-0.553211 l 0.0031,-0.0054 0.0036,-0.0049 c 0.05371,-0.08599 0.113549,-0.166019 0.177689,-0.242142 l 0.05729,-0.06893 -0.155292,-0.213489 -0.268997,-0.37015 -0.268997,-0.370598 -0.539783,-0.741194 -0.268997,-0.370151 -0.268996,-0.370597 -0.539784,-0.740748 -0.268996,-0.370598 -0.26855,-0.370597 -0.537993,-0.738958 -0.270787,-0.372388 -0.268996,-0.368807 -0.537993,-0.740747 -0.268997,-0.370598 -0.27213,-0.372388 -0.537994,-0.738958 -0.268996,-0.370598 -0.268996,-0.370597 -0.539784,-0.742538 -0.268997,-0.368808 -0.268997,-0.37015 -0.539336,-0.742986 -0.268996,-0.37015 -0.268997,-0.368807 -0.537992,-0.739405 -0.270788,-0.372388 -0.111447,-0.153521 0.02865,-0.02059 0.277501,-0.2027551 0.201411,0.2770531 0.268549,0.370598 0.268997,0.370598 0.541573,0.740747 0.268997,0.370598 0.268996,0.370598 0.539336,0.740748 0.268997,0.370597 0.268997,0.370597 0.537993,0.738958 0.270787,0.372388 0.268996,0.370598 0.537994,0.738957 0.268996,0.370597 0.27034,0.371941 0.537993,0.741195 0.268996,0.370598 0.268998,0.36836 0.539782,0.742985 0.268998,0.37015 0.270786,0.368808 0.539336,0.742986 0.268996,0.37015 0.268998,0.368806 0.537992,0.741196 0.31286,0.431021 0.0931,-0.06087 c 0.252728,-0.168092 0.535605,-0.278599 0.835636,-0.334791 l 0.177689,-0.03223 -0.219762,-0.306146 -0.272578,-0.37194 -0.537993,-0.739406 -0.268997,-0.370596 -0.268996,-0.37015 -0.539336,-0.742986 -0.268996,-0.368806 -0.268997,-0.37015 -0.539784,-0.742986 -0.268997,-0.37015 -0.268996,-0.368807 -0.537993,-0.741196 -0.27213,-0.37194 L 20.025331,15.358035 19.487337,14.61684 19.216551,14.24669 18.94576,13.876093 18.408215,13.135345 18.139218,12.764748 17.870222,12.39415 17.330438,11.653402 17.061442,11.282805 16.792445,10.912207 16.252662,10.171459 15.983665,9.8008615 15.715116,9.4302637 15.177123,8.6913064 Z m 21.017094,0.1763472 -0.07117,0.091307 -0.465485,0.6055779 -0.280635,0.3616461 -0.280633,0.363884 -0.558582,0.7241874 -0.278844,0.363436 -0.279291,0.362094 -0.561715,0.725977 -0.278843,0.361646 -0.279291,0.363884 -0.559924,0.72553 -0.279291,0.363885 -0.280634,0.362093 -0.558135,0.72374 -0.281081,0.363883 -0.278844,0.362093 -0.559924,0.725531 -0.279291,0.362094 -0.280634,0.363883 -0.558134,0.72553 -0.279291,0.362094 -0.279291,0.362094 -0.559925,0.72732 -0.280633,0.362093 -0.279291,0.362094 -0.559925,0.72553 -0.278844,0.363884 -0.281081,0.361646 -0.278844,0.362094 -0.169186,0.221552 0.197832,0.02552 c 0.214719,0.02717 0.424319,0.07875 0.622586,0.157549 l 0.0049,0.0014 0.0068,0.0018 c 0.09792,0.02739 0.191598,0.06336 0.282424,0.103392 l 0.08146,0.03535 0.160682,-0.208125 0.278844,-0.361647 0.281081,-0.363883 0.559925,-0.72553 0.278843,-0.362094 0.279291,-0.362094 0.561715,-0.72732 0.279291,-0.362093 0.278844,-0.362094 0.558134,-0.724187 0.281081,-0.365227 0.278844,-0.362094 0.559924,-0.72553 0.279291,-0.362093 0.280634,-0.363884 0.558582,-0.72374 0.280634,-0.363884 0.279291,-0.362093 0.559924,-0.72553 0.278843,-0.362094 0.279291,-0.362093 0.561715,-0.727321 0.278844,-0.362093 0.279291,-0.363437 0.558135,-0.724187 0.281081,-0.363884 0.116371,-0.150387 0.02909,0.02372 0.27213,0.209916 -0.209469,0.270339 -0.281081,0.362094 -0.278843,0.362093 -0.559925,0.72553 -0.279291,0.363885 -0.280634,0.362093 -0.560372,0.72553 -0.278843,0.363885 -0.279291,0.362093 -0.558135,0.72374 -0.280634,0.363883 -0.279291,0.363437 -0.559924,0.724188 -0.279292,0.362093 -0.280633,0.363883 -0.559925,0.72553 -0.279291,0.362094 -0.278843,0.362094 -0.559925,0.72553 -0.281081,0.363884 -0.278844,0.361646 -0.559925,0.727768 -0.279291,0.361646 -0.279291,0.362093 -0.558134,0.724187 -0.326287,0.424755 0.0828,0.06938 c 0.232352,0.19523 0.418015,0.436353 0.556344,0.708521 l 0.08325,0.162472 0.230057,-0.301222 0.280634,-0.363437 0.559925,-0.724186 0.279291,-0.362094 0.278843,-0.363436 0.561715,-0.725978 0.279291,-0.362094 0.278843,-0.361646 0.559926,-0.727768 0.279291,-0.362093 0.279291,-0.361646 0.559924,-0.725977 0.280634,-0.363437 0.279291,-0.362093 0.558134,-0.725978 0.280634,-0.361646 0.279291,-0.363884 0.559924,-0.724188 0.278843,-0.361645 0.279292,-0.363885 0.559924,-0.72553 0.279291,-0.362093 0.280635,-0.363883 0.559924,-0.725531 0.279291,-0.362094 0.278843,-0.362094 0.559925,-0.725977 0.350457,-0.45475 -0.817285,-0.6310898 -0.362093,-0.279291 z m -19.79072,10.9245744 -0.01522,0.115029 -0.06087,0.4534 -1.091204,8.133456 19.2948,2.587917 0.203202,-1.512378 7.942336,1.065691 -0.06087,0.453399 1.138201,0.152627 0.06087,-0.453402 1.512379,0.202756 0.201413,-1.512379 4.540268,0.609158 0.35538,-2.647444 -4.538926,-0.610501 0.203202,-1.51417 -1.512379,-0.203203 0.06087,-0.4534 -1.138202,-0.152177 -0.06131,0.4534 -7.94189,-1.065693 0.202754,-1.514168 -5.497646,-0.737167 -0.04073,0.05237 c -0.215725,0.279823 -0.432456,0.560795 -0.648098,0.840559 l -0.119952,0.157548 5.01739,0.671373 -0.86249,6.431748 -17.021532,-2.28401 0.862938,-6.429957 3.34254,0.448477 -0.157549,-0.21663 C 19.986442,20.506957 19.737682,20.164311 19.489129,19.82222 l -0.02909,-0.03894 z m 8.109733,1.087624 0.157101,0.21663 c 0.229995,0.316124 0.461949,0.634531 0.691961,0.950663 l 0.08996,0.123533 0.09265,-0.1204 c 0.199902,-0.259027 0.399046,-0.518941 0.598864,-0.777897 l 0.12219,-0.157549 z m -6.929012,0.458323 -0.01522,0.113239 -0.04073,0.303012 -0.258702,1.92863 5.568812,0.747462 -0.157101,-0.21663 c -0.164428,-0.22687 -0.331558,-0.454998 -0.495921,-0.681667 l -0.02864,-0.04028 -3.943195,-0.528147 0.09131,-0.681667 3.293754,0.443106 -0.157557,-0.216184 c -0.164989,-0.227379 -0.330467,-0.456168 -0.495473,-0.683458 l -0.02864,-0.04073 z m 7.925328,1.500742 c -0.63898,0.02137 -1.26418,0.315814 -1.683354,0.859356 -0.745189,0.966273 -0.565244,2.365509 0.401033,3.110693 0.96627,0.745186 2.365963,0.565242 3.11114,-0.401033 0.745179,-0.966277 0.563444,-2.365512 -0.402823,-3.110692 -0.422741,-0.326021 -0.929018,-0.474946 -1.425996,-0.458324 z m 3.719853,0.06221 -0.04028,0.05282 c -0.143356,0.185994 -0.286223,0.371989 -0.429678,0.558135 l -0.122191,0.157101 4.571152,0.612739 -0.08996,0.679877 -5.057673,-0.676743 0.04565,0.166052 c 0.05236,0.195355 0.07421,0.394401 0.0743,0.595284 v 0.101601 l 5.658328,0.757755 0.31465,-2.344432 z m -3.726118,0.774317 c 0.05489,-0.0031 0.110084,-0.0031 0.165157,4.58e-4 0.264365,0.01692 0.526933,0.110411 0.754623,0.286004 0.607005,0.46812 0.718294,1.324789 0.250198,1.931763 -0.468121,0.607012 -1.324791,0.718733 -1.931762,0.250646 -0.607004,-0.468126 -0.718294,-1.324795 -0.250198,-1.931763 0.255992,-0.331945 0.627794,-0.515367 1.011982,-0.537098 z m 0.08235,0.157995 c -0.676707,-3.2e-4 -1.226686,0.551458 -1.226374,1.228165 5.2e-5,0.676451 0.549923,1.226686 1.226374,1.226373 0.676195,-5.1e-5 1.228112,-0.550177 1.228164,-1.226373 3.21e-4,-0.676451 -0.551713,-1.228114 -1.228164,-1.228165 z m -8.366645,0.228267 -0.01522,0.113238 -0.04073,0.301223 -0.380892,2.840354 8.397528,1.126563 0.106525,-0.800278 -0.108315,-0.01835 c -0.195241,-0.03412 -0.38433,-0.09229 -0.566639,-0.170977 l -0.140541,-0.05908 -0.01343,0.102944 -6.73118,-0.901431 0.213496,-1.590257 5.111831,0.687038 -0.03044,-0.157549 c -0.03771,-0.192756 -0.05158,-0.390416 -0.03715,-0.592143 l 0.0085,-0.106525 z m 18.123926,0.969462 7.944129,1.065692 -0.05237,0.377311 -7.942337,-1.065691 z m -7.206065,0.495473 -0.02372,0.101601 c -0.04626,0.194485 -0.116104,0.383108 -0.204993,0.563505 l -0.06938,0.141883 5.003963,0.67182 -0.213049,1.589811 -6.429958,-0.86249 0.02193,-0.160681 -0.160682,0.03536 c -0.197954,0.04377 -0.395234,0.05884 -0.592151,0.04923 l -0.104734,-0.0054 -0.108315,0.802066 8.096306,1.085833 0.436392,-3.254366 z m 16.28526,0.722397 0.377313,0.05102 -0.05058,0.376863 -0.377311,-0.05057 z m -9.281949,0.294509 7.944128,1.065692 -0.05282,0.37731 -7.941889,-1.065691 z m 9.080539,1.217869 0.37552,0.04924 -0.05058,0.378653 -0.37552,-0.05057 z m 1.512376,0.203203 3.40207,0.454744 -0.05058,0.3791 -3.402068,-0.456531 z m -10.796117,0.0931 7.942337,1.065691 -0.04879,0.375521 -7.944127,-1.065691 z m 16.13174,0.226475 -0.01522,0.113238 -0.136958,1.021831 1.136855,0.152177 0.15218,-1.133277 z m 1.816733,0.245274 -0.01522,0.113241 -0.136961,1.020039 1.135066,0.152177 0.15039,-1.133277 z m 1.815393,0.242144 -0.01522,0.115028 -0.135617,1.020038 1.133278,0.152178 0.152624,-1.135066 z m 1.816733,0.245275 -0.01522,0.113238 -0.136961,1.020038 1.135066,0.152177 0.15218,-1.133276 z m 1.813153,0.243484 -0.01522,0.113239 -0.135171,1.020038 1.135069,0.152177 0.152177,-1.135066 z m -14.314557,0.01522 0.377311,0.05058 -0.05057,0.375521 -0.377313,-0.05057 z" />
    <g
       id="g1680"
       transform="translate(-63.499997,-75.406245)">
      <rect
         style="fill:#808080;fill-opacity:1;stroke:#808080;stroke-width:1.5875;stroke-linecap:square;stroke-linejoin:miter;stroke-miterlimit:4;stroke-dasharray:none;stroke-dashoffset:0;stroke-opacity:1;paint-order:markers stroke fill"
         id="rect1641"
         width="5.2916665"
         height="5.2916665"
         x="82.284355"
         y="113.77083" />
      <rect
         style="fill:#808080;fill-opacity:1;stroke:#808080;stroke-width:1.5875;stroke-linecap:square;stroke-linejoin:miter;stroke-miterlimit:4;stroke-dasharray:none;stroke-dashoffset:0;stroke-opacity:1;paint-order:markers stroke fill"
         id="rect1641-0"
         width="5.2916665"
         height="5.2916665"
         x="90.751556"
         y="113.77083" />
      <rect
         style="fill:#808080;fill-opacity:1;stroke:#808080;stroke-width:1.5875;stroke-linecap:square;stroke-linejoin:miter;stroke-miterlimit:4;stroke-dasharray:none;stroke-dashoffset:0;stroke-opacity:1;paint-order:markers stroke fill"
         id="rect1641-1"
         width="5.2916665"
         height="5.2916665"
         x="99.21875"
         y="113.77083" />
      <rect
         style="fill:none;fill-opacity:1;stroke:#808080;stroke-width:1.5875;stroke-linecap:square;stroke-linejoin:miter;stroke-miterlimit:4;stroke-dasharray:none;stroke-dashoffset:0;stroke-opacity:1;paint-order:markers stroke fill"
         id="rect1641-15"
         width="5.2916665"
         height="5.2916665"
         x="107.68594"
         y="113.77083" />
    </g>
  </g>
</svg>
